<svg width="30" height="30" viewBox="0 0 30 30" fill="none" xmlns="http://www.w3.org/2000/svg">
<path d="M0 3.325C0 1.48833 1.48833 0 3.325 0H26.675C28.5117 0 30 1.48833 30 3.325V26.675C30 27.5568 29.6497 28.4026 29.0261 29.0261C28.4026 29.6497 27.5568 30 26.675 30H3.325C2.44315 30 1.59743 29.6497 0.97387 29.0261C0.350311 28.4026 0 27.5568 0 26.675V3.325ZM5.595 25H24.745C23.671 23.4557 22.2392 22.1943 20.5718 21.3236C18.9044 20.4529 17.051 19.9988 15.17 20C13.289 19.9988 11.4356 20.4529 9.76818 21.3236C8.10079 22.1943 6.66896 23.4557 5.595 25ZM15 16.6667C15.766 16.6667 16.5246 16.5158 17.2323 16.2226C17.9401 15.9295 18.5831 15.4998 19.1248 14.9581C19.6665 14.4164 20.0961 13.7734 20.3893 13.0657C20.6824 12.3579 20.8333 11.5994 20.8333 10.8333C20.8333 10.0673 20.6824 9.30875 20.3893 8.60101C20.0961 7.89328 19.6665 7.25022 19.1248 6.70854C18.5831 6.16687 17.9401 5.73719 17.2323 5.44404C16.5246 5.15088 15.766 5 15 5C13.4529 5 11.9692 5.61458 10.8752 6.70854C9.78125 7.80251 9.16667 9.28624 9.16667 10.8333C9.16667 12.3804 9.78125 13.8642 10.8752 14.9581C11.9692 16.0521 13.4529 16.6667 15 16.6667Z" fill="#FCFCFC"/>
</svg>
