<svg width="66" height="66" viewBox="0 0 66 66" fill="none" xmlns="http://www.w3.org/2000/svg">
<path d="M55.9353 9.58567C49.6354 3.33824 41.3855 -0.059218 32.7381 0.000781299C14.8283 0.14328 0.143483 14.8281 0.000984639 32.7379C-0.0665146 41.4003 3.33845 49.6352 9.58587 55.9351C15.9383 62.3325 24.6907 66 33.6006 66H64.8227C65.4752 66 66.0002 65.475 66.0002 64.83V33.6004C66.0002 24.6905 62.3327 15.9381 55.9353 9.58567ZM64.5302 64.53H33.6006C25.0732 64.53 16.7033 61.0201 10.6284 54.8926C4.65843 48.8702 1.40347 41.0103 1.47097 32.7379C1.61347 15.6306 15.6383 1.59826 32.7456 1.46326H32.9931C41.1605 1.46326 48.9454 4.71073 54.9003 10.6207C61.0203 16.7031 64.5377 25.0655 64.5377 33.5929V64.53H64.5302Z" fill="#9C92C5"/>
<path d="M48.1214 45.1727C44.7764 41.8353 39.3465 41.8353 36.009 45.1727L34.6891 46.4927C34.1641 47.0252 33.2041 47.1077 32.5891 46.6652C30.3916 45.0827 28.2466 43.2527 26.2292 41.2278C24.2042 39.2103 22.3817 37.0728 20.7917 34.8679C20.3492 34.2604 20.4317 33.3004 20.9642 32.7679L22.1417 31.5904C25.5617 28.1704 25.5617 22.613 22.1417 19.208C18.7293 15.7881 13.1718 15.7881 9.75936 19.208L8.58187 20.3855C8.56687 20.4005 8.53687 20.438 8.49937 20.4755C8.43938 20.5355 8.40188 20.588 8.36438 20.633C2.85194 26.8504 6.7069 39.8703 17.1468 50.3252C24.3692 57.5401 32.8141 61.6125 39.4065 61.6125C42.3465 61.6125 44.9189 60.795 46.8314 59.1001C46.8764 59.0626 46.9289 59.0251 46.9889 58.9651C47.0264 58.9351 47.0564 58.9051 47.0789 58.8826L48.3989 57.5626C51.7364 54.2251 51.7364 48.7952 48.3989 45.4502L48.1214 45.1727ZM47.3564 56.5276L46.2014 57.6826L45.8939 57.9676C45.3914 58.4251 44.8139 58.8001 44.199 59.1151C43.9515 59.2426 43.6965 59.3551 43.4265 59.4526C42.639 59.7525 41.784 59.9475 40.869 60.0525C40.5615 60.0825 40.254 60.105 39.9315 60.12C39.774 60.1275 39.6165 60.1275 39.4515 60.1275C36.3615 60.1275 32.7616 59.1376 29.0791 57.2851C28.6141 57.0601 28.1566 56.8051 27.6916 56.5501C24.4592 54.7426 21.1967 52.2901 18.1893 49.2827C8.43938 39.5403 4.53942 27.1129 9.49686 21.5855C9.50436 21.578 9.52686 21.548 9.54186 21.533C9.56436 21.5105 9.58686 21.488 9.60936 21.4655C9.64686 21.413 9.69186 21.368 9.73686 21.323L10.5019 20.558C10.5394 20.528 10.5768 20.4905 10.6068 20.453L10.8093 20.2505C12.1893 18.878 14.0118 18.113 15.9618 18.113C17.9043 18.113 19.7417 18.878 21.1142 20.2505C23.9492 23.093 23.9492 27.7204 21.1142 30.5629L19.9367 31.7404C18.8868 32.7829 18.7443 34.5379 19.6067 35.7378C21.2342 37.9953 23.1092 40.1928 25.1867 42.2778C27.2642 44.3552 29.4691 46.2302 31.7266 47.8577C32.9266 48.7202 34.6816 48.5777 35.7241 47.5277L37.0365 46.2152C39.8115 43.4477 44.3114 43.4402 47.0789 46.2152L47.3489 46.4852C50.1164 49.2527 50.1164 53.7526 47.3564 56.5276Z" fill="#9C92C5"/>
<path d="M30.6457 28.5003C32.6482 29.1603 34.3882 30.2177 35.8207 31.6427C37.2531 33.0752 38.3031 34.8152 38.9631 36.8177C39.2406 37.6427 39.9831 38.1302 40.8531 38.1302C41.1006 38.1302 41.3556 38.0927 41.6181 38.0102L42.0156 37.8902C42.8106 37.6427 43.5231 37.0427 43.9206 36.2777C44.2506 35.6402 44.3331 34.9652 44.1381 34.3802C43.2756 31.7177 41.8731 29.4003 39.9681 27.4878C38.0556 25.5828 35.7382 24.1803 33.0757 23.3178C32.4907 23.1303 31.8157 23.2053 31.1782 23.5353C30.4132 23.9328 29.8132 24.6528 29.5657 25.4403L29.4457 25.8378C29.0857 27.0303 29.5882 28.1478 30.6457 28.5003ZM30.8557 26.2653L30.9832 25.8753C31.1107 25.4478 31.4557 25.0503 31.8682 24.8328C32.0557 24.7278 32.2582 24.6753 32.4232 24.6753C32.4982 24.6753 32.5732 24.6903 32.6332 24.7128C35.0707 25.5003 37.1856 26.7828 38.9331 28.5228C40.6806 30.2627 41.9631 32.3852 42.7431 34.8227C42.8181 35.0327 42.7731 35.3177 42.6231 35.5952C42.4056 36.0152 42.0081 36.3602 41.5806 36.4802L41.1906 36.6077C40.8756 36.7052 40.4706 36.6977 40.3581 36.3527C39.6231 34.1327 38.4456 32.1977 36.8556 30.6002C35.2657 29.0103 33.3307 27.8253 31.1032 27.0978C30.7657 26.9853 30.7582 26.5878 30.8557 26.2653Z" fill="#9C92C5"/>
<path d="M37.7116 7.38065C36.4066 7.11815 34.8916 8.12314 34.4491 9.53313L34.3291 9.93812C34.1266 10.6056 34.1791 11.2581 34.4941 11.7831C34.7641 12.2481 35.2141 12.5556 35.7541 12.6606C39.1216 13.3281 42.174 14.5656 44.8215 16.358C46.059 17.1905 47.2215 18.143 48.2715 19.1855C49.3139 20.2355 50.2664 21.3905 51.0989 22.6355C52.8914 25.2904 54.1289 28.3429 54.7964 31.7029C54.9014 32.2429 55.2164 32.6929 55.6739 32.9628C55.9889 33.1578 56.3639 33.2553 56.7539 33.2553C57.0014 33.2553 57.2564 33.2103 57.5263 33.1278L57.9313 33.0003C59.3488 32.5654 60.3538 31.0429 60.0838 29.7304C58.9513 23.993 56.3039 18.9155 52.4189 15.0306C48.5415 11.1531 43.4565 8.50564 37.7116 7.38065ZM57.5038 31.6129L57.0989 31.7404C56.8364 31.8229 56.5964 31.8154 56.4314 31.7179C56.3264 31.6504 56.2664 31.5529 56.2439 31.4254C55.5389 27.8704 54.2264 24.6454 52.3289 21.8255C51.4439 20.5055 50.4314 19.268 49.3139 18.158C48.1965 17.0405 46.9665 16.028 45.6465 15.1431C42.834 13.2456 39.6016 11.9331 36.0466 11.2281C35.9116 11.1981 35.8216 11.1381 35.7541 11.0331C35.6566 10.8756 35.6491 10.6356 35.7316 10.3731L35.8591 9.96812C36.0466 9.33813 36.7066 8.80563 37.2841 8.80563C37.3366 8.80563 37.3966 8.81313 37.4491 8.82813C42.9765 9.90812 47.6715 12.3456 51.4064 16.0805C55.1339 19.8155 57.5788 24.5029 58.6663 30.0604C58.7713 30.6229 58.2013 31.4029 57.5038 31.6129Z" fill="#9C92C5"/>
<path d="M50.8889 28.2154C50.8814 28.2079 50.8814 28.1929 50.8739 28.1779C49.7339 25.5604 48.1664 23.2354 46.2014 21.2705C44.2364 19.3055 41.9115 17.738 39.294 16.598L39.204 16.5605C38.004 16.0505 36.7215 15.6305 35.409 15.308C34.0666 14.978 32.4841 15.983 32.0266 17.4605L31.8991 17.8505C31.7041 18.503 31.7491 19.1405 32.0491 19.6655C32.3041 20.1155 32.7316 20.4305 33.2416 20.558C36.7065 21.398 39.669 23.0329 42.0465 25.4179C44.4239 27.8029 46.0664 30.7653 46.9064 34.2228C47.0414 34.7328 47.3564 35.1603 47.7989 35.4153C48.1139 35.5878 48.4664 35.6778 48.8414 35.6778C49.0964 35.6778 49.3514 35.6328 49.6139 35.5578L50.0039 35.4303C51.4889 34.9728 52.4938 33.3978 52.1639 32.0478C51.8489 30.7428 51.4139 29.4454 50.8889 28.2154ZM49.5764 34.0428L49.1864 34.1628C48.9389 34.2453 48.6914 34.2378 48.5339 34.1478C48.4289 34.0878 48.3689 33.9978 48.3464 33.8778C47.4389 30.1579 45.6689 26.9629 43.089 24.3904C40.5165 21.8105 37.3215 20.0405 33.6016 19.133C33.4741 19.103 33.3916 19.043 33.3316 18.9455C33.2416 18.7805 33.2341 18.548 33.3166 18.293L33.4366 17.903C33.6466 17.198 34.3591 16.718 34.8916 16.718C34.9516 16.718 35.0116 16.7255 35.0641 16.7405C36.3015 17.048 37.509 17.4455 38.649 17.9255L38.7165 17.9555C41.169 19.013 43.3365 20.483 45.1664 22.3204C46.9964 24.1429 48.4664 26.3179 49.5314 28.7554C49.5314 28.7704 49.5389 28.7779 49.5464 28.7929C50.0414 29.9479 50.4464 31.1778 50.7539 32.4228C50.8814 32.9403 50.3564 33.8028 49.5764 34.0428Z" fill="#9C92C5"/>
</svg>
