<svg width="454" height="654" viewBox="0 0 454 654" fill="none" xmlns="http://www.w3.org/2000/svg">
<g clip-path="url(#clip0_119_5274)">
<path d="M395.21 449.757C409.713 435.241 409.713 411.705 395.21 397.189C380.706 382.673 357.191 382.673 342.688 397.189C328.185 411.705 328.185 435.241 342.688 449.757C357.191 464.273 380.706 464.273 395.21 449.757Z" fill="#0AEDC7"/>
<path d="M368.742 426.892C375.586 425.376 379.907 418.593 378.392 411.743C376.877 404.892 370.1 400.568 363.255 402.084C356.411 403.601 352.091 410.383 353.606 417.234C355.121 424.084 361.897 428.409 368.742 426.892Z" fill="#5287E0"/>
<path d="M361.772 415.342C364.053 414.837 365.493 412.576 364.988 410.292C364.483 408.009 362.224 406.567 359.943 407.073C357.661 407.578 356.221 409.839 356.726 412.123C357.231 414.406 359.49 415.848 361.772 415.342Z" fill="#191970"/>
<path d="M367.482 398.343C352.293 398.315 341.631 395.6 341.656 381.827C341.682 368.055 354.015 356.912 369.204 356.941C384.392 356.969 396.684 368.156 396.659 381.929C396.633 395.702 382.67 398.371 367.482 398.343Z" fill="#6414E9"/>
<path d="M427.158 429.686C422.801 444.813 410.08 455.402 396.811 464.398C394.958 465.654 393.105 466.881 391.251 468.079C391.239 468.085 391.226 468.097 391.213 468.102C391.124 468.16 391.034 468.217 390.951 468.275C390.569 468.522 390.186 468.769 389.806 469.013L390.015 469.107C390.015 469.107 390.219 469.215 389.996 469.124C389.929 469.096 389.859 469.071 389.793 469.043C382.084 465.931 374.238 462.59 368.331 456.761C362.203 450.707 358.621 441.213 361.94 433.26C362.376 432.219 362.927 431.229 363.582 430.31C363.851 429.924 364.141 429.555 364.443 429.193C366.274 426.957 368.666 425.249 371.374 424.246C374.083 423.242 377.009 422.978 379.853 423.482C382.697 423.985 385.356 425.238 387.556 427.111C389.756 428.984 391.418 431.41 392.37 434.138C393.345 425.054 385.861 417.444 378.658 411.829C371.452 406.217 363.264 400.105 361.871 391.071C361.093 386.044 362.84 381.173 366.021 377.263C366.12 377.144 366.218 377.025 366.319 376.91C370.192 372.355 375.639 369.43 381.572 368.72C392.621 367.57 403.353 373.424 411.38 381.113C424.3 393.485 432.11 412.487 427.158 429.686Z" fill="#E6E6E6"/>
<path d="M406.389 409.9C408.51 413.203 410.138 416.797 411.222 420.569C412.139 423.941 412.547 427.431 412.433 430.923C412.137 438.11 410.121 445.121 406.555 451.366C403.869 456.103 400.595 460.482 396.811 464.398C394.959 465.654 393.105 466.881 391.251 468.079C391.239 468.085 391.226 468.097 391.213 468.102C391.124 468.16 391.035 468.217 390.951 468.275C390.569 468.522 390.186 468.769 389.807 469.013C389.807 469.013 390.22 469.216 389.996 469.124C389.929 469.096 389.859 469.071 389.793 469.043C390.484 463.374 389.807 457.621 387.819 452.267C385.831 446.914 382.59 442.115 378.368 438.273C374.135 434.49 369.069 431.761 363.583 430.31C363.852 429.924 364.142 429.555 364.443 429.193C366.562 429.788 368.625 430.569 370.606 431.527C377.689 434.932 383.489 440.528 387.147 447.489C390.43 453.809 391.843 460.936 391.22 468.032C391.536 467.744 391.853 467.451 392.161 467.16C398.019 461.694 403.222 455.42 406.743 448.179C409.798 442.047 411.299 435.257 411.115 428.408C410.827 420.939 407.854 414.021 403.549 407.999C398.831 401.574 393.258 395.825 386.984 390.911C380.66 385.842 373.741 381.566 366.381 378.18C366.215 378.102 366.085 377.964 366.018 377.793C365.951 377.622 365.952 377.432 366.021 377.263C366.07 377.11 366.178 376.983 366.32 376.91C366.393 376.878 366.472 376.863 366.551 376.867C366.631 376.87 366.709 376.891 366.779 376.929C367.688 377.348 368.59 377.772 369.485 378.215C376.942 381.904 383.912 386.506 390.235 391.915C396.343 397.127 402.093 403.081 406.389 409.9Z" fill="#5287E0"/>
<path d="M63.566 471.611C68.7586 471.611 72.9681 470.031 72.9681 468.082C72.9681 466.133 68.7586 464.553 63.566 464.553C58.3733 464.553 54.1638 466.133 54.1638 468.082C54.1638 470.031 58.3733 471.611 63.566 471.611Z" fill="#0AEDC7"/>
<path d="M86.1311 471.14C91.3238 471.14 95.5333 469.56 95.5333 467.611C95.5333 465.662 91.3238 464.082 86.1311 464.082C80.9385 464.082 76.729 465.662 76.729 467.611C76.729 469.56 80.9385 471.14 86.1311 471.14Z" fill="#0AEDC7"/>
<path d="M116.087 411.826C124.972 406.699 130.871 400.28 129.263 397.489C127.655 394.697 119.149 396.59 110.264 401.716C101.379 406.843 95.4802 413.262 97.0882 416.053C98.6961 418.845 107.202 416.952 116.087 411.826Z" fill="#0AEDC7"/>
<path d="M108.113 424.796C111.398 404.532 97.649 385.439 77.4029 382.151C57.1568 378.862 38.0806 392.624 34.7951 412.888C31.5096 433.152 45.2589 452.245 65.5051 455.533C85.7512 458.821 104.827 445.06 108.113 424.796Z" fill="#0AEDC7"/>
<path d="M65.4464 447.614H54.1638V467.847H65.4464V447.614Z" fill="#0AEDC7"/>
<path d="M88.3778 448.014H77.0952V468.247H88.3778V448.014Z" fill="#0AEDC7"/>
<path d="M72.0278 421.735C79.0379 421.735 84.7207 416.048 84.7207 409.031C84.7207 402.015 79.0379 396.327 72.0278 396.327C65.0178 396.327 59.335 402.015 59.335 409.031C59.335 416.048 65.0178 421.735 72.0278 421.735Z" fill="#5287E0"/>
<path d="M72.0278 413.266C74.3645 413.266 76.2588 411.37 76.2588 409.031C76.2588 406.693 74.3645 404.797 72.0278 404.797C69.6911 404.797 67.7969 406.693 67.7969 409.031C67.7969 411.37 69.6911 413.266 72.0278 413.266Z" fill="#191970"/>
<path d="M35.0622 383.874C32.0635 370.432 41.6493 356.85 56.4728 353.537C71.2962 350.224 85.744 358.435 88.7427 371.877C91.7414 385.318 81.9174 390.276 67.0939 393.589C52.2705 396.901 38.061 397.315 35.0622 383.874Z" fill="#6414E9"/>
<path d="M46.4015 409.559C47.7812 406.647 41.3879 400.721 32.1218 396.323C22.8557 391.924 14.2256 390.718 12.846 393.63C11.4663 396.541 17.8595 402.467 27.1256 406.866C36.3918 411.265 45.0219 412.47 46.4015 409.559Z" fill="#0AEDC7"/>
<path d="M52.8455 431.852C52.8455 435.49 62.2046 442.674 72.5899 442.674C82.9752 442.674 92.7126 432.431 92.7126 428.793C92.7126 425.155 82.9751 429.499 72.5899 429.499C62.2046 429.499 52.8455 428.214 52.8455 431.852Z" fill="#5287E0"/>
<path d="M200.586 471.611C205.779 471.611 209.988 470.031 209.988 468.082C209.988 466.133 205.779 464.553 200.586 464.553C195.394 464.553 191.184 466.133 191.184 468.082C191.184 470.031 195.394 471.611 200.586 471.611Z" fill="#0AEDC7"/>
<path d="M178.021 471.14C183.214 471.14 187.423 469.56 187.423 467.611C187.423 465.662 183.214 464.082 178.021 464.082C172.828 464.082 168.619 465.662 168.619 467.611C168.619 469.56 172.828 471.14 178.021 471.14Z" fill="#0AEDC7"/>
<path d="M167.064 416.053C168.672 413.262 162.773 406.843 153.888 401.716C145.003 396.59 136.497 394.697 134.889 397.489C133.281 400.28 139.18 406.699 148.065 411.826C156.95 416.952 165.456 418.845 167.064 416.053Z" fill="#0AEDC7"/>
<path d="M193.065 455.613C213.576 455.613 230.203 438.971 230.203 418.442C230.203 397.913 213.576 381.271 193.065 381.271C172.554 381.271 155.926 397.913 155.926 418.442C155.926 438.971 172.554 455.613 193.065 455.613Z" fill="#0AEDC7"/>
<path d="M209.988 447.614H198.706V467.847H209.988V447.614Z" fill="#0AEDC7"/>
<path d="M187.423 447.614H176.141V467.847H187.423V447.614Z" fill="#0AEDC7"/>
<path d="M184.363 421.735C191.373 421.735 197.056 416.048 197.056 409.031C197.056 402.015 191.373 396.327 184.363 396.327C177.353 396.327 171.67 402.015 171.67 409.031C171.67 416.048 177.353 421.735 184.363 421.735Z" fill="#5287E0"/>
<path d="M181.305 410.288C182.963 408.631 182.973 405.951 181.329 404.303C179.684 402.656 177.007 402.664 175.349 404.322C173.691 405.98 173.681 408.659 175.325 410.307C176.97 411.954 179.647 411.946 181.305 410.288Z" fill="#191970"/>
<path d="M197.058 393.679C182.235 390.366 172.411 385.408 175.41 371.967C178.408 358.525 192.856 350.314 207.68 353.627C222.503 356.94 232.089 370.522 229.09 383.964C226.091 397.405 211.882 396.992 197.058 393.679Z" fill="#6414E9"/>
<path d="M231.901 446.776C235.012 445.949 235.401 437.236 232.768 427.316C230.135 417.395 225.479 410.023 222.367 410.851C219.255 411.678 218.867 420.391 221.5 430.311C224.132 440.232 228.789 447.603 231.901 446.776Z" fill="#0AEDC7"/>
<path d="M184.651 429.5C177.833 429.5 171.44 425.156 171.44 428.794C171.44 432.432 177.832 442.674 184.651 442.674C191.469 442.674 197.613 435.49 197.613 431.852C197.613 428.214 191.469 429.5 184.651 429.5Z" fill="#5287E0"/>
<path d="M136.655 356.81H133.357C130.403 356.807 127.57 355.631 125.481 353.54C123.392 351.449 122.217 348.614 122.213 345.657V342.885C122.213 336.021 123.513 330.274 126.076 325.803C129.182 320.602 132.805 315.729 136.891 311.258C139.604 308.528 142.065 305.559 144.245 302.387C145.809 299.922 146.617 297.053 146.568 294.133C146.568 287.247 142.085 283.9 132.865 283.9C127.75 283.958 122.667 284.721 117.761 286.169C115.868 286.71 113.877 286.803 111.942 286.443C110.008 286.082 108.183 285.277 106.612 284.091C105.042 282.905 103.767 281.37 102.89 279.607C102.012 277.844 101.555 275.901 101.555 273.932V268.322C101.544 265.907 102.234 263.54 103.54 261.509C104.846 259.479 106.712 257.871 108.913 256.88C117.578 253.179 126.923 251.339 136.344 251.479C146.213 251.479 155.121 253.138 162.823 256.41C170.539 259.689 176.635 264.313 180.942 270.154C185.236 275.953 187.518 282.998 187.441 290.216C187.441 297.966 185.327 304.717 181.157 310.28C177.033 315.786 171.122 321.814 163.586 328.198C159.616 331.502 155.854 335.05 152.321 338.819C150.04 341.279 148.427 344.284 147.638 347.547C147.198 350.142 145.853 352.496 143.843 354.193C141.832 355.889 139.285 356.816 136.655 356.81Z" fill="#6414E9"/>
<path d="M134.822 409.262H134.387C128.911 409.259 123.661 407.079 119.791 403.203C115.92 399.326 113.746 394.07 113.746 388.59C113.746 383.11 115.92 377.854 119.791 373.977C123.661 370.101 128.911 367.921 134.387 367.918H134.822C137.535 367.916 140.222 368.449 142.73 369.488C145.237 370.526 147.515 372.048 149.435 373.968C151.354 375.888 152.877 378.167 153.915 380.676C154.954 383.185 155.489 385.874 155.489 388.59C155.489 391.306 154.954 393.995 153.915 396.504C152.877 399.013 151.354 401.292 149.435 403.212C147.515 405.132 145.237 406.654 142.73 407.692C140.222 408.73 137.535 409.264 134.822 409.262Z" fill="#6414E9"/>
<path d="M269.048 472H0.862333C0.633628 472 0.414303 471.909 0.252584 471.747C0.0908652 471.585 0 471.366 0 471.137C0 470.908 0.0908652 470.688 0.252584 470.527C0.414303 470.365 0.633628 470.274 0.862333 470.274H269.048C269.276 470.274 269.496 470.365 269.658 470.527C269.819 470.688 269.91 470.908 269.91 471.137C269.91 471.366 269.819 471.585 269.658 471.747C269.496 471.909 269.276 472 269.048 472Z" fill="#FD696C"/>
<path d="M450.138 472H306.991C306.762 472 306.542 471.909 306.381 471.747C306.219 471.585 306.128 471.366 306.128 471.137C306.128 470.908 306.219 470.688 306.381 470.527C306.542 470.365 306.762 470.274 306.991 470.274H450.138C450.366 470.274 450.586 470.365 450.747 470.527C450.909 470.688 451 470.908 451 471.137C451 471.366 450.909 471.585 450.747 471.747C450.586 471.909 450.366 472 450.138 472Z" fill="#FD696C"/>
<path d="M361.292 446.789C371.546 446.588 379.807 443.814 379.744 440.592C379.681 437.37 371.318 434.921 361.064 435.122C350.811 435.323 342.55 438.097 342.613 441.319C342.675 444.541 351.039 446.99 361.292 446.789Z" fill="#0AEDC7"/>
<path d="M185.541 224.292H163.12C161.977 224.29 160.881 223.835 160.073 223.026C159.264 222.217 158.81 221.12 158.808 219.976V197.536C158.81 196.392 159.264 195.295 160.073 194.486C160.881 193.677 161.977 193.222 163.12 193.22H185.541C186.684 193.222 187.78 193.677 188.588 194.486C189.396 195.295 189.851 196.392 189.852 197.536V219.976C189.851 221.12 189.396 222.217 188.588 223.026C187.78 223.835 186.684 224.29 185.541 224.292ZM163.12 194.946C162.434 194.947 161.777 195.22 161.292 195.706C160.807 196.191 160.534 196.849 160.533 197.536V219.976C160.534 220.663 160.807 221.321 161.292 221.806C161.777 222.292 162.434 222.565 163.12 222.565H185.541C186.227 222.565 186.884 222.292 187.369 221.806C187.854 221.321 188.127 220.663 188.128 219.976V197.536C188.127 196.849 187.854 196.191 187.369 195.706C186.884 195.22 186.227 194.947 185.541 194.946H163.12Z" fill="#0AEDC7"/>
<path d="M171.743 213.071H149.323C148.18 213.07 147.084 212.615 146.275 211.806C145.467 210.997 145.012 209.9 145.011 208.756V186.315C145.012 185.171 145.467 184.074 146.275 183.265C147.084 182.456 148.18 182.001 149.323 182H171.743C172.886 182.001 173.982 182.456 174.791 183.265C175.599 184.074 176.054 185.171 176.055 186.315V208.756C176.054 209.9 175.599 210.997 174.791 211.806C173.982 212.615 172.886 213.07 171.743 213.071ZM149.323 183.726C148.637 183.727 147.979 184 147.494 184.485C147.009 184.971 146.736 185.629 146.736 186.315V208.756C146.736 209.442 147.009 210.101 147.494 210.586C147.979 211.071 148.637 211.344 149.323 211.345H171.743C172.429 211.344 173.087 211.071 173.572 210.586C174.057 210.101 174.33 209.442 174.33 208.756V186.315C174.33 185.629 174.057 184.971 173.572 184.485C173.087 184 172.429 183.727 171.743 183.726H149.323Z" fill="#0AEDC7"/>
<path d="M276.999 345.675C280.079 345.675 282.576 343.176 282.576 340.093C282.576 337.011 280.079 334.512 276.999 334.512C273.919 334.512 271.422 337.011 271.422 340.093C271.422 343.176 273.919 345.675 276.999 345.675Z" fill="#0AEDC7"/>
<path d="M52.7924 325.824C55.8723 325.824 58.369 323.325 58.369 320.242C58.369 317.159 55.8723 314.661 52.7924 314.661C49.7126 314.661 47.2158 317.159 47.2158 320.242C47.2158 323.325 49.7126 325.824 52.7924 325.824Z" fill="#0AEDC7"/>
<path d="M428.769 374.157C431.849 374.157 434.346 371.658 434.346 368.575C434.346 365.493 431.849 362.994 428.769 362.994C425.69 362.994 423.193 365.493 423.193 368.575C423.193 371.658 425.69 374.157 428.769 374.157Z" fill="#0AEDC7"/>
<path d="M432 204C432 207.314 429.314 210 426 210C422.686 210 420 207.314 420 204C420 200.686 422.686 198 426 198C429.314 198 432 200.686 432 204ZM421.634 204C421.634 206.411 423.589 208.366 426 208.366C428.411 208.366 430.366 206.411 430.366 204C430.366 201.589 428.411 199.634 426 199.634C423.589 199.634 421.634 201.589 421.634 204Z" fill="#0AEDC7"/>
</g>
<path d="M426.349 536.689L425.213 536.395C424.196 536.129 423.326 535.468 422.795 534.556C422.263 533.644 422.114 532.555 422.379 531.528L422.628 530.567C423.246 528.185 424.211 526.307 425.496 524.984C427.034 523.457 428.721 522.09 430.531 520.903C431.711 520.198 432.826 519.388 433.862 518.482C434.623 517.767 435.159 516.843 435.405 515.826C436.025 513.436 434.782 511.874 431.606 511.05C429.839 510.613 428.02 510.424 426.199 510.488C425.499 510.507 424.804 510.361 424.17 510.063C423.537 509.765 422.981 509.323 422.546 508.771C422.112 508.219 421.811 507.572 421.668 506.882C421.524 506.192 421.541 505.477 421.719 504.794L422.224 502.847C422.437 502.008 422.888 501.248 423.52 500.66C424.153 500.072 424.941 499.681 425.788 499.534C429.106 499.024 432.49 499.221 435.723 500.111C439.122 500.993 442.042 502.364 444.4 504.188C446.763 506.015 448.447 508.164 449.404 510.576C450.361 512.972 450.513 515.62 449.837 518.118C449.139 520.808 447.804 522.961 445.867 524.519C443.951 526.061 441.372 527.625 438.202 529.167C436.536 529.959 434.921 530.854 433.365 531.846C432.358 532.496 431.532 533.394 430.966 534.456C430.581 535.317 429.906 536.014 429.061 536.423C428.215 536.832 427.255 536.926 426.349 536.689Z" fill="#6414E9"/>
<path d="M420.997 554.726L420.847 554.688C418.961 554.197 417.349 552.972 416.364 551.281C415.38 549.59 415.104 547.572 415.598 545.67C416.091 543.768 417.313 542.139 418.995 541.139C420.677 540.14 422.682 539.853 424.568 540.341L424.718 540.38C425.653 540.622 426.53 541.047 427.301 541.631C428.071 542.215 428.719 542.947 429.207 543.785C429.695 544.622 430.015 545.549 430.147 546.513C430.279 547.476 430.221 548.457 429.976 549.4C429.732 550.342 429.306 551.227 428.722 552.005C428.138 552.783 427.409 553.438 426.575 553.933C425.741 554.427 424.819 554.752 423.862 554.888C422.905 555.024 421.931 554.969 420.997 554.726Z" fill="#6414E9"/>
<path d="M411.91 230.549L411.231 230.983C410.623 231.37 409.884 231.498 409.177 231.339C408.47 231.18 407.853 230.746 407.461 230.134L407.094 229.559C406.186 228.135 405.693 226.773 405.628 225.509C405.58 224.022 405.681 222.536 405.93 221.072C406.127 220.149 406.241 219.21 406.27 218.266C406.266 217.549 406.052 216.848 405.655 216.249C404.744 214.821 403.378 214.716 401.48 215.927C400.435 216.611 399.49 217.437 398.671 218.382C398.353 218.743 397.956 219.024 397.51 219.203C397.064 219.382 396.582 219.455 396.101 219.416C395.621 219.376 395.155 219.225 394.741 218.975C394.328 218.725 393.976 218.382 393.716 217.973L392.973 216.81C392.651 216.31 392.48 215.729 392.48 215.136C392.48 214.544 392.652 213.965 392.974 213.47C394.268 211.564 395.948 209.955 397.906 208.747C399.937 207.45 401.991 206.624 404.009 206.29C406.032 205.957 407.899 206.115 409.558 206.76C411.21 207.399 412.612 208.56 413.551 210.067C414.577 211.674 415.035 213.352 414.913 215.053C414.793 216.737 414.374 218.764 413.667 221.077C413.287 222.284 412.982 223.514 412.754 224.76C412.61 225.57 412.676 226.405 412.945 227.185C413.198 227.781 413.233 228.446 413.043 229.062C412.854 229.678 412.452 230.205 411.91 230.549Z" fill="#6414E9"/>
<path d="M418.474 241.668L418.385 241.725C417.257 242.443 415.888 242.681 414.578 242.386C413.268 242.09 412.125 241.286 411.4 240.149C410.674 239.013 410.426 237.637 410.71 236.325C410.994 235.013 411.786 233.871 412.913 233.151L413.002 233.094C413.561 232.737 414.185 232.494 414.838 232.38C415.492 232.266 416.162 232.282 416.811 232.428C417.461 232.574 418.076 232.847 418.622 233.231C419.167 233.615 419.633 234.102 419.993 234.665C420.352 235.229 420.598 235.857 420.716 236.513C420.835 237.17 420.823 237.843 420.682 238.493C420.541 239.143 420.273 239.758 419.894 240.303C419.516 240.848 419.033 241.311 418.474 241.668Z" fill="#6414E9"/>
<path d="M225.128 606.816L224.456 607.204C223.854 607.55 223.138 607.642 222.465 607.459C221.793 607.275 221.218 606.832 220.867 606.226L220.539 605.658C219.726 604.25 219.31 602.918 219.302 601.7C219.319 600.268 219.479 598.843 219.782 597.446C220.011 596.567 220.16 595.668 220.228 594.762C220.255 594.072 220.08 593.389 219.724 592.796C218.909 591.384 217.6 591.224 215.722 592.308C214.688 592.921 213.744 593.675 212.916 594.549C212.595 594.882 212.2 595.135 211.764 595.289C211.327 595.442 210.86 595.491 210.4 595.433C209.94 595.374 209.499 595.209 209.111 594.951C208.724 594.692 208.401 594.347 208.168 593.944L207.503 592.793C207.215 592.299 207.075 591.733 207.101 591.162C207.126 590.592 207.316 590.043 207.646 589.581C208.972 587.804 210.657 586.328 212.592 585.249C214.601 584.089 216.611 583.382 218.567 583.148C220.526 582.914 222.315 583.145 223.883 583.837C225.444 584.522 226.743 585.699 227.582 587.188C228.499 588.778 228.868 590.411 228.678 592.042C228.491 593.656 228.001 595.587 227.223 597.782C226.806 598.926 226.46 600.096 226.187 601.285C226.014 602.057 226.041 602.863 226.267 603.625C226.485 604.209 226.49 604.85 226.281 605.434C226.073 606.019 225.664 606.508 225.128 606.816Z" fill="#6414E9"/>
<path d="M230.966 617.789L230.877 617.84C229.762 618.483 228.435 618.653 227.188 618.313C225.941 617.973 224.876 617.151 224.227 616.027C223.578 614.903 223.398 613.569 223.727 612.319C224.056 611.069 224.867 610.005 225.981 609.361L226.07 609.31C226.622 608.99 227.232 608.784 227.866 608.702C228.499 608.62 229.143 608.665 229.761 608.833C230.38 609.001 230.959 609.289 231.468 609.682C231.977 610.074 232.404 610.563 232.726 611.12C233.047 611.677 233.257 612.292 233.342 612.928C233.428 613.565 233.388 614.211 233.224 614.831C233.061 615.45 232.777 616.03 232.39 616.538C232.002 617.045 231.518 617.471 230.966 617.789Z" fill="#6414E9"/>
<circle cx="345.5" cy="95.5" r="3.5" fill="#0AEDC7"/>
<path d="M406.395 624.388H390.054C389.221 624.387 388.422 624.055 387.833 623.466C387.244 622.877 386.912 622.078 386.911 621.245V604.904C386.912 604.071 387.244 603.272 387.833 602.683C388.422 602.094 389.221 601.762 390.054 601.761H406.395C407.228 601.762 408.027 602.094 408.616 602.683C409.205 603.272 409.537 604.071 409.538 604.904V621.245C409.537 622.078 409.205 622.877 408.616 623.466C408.027 624.055 407.228 624.387 406.395 624.388ZM390.054 603.018C389.554 603.019 389.075 603.218 388.721 603.571C388.368 603.925 388.169 604.404 388.168 604.904V621.245C388.169 621.745 388.368 622.224 388.721 622.578C389.075 622.931 389.554 623.13 390.054 623.131H406.395C406.895 623.13 407.374 622.931 407.728 622.578C408.081 622.224 408.28 621.745 408.281 621.245V604.904C408.28 604.404 408.081 603.925 407.728 603.571C407.374 603.218 406.895 603.019 406.395 603.018H390.054Z" fill="#0AEDC7"/>
<path d="M95.7852 594.973H76.1756C75.1758 594.972 74.2173 594.575 73.5103 593.868C72.8033 593.161 72.4057 592.202 72.4045 591.202V571.593C72.4057 570.593 72.8033 569.634 73.5103 568.927C74.2173 568.22 75.1758 567.823 76.1756 567.822H95.7852C96.785 567.823 97.7434 568.22 98.4504 568.927C99.1574 569.634 99.5551 570.593 99.5562 571.593V591.202C99.5551 592.202 99.1574 593.161 98.4504 593.868C97.7434 594.575 96.785 594.972 95.7852 594.973ZM76.1756 569.33C75.5757 569.331 75.0006 569.569 74.5764 569.994C74.1522 570.418 73.9136 570.993 73.913 571.593V591.202C73.9136 591.802 74.1522 592.377 74.5764 592.801C75.0006 593.226 75.5757 593.464 76.1756 593.465H95.7852C96.385 593.464 96.9602 593.226 97.3844 592.801C97.8085 592.377 98.0471 591.802 98.0478 591.202V571.593C98.0471 570.993 97.8085 570.418 97.3844 569.994C96.9602 569.569 96.385 569.331 95.7852 569.33H76.1756Z" fill="#0AEDC7"/>
<path d="M413.937 613.074H397.596C396.763 613.073 395.964 612.742 395.375 612.153C394.786 611.564 394.455 610.765 394.454 609.932V593.591C394.455 592.757 394.786 591.959 395.375 591.369C395.964 590.78 396.763 590.449 397.596 590.448H413.937C414.771 590.449 415.569 590.78 416.159 591.369C416.748 591.959 417.079 592.757 417.08 593.591V609.932C417.079 610.765 416.748 611.564 416.159 612.153C415.569 612.742 414.771 613.073 413.937 613.074ZM397.596 591.705C397.096 591.706 396.617 591.904 396.263 592.258C395.91 592.611 395.711 593.091 395.711 593.591V609.932C395.711 610.432 395.91 610.911 396.263 611.265C396.617 611.618 397.096 611.817 397.596 611.817H413.937C414.437 611.817 414.917 611.618 415.27 611.265C415.624 610.911 415.822 610.432 415.823 609.932V593.591C415.822 593.091 415.624 592.611 415.27 592.258C414.917 591.904 414.437 591.706 413.937 591.705H397.596Z" fill="#0AEDC7"/>
<path d="M104.836 582.152H85.2261C84.2263 582.151 83.2678 581.753 82.5608 581.046C81.8539 580.339 81.4562 579.38 81.4551 578.381V558.771C81.4562 557.771 81.8539 556.813 82.5608 556.106C83.2678 555.399 84.2263 555.001 85.2261 555H104.836C105.835 555.001 106.794 555.399 107.501 556.106C108.208 556.813 108.606 557.771 108.607 558.771V578.381C108.606 579.38 108.208 580.339 107.501 581.046C106.794 581.753 105.835 582.151 104.836 582.152ZM85.2261 556.508C84.6263 556.509 84.0511 556.748 83.6269 557.172C83.2028 557.596 82.9642 558.171 82.9635 558.771V578.381C82.9642 578.981 83.2028 579.556 83.6269 579.98C84.0511 580.404 84.6263 580.643 85.2261 580.643H104.836C105.436 580.643 106.011 580.404 106.435 579.98C106.859 579.556 107.098 578.981 107.098 578.381V558.771C107.098 558.171 106.859 557.596 106.435 557.172C106.011 556.748 105.436 556.509 104.836 556.508H85.2261Z" fill="#0AEDC7"/>
<path d="M266.705 120.334L265.91 120.038C265.198 119.771 264.622 119.232 264.307 118.536C263.993 117.841 263.966 117.047 264.233 116.329L264.483 115.656C265.104 113.989 265.937 112.71 266.959 111.854C268.178 110.87 269.493 110.012 270.882 109.294C271.783 108.874 272.644 108.374 273.457 107.8C274.057 107.342 274.511 106.717 274.763 106.004C275.386 104.332 274.608 103.117 272.386 102.289C271.148 101.844 269.853 101.573 268.54 101.484C268.035 101.445 267.546 101.289 267.113 101.028C266.679 100.767 266.312 100.407 266.041 99.9782C265.769 99.5491 265.601 99.0619 265.549 98.5551C265.497 98.0483 265.562 97.5355 265.741 97.0573L266.248 95.695C266.464 95.1076 266.844 94.5949 267.342 94.219C267.841 93.8431 268.436 93.6202 269.056 93.5773C271.48 93.4566 273.899 93.8488 276.157 94.7287C278.536 95.6148 280.533 96.8175 282.094 98.3035C283.657 99.7925 284.708 101.463 285.218 103.268C285.728 105.061 285.641 106.977 284.97 108.723C284.269 110.605 283.149 112.054 281.64 113.03C280.148 113.997 278.178 114.93 275.784 115.804C274.529 116.25 273.301 116.773 272.108 117.372C271.336 117.764 270.675 118.349 270.19 119.07C269.849 119.661 269.312 120.112 268.674 120.343C268.036 120.575 267.338 120.571 266.705 120.334Z" fill="#6414E9"/>
<path d="M261.519 132.906L261.414 132.867C260.094 132.374 259.026 131.373 258.444 130.085C257.861 128.796 257.813 127.324 258.308 125.994C258.804 124.663 259.804 123.582 261.087 122.988C262.371 122.394 263.833 122.336 265.153 122.827L265.258 122.866C265.913 123.109 266.512 123.48 267.023 123.957C267.533 124.435 267.945 125.009 268.234 125.647C268.523 126.286 268.683 126.976 268.707 127.679C268.73 128.381 268.616 129.082 268.37 129.742C268.125 130.401 267.753 131.006 267.275 131.522C266.798 132.038 266.225 132.455 265.588 132.749C264.952 133.042 264.265 133.208 263.567 133.234C262.869 133.261 262.173 133.15 261.519 132.906Z" fill="#6414E9"/>
<path d="M112.359 67.1471L111.356 67.4474C110.458 67.7155 109.49 67.6133 108.663 67.1635C107.836 66.7136 107.219 65.9527 106.947 65.0478L106.693 64.1994C106.063 62.0981 105.931 60.2203 106.299 58.6182C106.766 56.7433 107.42 54.9216 108.252 53.181C108.826 52.0982 109.301 50.9651 109.673 49.7955C109.922 48.8987 109.904 47.9467 109.621 47.0575C108.99 44.9496 107.321 44.333 104.519 45.1726C102.97 45.6561 101.495 46.3526 100.137 47.2425C99.6115 47.5803 99.0148 47.7904 98.3939 47.8561C97.773 47.9219 97.1447 47.8416 96.5585 47.6215C95.9724 47.4014 95.4443 47.0476 95.0159 46.5878C94.5876 46.1281 94.2706 45.575 94.0899 44.9721L93.5753 43.2547C93.3504 42.5164 93.3428 41.7292 93.5534 40.9886C93.7639 40.248 94.1836 39.5858 94.7615 39.0822C97.0553 37.1601 99.7262 35.7459 102.602 34.931C105.601 34.0323 108.46 33.729 111.101 34.0292C113.746 34.3304 116.023 35.1909 117.867 36.5867C119.704 37.971 121.044 39.9198 121.682 42.1363C122.393 44.509 122.37 46.768 121.614 48.8506C120.865 50.9118 119.622 53.2955 117.918 55.9357C117.014 57.3089 116.197 58.7374 115.469 60.2131C115.001 61.1739 114.787 62.2406 114.846 63.3112C114.951 64.1456 114.758 64.9889 114.303 65.6913C113.847 66.3936 113.158 66.9095 112.359 67.1471Z" fill="#6414E9"/>
<path d="M116.613 83.3709L116.481 83.4105C114.816 83.908 113.021 83.7188 111.489 82.8846C109.958 82.0504 108.815 80.6394 108.312 78.9617C107.809 77.2841 107.988 75.4771 108.808 73.938C109.629 72.3989 111.024 71.2537 112.688 70.754L112.82 70.7144C113.645 70.4668 114.51 70.3854 115.367 70.4748C116.224 70.5643 117.056 70.8229 117.816 71.2358C118.575 71.6487 119.247 72.2079 119.793 72.8813C120.339 73.5548 120.748 74.3293 120.997 75.1607C121.246 75.9921 121.33 76.864 121.245 77.7266C121.159 78.5893 120.906 79.4257 120.498 80.1882C120.091 80.9506 119.539 81.6242 118.872 82.1703C118.205 82.7164 117.437 83.1243 116.613 83.3709Z" fill="#6414E9"/>
<path d="M185.537 564.051C185.537 567.799 182.497 570.839 178.749 570.839C175 570.839 171.961 567.799 171.961 564.051C171.961 560.302 175 557.263 178.749 557.263C182.497 557.263 185.537 560.302 185.537 564.051ZM173.81 564.051C173.81 566.778 176.021 568.989 178.749 568.989C181.476 568.989 183.687 566.778 183.687 564.051C183.687 561.323 181.476 559.112 178.749 559.112C176.021 559.112 173.81 561.323 173.81 564.051Z" fill="#0AEDC7"/>
<circle cx="170" cy="51" r="7" fill="#0AEDC7"/>
<circle cx="49.5" cy="108.5" r="3.5" fill="#0AEDC7"/>
<path d="M52 7C52 10.866 48.866 14 45 14C41.134 14 38 10.866 38 7C38 3.13401 41.134 0 45 0C48.866 0 52 3.13401 52 7ZM39.9069 7C39.9069 9.81285 42.1871 12.0931 45 12.0931C47.8128 12.0931 50.0931 9.81285 50.0931 7C50.0931 4.18715 47.8128 1.90688 45 1.90688C42.1871 1.90688 39.9069 4.18715 39.9069 7Z" fill="#0AEDC7"/>
<path d="M286.601 648.9C286.601 651.607 284.406 653.802 281.699 653.802C278.991 653.802 276.796 651.607 276.796 648.9C276.796 646.192 278.991 643.997 281.699 643.997C284.406 643.997 286.601 646.192 286.601 648.9ZM278.132 648.9C278.132 650.87 279.729 652.466 281.699 652.466C283.669 652.466 285.266 650.87 285.266 648.9C285.266 646.93 283.669 645.333 281.699 645.333C279.729 645.333 278.132 646.93 278.132 648.9Z" fill="#0AEDC7"/>
<path d="M286.601 580.266C286.601 582.974 284.406 585.169 281.699 585.169C278.991 585.169 276.796 582.974 276.796 580.266C276.796 577.559 278.991 575.364 281.699 575.364C284.406 575.364 286.601 577.559 286.601 580.266ZM278.132 580.266C278.132 582.236 279.729 583.833 281.699 583.833C283.669 583.833 285.266 582.236 285.266 580.266C285.266 578.296 283.669 576.699 281.699 576.699C279.729 576.699 278.132 578.296 278.132 580.266Z" fill="#0AEDC7"/>
<defs>
<clipPath id="clip0_119_5274">
<rect width="451" height="290" fill="white" transform="translate(0 182)"/>
</clipPath>
</defs>
</svg>
