<svg width="66" height="66" viewBox="0 0 66 66" fill="none" xmlns="http://www.w3.org/2000/svg">
<path d="M60.4018 26.0924L60.544 26.6602H61.1293H64.0664C64.72 26.6602 65.25 27.1901 65.25 27.8438V38.1562C65.25 38.8099 64.72 39.3398 64.0664 39.3398H61.1291H60.5438L60.4016 39.9076C59.7315 42.5832 58.6792 45.123 57.26 47.4911L56.9591 47.9932L57.3729 48.407L59.4503 50.4843C59.9125 50.9466 59.9125 51.6959 59.4503 52.1582L52.1582 59.4501C51.6959 59.9124 50.9466 59.9124 50.4843 59.4501L49.954 59.9805L50.4843 59.4501L48.407 57.3729L47.9931 56.9591L47.4911 57.26C45.1232 58.6791 42.583 59.7315 39.9076 60.4016L39.3398 60.5438V61.1291V64.0664C39.3398 64.72 38.8099 65.25 38.1562 65.25H27.8438C27.1901 65.25 26.6602 64.72 26.6602 64.0664V61.129V60.5437L26.0924 60.4015C23.417 59.7313 20.8768 58.679 18.5089 57.2598L18.0068 56.959L17.593 57.3728L15.5157 59.4501C15.0534 59.9124 14.3041 59.9124 13.8418 59.4501L6.54974 52.1582C6.0875 51.6959 6.0875 50.9466 6.54974 50.4843L8.62706 48.407L9.04093 47.9931L8.74003 47.4911C7.32076 45.1232 6.26854 42.5834 5.59824 39.9076L5.45602 39.3398H4.87072H1.93359C1.27995 39.3398 0.75 38.8099 0.75 38.1562V27.8438C0.75 27.1901 1.27995 26.6602 1.93359 26.6602H4.87072H5.45602L5.59824 26.0924C6.26854 23.4166 7.32076 20.8769 8.74003 18.5089L9.04092 18.0069L8.62708 17.593L6.54988 15.5157L6.54987 15.5157C6.08763 15.0534 6.08763 14.3041 6.54987 13.8418L6.01954 13.3115L6.54987 13.8418L13.8418 6.54974C14.3041 6.0875 15.0534 6.0875 15.5157 6.54974L17.593 8.62706L18.0069 9.04094L18.5089 8.74002C20.8767 7.32076 23.4169 6.26841 26.0924 5.59825L26.6602 5.45603V4.87072V1.93359C26.6602 1.27995 27.1901 0.75 27.8438 0.75H38.1562C38.8099 0.75 39.3398 1.27995 39.3398 1.93359V4.87072V5.45601L39.9076 5.59824C42.5831 6.26854 45.1233 7.32077 47.4911 8.74002L47.9931 9.04094L48.407 8.62706L50.4843 6.54974C50.9466 6.0875 51.6959 6.0875 52.1582 6.54974L59.4503 13.8418C59.9125 14.3041 59.9125 15.0534 59.4503 15.5157L57.3729 17.593L56.9591 18.0068L57.26 18.5089C58.6792 20.877 59.7315 23.4168 60.4018 26.0924ZM12.2695 33C12.2695 44.4314 21.5686 53.7305 33 53.7305C44.4314 53.7305 53.7305 44.4314 53.7305 33C53.7305 21.5686 44.4314 12.2695 33 12.2695C21.5686 12.2695 12.2695 21.5686 12.2695 33Z" stroke="#9C92C5" stroke-width="1.5"/>
<path d="M17.6367 33C17.6367 24.5293 24.5293 17.6367 33 17.6367C41.4706 17.6367 48.3633 24.5293 48.3633 33C48.3633 41.4706 41.4706 48.3633 33 48.3633C24.5293 48.3633 17.6367 41.4706 17.6367 33ZM33 44.3848C34.4821 44.3848 35.6836 43.1832 35.6836 41.7012V31.3887C35.6836 29.9066 34.4821 28.7051 33 28.7051C31.5179 28.7051 30.3164 29.9066 30.3164 31.3887V41.7012C30.3164 43.1832 31.5179 44.3848 33 44.3848ZM30.3164 23.6543C30.3164 25.1364 31.5179 26.3379 33 26.3379C34.4821 26.3379 35.6836 25.1364 35.6836 23.6543C35.6836 22.1722 34.4821 20.9707 33 20.9707C31.5179 20.9707 30.3164 22.1722 30.3164 23.6543Z" stroke="#9C92C5" stroke-width="1.5"/>
</svg>
