<svg width="66" height="66" viewBox="0 0 66 66" fill="none" xmlns="http://www.w3.org/2000/svg">
<path d="M19.665 40.791C19.4255 41.4054 19.4398 42.0899 19.7048 42.6938C19.9699 43.2977 20.464 43.7716 21.0785 44.0112C21.3827 44.1303 21.7073 44.1883 22.0339 44.1818C22.3609 44.1754 22.6834 44.1045 22.983 43.9732C23.2826 43.8419 23.5534 43.6528 23.7798 43.4167C24.0061 43.1806 24.1837 42.9022 24.3024 42.5974C25.7019 39.0075 29.1468 36.6538 33 36.6538C36.8536 36.6538 40.2983 39.007 41.6976 42.5971C41.8158 42.9016 41.9928 43.1798 42.2184 43.4158C42.4443 43.6521 42.7145 43.8414 43.0135 43.9731C43.3126 44.1049 43.6347 44.1763 43.9614 44.1835C44.2881 44.1907 44.6131 44.1334 44.9176 44.0149L44.9182 44.0146C45.5326 43.775 46.0267 43.3011 46.2918 42.6972C46.5568 42.0934 46.5712 41.4089 46.3316 40.7945M19.665 40.791L20.3638 41.0634M19.665 40.791L20.3638 41.0634M19.665 40.791C20.9119 37.5922 23.2342 35.0365 26.1164 33.4551C24.7192 31.8506 23.8677 29.7561 23.8677 27.4706C23.8677 22.4476 27.977 18.3383 33 18.3383C38.0234 18.3383 42.1289 22.448 42.1289 27.4706C42.1289 29.7558 41.2794 31.8505 39.8829 33.4553C42.7644 35.0381 45.0853 37.5964 46.3316 40.7945M20.3638 41.0634C21.5696 37.9701 23.8378 35.5101 26.6507 34.019L23.6034 42.3254C23.5206 42.5382 23.3965 42.7327 23.2384 42.8976C23.0803 43.0625 22.8912 43.1945 22.682 43.2862C22.4728 43.3779 22.2475 43.4275 22.0191 43.432C21.7907 43.4365 21.5636 43.3959 21.351 43.3125C20.9218 43.1451 20.5767 42.8142 20.3916 42.3924C20.2065 41.9706 20.1965 41.4926 20.3638 41.0634ZM46.3316 40.7945L45.6328 41.0668L46.3316 40.7944C46.3316 40.7944 46.3316 40.7945 46.3316 40.7945ZM1.03909 1.03909C1.22415 0.854031 1.47513 0.750046 1.73684 0.75C1.73687 0.75 1.73689 0.75 1.73692 0.75H64.2631C64.5248 0.750026 64.7758 0.854012 64.9609 1.03909C65.146 1.22417 65.25 1.47517 65.25 1.73684V64.2631C65.25 64.5248 65.146 64.7758 64.9609 64.9609C64.7758 65.146 64.5248 65.25 64.2632 65.25H1.73692C1.47517 65.25 1.22417 65.146 1.03909 64.9609C0.854012 64.7758 0.750026 64.5248 0.75 64.2632V1.73692C0.75 1.73689 0.75 1.73687 0.75 1.73684C0.750046 1.47513 0.854031 1.22415 1.03909 1.03909ZM56.329 32.9966C56.329 20.133 45.8636 9.66766 33 9.66766C20.1364 9.66766 9.67105 20.133 9.67105 32.9966C9.67105 45.8602 20.1364 56.3256 33 56.3256C45.8636 56.3256 56.329 45.8603 56.329 32.9966ZM14.6447 32.9966C14.6447 22.8387 22.8421 14.6413 33 14.6413C43.1579 14.6413 51.3553 22.8387 51.3553 32.9966C51.3553 43.1545 43.1579 51.3519 33 51.3519C22.8421 51.3519 14.6447 43.1545 14.6447 32.9966ZM28.838 27.4706C28.838 25.1547 30.6814 23.3154 33 23.3154C35.3179 23.3154 37.1586 25.1541 37.1586 27.4706C37.1586 29.7878 35.3172 31.6292 33 31.6292C30.6821 31.6292 28.838 29.7871 28.838 27.4706Z" stroke="#9C92C5" stroke-width="1.5"/>
</svg>
