<svg width="21" height="20" viewBox="0 0 21 20" fill="none" xmlns="http://www.w3.org/2000/svg">
<path d="M19.7641 18.5745L14.0211 12.8274C15.1533 11.4696 15.8343 9.73439 15.8343 7.8392C15.8343 3.51554 12.2859 0 7.92124 0C3.55656 0 0 3.51964 0 7.8433C0 12.167 3.54835 15.6825 7.91303 15.6825C9.7672 15.6825 11.4737 15.0467 12.8274 13.9842L18.5909 19.7477C18.9273 20.0841 19.4277 20.0841 19.7641 19.7477C20.1005 19.4113 20.1005 18.9109 19.7641 18.5745ZM1.68188 7.8433C1.68188 4.44672 4.47954 1.68598 7.91303 1.68598C11.3465 1.68598 14.1442 4.44672 14.1442 7.8433C14.1442 11.2399 11.3465 14.0006 7.91303 14.0006C4.47954 14.0006 1.68188 11.2358 1.68188 7.8433Z" fill="#919191"/>
</svg>
