<svg width="66" height="66" viewBox="0 0 66 66" fill="none" xmlns="http://www.w3.org/2000/svg">
<path d="M27.5 39.4618H28.25V38.7118V33V32.25H27.5H22H21.25V33V38.7118V39.4618H22H27.5ZM29.0886 27.1382L29.0892 27.139C32.4626 25.2752 34.2749 21.463 33.6067 17.652L33.6067 17.6517C32.9665 14.0089 29.9881 11.032 26.3528 10.3964C23.6965 9.91445 21.0078 10.6409 18.9656 12.3562C16.9235 14.0715 15.75 16.5861 15.75 19.2528V20.0028H16.5H22H22.75V19.2528C22.75 18.6565 23.0102 18.0983 23.4646 17.7197L23.4646 17.7197L23.4681 17.7168C23.9252 17.3312 24.5111 17.1726 25.1375 17.2872L25.1375 17.2873L25.144 17.2884C25.9065 17.421 26.5792 18.092 26.7145 18.8599C26.9021 19.9316 26.2981 20.6828 25.7122 21.0041L25.7108 21.0049C23.1301 22.4267 21.25 25.7988 21.25 28.8888V30.25V31H22H27.5H28.25V30.25V28.8888C28.25 28.6305 28.3691 28.2245 28.5839 27.8181C28.6861 27.6246 28.7975 27.4553 28.9014 27.3272C28.9531 27.2635 28.9986 27.2154 29.0355 27.1815C29.0658 27.1537 29.0838 27.1414 29.0886 27.1382ZM0.75 24.75C0.75 11.516 11.5187 0.75 24.75 0.75C37.984 0.75 48.75 11.516 48.75 24.75C48.75 37.984 37.984 48.75 24.75 48.75H0.75V24.75ZM65.25 44V65.25H44C36.6117 65.25 30.1027 61.448 26.2946 55.7019C42.184 54.922 54.922 42.184 55.7019 26.2946C61.448 30.1027 65.25 36.6117 65.25 44Z" stroke="white" stroke-width="1.5"/>
</svg>
