<svg width="33" height="33" viewBox="0 0 33 33" fill="none" xmlns="http://www.w3.org/2000/svg">
<path d="M32.766 16.7231C32.7658 13.5405 31.8219 10.4294 30.0536 7.78323C28.2853 5.13706 25.7721 3.07467 22.8317 1.85683C19.8913 0.638985 16.6558 0.320394 13.5344 0.941339C10.413 1.56228 7.54572 3.09488 5.29528 5.34532C3.04483 7.59577 1.51224 10.463 0.891291 13.5844C0.270345 16.7059 0.588936 19.9414 1.80678 22.8818C3.02462 25.8222 5.08702 28.3354 7.73318 30.1037C10.3793 31.872 13.4904 32.8159 16.673 32.8161H16.956V20.2851H13.499V16.2561H16.956V13.2911C16.956 9.85209 19.056 7.98109 22.123 7.98109C23.1585 7.97732 24.1933 8.03007 25.223 8.13909V11.7311H23.107C21.438 11.7311 21.115 12.5241 21.115 13.6881V16.2541H25.105L24.581 20.2851H21.111V32.1941C24.4695 31.2294 27.4229 29.1983 29.5254 26.4074C31.6279 23.6165 32.7653 20.2173 32.766 16.7231Z" fill="#5287E0"/>
</svg>
