<svg width="32" height="32" viewBox="0 0 32 32" fill="none" xmlns="http://www.w3.org/2000/svg">
<path d="M15.9 0C12.7553 0 9.68118 0.932519 7.06644 2.67963C4.4517 4.42675 2.41376 6.90999 1.21032 9.81533C0.00688922 12.7207 -0.307984 15.9176 0.305521 19.0019C0.919026 22.0862 2.43335 24.9193 4.65701 27.143C6.88066 29.3667 9.71377 30.881 12.7981 31.4945C15.8824 32.108 19.0793 31.7931 21.9847 30.5897C24.89 29.3863 27.3733 27.3483 29.1204 24.7336C30.8675 22.1188 31.8 19.0447 31.8 15.9C31.8 11.6831 30.1248 7.63883 27.143 4.657C24.1612 1.67517 20.1169 0 15.9 0V0ZM11.28 24.036H7.40701V12.386H11.28V24.036ZM9.34401 10.8H9.31801C9.04421 10.8111 8.77103 10.7663 8.51512 10.6683C8.25921 10.5703 8.02593 10.4213 7.8295 10.2302C7.63307 10.0392 7.47761 9.81013 7.3726 9.55703C7.26758 9.30394 7.21521 9.03211 7.21868 8.75811C7.22215 8.48411 7.28138 8.21369 7.39277 7.96334C7.50415 7.71298 7.66536 7.48793 7.86656 7.30191C8.06776 7.11589 8.30474 6.97279 8.56305 6.88134C8.82135 6.78989 9.09558 6.75201 9.36901 6.77C9.64435 6.75444 9.91997 6.79546 10.1789 6.89052C10.4377 6.98558 10.6744 7.13267 10.8743 7.32272C11.0741 7.51277 11.2329 7.74175 11.3408 7.99554C11.4488 8.24932 11.5036 8.52253 11.5019 8.79831C11.5002 9.07409 11.442 9.3466 11.3309 9.59902C11.2198 9.85145 11.0582 10.0784 10.856 10.266C10.6538 10.4535 10.4153 10.5977 10.1553 10.6895C9.89524 10.7814 9.61914 10.819 9.34401 10.8ZM25.244 24.041H21.371V17.8C21.371 16.234 20.81 15.165 19.409 15.165C18.9723 15.1676 18.547 15.305 18.1914 15.5585C17.8357 15.8119 17.567 16.1691 17.422 16.581C17.3229 16.8857 17.2799 17.2059 17.295 17.526V24.032H13.423C13.423 24.032 13.474 13.475 13.423 12.382H17.3V14.032C17.6505 13.4232 18.1611 12.922 18.7764 12.583C19.3917 12.244 20.0881 12.08 20.79 12.109C23.338 12.109 25.248 13.774 25.248 17.352L25.244 24.041Z" fill="#5287E0"/>
</svg>
