<svg width="33" height="33" viewBox="0 0 33 33" fill="none" xmlns="http://www.w3.org/2000/svg">
<path d="M16.341 0.495117C13.1577 0.494919 10.0458 1.43871 7.39883 3.20713C4.75189 4.97555 2.68879 7.48918 1.47045 10.4301C0.252102 13.3711 -0.0667748 16.6073 0.554141 19.7295C1.17506 22.8517 2.70788 25.7196 4.95877 27.9706C7.20965 30.2217 10.0775 31.7547 13.1997 32.3758C16.3218 32.9969 19.558 32.6782 22.4991 31.4601C25.4401 30.2419 27.9539 28.179 29.7224 25.5321C31.491 22.8853 32.435 19.7734 32.435 16.5901C32.4337 12.322 30.7377 8.22913 27.7198 5.21105C24.7019 2.19297 20.6091 0.496708 16.341 0.495117ZM23.69 13.0441C23.6973 13.2028 23.701 13.3618 23.701 13.5211C23.7106 14.9042 23.4452 16.2754 22.9203 17.555C22.3954 18.8347 21.6214 19.9972 20.6434 20.9752C19.6653 21.9532 18.5027 22.727 17.223 23.2518C15.9433 23.7766 14.5721 24.0418 13.189 24.0321C11.1815 24.0341 9.21595 23.4582 7.527 22.3731C7.81942 22.4074 8.11359 22.4244 8.408 22.4241C10.0714 22.4269 11.6874 21.87 12.996 20.8431C12.2252 20.828 11.4783 20.5725 10.8598 20.1123C10.2413 19.652 9.78194 19.0101 9.546 18.2761C10.0995 18.3831 10.6702 18.3615 11.214 18.2131C10.3781 18.0444 9.62621 17.5922 9.08538 16.9329C8.54456 16.2737 8.24805 15.4478 8.246 14.5951C8.246 14.5781 8.246 14.5631 8.246 14.5481C8.75869 14.8337 9.33241 14.9921 9.919 15.0101C9.13728 14.4865 8.58438 13.6848 8.37279 12.768C8.1612 11.8513 8.30681 10.8883 8.78 10.0751C9.70768 11.2165 10.8651 12.15 12.177 12.815C13.4889 13.48 14.926 13.8617 16.395 13.9351C16.2117 13.1427 16.2945 12.312 16.6307 11.5715C16.9669 10.8309 17.5378 10.2218 18.255 9.83824C18.9722 9.45471 19.7957 9.31817 20.5983 9.44974C21.4009 9.58132 22.1378 9.97367 22.695 10.5661C23.5225 10.4019 24.3159 10.0975 25.041 9.66612C24.7648 10.5215 24.1873 11.2475 23.416 11.7091C24.1481 11.6223 24.8631 11.4261 25.537 11.1271C25.0402 11.8711 24.4143 12.5203 23.689 13.0441H23.69Z" fill="#5287E0"/>
</svg>
