<svg width="20" height="21" viewBox="0 0 20 21" fill="none" xmlns="http://www.w3.org/2000/svg">
<path d="M14.3409 0.622803H5.67637C4.21403 0.622803 2.81158 1.20372 1.77754 2.23775C0.743511 3.27178 0.162598 4.67423 0.162598 6.13657V14.8011C0.162598 16.2634 0.743511 17.6659 1.77754 18.6999C2.81158 19.7339 4.21403 20.3148 5.67637 20.3148H14.3409C15.8032 20.3148 17.2057 19.7339 18.2397 18.6999C19.2737 17.6659 19.8546 16.2634 19.8546 14.8011V6.13657C19.8546 4.67423 19.2737 3.27178 18.2397 2.23775C17.2057 1.20372 15.8032 0.622803 14.3409 0.622803ZM10.0086 15.1949C9.07389 15.1949 8.16014 14.9177 7.38294 14.3984C6.60574 13.8791 5.99999 13.141 5.64228 12.2774C5.28457 11.4138 5.19098 10.4636 5.37334 9.54681C5.5557 8.63004 6.00581 7.78793 6.66677 7.12697C7.32772 6.46602 8.16983 6.0159 9.0866 5.83354C10.0034 5.65119 10.9536 5.74478 11.8172 6.10249C12.6808 6.46019 13.4189 7.06595 13.9382 7.84315C14.4575 8.62035 14.7347 9.53409 14.7347 10.4688C14.7347 11.7223 14.2368 12.9244 13.3505 13.8107C12.4642 14.697 11.2621 15.1949 10.0086 15.1949ZM15.1285 6.53042C14.8949 6.53042 14.6664 6.46112 14.4721 6.33129C14.2778 6.20147 14.1264 6.01694 14.037 5.80104C13.9475 5.58515 13.9241 5.34758 13.9697 5.11839C14.0153 4.8892 14.1278 4.67867 14.2931 4.51343C14.4583 4.34819 14.6689 4.23566 14.898 4.19007C15.1272 4.14448 15.3648 4.16788 15.5807 4.25731C15.7966 4.34673 15.9811 4.49817 16.1109 4.69247C16.2408 4.88677 16.3101 5.11521 16.3101 5.34889C16.3101 5.66225 16.1856 5.96278 15.964 6.18436C15.7424 6.40593 15.4419 6.53042 15.1285 6.53042Z" fill="white"/>
</svg>
