<svg width="20" height="18" viewBox="0 0 20 18" fill="none" xmlns="http://www.w3.org/2000/svg">
<path d="M19.9342 2.55858C19.2103 2.89797 18.4312 3.12691 17.6138 3.22936C18.4484 2.70235 19.0884 1.86755 19.3902 0.871698C18.6095 1.36035 17.7453 1.71493 16.8247 1.90634C16.088 1.07829 15.0379 0.560547 13.8759 0.560547C11.645 0.560547 9.83618 2.46835 9.83618 4.8218C9.83618 5.1553 9.87175 5.48036 9.94091 5.79278C6.58315 5.61485 3.60594 3.9187 1.61327 1.34053C1.2655 1.96958 1.06644 2.7015 1.06644 3.48317C1.06644 4.96135 1.77956 6.26583 2.86364 7.02979C2.20168 7.00745 1.57849 6.81561 1.03366 6.49645C1.03326 6.51416 1.03326 6.53229 1.03326 6.55042C1.03326 8.61464 2.42593 10.3365 4.27429 10.7286C3.93532 10.8256 3.57836 10.8779 3.2098 10.8779C2.94918 10.8779 2.69615 10.8513 2.44951 10.8011C2.96397 12.4939 4.45577 13.7263 6.22339 13.7604C4.84071 14.9034 3.09908 15.5848 1.20594 15.5848C0.880161 15.5848 0.558376 15.5645 0.242188 15.5249C2.03059 16.7345 4.15397 17.4394 6.43525 17.4394C13.8667 17.4394 17.93 10.9466 17.93 5.31551C17.93 5.13084 17.9264 4.9466 17.9188 4.76362C18.7078 4.16408 19.393 3.41319 19.9342 2.55858Z" fill="white"/>
</svg>
