<svg width="38" height="30" viewBox="0 0 38 30" fill="none" xmlns="http://www.w3.org/2000/svg">
<path d="M34.4585 8.51777L32.1485 11.9948C33.2626 14.2183 33.8079 16.6837 33.7358 19.17C33.6637 21.6563 32.9764 24.0859 31.7354 26.2411H5.70545C4.09251 23.4409 3.42416 20.1951 3.79948 16.9849C4.1748 13.7746 5.57381 10.7709 7.78911 8.41896C10.0044 6.06701 12.9181 4.49205 16.0981 3.92756C19.2782 3.36307 22.5554 3.83911 25.4439 5.2851L28.9183 2.97337C25.3809 0.70339 21.185 -0.313794 17.0018 0.0845222C12.8185 0.482838 8.88959 2.27364 5.84347 5.17048C2.79735 8.06731 0.810021 11.9028 0.199381 16.0634C-0.41126 20.2241 0.390066 24.4695 2.47518 28.1205C2.80292 28.6886 3.27352 29.161 3.84021 29.4907C4.4069 29.8204 5.04995 29.996 5.70545 30H31.7166C32.3784 30.0026 33.0293 29.8302 33.6031 29.5001C34.177 29.1701 34.6535 28.6941 34.9844 28.1205C36.7148 25.1208 37.5832 21.7008 37.4937 18.2382C37.4042 14.7757 36.3604 11.4052 34.4773 8.49897L34.4585 8.51777ZM16.0723 21.3733C16.4212 21.7227 16.8354 22 17.2914 22.1892C17.7474 22.3783 18.2362 22.4757 18.7298 22.4757C19.2234 22.4757 19.7122 22.3783 20.1682 22.1892C20.6241 22 21.0384 21.7227 21.3872 21.3733L32.0171 5.41666L16.0723 16.0544C15.7231 16.4035 15.4461 16.8181 15.257 17.2744C15.068 17.7307 14.9707 18.2198 14.9707 18.7138C14.9707 19.2078 15.068 19.6969 15.257 20.1533C15.4461 20.6096 15.7231 21.0242 16.0723 21.3733Z" fill="#5287E0"/>
</svg>
