<svg width="28" height="30" viewBox="0 0 28 30" fill="none" xmlns="http://www.w3.org/2000/svg">
<path d="M13.5668 4.61548C8.53521 4.61676 4.44189 8.57539 4.44189 13.4391C4.44189 16.5961 5.72293 18.4739 6.66632 19.8577C7.24652 20.7092 7.57523 21.216 7.57523 21.726C7.57523 22.8704 8.18862 23.9491 9.27881 24.7578C9.30626 25.4363 9.40647 27.0933 9.40647 27.0933C9.40647 27.0939 9.40647 27.0946 9.40647 27.0952C9.42434 27.5656 9.672 28.5301 11.2932 29.0688C11.4841 29.3496 11.7349 29.5992 12.0388 29.8022C12.229 29.9305 12.4536 30 12.6834 30H14.4502C14.68 30 14.904 29.9324 15.0949 29.8022C15.3993 29.5986 15.6508 29.3496 15.8404 29.0688C17.4763 28.5243 17.7144 27.549 17.7278 27.092C17.7278 27.092 17.8274 25.4376 17.8548 24.7585C18.945 23.9491 19.559 22.871 19.559 21.7266C19.559 21.2166 19.8871 20.7092 20.473 19.8513C21.4094 18.479 22.693 16.5993 22.693 13.4385C22.6924 8.57348 18.5984 4.61548 13.5668 4.61548ZM18.5607 18.5582C17.8867 19.5462 17.251 20.4794 17.251 21.726C17.251 22.2736 16.7557 22.7147 16.3867 22.9693H10.7475C10.3786 22.7153 9.88327 22.2736 9.88327 21.726C9.88327 20.4794 9.2469 19.5462 8.56521 18.5467C7.71438 17.2988 6.74929 15.8837 6.74929 13.4398C6.74929 9.84813 9.80795 6.92479 13.5674 6.92351C17.3276 6.92351 20.3856 9.84622 20.3856 13.4385C20.3856 15.8876 19.4186 17.3007 18.5607 18.5582Z" fill="#5287E0"/>
<path d="M13.5668 2.88441C13.8853 2.88441 14.1431 2.62654 14.1431 2.3074V0.577009C14.1431 0.258505 13.8853 0 13.5668 0C13.2483 0 12.9897 0.258505 12.9897 0.577009V2.3074C12.9897 2.62654 13.2483 2.88441 13.5668 2.88441Z" fill="#5287E0"/>
<path d="M7.43729 4.10478C7.54452 4.28988 7.73793 4.39329 7.93771 4.39329C8.03537 4.39329 8.13494 4.36839 8.22557 4.31605C8.50195 4.15648 8.59642 3.80415 8.43685 3.52777L7.57133 2.02908C7.41176 1.7527 7.05943 1.65824 6.78305 1.81781C6.50731 1.97738 6.41285 2.32971 6.57178 2.60609L7.43729 4.10478Z" fill="#5287E0"/>
<path d="M4.10485 7.4373L2.60615 6.57243C2.32978 6.41286 1.97744 6.50796 1.81787 6.7837C1.65894 7.05944 1.75341 7.41241 2.02915 7.57198L3.52784 8.43686C3.61847 8.4892 3.71805 8.51409 3.8157 8.51409C4.01549 8.51409 4.20889 8.41069 4.31612 8.22559C4.47505 7.94985 4.38058 7.59688 4.10485 7.4373Z" fill="#5287E0"/>
<path d="M2.88441 13.5668C2.88441 13.2483 2.6259 12.9897 2.3074 12.9897H0.577009C0.258505 12.9897 0 13.2483 0 13.5668C0 13.8853 0.258505 14.1438 0.577009 14.1438H2.3074C2.6259 14.1438 2.88441 13.8853 2.88441 13.5668Z" fill="#5287E0"/>
<path d="M3.52798 18.6966L2.02865 19.5608C1.75291 19.7204 1.6578 20.0734 1.81674 20.3485C1.92333 20.5342 2.11801 20.637 2.31715 20.637C2.41481 20.637 2.51438 20.6121 2.60502 20.5598L4.10371 19.6955C4.38009 19.536 4.47455 19.183 4.31562 18.9079C4.15669 18.6309 3.80435 18.537 3.52798 18.6966Z" fill="#5287E0"/>
<path d="M25.1049 19.5621L23.6063 18.6966C23.3292 18.5371 22.9775 18.6309 22.818 18.9073C22.6584 19.1836 22.7522 19.536 23.0286 19.6955L24.5273 20.5604C24.6192 20.6134 24.7175 20.6377 24.8152 20.6377C25.0149 20.6377 25.2083 20.5343 25.3156 20.3498C25.4739 20.0747 25.3807 19.7204 25.1049 19.5621Z" fill="#5287E0"/>
<path d="M26.5566 12.9904L24.8275 12.9897C24.5084 12.9897 24.2505 13.2483 24.2505 13.5661C24.2505 13.8853 24.5084 14.1431 24.8262 14.1431L26.5566 14.1438C26.8745 14.1438 27.133 13.8853 27.133 13.5674C27.133 13.2489 26.8758 12.9904 26.5566 12.9904Z" fill="#5287E0"/>
<path d="M23.3173 8.51344C23.4156 8.51344 23.5151 8.48855 23.6051 8.43621L25.1045 7.57197C25.3809 7.41304 25.4753 7.06007 25.3164 6.78433C25.1568 6.50795 24.8032 6.41349 24.5281 6.57306L23.0294 7.43729C22.7524 7.59687 22.6586 7.94984 22.8175 8.22494C22.9247 8.41004 23.1188 8.51344 23.3173 8.51344Z" fill="#5287E0"/>
<path d="M18.9079 4.31456C18.9985 4.36754 19.0975 4.39243 19.1958 4.39243C19.3949 4.39243 19.5883 4.28903 19.6956 4.10393L20.5598 2.60587C20.7194 2.33014 20.6255 1.97716 20.3492 1.81823C20.0728 1.65802 19.7204 1.75249 19.5609 2.0295L18.6966 3.52756C18.5377 3.80266 18.6328 4.15563 18.9079 4.31456Z" fill="#5287E0"/>
</svg>
