<svg width="181" height="54" viewBox="0 0 181 54" fill="none" xmlns="http://www.w3.org/2000/svg">
<path d="M174.315 53.3318H7.65527C3.98867 53.3318 0.98877 50.3319 0.98877 46.6653V6.66626C0.98877 2.99966 3.98867 -0.000244141 7.65527 -0.000244141H174.315C177.982 -0.000244141 180.982 2.99966 180.982 6.66626V46.6653C180.982 50.3319 177.982 53.3318 174.315 53.3318Z" fill="#100F0D"/>
<path d="M174.315 -0.000244141H7.65527C3.98867 -0.000244141 0.98877 2.99966 0.98877 6.66626V46.6653C0.98877 50.3319 3.98867 53.3318 7.65527 53.3318H174.315C177.982 53.3318 180.982 50.3319 180.982 46.6653V6.66626C180.982 2.99966 177.982 -0.000244141 174.315 -0.000244141ZM174.315 1.06586C177.403 1.06586 179.915 3.57836 179.915 6.66626V46.6653C179.915 49.7532 177.403 52.2657 174.315 52.2657H7.65527C4.56737 52.2657 2.05597 49.7532 2.05597 46.6653V6.66626C2.05597 3.57836 4.56737 1.06586 7.65527 1.06586H174.315Z" fill="#A2A2A1"/>
<path d="M143.566 39.9988H146.053V23.3298H143.566V39.9988ZM165.975 29.3348L163.123 36.5612H163.037L160.077 29.3348H157.398L161.837 39.4348L159.306 45.0533H161.9L168.741 29.3353L165.975 29.3348ZM151.865 38.1054C151.051 38.1054 149.914 37.6976 149.914 36.6898C149.914 35.4033 151.33 34.9101 152.551 34.9101C153.645 34.9101 154.161 35.1456 154.825 35.4674C154.631 37.0116 153.302 38.1053 151.865 38.1053L151.865 38.1054ZM152.166 28.9702C150.365 28.9702 148.499 29.7639 147.727 31.5223L149.935 32.4442C150.407 31.5223 151.286 31.2224 152.209 31.2224C153.495 31.2224 154.803 31.9937 154.824 33.3666V33.5379C154.374 33.2806 153.408 32.8947 152.23 32.8947C149.849 32.8947 147.426 34.2024 147.426 36.6471C147.426 38.8773 149.378 40.3142 151.565 40.3142C153.237 40.3142 154.16 39.5637 154.738 38.6841H154.824V39.9715H157.227V33.5805C157.227 30.6212 155.016 28.9702 152.166 28.9702V28.9702ZM136.79 31.3639H133.251V25.6506H136.79C138.65 25.6506 139.706 27.1902 139.706 28.5072C139.706 29.7989 138.65 31.3639 136.79 31.3639ZM136.726 23.3302H130.764V39.9992H133.251V33.6843H136.726C139.483 33.6843 142.194 31.6885 142.194 28.5078C142.194 25.3277 139.483 23.3309 136.726 23.3309L136.726 23.3302ZM104.219 38.1082C102.5 38.1082 101.062 36.6686 101.062 34.6932C101.062 32.6948 102.5 31.2349 104.219 31.2349C105.916 31.2349 107.247 32.6949 107.247 34.6932C107.247 36.6686 105.916 38.1082 104.219 38.1082ZM107.076 30.2679H106.99C106.431 29.6022 105.357 29.0007 104.004 29.0007C101.168 29.0007 98.5695 31.4928 98.5695 34.6932C98.5695 37.8718 101.168 40.342 104.004 40.342C105.357 40.342 106.431 39.7404 106.99 39.0535H107.076V39.8691C107.076 42.0394 105.916 43.1987 104.047 43.1987C102.522 43.1987 101.577 42.1034 101.19 41.1799L99.0212 42.082C99.6436 43.585 101.297 45.433 104.047 45.433C106.969 45.433 109.439 43.7142 109.439 39.5253V29.3443H107.076L107.076 30.2679ZM111.158 39.9983H113.648V23.3293H111.158V39.9983ZM117.322 34.4995C117.258 32.3084 119.02 31.1917 120.286 31.1917C121.275 31.1917 122.112 31.686 122.392 32.3943L117.322 34.4995ZM125.054 32.6089C124.582 31.3423 123.143 29.0007 120.2 29.0007C117.278 29.0007 114.851 31.299 114.851 34.6714C114.851 37.8505 117.258 40.3421 120.479 40.3421C123.078 40.3421 124.582 38.7531 125.205 37.8291L123.272 36.5401C122.627 37.4854 121.747 38.1083 120.479 38.1083C119.212 38.1083 118.31 37.5282 117.731 36.3897L125.312 33.2538L125.054 32.6089ZM64.6454 30.7407V33.1464H70.4019C70.23 34.4996 69.779 35.4875 69.0915 36.175C68.2535 37.0125 66.9432 37.9364 64.6453 37.9364C61.101 37.9364 58.3303 35.0797 58.3303 31.5355C58.3303 27.9913 61.101 25.1342 64.6453 25.1342C66.5571 25.1342 67.953 25.8862 68.9841 26.8528L70.6815 25.1555C69.2419 23.781 67.3305 22.7285 64.6453 22.7285C59.7901 22.7285 55.709 26.6809 55.709 31.5355C55.709 36.3896 59.7901 40.3421 64.6453 40.3421C67.2655 40.3421 69.242 39.4828 70.7883 37.8719C72.3779 36.2823 72.8721 34.0485 72.8721 32.2439C72.8721 31.6861 72.8288 31.1705 72.7429 30.7407H64.6454ZM79.4174 38.1082C77.6986 38.1082 76.2164 36.6905 76.2164 34.6714C76.2164 32.6308 77.6986 31.235 79.4174 31.235C81.1355 31.235 82.6177 32.6308 82.6177 34.6714C82.6177 36.6905 81.1355 38.1082 79.4174 38.1082ZM79.4174 29.0007C76.2804 29.0007 73.7247 31.3849 73.7247 34.6714C73.7247 37.9364 76.2804 40.3421 79.4174 40.3421C82.5532 40.3421 85.1094 37.9364 85.1094 34.6714C85.1094 31.3849 82.5532 29.0007 79.4174 29.0007ZM91.8344 38.1082C90.1168 38.1082 88.6341 36.6905 88.6341 34.6714C88.6341 32.6308 90.1169 31.235 91.8344 31.235C93.5532 31.235 95.0349 32.6308 95.0349 34.6714C95.0349 36.6905 93.5532 38.1082 91.8344 38.1082ZM91.8344 29.0007C88.6986 29.0007 86.1429 31.3849 86.1429 34.6714C86.1429 37.9364 88.6986 40.3421 91.8344 40.3421C94.9714 40.3421 97.5271 37.9364 97.5271 34.6714C97.5271 31.3849 94.9714 29.0007 91.8344 29.0007Z" fill="white"/>
<path d="M28.6071 25.8976L14.4131 40.9636C14.4136 40.9667 14.4147 40.9693 14.4152 40.9725C14.8505 42.6085 16.3448 43.8131 18.1182 43.8131C18.8271 43.8131 19.4927 43.6215 20.0635 43.285L20.1088 43.2585L36.0868 34.0385L28.6078 25.8975" fill="#EB3131"/>
<path d="M42.9682 23.3328L42.9546 23.3235L36.0564 19.3245L28.2847 26.2401L36.0834 34.0378L42.9452 30.0786C44.1482 29.4291 44.9649 28.1609 44.9649 26.6984C44.9649 25.2464 44.1592 23.9845 42.9681 23.3329" fill="#F6B60B"/>
<path d="M14.4114 12.3687C14.3261 12.6833 14.2812 13.0129 14.2812 13.3552V39.9782C14.2812 40.3198 14.3256 40.6505 14.412 40.964L29.096 26.283L14.412 12.369" fill="#5778C5"/>
<path d="M28.7121 26.6668L36.0594 19.3217L20.0994 10.0683C19.5193 9.72079 18.8422 9.52026 18.1177 9.52026C16.3443 9.52026 14.848 10.7271 14.4126 12.365C14.4121 12.3666 14.4121 12.3677 14.4121 12.3691L28.7121 26.6671" fill="#3BAD49"/>
<path d="M64.1783 13.0407H60.2888V14.0032H63.2034C63.1242 14.7886 62.8117 15.4053 62.2846 15.8532C61.7576 16.3012 61.0846 16.5261 60.2888 16.5261C59.4159 16.5261 58.6763 16.222 58.0702 15.6179C57.4764 15.0012 57.1744 14.2387 57.1744 13.32C57.1744 12.4013 57.4764 11.6388 58.0702 11.0222C58.6763 10.418 59.4159 10.1159 60.2888 10.1159C60.7368 10.1159 61.1639 10.193 61.5554 10.3618C61.9471 10.5304 62.2617 10.7659 62.5075 11.068L63.2471 10.3285C62.9117 9.94714 62.4867 9.65554 61.9595 9.44302C61.4325 9.23049 60.8825 9.12849 60.2887 9.12849C59.1242 9.12849 58.1368 9.53261 57.3305 10.3389C56.5243 11.1471 56.1201 12.143 56.1201 13.32C56.1201 14.497 56.5242 15.495 57.3305 16.3013C58.1368 17.1074 59.1242 17.5117 60.2887 17.5117C61.5116 17.5117 62.4866 17.12 63.2366 16.3241C63.897 15.6617 64.2345 14.7659 64.2345 13.6451C64.2345 13.4555 64.2115 13.2534 64.1782 13.0408L64.1783 13.0407ZM65.6851 9.30748V17.3324H70.3703V16.3469H66.7163V13.8012H70.0121V12.8387H66.7163V10.295H70.3703V9.30745L65.6851 9.30748ZM76.9401 10.2951V9.30748H71.4256V10.2951H73.6673V17.3324H74.6985V10.2951H76.9401ZM81.9326 9.30748H80.9014V17.3324H81.9326V9.30748ZM88.7392 10.2951V9.30748H83.2248V10.2951H85.4663V17.3324H86.4975V10.2951H88.7392ZM99.1452 10.3513C98.3494 9.53255 97.3744 9.12842 96.2098 9.12842C95.0432 9.12842 94.0683 9.53254 93.2724 10.3388C92.4766 11.1347 92.085 12.1325 92.085 13.3199C92.085 14.5073 92.4766 15.5053 93.2724 16.3012C94.0683 17.1073 95.0432 17.5116 96.2098 17.5116C97.3639 17.5116 98.3493 17.1074 99.1452 16.3012C99.9411 15.5054 100.333 14.5074 100.333 13.3199C100.333 12.1429 99.941 11.147 99.1452 10.3513ZM94.012 11.0221C94.6057 10.418 95.3349 10.1159 96.2098 10.1159C97.0827 10.1159 97.8119 10.418 98.3952 11.0221C98.9889 11.6158 99.2805 12.3907 99.2805 13.3199C99.2805 14.2512 98.9889 15.024 98.3952 15.6178C97.8119 16.2219 97.0827 16.526 96.2098 16.526C95.3349 16.526 94.6057 16.2219 94.012 15.6178C93.4307 15.0115 93.1391 14.2512 93.1391 13.3199C93.1391 12.3907 93.4307 11.6283 94.012 11.0221ZM102.783 12.3346L102.739 10.7866H102.783L106.862 17.3323H107.939V9.3074H106.908V14.0031L106.951 15.5511H106.908L103.008 9.3074H101.751V17.3323H102.783V12.3346Z" fill="white" stroke="white" stroke-width="0.26666" stroke-miterlimit="10"/>
</svg>
