<svg width="180" height="54" viewBox="0 0 180 54" fill="none" xmlns="http://www.w3.org/2000/svg">
<path d="M173.585 53.33H6.30494C2.82916 53.33 0 50.4928 0 47.0197V6.30094C0 2.82649 2.82916 0 6.30494 0H173.585C177.06 0 179.989 2.82649 179.989 6.30094V47.0197C179.989 50.4928 177.06 53.33 173.585 53.33Z" fill="#A6A6A6"/>
<path d="M178.698 47.021C178.698 49.8421 176.413 52.1273 173.586 52.1273H6.30496C3.4798 52.1273 1.18661 49.8421 1.18661 47.021V6.29954C1.18661 3.47971 3.4798 1.18652 6.30496 1.18652H173.585C176.413 1.18652 178.697 3.47971 178.697 6.29954L178.698 47.021Z" fill="black"/>
<path d="M40.1682 26.3769C40.1295 22.0799 43.6866 19.9893 43.8493 19.892C41.8347 16.9549 38.7123 16.5535 37.615 16.5215C34.9925 16.2456 32.4486 18.0908 31.1127 18.0908C29.7501 18.0908 27.6929 16.5482 25.4757 16.5935C22.6226 16.6375 19.9534 18.2894 18.4895 20.8546C15.4684 26.0849 17.7216 33.7711 20.6161 37.9989C22.064 40.0694 23.7559 42.3813 25.9704 42.2999C28.1369 42.2106 28.9462 40.9187 31.5607 40.9187C34.1512 40.9187 34.9112 42.2999 37.1697 42.2479C39.4949 42.2106 40.9588 40.1681 42.356 38.0789C44.0293 35.7057 44.7012 33.3685 44.7279 33.2485C44.6732 33.2298 40.2122 31.5273 40.1682 26.3769Z" fill="white"/>
<path d="M35.9018 13.7405C37.067 12.2832 37.8643 10.3007 37.643 8.28882C35.9564 8.36348 33.8472 9.45541 32.6327 10.8807C31.5581 12.1366 30.5981 14.1951 30.8461 16.131C32.7406 16.2723 34.6859 15.1751 35.9018 13.7405Z" fill="white"/>
<path d="M71.5222 42.0027H68.4944L66.8358 36.791H61.0708L59.4909 42.0027H56.5431L62.2547 24.2598H65.7825L71.5222 42.0027ZM66.3358 34.6045L64.8359 29.9714C64.6773 29.4981 64.3799 28.3835 63.9413 26.629H63.888C63.7133 27.3836 63.432 28.4982 63.0454 29.9714L61.5721 34.6045H66.3358Z" fill="white"/>
<path d="M86.2106 35.4484C86.2106 37.6243 85.6226 39.3442 84.4467 40.6068C83.3934 41.7307 82.0855 42.292 80.5242 42.292C78.839 42.292 77.6284 41.6867 76.8911 40.4761H76.8378V47.2157H73.9953V33.4206C73.9953 32.0526 73.9593 30.6487 73.89 29.2088H76.3898L76.5485 31.2367H76.6018C77.5498 29.7088 78.9883 28.9462 80.9189 28.9462C82.4281 28.9462 83.6881 29.5421 84.696 30.7354C85.7066 31.93 86.2106 33.5005 86.2106 35.4484ZM83.3147 35.5524C83.3147 34.3072 83.0348 33.2806 82.4721 32.4726C81.8575 31.63 81.0322 31.2087 79.9976 31.2087C79.2963 31.2087 78.659 31.4433 78.0897 31.906C77.5191 32.3726 77.1458 32.9819 76.9711 33.7365C76.8831 34.0885 76.8391 34.3765 76.8391 34.6031V36.7363C76.8391 37.667 77.1245 38.4522 77.6951 39.0935C78.2657 39.7348 79.007 40.0548 79.919 40.0548C80.9896 40.0548 81.8228 39.6415 82.4188 38.8175C83.0161 37.9923 83.3147 36.9043 83.3147 35.5524Z" fill="white"/>
<path d="M100.926 35.4484C100.926 37.6243 100.338 39.3442 99.1605 40.6068C98.1085 41.7307 96.8006 42.292 95.2394 42.292C93.5541 42.292 92.3435 41.6867 91.6076 40.4761H91.5543V47.2157H88.7118V33.4206C88.7118 32.0526 88.6758 30.6487 88.6064 29.2088H91.1063L91.265 31.2367H91.3183C92.2649 29.7088 93.7035 28.9462 95.6353 28.9462C97.1432 28.9462 98.4032 29.5421 99.4138 30.7354C100.42 31.93 100.926 33.5005 100.926 35.4484ZM98.0299 35.5524C98.0299 34.3072 97.7485 33.2806 97.1859 32.4726C96.5713 31.63 95.7487 31.2087 94.7127 31.2087C94.0101 31.2087 93.3742 31.4433 92.8035 31.906C92.2329 32.3726 91.8609 32.9819 91.6862 33.7365C91.5996 34.0885 91.5543 34.3765 91.5543 34.6031V36.7363C91.5543 37.667 91.8396 38.4522 92.4075 39.0935C92.9782 39.7335 93.7195 40.0548 94.6341 40.0548C95.7047 40.0548 96.538 39.6415 97.1339 38.8175C97.7312 37.9923 98.0299 36.9043 98.0299 35.5524Z" fill="white"/>
<path d="M117.378 37.0271C117.378 38.5363 116.854 39.7642 115.802 40.7122C114.646 41.7481 113.037 42.2654 110.969 42.2654C109.06 42.2654 107.529 41.8974 106.371 41.1601L107.029 38.791C108.277 39.5456 109.646 39.9242 111.138 39.9242C112.209 39.9242 113.042 39.6816 113.641 39.1989C114.237 38.7163 114.534 38.0683 114.534 37.2604C114.534 36.5404 114.289 35.9338 113.797 35.4418C113.308 34.9499 112.49 34.4926 111.349 34.0699C108.243 32.9113 106.691 31.2141 106.691 28.9822C106.691 27.5237 107.235 26.3277 108.324 25.3971C109.409 24.4652 110.857 23.9999 112.668 23.9999C114.282 23.9999 115.623 24.2812 116.694 24.8425L115.983 27.1597C114.983 26.6157 113.853 26.3437 112.588 26.3437C111.588 26.3437 110.806 26.5904 110.246 27.081C109.773 27.5197 109.536 28.0543 109.536 28.6876C109.536 29.3889 109.806 29.9688 110.35 30.4248C110.824 30.8461 111.684 31.3021 112.932 31.7941C114.458 32.4087 115.579 33.1273 116.301 33.9513C117.019 34.7725 117.378 35.8005 117.378 37.0271Z" fill="white"/>
<path d="M126.776 31.342H123.643V37.5536C123.643 39.1335 124.195 39.9228 125.301 39.9228C125.809 39.9228 126.231 39.8788 126.564 39.7908L126.643 41.9493C126.083 42.1587 125.345 42.264 124.432 42.264C123.31 42.264 122.432 41.9213 121.799 41.2374C121.168 40.5521 120.851 39.4028 120.851 37.7883V31.3393H118.985V29.2061H120.851V26.8636L123.643 26.021V29.2061H126.776V31.342Z" fill="white"/>
<path d="M140.913 35.5006C140.913 37.4671 140.35 39.0817 139.227 40.3443C138.05 41.6442 136.487 42.2921 134.54 42.2921C132.662 42.2921 131.168 41.6695 130.053 40.4242C128.939 39.179 128.381 37.6071 128.381 35.7125C128.381 33.73 128.955 32.1061 130.105 30.8435C131.253 29.5796 132.802 28.9476 134.75 28.9476C136.627 28.9476 138.138 29.5703 139.278 30.8168C140.369 32.0261 140.913 33.5873 140.913 35.5006ZM137.963 35.5925C137.963 34.4126 137.711 33.4007 137.201 32.5567C136.605 31.5355 135.753 31.0262 134.649 31.0262C133.506 31.0262 132.638 31.5368 132.042 32.5567C131.532 33.402 131.28 34.43 131.28 35.6459C131.28 36.8258 131.532 37.8377 132.042 38.6804C132.657 39.7016 133.516 40.2109 134.624 40.2109C135.709 40.2109 136.561 39.691 137.175 38.6537C137.699 37.7937 137.963 36.7711 137.963 35.5925Z" fill="white"/>
<path d="M150.152 31.7087C149.871 31.6567 149.571 31.63 149.256 31.63C148.256 31.63 147.483 32.0073 146.939 32.7633C146.465 33.4299 146.228 34.2725 146.228 35.2898V42.0027H143.387L143.414 33.2379C143.414 31.7633 143.378 30.4207 143.307 29.2102H145.783L145.887 31.658H145.965C146.265 30.8167 146.739 30.1394 147.387 29.6315C148.02 29.1742 148.704 28.9462 149.441 28.9462C149.704 28.9462 149.941 28.9648 150.152 28.9982V31.7087Z" fill="white"/>
<path d="M162.864 35.0005C162.864 35.5098 162.831 35.9391 162.76 36.2898H154.233C154.266 37.5537 154.678 38.5203 155.47 39.1869C156.189 39.7829 157.118 40.0815 158.259 40.0815C159.522 40.0815 160.674 39.8802 161.71 39.4762L162.155 41.4495C160.945 41.9774 159.515 42.2401 157.866 42.2401C155.882 42.2401 154.325 41.6561 153.192 40.4895C152.061 39.3229 151.495 37.7564 151.495 35.7911C151.495 33.8619 152.021 32.2554 153.076 30.9741C154.18 29.6062 155.672 28.9222 157.549 28.9222C159.393 28.9222 160.789 29.6062 161.737 30.9741C162.487 32.0607 162.864 33.4046 162.864 35.0005ZM160.154 34.2632C160.173 33.4206 159.987 32.6927 159.602 32.078C159.11 31.2874 158.354 30.8928 157.337 30.8928C156.408 30.8928 155.652 31.2781 155.074 32.0514C154.601 32.666 154.32 33.4033 154.233 34.2619H160.154V34.2632Z" fill="white"/>
<path d="M65.3959 13.3445C65.3959 14.9137 64.9253 16.095 63.9853 16.8883C63.1147 17.6202 61.8775 17.9869 60.2749 17.9869C59.4803 17.9869 58.8003 17.9522 58.231 17.8829V9.30876C58.9737 9.18877 59.7736 9.12744 60.6375 9.12744C62.1641 9.12744 63.3147 9.45942 64.0907 10.1234C64.9599 10.874 65.3959 11.9473 65.3959 13.3445ZM63.9227 13.3832C63.9227 12.3659 63.6534 11.586 63.1147 11.042C62.5761 10.4994 61.7895 10.2274 60.7535 10.2274C60.3136 10.2274 59.9389 10.2567 59.6283 10.318V16.8363C59.8003 16.863 60.1149 16.875 60.5722 16.875C61.6415 16.875 62.4668 16.5776 63.0481 15.983C63.6294 15.3884 63.9227 14.5218 63.9227 13.3832Z" fill="white"/>
<path d="M73.2075 14.7152C73.2075 15.6818 72.9315 16.4737 72.3795 17.095C71.8009 17.7336 71.0343 18.0523 70.077 18.0523C69.1544 18.0523 68.4198 17.747 67.8718 17.1337C67.3252 16.5217 67.0518 15.7498 67.0518 14.8192C67.0518 13.8459 67.3332 13.0473 67.8985 12.4273C68.4638 11.8074 69.2237 11.4967 70.181 11.4967C71.1036 11.4967 71.8449 11.802 72.4062 12.414C72.9395 13.0086 73.2075 13.7766 73.2075 14.7152ZM71.7582 14.7605C71.7582 14.1805 71.6329 13.6832 71.3836 13.2686C71.0903 12.7673 70.673 12.5166 70.1303 12.5166C69.569 12.5166 69.1424 12.7673 68.8491 13.2686C68.5984 13.6832 68.4744 14.1885 68.4744 14.7858C68.4744 15.3658 68.5998 15.8631 68.8491 16.2777C69.1517 16.779 69.573 17.0297 70.117 17.0297C70.6503 17.0297 71.0689 16.775 71.3702 16.2644C71.6289 15.8418 71.7582 15.3405 71.7582 14.7605Z" fill="white"/>
<path d="M83.6815 11.6248L81.7149 17.9097H80.435L79.6204 15.1805C79.4138 14.4992 79.2458 13.822 79.1151 13.15H79.0898C78.9684 13.8406 78.8005 14.5166 78.5845 15.1805L77.7192 17.9097H76.4246L74.5754 11.6248H76.0113L76.7219 14.6126C76.8939 15.3192 77.0352 15.9925 77.1486 16.6298H77.1739C77.2779 16.1045 77.4499 15.4352 77.6925 14.6259L78.5845 11.6261H79.7231L80.5777 14.5619C80.7843 15.2779 80.9523 15.9672 81.0817 16.6311H81.1203C81.215 15.9845 81.3576 15.2952 81.547 14.5619L82.3096 11.6261H83.6815V11.6248Z" fill="white"/>
<path d="M90.925 17.9096H89.5278V14.3098C89.5278 13.2006 89.1064 12.6459 88.2612 12.6459C87.8465 12.6459 87.5119 12.7979 87.2519 13.1032C86.9946 13.4086 86.8639 13.7685 86.8639 14.1805V17.9083H85.4667V13.4206C85.4667 12.8686 85.4493 12.27 85.416 11.622H86.6439L86.7093 12.6046H86.7479C86.9106 12.2993 87.1532 12.0473 87.4719 11.846C87.8505 11.6113 88.2745 11.4927 88.7385 11.4927C89.3251 11.4927 89.8131 11.682 90.201 12.062C90.6837 12.5273 90.925 13.2219 90.925 14.1445V17.9096Z" fill="white"/>
<path d="M94.7781 17.9096H93.3822V8.74084H94.7781V17.9096Z" fill="white"/>
<path d="M103.004 14.7152C103.004 15.6818 102.728 16.4737 102.176 17.095C101.598 17.7336 100.83 18.0523 99.8738 18.0523C98.9499 18.0523 98.2152 17.747 97.6686 17.1337C97.122 16.5217 96.8487 15.7498 96.8487 14.8192C96.8487 13.8459 97.13 13.0473 97.6953 12.4273C98.2606 11.8074 99.0205 11.4967 99.9765 11.4967C100.9 11.4967 101.64 11.802 102.203 12.414C102.736 13.0086 103.004 13.7766 103.004 14.7152ZM101.554 14.7605C101.554 14.1805 101.428 13.6832 101.179 13.2686C100.887 12.7673 100.468 12.5166 99.9271 12.5166C99.3645 12.5166 98.9379 12.7673 98.6459 13.2686C98.3952 13.6832 98.2712 14.1885 98.2712 14.7858C98.2712 15.3658 98.3966 15.8631 98.6459 16.2777C98.9485 16.779 99.3698 17.0297 99.9138 17.0297C100.447 17.0297 100.864 16.775 101.166 16.2644C101.426 15.8418 101.554 15.3405 101.554 14.7605Z" fill="white"/>
<path d="M109.766 17.9096H108.512L108.408 17.1857H108.369C107.94 17.763 107.328 18.0523 106.533 18.0523C105.94 18.0523 105.46 17.8616 105.099 17.483C104.771 17.139 104.607 16.711 104.607 16.2031C104.607 15.4351 104.927 14.8498 105.571 14.4445C106.213 14.0392 107.117 13.8406 108.281 13.8499V13.7326C108.281 12.9046 107.847 12.4913 106.976 12.4913C106.356 12.4913 105.809 12.6473 105.337 12.9566L105.053 12.0393C105.637 11.678 106.359 11.4967 107.209 11.4967C108.852 11.4967 109.676 12.3633 109.676 14.0965V16.4111C109.676 17.039 109.706 17.539 109.766 17.9096ZM108.316 15.7498V14.7805C106.775 14.7538 106.004 15.1765 106.004 16.0471C106.004 16.3751 106.092 16.6204 106.272 16.7844C106.452 16.9484 106.681 17.0297 106.955 17.0297C107.261 17.0297 107.548 16.9324 107.809 16.739C108.072 16.5444 108.233 16.2977 108.293 15.9951C108.308 15.9271 108.316 15.8444 108.316 15.7498Z" fill="white"/>
<path d="M117.706 17.9096H116.466L116.401 16.9003H116.362C115.966 17.6683 115.291 18.0523 114.344 18.0523C113.586 18.0523 112.956 17.7549 112.456 17.1603C111.956 16.5657 111.706 15.7937 111.706 14.8458C111.706 13.8285 111.977 13.0046 112.521 12.3753C113.048 11.7887 113.693 11.4953 114.461 11.4953C115.305 11.4953 115.895 11.7793 116.231 12.3486H116.258V8.74084H117.657V16.2164C117.657 16.8283 117.673 17.3923 117.706 17.9096ZM116.258 15.2591V14.2112C116.258 14.0298 116.245 13.8832 116.219 13.7712C116.141 13.4352 115.971 13.1526 115.714 12.9246C115.454 12.6966 115.141 12.5819 114.78 12.5819C114.258 12.5819 113.85 12.7886 113.55 13.2032C113.253 13.6179 113.102 14.1472 113.102 14.7938C113.102 15.4151 113.245 15.9191 113.532 16.307C113.834 16.7203 114.242 16.927 114.753 16.927C115.211 16.927 115.578 16.755 115.857 16.4097C116.126 16.0911 116.258 15.7071 116.258 15.2591Z" fill="white"/>
<path d="M129.656 14.7152C129.656 15.6818 129.38 16.4737 128.828 17.095C128.249 17.7336 127.484 18.0523 126.525 18.0523C125.604 18.0523 124.87 17.747 124.32 17.1337C123.774 16.5217 123.5 15.7498 123.5 14.8192C123.5 13.8459 123.782 13.0473 124.347 12.4273C124.912 11.8074 125.672 11.4967 126.631 11.4967C127.552 11.4967 128.295 11.802 128.855 12.414C129.388 13.0086 129.656 13.7766 129.656 14.7152ZM128.208 14.7605C128.208 14.1805 128.083 13.6832 127.833 13.2686C127.539 12.7673 127.123 12.5166 126.579 12.5166C126.019 12.5166 125.592 12.7673 125.298 13.2686C125.047 13.6832 124.923 14.1885 124.923 14.7858C124.923 15.3658 125.048 15.8631 125.298 16.2777C125.6 16.779 126.021 17.0297 126.565 17.0297C127.099 17.0297 127.519 16.775 127.82 16.2644C128.077 15.8418 128.208 15.3405 128.208 14.7605Z" fill="white"/>
<path d="M137.169 17.9096H135.773V14.3098C135.773 13.2006 135.352 12.6459 134.505 12.6459C134.09 12.6459 133.756 12.7979 133.497 13.1032C133.238 13.4086 133.109 13.7685 133.109 14.1805V17.9083H131.71V13.4206C131.71 12.8686 131.694 12.27 131.661 11.622H132.888L132.953 12.6046H132.992C133.156 12.2993 133.398 12.0473 133.716 11.846C134.096 11.6113 134.518 11.4927 134.984 11.4927C135.569 11.4927 136.057 11.682 136.445 12.062C136.929 12.5273 137.169 13.2219 137.169 14.1445V17.9096Z" fill="white"/>
<path d="M146.572 12.6713H145.034V15.7244C145.034 16.5004 145.307 16.8884 145.848 16.8884C146.099 16.8884 146.307 16.867 146.471 16.823L146.507 17.883C146.231 17.987 145.868 18.0389 145.422 18.0389C144.87 18.0389 144.44 17.871 144.13 17.535C143.818 17.199 143.663 16.6337 143.663 15.8404V12.6713H142.744V11.6247H143.663V10.4728L145.032 10.0594V11.6234H146.571V12.6713H146.572Z" fill="white"/>
<path d="M153.969 17.9096H152.57V14.3365C152.57 13.2099 152.149 12.6459 151.305 12.6459C150.657 12.6459 150.215 12.9726 149.972 13.6259C149.931 13.7632 149.907 13.9312 149.907 14.1285V17.9083H148.511V8.74084H149.907V12.5286H149.933C150.373 11.8393 151.004 11.4953 151.821 11.4953C152.4 11.4953 152.878 11.6847 153.258 12.0646C153.732 12.5379 153.969 13.2419 153.969 14.1725V17.9096Z" fill="white"/>
<path d="M161.599 14.4698C161.599 14.7204 161.581 14.9311 161.547 15.1031H157.357C157.375 15.7244 157.575 16.1977 157.963 16.5256C158.318 16.819 158.775 16.9656 159.335 16.9656C159.955 16.9656 160.521 16.8669 161.03 16.6683L161.249 17.6389C160.653 17.8976 159.951 18.0269 159.139 18.0269C158.166 18.0269 157.399 17.7402 156.845 17.1669C156.288 16.5936 156.012 15.8243 156.012 14.8591C156.012 13.9111 156.269 13.1218 156.788 12.4926C157.329 11.8206 158.061 11.4846 158.985 11.4846C159.889 11.4846 160.575 11.8206 161.039 12.4926C161.414 13.0259 161.599 13.6858 161.599 14.4698ZM160.266 14.1085C160.277 13.6938 160.185 13.3365 159.995 13.0352C159.753 12.6472 159.383 12.4526 158.883 12.4526C158.427 12.4526 158.055 12.6419 157.771 13.0219C157.539 13.3245 157.402 13.6858 157.357 14.1085H160.266Z" fill="white"/>
</svg>
