<svg width="42" height="29" viewBox="0 0 42 29" fill="none" xmlns="http://www.w3.org/2000/svg">
<path d="M18.7691 0.233C14.6229 0.674809 10.3067 2.67994 7.21408 5.65366C2.71102 9.93581 0.417007 16.0022 0.977765 22.0516C1.30063 25.4161 1.89537 26.7076 3.54366 27.6422L4.46126 28.1689H21.0291H37.597L38.5146 27.6422C40.1629 26.7076 40.7576 25.4161 41.0805 22.0516C41.4033 18.5001 40.7066 14.7108 39.1263 11.4991C36.0336 5.17787 30.0182 0.946692 23.0682 0.216007C21.25 0.0290871 20.6553 0.0290871 18.7691 0.233ZM24.4107 3.03679C29.6104 3.97139 34.3514 7.60782 36.7473 12.5357C38.0388 15.1696 38.3786 16.563 38.4806 19.6726C38.5825 22.7313 38.2937 24.4815 37.597 25.1952L37.1721 25.62H21.0291H4.88608L4.46126 25.1952C3.76456 24.4815 3.47569 22.7313 3.57764 19.6726C3.6796 16.563 4.01945 15.1696 5.3109 12.5357C7.02716 9.00122 9.76297 6.2654 13.2975 4.54914C16.8829 2.7819 20.3664 2.3231 24.4107 3.03679Z" fill="#9C92C5"/>
<path d="M18.0559 6.11248C13.8077 7.01309 10.2053 9.7659 8.21711 13.6402C7.26552 15.4754 6.77273 17.1917 6.63679 19.1798C6.55183 20.6072 6.56882 20.7602 6.90867 21.1C7.40146 21.5928 8.28508 21.5758 8.74388 21.066C9.01577 20.7772 9.11772 20.3523 9.20269 19.2648C9.6275 13.9121 13.7227 9.46004 19.0754 8.52544C20.6048 8.27055 23.0007 8.42348 24.4791 8.88229C25.4647 9.18815 25.6856 9.20515 26.0764 9.01823C26.6202 8.76334 26.909 8.10062 26.7391 7.4549C26.4163 6.18045 21.3694 5.39879 18.0559 6.11248Z" fill="#9C92C5"/>
<path d="M26.2282 13.2835L22.6767 16.835L21.3853 16.75C20.2468 16.682 20.0089 16.716 19.3292 17.0729C18.9043 17.3108 18.3436 17.8205 18.0547 18.2114C17.5959 18.8571 17.5449 19.061 17.5449 20.2335C17.5449 21.389 17.5959 21.6269 18.0377 22.2556C18.6494 23.1562 19.9239 23.8359 21.0284 23.8359C22.1329 23.8359 23.4074 23.1562 24.0191 22.2556C24.4609 21.6099 24.5119 21.406 24.5119 20.0466V18.5682L28.0464 15.0337C31.0711 12.009 31.5639 11.4483 31.5639 11.0065C31.5639 10.1908 31.1391 9.73202 30.4084 9.73202C29.8136 9.73202 29.5757 9.93594 26.2282 13.2835Z" fill="#9C92C5"/>
</svg>
