<svg width="26" height="44" viewBox="0 0 26 44" fill="none" xmlns="http://www.w3.org/2000/svg">
<path d="M10.4391 0.552601C5.80158 1.54396 2.23941 4.66926 0.626352 9.15557C0.122271 10.5838 0.105469 10.735 0.105469 13.3226C0.105469 15.8262 0.139074 16.0951 0.575944 17.3553C0.844787 18.0946 1.36567 19.2204 1.73533 19.8757C2.54186 21.2199 4.44056 23.2866 5.61675 24.0428L6.40647 24.5468V27.1344V29.7053H4.02049C2.42424 29.7053 1.48329 29.7893 1.19764 29.9237C0.626352 30.2093 0.307101 30.8982 0.508733 31.4191C0.592747 31.6208 3.31478 34.3932 6.5577 37.5689C11.6993 42.5929 12.5058 43.3154 12.9595 43.3154C13.4132 43.3154 14.2197 42.5929 19.3613 37.5521C22.6043 34.3932 25.3263 31.6208 25.4103 31.4191C25.6119 30.8982 25.2927 30.2093 24.7214 29.9237C24.4358 29.7893 23.4948 29.7053 21.9153 29.7053H19.5126V27.1344L19.5294 24.5804L20.3359 24.0259C21.5457 23.2026 23.394 21.2031 24.1837 19.8757C24.5534 19.2204 25.0743 18.0946 25.3431 17.3553C25.78 16.0951 25.8136 15.8262 25.8136 13.3226C25.8136 10.735 25.7968 10.5838 25.2927 9.15557C24.4021 6.68558 23.0411 4.77007 21.008 3.14021C19.7982 2.14885 17.7483 1.12389 16.236 0.703823C14.8414 0.334164 11.8001 0.250153 10.4391 0.552601ZM15.1943 3.08981C19.0085 3.92994 22.1506 6.98803 23.1251 10.8022C23.4444 12.0792 23.4444 14.566 23.1251 15.843C22.5034 18.2962 20.8064 20.699 18.706 22.0768C18.1852 22.4297 17.1098 22.9338 16.3201 23.2194C15.0431 23.6731 14.6734 23.7235 12.9595 23.7235C11.2456 23.7235 10.876 23.6731 9.59898 23.2194C7.8011 22.5809 6.5577 21.7744 5.24709 20.3798C3.49961 18.4979 2.54186 16.0447 2.54186 13.373C2.54186 11.4407 2.7771 10.4158 3.58362 8.7019C4.13811 7.54251 4.52457 7.02163 5.63355 5.92946C8.27157 3.32504 11.6825 2.31688 15.1943 3.08981ZM12.9595 26.2439C14.3709 26.2439 15.3791 26.1599 16.0344 25.9751L16.9922 25.7062V28.5963C16.9922 32.3097 16.9418 32.2257 19.3613 32.2257C20.2855 32.2257 21.0248 32.2761 20.9912 32.3433C20.9744 32.4273 19.1429 34.242 16.9586 36.4095L12.9595 40.3582L8.97728 36.4095C6.77613 34.242 4.96144 32.4273 4.92784 32.3433C4.89423 32.2761 5.63355 32.2257 6.5577 32.2257C8.97728 32.2257 8.92688 32.3097 8.92688 28.5963V25.7062L9.90143 25.9751C10.5399 26.1599 11.5481 26.2439 12.9595 26.2439Z" fill="#9C92C5"/>
<path d="M11.9507 5.37497C11.749 5.61021 11.6146 5.96307 11.6146 6.36633C11.6146 6.92082 11.5474 7.00483 10.8417 7.37449C8.70774 8.48347 8.13645 11.1719 9.6823 12.8858C10.2368 13.5075 10.7913 13.7931 13.0428 14.7005C14.5215 15.3054 14.9079 15.8262 14.3702 16.5488C14.0846 16.9352 13.8662 17.036 13.1773 17.0696C12.1523 17.1368 11.5306 16.7168 11.3794 15.843C11.1777 14.8013 10.2032 14.4484 9.34625 15.1205C8.92618 15.4398 8.89257 15.5574 8.95978 16.3807C9.0606 17.6073 9.74951 18.5651 10.9089 19.1196C11.749 19.5228 11.7826 19.5732 11.7826 20.2285C11.7826 22.1777 14.2862 22.0936 14.3198 20.1445C14.3198 19.59 14.3871 19.506 15.1936 19.1196C16.4202 18.5147 17.0755 17.4393 17.0755 16.0111C17.0755 14.1796 16.0337 13.121 13.1605 12.0288C11.6314 11.4575 11.1609 11.0207 11.3458 10.2982C11.4802 9.77727 12.0011 9.49163 12.8412 9.49163C13.7654 9.49163 14.2694 9.82768 14.4711 10.567C14.6895 11.3735 15.3952 11.9448 15.9833 11.8104C17.8484 11.3735 16.9579 8.14741 14.7231 7.34089C14.1854 7.13925 14.135 7.07204 14.135 6.43354C14.135 5.543 13.6645 5.00531 12.8748 5.00531C12.5052 5.00531 12.1859 5.13973 11.9507 5.37497Z" fill="#9C92C5"/>
</svg>
