<svg width="40" height="40" viewBox="0 0 40 40" fill="none" xmlns="http://www.w3.org/2000/svg">
<g opacity="0.4">
<path d="M19.403 1.13686C19.1821 1.19997 18.2669 1.64177 17.3518 2.09934C15.411 3.0776 13.5334 3.74029 11.782 4.07164C10.1253 4.3872 7.22208 4.37143 5.28134 4.05586C4.41353 3.89808 3.51416 3.83496 3.29326 3.8823C2.55168 4.07164 1.8101 4.70277 1.43142 5.46013L1.05273 6.21749L1.24207 9.72029C1.44719 13.728 1.62076 15.4321 2.06255 18.1144C3.78239 28.4019 7.82165 33.7034 17.1151 37.8689C19.9079 39.1154 20.1288 39.1312 22.5271 38.0898C26.6295 36.2911 29.0909 34.7132 31.4892 32.3307C33.4299 30.39 34.1715 29.3644 35.3233 27.0765C37.3745 22.9741 38.4317 17.8462 38.8419 10.0516C39.0628 5.82304 38.9997 5.44436 38.0372 4.57655C37.2168 3.83496 36.5856 3.72451 34.8027 4.05586C32.9566 4.37143 29.9271 4.3872 28.2389 4.05586C26.5032 3.74029 24.5625 3.03027 22.5271 1.98889C20.7757 1.1053 20.0814 0.915962 19.403 1.13686ZM22.0853 4.57655C25.4619 6.23327 27.9548 6.83286 31.4734 6.83286C32.641 6.83286 34.1715 6.7224 34.9447 6.59618C35.702 6.45417 36.3647 6.39106 36.4121 6.43839C36.5541 6.5804 36.1438 13.5071 35.8756 15.511C34.6922 24.6309 32.1046 29.5221 26.5821 33.1038C25.2883 33.9559 22.5429 35.3759 20.9493 36.0228L20.0499 36.3857L18.977 35.9439C14.9693 34.2714 11.4033 31.952 9.60461 29.8535C6.57516 26.2876 4.93421 21.775 4.11374 14.6431C3.86128 12.4184 3.59305 6.64351 3.73506 6.50151C3.79817 6.43839 4.4293 6.46995 5.12355 6.59618C6.81184 6.89597 10.3304 6.89597 12.0818 6.59618C14.0383 6.24905 16.5155 5.38124 18.3774 4.40298C19.2452 3.94541 19.9868 3.56673 20.0341 3.58251C20.0814 3.59829 20.9966 4.04008 22.0853 4.57655Z" fill="#190278" stroke="#190278" stroke-width="0.5"/>
<path d="M24.406 13.7913C24.2482 13.8859 22.9702 15.6847 21.5659 17.799L18.994 21.6331L17.8738 20.5444C16.9744 19.6608 16.6588 19.4557 16.2644 19.4557C15.5859 19.4557 14.9863 20.0553 14.9863 20.7337C14.9863 21.1598 15.2388 21.5069 16.7377 23.0216C17.7002 23.9999 18.6627 24.8361 18.852 24.8834C19.6883 25.0886 19.9407 24.8046 23.1911 19.929C25.1949 16.9154 26.3468 15.0377 26.3468 14.7853C26.3468 13.9333 25.1792 13.3337 24.406 13.7913Z" fill="#190278" stroke="#190278" stroke-width="0.5"/>
</g>
</svg>
