<svg width="473" height="344" viewBox="0 0 473 344" fill="none" xmlns="http://www.w3.org/2000/svg">
<path opacity="0.2" d="M220.578 28.7991C243.745 48.8229 246.618 77.7134 233.738 95.1447C226.368 99.6417 216.86 98.2938 209.375 94.0195C198.842 87.9996 179.934 65.948 175.187 54.2344C163.559 25.5506 191.622 3.76935 220.578 28.7991Z" fill="#5287E0"/>
<path opacity="0.2" d="M36.9673 61.9243C63.5285 32.6918 110.682 23.6143 140.697 48.7553C154.457 60.2821 163.223 77.0932 173.954 91.8367C184.684 106.58 199.323 120.29 216.808 120.878C241.26 121.697 259.222 97.6458 280.899 85.5385C315.169 66.3974 359.681 79.5306 387.222 108.517C414.763 137.503 435.579 171.308 437.826 212.516C440.062 253.538 415.471 312.826 383.057 343.096H61.1775C54.3146 325.927 47.4554 308.758 40.5925 291.589C25.6222 254.134 10.4843 216.003 6.30022 175.53C2.11613 135.057 10.4097 91.1568 36.971 61.9243H36.9673Z" fill="#5287E0"/>
<path d="M42.2989 241.299H82.3959C83.8919 241.299 85.1046 242.593 85.1046 244.19V250.202C85.1046 251.798 83.8919 253.092 82.3959 253.092H42.2989C40.8029 253.092 39.5902 251.798 39.5902 250.202V244.19C39.5902 242.593 40.8029 241.299 42.2989 241.299Z" fill="#FFC587"/>
<path d="M42.299 249.844H82.3923C83.8901 249.844 85.101 248.548 85.101 246.953V250.202C85.101 251.8 83.8863 253.093 82.3923 253.093H42.299C40.8012 253.093 39.5903 251.796 39.5903 250.202V246.953C39.5903 248.552 40.8049 249.844 42.299 249.844Z" fill="#FF9549"/>
<path d="M42.2989 241.299H48.2304C46.7327 241.299 45.5218 242.596 45.5218 244.19V250.202C45.5218 251.8 46.7364 253.092 48.2304 253.092H42.2989C40.8012 253.092 39.5903 251.796 39.5903 250.202V244.19C39.5903 242.592 40.8049 241.299 42.2989 241.299Z" fill="#FF9549"/>
<path d="M68.2194 250.202V244.19C68.2194 242.592 67.0047 241.299 65.5107 241.299H72.355C73.8528 241.299 75.0637 242.596 75.0637 244.19V250.202C75.0637 251.8 73.849 253.092 72.355 253.092H65.5107C67.0085 253.092 68.2194 251.796 68.2194 250.202Z" fill="white"/>
<path d="M62.1462 159.9L62.6901 159.808C70.8012 158.457 78.7148 152.357 83.8564 143.49C88.998 134.628 90.5852 124.345 88.1038 115.996L87.9361 115.439L87.3922 115.53C79.2811 116.882 71.3675 122.982 66.2259 131.848C61.0843 140.711 59.4971 150.993 61.9785 159.343L62.1462 159.9ZM87.0457 116.978C89.1806 124.854 87.6008 134.445 82.7685 142.775C77.9361 151.105 70.5963 156.89 63.0366 158.361C60.9017 150.484 62.4815 140.894 67.3138 132.564C72.1462 124.234 79.486 118.449 87.0457 116.978Z" fill="#0AEDC7"/>
<path d="M63.182 159.164L61.9338 158.663C64.907 150.202 70.3877 137.908 79.6277 127.399L80.6001 128.373C71.5129 138.711 66.1105 150.822 63.182 159.164Z" fill="#0AEDC7"/>
<path d="M38.3458 135.443C41.2817 135.443 44.0761 135.001 46.6506 134.131L47.1722 133.952L47.0865 133.371C45.7229 124.067 39.579 114.99 30.6483 109.089C24.6087 105.097 17.7235 102.902 11.2592 102.902C8.3233 102.902 5.52893 103.343 2.95441 104.214L2.43279 104.393L2.51847 104.974C3.88211 114.278 10.026 123.355 18.9567 129.256C24.9962 133.244 31.8815 135.443 38.3458 135.443ZM45.734 133.001C43.4315 133.717 40.9501 134.079 38.3458 134.079C32.1162 134.079 25.4694 131.956 19.6311 128.095C11.2033 122.528 5.35008 114.059 3.87467 105.347C6.17721 104.632 8.65858 104.27 11.2629 104.27C17.4925 104.27 24.1393 106.393 29.9814 110.254C38.4091 115.821 44.2623 124.29 45.7378 133.001H45.734Z" fill="#0AEDC7"/>
<path d="M35.3912 181.49C43.2639 181.49 50.4696 178.997 55.6783 174.468L56.103 174.099L55.8236 173.594C51.3489 165.474 42.5076 159.443 32.1722 157.463C29.7951 157.005 27.3882 156.775 25.0224 156.775C17.1497 156.775 9.94406 159.268 4.73539 163.796L4.31064 164.166L4.59008 164.671C9.06476 172.79 17.9061 178.822 28.2414 180.802C30.6185 181.26 33.0254 181.49 35.3912 181.49ZM54.4338 173.777C49.4897 177.872 42.7534 180.122 35.3912 180.122C33.0999 180.122 30.7713 179.9 28.4687 179.458C18.7108 177.586 10.3502 172.011 5.97979 164.484C10.9239 160.389 17.6602 158.138 25.0224 158.138C27.3137 158.138 29.6423 158.361 31.9449 158.802C41.7027 160.675 50.0598 166.25 54.4338 173.777Z" fill="#0AEDC7"/>
<path d="M70.2013 216.647C71.9972 196.468 69.3816 177.228 62.6417 161.005C53.4576 138.902 36.6654 121.705 12.7346 109.892L13.2935 108.6C37.5298 120.56 54.5418 137.995 63.86 160.429C70.6931 176.874 73.3459 196.361 71.5277 216.782L70.1976 216.647H70.2013Z" fill="#0AEDC7"/>
<path d="M69.1768 187.629C68.8526 187.132 68.454 186.564 67.9808 185.94C61.4346 177.252 52.0903 171.478 41.6655 169.677C31.1214 167.864 19.1281 167.041 19.0088 167.033L19.0722 165.964C19.1914 165.971 31.2295 166.787 41.8294 168.62C52.5001 170.46 62.0642 176.373 68.7669 185.268C69.2513 185.912 69.6686 186.5 70.0039 187.017L69.1805 187.625L69.1768 187.629Z" fill="#0AEDC7"/>
<path d="M343.269 296.961C349.752 296.961 358.239 295.084 360.408 293.176C363.865 290.126 366.507 286.142 367.848 281.951C369.301 277.418 369.238 272.786 367.662 268.564C367.431 267.943 367.122 267.196 366.794 266.405C365.959 264.381 364.916 261.864 364.689 260.242C364.178 256.595 366.879 252.238 370.251 251.279C370.881 251.1 371.585 251.013 372.405 251.013C373.224 251.013 374.119 251.1 374.968 251.188C375.829 251.275 376.723 251.367 377.591 251.367C379.249 251.367 380.534 251.025 381.637 250.289C386.41 247.108 388.567 241.327 387.267 235.2C386.447 231.339 382.628 227.391 380.423 225.379C377.833 223.021 377.491 218.81 379.659 215.995C380.903 214.377 382.461 212.798 383.966 211.272C387.964 207.216 392.096 203.025 390.829 197.626C389.808 193.284 385.721 190.476 380.412 190.476C378.113 190.476 375.881 191.017 373.966 192.035C370.318 193.975 368.142 196.345 365.84 198.854C364.469 200.349 363.049 201.892 361.224 203.458L360.952 203.693C359.588 204.87 357.308 206.846 354.566 207.295C354.286 207.343 354.018 207.363 353.768 207.363C352.539 207.363 351.782 206.818 350.821 206.13C349.599 205.252 348.213 204.258 345.624 204.258C345.378 204.258 345.124 204.266 344.864 204.286C336.727 204.862 332.39 208.15 329.893 215.649C328.943 218.508 329.059 221.542 329.171 224.48C329.215 225.633 329.26 226.826 329.238 227.975C329.167 231.681 327.922 236.095 324.651 237.371C323.936 237.649 323.165 237.761 322.345 237.88C321.413 238.015 320.449 238.158 319.525 238.56C318.049 239.204 316.909 240.425 315.896 241.649C307.33 251.991 303.455 266.297 305.527 279.919C306.279 284.87 308.276 291.351 313.504 294.13C315.154 295.005 317.352 295.124 319.282 295.124C320.333 295.124 321.462 295.084 322.654 295.041C324.022 294.993 325.434 294.941 326.935 294.941C329.662 294.941 333.798 295.092 338.206 296.385C339.499 296.762 341.197 296.957 343.262 296.957L343.269 296.961ZM372.405 249.494C371.458 249.494 370.635 249.597 369.882 249.812C365.806 250.973 362.662 256.051 363.28 260.468C363.537 262.289 364.573 264.802 365.49 267.017C365.81 267.796 366.116 268.528 366.335 269.124C367.781 273.009 367.837 277.275 366.496 281.462C365.236 285.391 362.751 289.132 359.495 292.007C357.777 293.522 349.789 295.446 343.262 295.446C341.328 295.446 339.752 295.271 338.582 294.929C334.01 293.585 329.744 293.43 326.935 293.43C325.408 293.43 323.984 293.482 322.606 293.53C321.425 293.573 320.307 293.609 319.279 293.609C316.771 293.609 315.232 293.359 314.133 292.774C311.544 291.399 308.194 288.011 306.924 279.677C304.916 266.496 308.668 252.659 316.954 242.655C317.852 241.57 318.85 240.492 320.057 239.963C320.814 239.633 321.648 239.51 322.531 239.383C323.388 239.26 324.275 239.128 325.136 238.794C327.721 237.784 330.531 234.421 330.653 228.007C330.676 226.81 330.631 225.598 330.586 224.421C330.475 221.498 330.37 218.743 331.227 216.158C333.53 209.24 337.379 206.337 344.949 205.804C345.177 205.789 345.4 205.781 345.616 205.781C347.774 205.781 348.914 206.6 350.02 207.395C351.041 208.126 352.095 208.886 353.761 208.886C354.085 208.886 354.424 208.858 354.774 208.798C357.893 208.285 360.46 206.067 361.838 204.874L362.107 204.643C363.999 203.021 365.449 201.447 366.85 199.92C369.163 197.399 371.164 195.224 374.596 193.399C376.291 192.496 378.355 191.999 380.408 191.999C383.929 191.999 388.407 193.57 389.447 198.003C390.512 202.54 386.853 206.254 382.982 210.178C381.447 211.737 379.856 213.347 378.556 215.037C375.903 218.484 376.324 223.645 379.495 226.54C381.567 228.429 385.147 232.106 385.877 235.542C387.267 242.091 384.204 246.79 380.881 249.009C380.002 249.597 378.985 249.856 377.587 249.856C376.786 249.856 375.967 249.772 375.102 249.685C374.223 249.593 373.31 249.502 372.405 249.502V249.494Z" fill="#0AEDC7"/>
<path d="M323.597 284.512L322.963 284.162C336.719 255.645 354.391 229.601 375.486 206.759L375.993 207.291C354.946 230.083 337.319 256.059 323.593 284.508L323.597 284.512Z" fill="#0AEDC7"/>
<path d="M25.5663 253.538H110.075V298.317H25.5663V253.538Z" fill="#9087F4"/>
<path d="M16.4678 253.538H100.976V298.317H16.4678V253.538Z" fill="#6414E9"/>
<path opacity="0.8" d="M20.4581 265.025V286.754C23.9454 286.898 26.736 289.963 26.736 293.721V293.796H90.7043V293.721C90.7043 289.967 93.495 286.902 96.9823 286.754V265.025C93.495 264.882 90.7043 261.816 90.7043 258.059H26.736C26.736 261.812 23.9454 264.878 20.4581 265.025Z" fill="#BCB6F9"/>
<path d="M85.0263 279.112C83.3781 279.112 82.0419 277.686 82.0419 275.927C82.0419 274.168 83.3781 272.743 85.0263 272.743C86.6745 272.743 88.0107 274.168 88.0107 275.927C88.0107 277.686 86.6745 279.112 85.0263 279.112Z" fill="#9087F4"/>
<path d="M32.418 279.112C30.7698 279.112 29.4336 277.686 29.4336 275.927C29.4336 274.168 30.7698 272.743 32.418 272.743C34.0662 272.743 35.4024 274.168 35.4024 275.927C35.4024 277.686 34.0662 279.112 32.418 279.112Z" fill="#6414E9"/>
<path d="M56.7983 288.461C50.3008 287.335 45.8885 280.801 46.9432 273.867C47.9979 266.933 54.1202 262.224 60.6177 263.35C67.1153 264.476 71.5276 271.009 70.4729 277.943C69.4182 284.877 63.2959 289.586 56.7983 288.461Z" fill="#6414E9"/>
<path d="M59.2177 282.806H55.9055C55.4621 282.806 55.1007 282.42 55.1007 281.947C55.1007 281.474 55.4621 281.088 55.9055 281.088H59.2177C60.056 281.088 60.7379 280.361 60.7379 279.466V278.413C60.7379 277.518 60.056 276.79 59.2177 276.79H58.2304C56.5053 276.79 55.097 275.291 55.097 273.45V272.397C55.097 270.556 56.5016 269.053 58.2304 269.053H61.5426C61.986 269.053 62.3474 269.438 62.3474 269.912C62.3474 270.385 61.986 270.77 61.5426 270.77H58.2304C57.3921 270.77 56.7103 271.498 56.7103 272.393V273.446C56.7103 274.341 57.3921 275.069 58.2304 275.069H59.2177C60.9428 275.069 62.3512 276.568 62.3512 278.413V279.466C62.3512 281.307 60.9465 282.806 59.2177 282.806Z" fill="white"/>
<path d="M58.8415 284.58C58.3981 284.58 58.0367 284.194 58.0367 283.721V282.047C58.0367 281.574 58.3981 281.188 58.8415 281.188C59.2848 281.188 59.6463 281.574 59.6463 282.047V283.721C59.6463 284.194 59.2848 284.58 58.8415 284.58Z" fill="white"/>
<path d="M58.8415 270.639C58.3981 270.639 58.0367 270.254 58.0367 269.78V268.142C58.0367 267.669 58.3981 267.283 58.8415 267.283C59.2848 267.283 59.6463 267.669 59.6463 268.142V269.78C59.6463 270.254 59.2848 270.639 58.8415 270.639Z" fill="white"/>
<path d="M218.384 191.657L227.304 178.274L193.231 143.113C186.059 135.709 174.393 136.858 168.611 145.534L165.947 149.53C186.1 166.298 204.733 183.924 218.384 191.657Z" fill="#0E0E57"/>
<path d="M301.179 343.1L89.1583 343.1C76.6866 343.1 66.5762 332.31 66.5762 319.001L66.5762 196.508C66.5762 183.199 76.6866 172.409 89.1583 172.409L301.179 172.409C313.65 172.409 323.761 183.199 323.761 196.508V319.001C323.761 332.31 313.65 343.1 301.179 343.1Z" fill="#5287E0"/>
<path d="M323.761 225.733L66.5762 225.733V197.618L323.761 197.618V225.733Z" fill="#191970"/>
<g style="mix-blend-mode:screen" opacity="0.4">
<path d="M210.862 281.331H76.2149V247.192H210.862V281.331Z" fill="#FAFBFF"/>
</g>
<g style="mix-blend-mode:screen" opacity="0.4">
<path d="M310.59 281.331H224.032V247.192H310.59V281.331Z" fill="#FAFBFF"/>
</g>
<path d="M310.59 305.88H131.826V297.848H310.59V305.88Z" fill="#171754"/>
<path d="M310.586 323.955H168.264V315.923H310.586V323.955Z" fill="#171754"/>
<path style="mix-blend-mode:multiply" opacity="0.4" d="M66.5762 239.943V319.001C66.5762 332.309 76.6843 343.1 89.1583 343.1H301.182C313.653 343.1 323.764 332.313 323.764 319.001L66.58 239.943H66.5762Z" fill="url(#paint0_linear_38_807)"/>
<g style="mix-blend-mode:multiply" opacity="0.4">
<path d="M204.401 207.379L204.997 206.834C206.629 212.437 209.14 216.874 213.071 220.751C213.376 221.065 213.689 221.375 214.021 221.677L241.279 204.552V204.544C241.227 204.349 241.163 204.158 241.096 203.971C241.096 203.971 241.096 203.968 241.096 203.964C241.067 203.88 241.029 203.804 241 203.725C240.985 203.693 240.973 203.657 240.959 203.626C240.932 203.566 240.91 203.502 240.88 203.443C240.877 203.431 240.869 203.423 240.865 203.411C240.821 203.319 240.776 203.232 240.728 203.144C240.701 203.097 240.683 203.049 240.657 203.005C240.649 202.989 240.642 202.973 240.631 202.958C240.616 202.93 240.597 202.906 240.582 202.878C240.538 202.803 240.489 202.727 240.441 202.651C240.411 202.604 240.381 202.552 240.348 202.504L240.34 202.508C238.868 200.353 236.238 199.268 233.693 199.987C229.479 201.176 225.027 201.987 220.884 201.689L220.918 201.526C220.526 201.49 220.131 201.451 219.744 201.391L219.703 201.574C219.599 201.562 219.494 201.558 219.394 201.542C218.35 201.395 217.389 200.874 216.622 200.107L214.595 198.071L215.798 196.97L201.439 172.413H177.05C187.225 186.783 196.45 199.757 204.401 207.387V207.379Z" fill="#171754"/>
</g>
<path d="M190.131 142.847H149.822V137.717H190.131V142.847Z" fill="#6414E9"/>
<path d="M193.451 140.067L211.439 106.815C212.08 105.634 211.733 104.123 210.66 103.387L209.192 102.381L189.04 139.634L190.705 140.775C191.644 141.419 192.896 141.093 193.451 140.063V140.067Z" fill="#6414E9"/>
<path d="M187.601 140.544C187.601 142.035 188.734 143.244 190.131 143.244C191.528 143.244 192.661 142.035 192.661 140.544C192.661 139.053 191.528 137.845 190.131 137.845C188.734 137.845 187.601 139.053 187.601 140.544Z" fill="#6414E9"/>
<path d="M190.131 142.023C189.366 142.023 188.745 141.361 188.745 140.544C188.745 139.727 189.366 139.065 190.131 139.065C190.897 139.065 191.517 139.727 191.517 140.544C191.517 141.361 190.897 142.023 190.131 142.023Z" fill="#6414E9"/>
<path d="M167.653 133.069L176.715 130.632L185.653 135.3V137.924H162.381L167.653 133.069Z" fill="#FFB6B6"/>
<path d="M138.745 80.4134L143.857 111.829L170.075 131.566L162.184 135.789C151.334 131.28 138.738 128.354 132.154 118.087L122.061 83.1569L138.745 80.4094V80.4134Z" fill="#D23539"/>
<path d="M114.624 89.0895L132.422 120.322L138.272 125.232L114.624 89.0895Z" fill="#D23539"/>
<path d="M136.882 140.807L181.636 142.604C186.674 142.807 190.66 147.224 190.66 152.604C190.66 157.395 187.482 161.51 183.075 162.425C167.791 165.598 133.872 172.393 123.462 172.393C111.535 172.393 101.863 162.075 101.863 149.344L136.882 140.807Z" fill="#191970"/>
<path d="M137.977 67.4115L139.27 69.0497C145.31 76.7037 147.508 87.0138 145.127 96.6917C140.429 115.777 137.076 127.968 136.882 140.807L101.863 149.344V122.978C101.863 104.063 102.124 90.8269 110.883 76.2504C117.821 64.7037 127.91 63.2167 129.322 63.7057L137.977 67.4075V67.4115Z" fill="#FD696C"/>
<path d="M173.831 127.821L166.979 131.546L170.832 133.677L175.105 129.888C175.656 129.399 175.668 128.505 175.131 128C174.773 127.662 174.256 127.59 173.831 127.825V127.821Z" fill="#FFB6B6"/>
<path d="M160.049 133.069L169.107 130.632L178.045 135.3V137.924H154.777L160.049 133.069Z" fill="#EF9494"/>
<path d="M131.998 80.6242L136.185 109.077L166.044 131.3L156.532 137.9C144.565 132.775 130.135 127.077 122.955 115.63L115.965 83.976C114.814 78.7554 118.305 73.6739 123.316 73.2763C127.56 72.9423 131.334 76.1351 131.994 80.6242H131.998Z" fill="#E9494C"/>
<path d="M141.774 96.3696C141.027 96.3696 140.422 95.7234 140.422 94.9262C140.422 94.1291 141.027 93.4829 141.774 93.4829C142.521 93.4829 143.126 94.1291 143.126 94.9262C143.126 95.7234 142.521 96.3696 141.774 96.3696Z" fill="white"/>
<path d="M144.479 86.7076C144.479 87.5068 143.872 88.1509 143.127 88.1509C142.381 88.1509 141.774 87.5028 141.774 86.7076C141.774 85.9124 142.381 85.2643 143.127 85.2643C143.872 85.2643 144.479 85.9124 144.479 86.7076Z" fill="white"/>
<path d="M216.152 187.777L221.26 192.174C222.08 192.878 223.078 193.319 224.125 193.379C228.708 193.649 233.656 192.369 238.269 190.655C241.45 189.475 244.997 191.212 246.167 194.584L220.224 213.9C215.265 210.047 212.102 205.399 209.897 199.164L216.148 187.777H216.152Z" fill="#0AEDC7"/>
<path d="M246.167 194.576C246.1 194.385 246.026 194.202 245.944 194.019C245.892 193.904 245.836 193.797 245.776 193.685C245.746 193.626 245.716 193.566 245.687 193.51C245.605 193.367 245.523 193.228 245.433 193.093C245.422 193.077 245.415 193.065 245.403 193.049C245.303 192.902 245.199 192.755 245.09 192.62L218.462 212.357C219.014 212.898 219.602 213.415 220.232 213.904L246.175 194.588C246.175 194.588 246.175 194.584 246.175 194.58L246.167 194.576Z" fill="#E9494C"/>
<path d="M221.532 203.817C222.169 205.908 220.329 207.924 218.224 207.085C217.762 206.902 217.367 206.54 217.125 206.083C216.014 203.999 217.583 201.737 219.621 202.075C220.508 202.222 221.257 202.902 221.532 203.813V203.817Z" fill="#FAFBFF"/>
<path d="M231.905 192.608L234.029 195.904L235.049 195.157L233.201 192.286C232.769 192.397 232.341 192.504 231.905 192.608Z" fill="#FAFBFF"/>
<path d="M223.879 197.331L225.027 197.602L225.645 193.236C225.251 193.236 224.856 193.224 224.468 193.196L223.883 197.327L223.879 197.331Z" fill="#FAFBFF"/>
<path d="M228.265 193.236L228.615 197.308L229.848 197.192L229.494 193.069C229.088 193.129 228.671 193.188 228.265 193.232V193.236Z" fill="#FAFBFF"/>
<path d="M209.606 200.437L220.217 189.113L192.803 149.403C187.031 141.045 175.642 140.127 168.76 147.471L165.589 150.854C182.419 170.465 197.654 190.64 209.602 200.437H209.606Z" fill="#191970"/>
<path d="M167.268 36.9874C167.268 36.9874 173.067 37.5588 171.953 42.6815C171.953 42.6815 175.305 44.9263 174.107 48.0562C172.909 51.1862 169.454 50.4639 169.454 50.4639C169.454 50.4639 168.92 52.6461 167.242 53.4133C165.564 54.1804 162.391 49.7351 162.391 49.7351L164.526 39.4427L167.268 36.9874Z" fill="black"/>
<path d="M161.915 66.9869C159.312 72.3094 154.559 71.786 151.254 70.5729C150.615 70.3368 149.989 70.0638 149.378 69.755C148.867 69.4972 148.289 69.4366 147.741 69.5836C147.193 69.7306 146.711 70.076 146.377 70.5606L145.416 71.9531L138.669 81.7316C131.242 78.9452 130.095 64.1935 130.095 64.1935C130.095 64.1935 141.152 53.6332 142.491 42.9078C143.831 32.1824 151.017 27.8519 160.48 31.9785C169.943 36.1051 166.178 58.2722 161.915 66.9869Z" fill="#FFB6B6"/>
<path d="M137.188 49.8715C137.188 49.8715 137.412 54.2083 141.092 55.2592C144.773 56.3102 145.958 53.2086 145.958 53.2086C145.958 53.2086 147.066 55.6431 150.804 53.3686C154.542 51.0941 151.229 46.1346 151.229 46.1346C151.229 46.1346 152.419 40.3212 154.891 43.7292C157.363 47.1372 155.886 48.7508 159.341 49.2824C162.797 49.8141 161.263 44.2629 161.263 44.2629C161.263 44.2629 166.49 51.13 167.996 47.1987C169.501 43.2673 168.781 41.4471 168.781 41.4471C168.781 41.4471 172.26 36.0306 169.518 32.2499C169.518 32.2499 171.512 28.2381 166.998 25.8303C162.483 23.4225 160.353 27.0812 160.353 27.0812C160.353 27.0812 157.215 22.1993 154.198 22.6396C151.18 23.0798 150.694 26.7809 150.694 26.7809C150.694 26.7809 148.674 21.7983 144.246 25.7251C139.818 29.6519 142.409 33.222 142.409 33.222C142.409 33.222 139.67 30.7594 138.366 32.7347C137.062 34.7101 138.928 37.2739 138.928 37.2739C138.928 37.2739 136.085 35.9381 135.487 40.0695C134.89 44.2009 137.08 45.1576 137.08 45.1576C137.08 45.1576 135.301 45.7481 134.789 47.0864C134.276 48.4248 137.188 49.8715 137.188 49.8715Z" fill="black"/>
<path d="M151.411 70.5417C150.76 70.2998 150.122 70.0216 149.499 69.7081C148.978 69.4464 148.39 69.3792 147.836 69.518C147.283 69.6568 146.797 69.993 146.463 70.469L145.504 71.8366C144.076 69.2501 142.286 64.2264 145.092 60.4893C145.092 60.4893 146.886 67.8668 151.409 70.5412L151.411 70.5417Z" fill="#EF9494"/>
<path d="M193.598 100.942C199.732 100.942 204.705 95.6354 204.705 89.0893C204.705 82.5432 199.732 77.2365 193.598 77.2365C187.464 77.2365 182.492 82.5432 182.492 89.0893C182.492 95.6354 187.464 100.942 193.598 100.942Z" fill="white"/>
<path d="M194.087 96.0195H190.8C190.305 96.0195 189.902 95.59 189.902 95.0612C189.902 94.5324 190.305 94.103 190.8 94.103H194.087C194.865 94.103 195.495 93.427 195.495 92.6V91.5543C195.495 90.7233 194.861 90.0513 194.087 90.0513H193.107C191.337 90.0513 189.899 88.5165 189.899 86.6279V85.5821C189.899 83.6935 191.337 82.1587 193.107 82.1587H196.393C196.888 82.1587 197.291 82.5881 197.291 83.1169C197.291 83.6458 196.888 84.0752 196.393 84.0752H193.107C192.328 84.0752 191.698 84.7511 191.698 85.5782V86.6239C191.698 87.4549 192.332 88.1269 193.107 88.1269H194.087C195.856 88.1269 197.294 89.6616 197.294 91.5503V92.596C197.294 94.4847 195.856 96.0195 194.087 96.0195Z" fill="#6414E9"/>
<path d="M193.714 97.781C193.218 97.781 192.816 97.3515 192.816 96.8227V95.1647C192.816 94.6358 193.218 94.2064 193.714 94.2064C194.209 94.2064 194.612 94.6358 194.612 95.1647V96.8227C194.612 97.3515 194.209 97.781 193.714 97.781Z" fill="#6414E9"/>
<path d="M193.714 83.944C193.218 83.944 192.816 83.5146 192.816 82.9858V81.3556C192.816 80.8267 193.218 80.3973 193.714 80.3973C194.209 80.3973 194.612 80.8267 194.612 81.3556V82.9858C194.612 83.5146 194.209 83.944 193.714 83.944Z" fill="#6414E9"/>
<path d="M190.986 54.8355C196.259 52.5043 198.763 46.0523 196.579 40.4244C194.395 34.7965 188.349 32.124 183.075 34.4551C177.802 36.7863 175.297 43.2383 177.482 48.8662C179.666 54.4941 185.712 57.1666 190.986 54.8355Z" fill="white"/>
<path d="M187.484 51.161H184.425C183.93 51.161 183.528 50.7316 183.528 50.2028C183.528 49.6739 183.93 49.2445 184.425 49.2445H187.484C188.174 49.2445 188.732 48.6481 188.732 47.9125V46.9384C188.732 46.2028 188.174 45.6064 187.484 45.6064H186.571C184.891 45.6064 183.524 44.1471 183.524 42.3539V41.3797C183.524 39.5865 184.891 38.1273 186.571 38.1273H189.63C190.126 38.1273 190.528 38.5567 190.528 39.0855C190.528 39.6143 190.126 40.0438 189.63 40.0438H186.571C185.882 40.0438 185.323 40.6402 185.323 41.3758V42.3499C185.323 43.0855 185.882 43.6819 186.571 43.6819H187.484C189.165 43.6819 190.532 45.1412 190.532 46.9344V47.9085C190.532 49.7018 189.165 51.161 187.484 51.161Z" fill="#6414E9"/>
<path d="M187.138 52.7991C186.642 52.7991 186.24 52.3697 186.24 51.8409V50.2982C186.24 49.7693 186.642 49.3399 187.138 49.3399C187.633 49.3399 188.036 49.7693 188.036 50.2982V51.8409C188.036 52.3697 187.633 52.7991 187.138 52.7991Z" fill="#6414E9"/>
<path d="M187.138 39.9244C186.642 39.9244 186.24 39.495 186.24 38.9662V37.4513C186.24 36.9225 186.642 36.493 187.138 36.493C187.633 36.493 188.036 36.9225 188.036 37.4513V38.9662C188.036 39.495 187.633 39.9244 187.138 39.9244Z" fill="#6414E9"/>
<path d="M205.361 17.5918C209.432 16.5662 211.954 12.2126 210.993 7.8676C210.032 3.52261 205.952 0.831623 201.881 1.85713C197.809 2.88265 195.288 7.23631 196.249 11.5813C197.21 15.9263 201.289 18.6173 205.361 17.5918Z" fill="white"/>
<path d="M203.956 14.7397H201.713C201.217 14.7397 200.815 14.3103 200.815 13.7815C200.815 13.2527 201.217 12.8232 201.713 12.8232H203.956C204.328 12.8232 204.63 12.5012 204.63 12.1036V11.3918C204.63 10.9942 204.328 10.6721 203.956 10.6721H203.289C201.925 10.6721 200.815 9.48726 200.815 8.032V7.32027C200.815 5.86501 201.925 4.68011 203.289 4.68011H205.532C206.027 4.68011 206.43 5.10954 206.43 5.63836C206.43 6.16719 206.027 6.59661 205.532 6.59661H203.289C202.916 6.59661 202.615 6.91868 202.615 7.31629V8.02802C202.615 8.42563 202.916 8.7477 203.289 8.7477H203.956C205.319 8.7477 206.43 9.93258 206.43 11.3878V12.0996C206.43 13.5548 205.319 14.7397 203.956 14.7397Z" fill="#6414E9"/>
<path d="M203.699 15.9404C203.203 15.9404 202.801 15.511 202.801 14.9822V13.849C202.801 13.3202 203.203 12.8907 203.699 12.8907C204.194 12.8907 204.597 13.3202 204.597 13.849V14.9822C204.597 15.511 204.194 15.9404 203.699 15.9404Z" fill="#6414E9"/>
<path d="M203.699 6.50514C203.203 6.50514 202.801 6.07573 202.801 5.5469V4.43756C202.801 3.90873 203.203 3.47931 203.699 3.47931C204.194 3.47931 204.597 3.90873 204.597 4.43756V5.5469C204.597 6.07573 204.194 6.50514 203.699 6.50514Z" fill="#6414E9"/>
<path d="M9.09834 298H93.6069V342.779H9.09834V298Z" fill="#867DE3"/>
<path d="M-0.000144958 298H84.5085V342.779H-0.000144958V298Z" fill="#6414E9"/>
<path opacity="0.8" d="M3.99022 309.487V331.217C7.47757 331.36 10.2682 334.425 10.2682 338.183V338.258H74.2364V338.183C74.2364 334.429 77.0271 331.364 80.5144 331.217V309.487C77.0271 309.344 74.2364 306.278 74.2364 302.521H10.2682C10.2682 306.274 7.47757 309.34 3.99022 309.487Z" fill="#E6E6FF"/>
<path d="M68.5583 323.575C66.9101 323.575 65.574 322.149 65.574 320.39C65.574 318.631 66.9101 317.205 68.5583 317.205C70.2065 317.205 71.5427 318.631 71.5427 320.39C71.5427 322.149 70.2065 323.575 68.5583 323.575Z" fill="#6414E9"/>
<path d="M15.95 323.575C14.3018 323.575 12.9656 322.149 12.9656 320.39C12.9656 318.631 14.3018 317.205 15.95 317.205C17.5982 317.205 18.9344 318.631 18.9344 320.39C18.9344 322.149 17.5982 323.575 15.95 323.575Z" fill="#6414E9"/>
<path d="M42.2541 333.109C48.8367 333.109 54.173 327.415 54.173 320.39C54.173 313.365 48.8367 307.67 42.2541 307.67C35.6715 307.67 30.3353 313.365 30.3353 320.39C30.3353 327.415 35.6715 333.109 42.2541 333.109Z" fill="#6414E9"/>
<path d="M42.7459 319.531H41.7586C40.9203 319.531 40.2385 318.803 40.2385 317.908V316.855C40.2385 315.96 40.9203 315.232 41.7586 315.232H45.0708C45.5142 315.232 45.8756 314.847 45.8756 314.374C45.8756 313.9 45.5142 313.515 45.0708 313.515H43.1744V312.6C43.1744 312.127 42.813 311.741 42.3696 311.741C41.9262 311.741 41.5649 312.127 41.5649 312.6V313.527C39.9292 313.638 38.6327 315.085 38.6327 316.859V317.912C38.6327 319.753 40.0373 321.256 41.7623 321.256H42.7496C43.5879 321.256 44.2698 321.984 44.2698 322.879V323.932C44.2698 324.827 43.5879 325.555 42.7496 325.555H39.4374C38.994 325.555 38.6327 325.94 38.6327 326.413C38.6327 326.886 38.994 327.272 39.4374 327.272H41.5649V328.187C41.5649 328.66 41.9262 329.046 42.3696 329.046C42.813 329.046 43.1744 328.66 43.1744 328.187V327.236C44.6982 327.014 45.8793 325.618 45.8793 323.928V322.875C45.8793 321.034 44.4747 319.535 42.7496 319.535L42.7459 319.531Z" fill="white"/>
<path d="M350.84 285.964H325.475V289.777C325.475 283.697 320.855 278.767 315.158 278.767C309.461 278.767 304.841 283.697 304.841 289.777V305.904H295.139V342.751H341.745C346.745 342.751 350.799 338.425 350.799 333.089V317.105H350.844V285.964H350.84Z" fill="#6414E9"/>
<path d="M371.473 288.429C371.473 283.093 367.416 278.763 362.416 278.763H315.81V278.786C321.209 279.152 325.478 283.94 325.478 289.78V303.657H325.519V331.741C325.519 337.82 330.139 342.75 335.836 342.75C341.533 342.75 346.153 337.82 346.153 331.741V303.657H371.47V288.429H371.473Z" fill="#E6E6FF"/>
<path d="M273.854 303.657V316.806H284.17V331.741C284.17 337.82 288.79 342.751 294.487 342.751C300.184 342.751 304.804 337.82 304.804 331.741V303.653H273.857L273.854 303.657Z" fill="#E6E6FF"/>
<path d="M263.537 322.413V314.663C263.537 308.584 268.157 303.653 273.854 303.653C279.55 303.653 284.17 308.584 284.17 314.663V322.413H263.537Z" fill="#6414E9"/>
<path d="M366.831 272.596V276.409C366.831 270.329 362.211 265.399 356.514 265.399C350.817 265.399 346.197 270.329 346.197 276.409V305.904H346.153V331.741C346.153 337.585 341.883 342.353 336.492 342.715V342.75H383.098C388.098 342.75 392.151 338.424 392.151 333.088V317.104H392.196V272.596H366.831Z" fill="#6414E9"/>
<path d="M404.476 302.246V275.061C404.476 269.725 400.419 265.395 395.419 265.395H357.166V265.419C362.565 265.784 366.835 270.572 366.835 276.413V302.246H404.476Z" fill="#E6E6FF"/>
<path d="M395.453 279.812H378.068C376.913 279.812 375.981 278.814 375.981 277.586C375.981 276.353 376.917 275.359 378.068 275.359H395.453C396.608 275.359 397.539 276.357 397.539 277.586C397.539 278.818 396.604 279.812 395.453 279.812Z" fill="#6414E9"/>
<path d="M395.453 286.349H378.068C376.917 286.349 375.981 287.347 375.981 288.576C375.981 289.804 376.917 290.802 378.068 290.802H395.453C396.604 290.802 397.539 289.804 397.539 288.576C397.539 287.347 396.604 286.349 395.453 286.349Z" fill="#6414E9"/>
<path d="M423.191 304.198C420.598 302.941 417.934 302.369 415.341 302.369H370.497C373.098 302.369 375.765 302.941 378.355 304.198C378.355 304.198 396.269 317.927 396.269 322.738C396.269 333.979 404.812 343.096 415.337 343.096H472.796V328.09L423.191 304.194V304.198Z" fill="#699EF5"/>
<path d="M428.612 328.09V343.096H371.157C360.624 343.096 352.088 333.979 352.088 322.738C352.088 311.498 361.112 302.369 371.145 302.369C373.746 302.369 376.414 302.941 379.003 304.198L391.574 310.253L428.608 328.094L428.612 328.09Z" fill="#191970"/>
<path d="M472.796 343.096H428.612V327.955H472.796V343.096Z" fill="#5287E0"/>
<path d="M432.133 322.142H446.358L433.068 315.152H418.843L432.133 322.142Z" fill="#95BDFF"/>
<path d="M372.36 333.78C366.887 333.78 362.449 329.045 362.449 323.204C362.449 317.362 366.887 312.627 372.36 312.627C377.834 312.627 382.271 317.362 382.271 323.204C382.271 329.045 377.834 333.78 372.36 333.78Z" fill="#95BDFF"/>
<path d="M314.633 97.777C295.605 97.777 278.418 106.354 266.287 120.075C264.629 121.952 261.857 122.011 260.146 120.186L260.064 120.099C258.414 118.338 258.392 115.499 259.99 113.689C273.705 98.1865 293.123 88.4888 314.633 88.4888C336.142 88.4888 355.557 98.1865 369.275 113.689C370.877 115.499 370.851 118.342 369.204 120.099L369.122 120.186C367.412 122.011 364.64 121.952 362.982 120.075C350.851 106.354 333.664 97.777 314.636 97.777H314.633Z" fill="#FD696C"/>
<path d="M314.633 116.664C300.519 116.664 287.796 123.097 278.88 133.355C277.207 135.28 274.401 135.403 272.661 133.546L272.579 133.459C270.951 131.721 270.892 128.906 272.457 127.101C282.963 114.982 297.978 107.375 314.633 107.375C331.287 107.375 346.302 114.982 356.809 127.101C358.373 128.906 358.314 131.717 356.686 133.459L356.604 133.546C354.864 135.403 352.058 135.28 350.385 133.355C341.47 123.097 328.746 116.664 314.633 116.664Z" fill="#FD696C"/>
<path d="M314.633 135.55C305.396 135.55 297.099 139.88 291.402 146.731C289.77 148.691 286.931 148.775 285.195 146.918L285.098 146.815C283.511 145.121 283.384 142.377 284.875 140.584C292.166 131.805 302.803 126.262 314.633 126.262C326.462 126.262 337.099 131.805 344.394 140.584C345.885 142.377 345.758 145.121 344.171 146.815L344.074 146.918C342.338 148.771 339.495 148.691 337.867 146.731C332.17 139.88 323.873 135.55 314.636 135.55H314.633Z" fill="#FD696C"/>
<path d="M314.633 154.437C310.326 154.437 306.488 156.62 304.04 160.007C302.505 162.131 299.506 162.198 297.729 160.302L297.643 160.21C296.089 158.552 295.974 155.916 297.341 154.079C301.391 148.644 307.636 145.153 314.633 145.153C321.63 145.153 327.878 148.644 331.928 154.079C333.295 155.916 333.18 158.552 331.626 160.21L331.537 160.302C329.759 162.198 326.764 162.131 325.229 160.007C322.781 156.624 318.943 154.437 314.636 154.437H314.633Z" fill="#FD696C"/>
<path d="M94.6836 331.303H134.781C136.277 331.303 137.489 332.597 137.489 334.194V340.206C137.489 341.802 136.277 343.096 134.781 343.096H94.6836C93.1876 343.096 91.9749 341.802 91.9749 340.206V334.194C91.9749 332.597 93.1876 331.303 94.6836 331.303Z" fill="#FFC587"/>
<path d="M94.6835 339.848H134.777C136.275 339.848 137.486 338.551 137.486 336.957V340.205C137.486 341.804 136.271 343.096 134.777 343.096H94.6835C93.1858 343.096 91.9749 341.8 91.9749 340.205V336.957C91.9749 338.555 93.1895 339.848 94.6835 339.848Z" fill="#FF9549"/>
<path d="M94.6835 331.303H100.615C99.1172 331.303 97.9064 332.599 97.9064 334.194V340.206C97.9064 341.804 99.121 343.096 100.615 343.096H94.6835C93.1858 343.096 91.9749 341.8 91.9749 340.206V334.194C91.9749 332.595 93.1895 331.303 94.6835 331.303Z" fill="#FF9549"/>
<path d="M120.608 340.206V334.194C120.608 332.595 119.393 331.303 117.899 331.303H124.743C126.241 331.303 127.452 332.599 127.452 334.194V340.206C127.452 341.804 126.237 343.096 124.743 343.096H117.899C119.397 343.096 120.608 341.8 120.608 340.206Z" fill="white"/>
<path d="M87.9697 309.979V313.466C87.9697 323.673 95.7305 331.939 105.291 331.939H110.637C117.254 331.939 122.612 326.221 122.612 319.172V305.14C122.612 297.613 116.893 291.506 109.825 291.506H105.291C98.2455 291.506 92.1724 295.995 89.4749 302.452L92.0792 304.424H88.7707C88.2491 306.178 87.9697 308.047 87.9697 309.983V309.979Z" fill="#FF9549"/>
<path d="M94.393 309.979V313.466C94.393 318.567 96.3341 323.184 99.4749 326.531C102.601 329.879 106.934 331.943 111.718 331.943C121.282 331.943 129.028 323.673 129.028 313.47V311.454H127.661L129.028 310.508V309.983C129.028 299.776 121.278 291.51 111.718 291.51C102.158 291.51 94.3967 299.78 94.3967 309.983L94.393 309.979Z" fill="#FFC587"/>
<path d="M120.742 329.207L96.7663 300.675C97.8728 298.655 99.3259 296.882 101.043 295.446L125.522 324.579C124.214 326.424 122.597 327.995 120.742 329.207Z" fill="white"/>
<path d="M94.3929 313.466V309.979C94.3929 309.617 94.4041 309.255 94.4264 308.897L113.685 331.816C113.037 331.895 112.381 331.939 111.718 331.939C111.01 331.939 110.317 331.887 109.631 331.8L94.4003 313.673C94.4003 313.601 94.3966 313.534 94.3966 313.462L94.3929 313.466Z" fill="white"/>
<path d="M111.714 328.527C119.497 328.527 125.831 321.768 125.831 313.462V309.983C125.831 301.677 119.497 294.917 111.714 294.917C103.931 294.917 97.5971 301.677 97.5971 309.983V313.462C97.5971 321.768 103.931 328.527 111.714 328.527ZM111.714 297.196C118.32 297.196 123.696 302.933 123.696 309.983V313.462C123.696 320.512 118.32 326.249 111.714 326.249C105.108 326.249 99.732 320.512 99.732 313.462V309.983C99.732 302.933 105.108 297.196 111.714 297.196Z" fill="#FF9549"/>
<path d="M111.714 315.713L117.243 319.653L115.444 312.822L120.664 308.428L114.017 308.146L111.714 301.49L109.408 308.146L102.765 308.428L107.985 312.822L106.185 319.653L111.714 315.713Z" fill="#FF9549"/>
<defs>
<linearGradient id="paint0_linear_38_807" x1="-1605.87" y1="345.553" x2="-1605.45" y2="241.924" gradientUnits="userSpaceOnUse">
<stop stop-color="#6C2196"/>
<stop offset="0.24" stop-color="#74289D"/>
<stop offset="0.61" stop-color="#893EB3"/>
<stop offset="1" stop-color="#A85CD1"/>
</linearGradient>
</defs>
</svg>
