<svg width="593" height="480" viewBox="0 0 593 480" fill="none" xmlns="http://www.w3.org/2000/svg">
<path d="M184.422 433.456C138.484 433.456 99.0054 452.367 81.7207 479.427H287.123C269.839 452.367 230.36 433.456 184.422 433.456Z" fill="#ECEDF2"/>
<path d="M296.441 229.865C296.387 229.865 296.334 229.847 296.289 229.814C296.244 229.781 296.21 229.734 296.191 229.68C296.171 229.625 296.168 229.566 296.181 229.509C296.194 229.453 296.223 229.402 296.264 229.364L349.685 179.096C349.738 179.046 349.808 179.02 349.879 179.025C349.95 179.029 350.016 179.063 350.064 179.12C350.087 179.148 350.105 179.181 350.117 179.217C350.128 179.253 350.133 179.29 350.131 179.328C350.129 179.366 350.12 179.403 350.104 179.436C350.089 179.47 350.067 179.501 350.041 179.526L296.619 229.793C296.57 229.839 296.507 229.865 296.441 229.865Z" fill="#DBDBDD"/>
<path d="M296.442 238.056C296.403 238.056 296.366 238.047 296.331 238.03C296.296 238.014 296.265 237.989 296.24 237.958C296.193 237.901 296.169 237.827 296.174 237.751C296.178 237.675 296.211 237.605 296.264 237.554L349.685 187.285C349.738 187.235 349.808 187.209 349.88 187.214C349.951 187.219 350.017 187.253 350.064 187.31C350.111 187.367 350.136 187.442 350.131 187.518C350.127 187.594 350.094 187.665 350.041 187.715L296.619 237.984C296.57 238.03 296.507 238.056 296.442 238.056Z" fill="#DBDBDD"/>
<path d="M296.442 271.039C296.403 271.039 296.366 271.031 296.331 271.014C296.296 270.997 296.265 270.972 296.24 270.942C296.193 270.885 296.169 270.81 296.174 270.735C296.178 270.659 296.211 270.588 296.264 270.538L349.685 220.269C349.738 220.218 349.808 220.193 349.88 220.197C349.951 220.202 350.017 220.237 350.064 220.294C350.111 220.351 350.136 220.425 350.131 220.501C350.127 220.577 350.094 220.648 350.041 220.699L296.619 270.969C296.57 271.015 296.507 271.04 296.442 271.039Z" fill="#DBDBDD"/>
<path d="M404.031 301.792H296.117C296.045 301.792 295.977 301.762 295.927 301.708C295.876 301.655 295.848 301.582 295.848 301.506V125.817C295.848 125.741 295.876 125.668 295.927 125.614C295.977 125.56 296.045 125.53 296.117 125.53H404.031C404.102 125.53 404.17 125.56 404.221 125.614C404.271 125.668 404.299 125.741 404.299 125.817V301.506C404.299 301.582 404.271 301.655 404.221 301.708C404.17 301.762 404.102 301.792 404.031 301.792ZM296.386 301.219H403.762V126.103H296.385L296.386 301.219Z" fill="#DBDBDD"/>
<path d="M349.794 300.43C349.723 300.43 349.654 300.4 349.604 300.346C349.554 300.292 349.525 300.219 349.525 300.143V125.817C349.525 125.741 349.554 125.668 349.604 125.614C349.654 125.56 349.723 125.53 349.794 125.53C349.865 125.53 349.933 125.56 349.984 125.614C350.034 125.668 350.062 125.741 350.062 125.817V300.143C350.062 300.219 350.034 300.292 349.984 300.346C349.933 300.4 349.865 300.43 349.794 300.43Z" fill="#DBDBDD"/>
<path d="M350.607 237.818C350.553 237.818 350.5 237.8 350.455 237.767C350.41 237.734 350.376 237.687 350.357 237.633C350.337 237.578 350.334 237.519 350.347 237.462C350.36 237.406 350.389 237.355 350.43 237.317L403.851 187.048C403.877 187.023 403.908 187.003 403.942 186.991C403.975 186.979 404.01 186.974 404.045 186.976C404.081 186.979 404.115 186.988 404.147 187.005C404.179 187.021 404.207 187.044 404.23 187.073C404.254 187.101 404.272 187.134 404.283 187.169C404.294 187.205 404.299 187.243 404.297 187.28C404.295 187.318 404.286 187.355 404.27 187.388C404.255 187.422 404.233 187.452 404.207 187.477L350.785 237.746C350.736 237.793 350.673 237.818 350.607 237.818Z" fill="#DBDBDD"/>
<path d="M350.607 246.009C350.553 246.009 350.5 245.991 350.455 245.958C350.41 245.925 350.376 245.878 350.357 245.823C350.337 245.769 350.334 245.71 350.347 245.653C350.36 245.597 350.389 245.546 350.43 245.507L403.851 195.238C403.877 195.213 403.908 195.194 403.942 195.182C403.975 195.17 404.01 195.165 404.045 195.167C404.081 195.169 404.115 195.179 404.147 195.195C404.179 195.212 404.207 195.235 404.23 195.263C404.254 195.291 404.272 195.324 404.283 195.36C404.294 195.396 404.299 195.433 404.297 195.471C404.295 195.508 404.286 195.545 404.27 195.579C404.255 195.613 404.233 195.643 404.207 195.668L350.785 245.937C350.736 245.983 350.673 246.009 350.607 246.009Z" fill="#DBDBDD"/>
<path d="M350.607 278.992C350.553 278.992 350.5 278.975 350.455 278.941C350.41 278.908 350.376 278.861 350.357 278.807C350.337 278.753 350.334 278.693 350.347 278.637C350.36 278.58 350.389 278.529 350.43 278.491L403.851 228.222C403.877 228.197 403.908 228.178 403.942 228.166C403.975 228.153 404.01 228.148 404.045 228.151C404.081 228.153 404.115 228.163 404.147 228.179C404.179 228.196 404.207 228.219 404.23 228.247C404.254 228.275 404.272 228.308 404.283 228.344C404.294 228.379 404.299 228.417 404.297 228.454C404.295 228.492 404.286 228.529 404.27 228.563C404.255 228.596 404.233 228.627 404.207 228.652L350.785 278.921C350.736 278.967 350.673 278.992 350.607 278.992Z" fill="#DBDBDD"/>
<path d="M244.15 230.772C253.005 230.772 260.183 223.111 260.183 213.661C260.183 204.211 253.005 196.551 244.15 196.551C235.295 196.551 228.116 204.211 228.116 213.661C228.116 223.111 235.295 230.772 244.15 230.772Z" fill="#ECEDF2"/>
<path d="M201.564 273.124C216.229 273.124 228.116 260.438 228.116 244.788C228.116 229.139 216.229 216.452 201.564 216.452C186.9 216.452 175.012 229.139 175.012 244.788C175.012 260.438 186.9 273.124 201.564 273.124Z" fill="#ECEDF2"/>
<path d="M145.287 208.837C159.951 208.837 171.839 196.151 171.839 180.501C171.839 164.852 159.951 152.165 145.287 152.165C130.623 152.165 118.735 164.852 118.735 180.501C118.735 196.151 130.623 208.837 145.287 208.837Z" fill="#ECEDF2"/>
<path d="M278.686 390.697H223.52C223.377 390.697 223.241 390.637 223.14 390.529C223.039 390.422 222.983 390.276 222.983 390.124C222.983 389.972 223.039 389.826 223.14 389.719C223.241 389.611 223.377 389.551 223.52 389.551H278.686C278.828 389.551 278.965 389.611 279.065 389.719C279.166 389.826 279.223 389.972 279.223 390.124C279.223 390.276 279.166 390.422 279.065 390.529C278.965 390.637 278.828 390.697 278.686 390.697Z" fill="#DBDBDD"/>
<path d="M291.463 375.25H215.573C215.431 375.25 215.294 375.189 215.194 375.082C215.093 374.974 215.036 374.829 215.036 374.677C215.036 374.525 215.093 374.379 215.194 374.271C215.294 374.164 215.431 374.104 215.573 374.104H291.463C291.606 374.104 291.742 374.164 291.843 374.271C291.944 374.379 292 374.525 292 374.677C292 374.829 291.944 374.974 291.843 375.082C291.742 375.189 291.606 375.25 291.463 375.25Z" fill="#DBDBDD"/>
<path d="M242.26 390.697C242.117 390.697 241.981 390.637 241.88 390.529C241.779 390.422 241.723 390.276 241.723 390.124V374.677C241.723 374.525 241.779 374.379 241.88 374.271C241.981 374.164 242.117 374.104 242.26 374.104C242.402 374.104 242.539 374.164 242.639 374.271C242.74 374.379 242.797 374.525 242.797 374.677V390.124C242.797 390.276 242.74 390.422 242.639 390.529C242.539 390.637 242.402 390.697 242.26 390.697Z" fill="#DBDBDD"/>
<path d="M260.183 375.25C260.041 375.25 259.904 375.189 259.804 375.082C259.703 374.974 259.646 374.829 259.646 374.677V359.725C259.646 359.573 259.703 359.427 259.804 359.32C259.904 359.212 260.041 359.152 260.183 359.152C260.326 359.152 260.462 359.212 260.563 359.32C260.664 359.427 260.72 359.573 260.72 359.725V374.677C260.72 374.829 260.664 374.974 260.563 375.082C260.462 375.189 260.326 375.25 260.183 375.25Z" fill="#DBDBDD"/>
<path d="M282.559 360.298H242.26C242.117 360.298 241.981 360.238 241.88 360.13C241.779 360.023 241.723 359.877 241.723 359.725C241.723 359.573 241.779 359.427 241.88 359.32C241.981 359.212 242.117 359.152 242.26 359.152H282.553C282.696 359.152 282.832 359.212 282.933 359.32C283.034 359.427 283.09 359.573 283.09 359.725C283.09 359.877 283.034 360.023 282.933 360.13C282.832 360.238 282.696 360.298 282.553 360.298H282.559Z" fill="#DBDBDD"/>
<path d="M273.988 390.697C273.846 390.697 273.709 390.637 273.608 390.529C273.508 390.422 273.451 390.276 273.451 390.124V374.677C273.451 374.525 273.508 374.379 273.608 374.271C273.709 374.164 273.846 374.104 273.988 374.104C274.131 374.104 274.267 374.164 274.368 374.271C274.469 374.379 274.525 374.525 274.525 374.677V390.124C274.525 390.276 274.469 390.422 274.368 390.529C274.267 390.637 274.131 390.697 273.988 390.697Z" fill="#DBDBDD"/>
<path d="M75.8123 444.514H29.2275C29.0851 444.514 28.9485 444.453 28.8478 444.346C28.7471 444.238 28.6905 444.093 28.6905 443.941C28.6905 443.789 28.7471 443.643 28.8478 443.535C28.9485 443.428 29.0851 443.367 29.2275 443.367H75.8123C75.9547 443.367 76.0913 443.428 76.192 443.535C76.2927 443.643 76.3493 443.789 76.3493 443.941C76.3493 444.093 76.2927 444.238 76.192 444.346C76.0913 444.453 75.9547 444.514 75.8123 444.514Z" fill="#DBDBDD"/>
<path d="M57.9195 423.845H0.537C0.394579 423.845 0.257998 423.785 0.157291 423.678C0.0565844 423.57 0 423.424 0 423.272C0 423.12 0.0565844 422.975 0.157291 422.867C0.257998 422.76 0.394579 422.699 0.537 422.699H57.9195C58.0619 422.699 58.1985 422.76 58.2992 422.867C58.3999 422.975 58.4565 423.12 58.4565 423.272C58.4565 423.424 58.3999 423.57 58.2992 423.678C58.1985 423.785 58.0619 423.845 57.9195 423.845Z" fill="#DBDBDD"/>
<path d="M43.4273 444.514C43.2848 444.514 43.1483 444.453 43.0475 444.346C42.9468 444.238 42.8903 444.092 42.8903 443.94V423.272C42.8903 423.12 42.9468 422.975 43.0475 422.867C43.1483 422.76 43.2848 422.699 43.4273 422.699C43.5697 422.699 43.7063 422.76 43.807 422.867C43.9077 422.975 43.9643 423.12 43.9643 423.272V443.94C43.9643 444.092 43.9077 444.238 43.807 444.346C43.7063 444.453 43.5697 444.514 43.4273 444.514Z" fill="#DBDBDD"/>
<path d="M29.229 423.845C29.0866 423.845 28.95 423.785 28.8493 423.677C28.7486 423.57 28.692 423.424 28.692 423.272V402.603C28.692 402.451 28.7486 402.305 28.8493 402.197C28.95 402.09 29.0866 402.03 29.229 402.03C29.3714 402.03 29.508 402.09 29.6087 402.197C29.7094 402.305 29.766 402.451 29.766 402.603V423.272C29.766 423.424 29.7094 423.57 29.6087 423.677C29.508 423.785 29.3714 423.845 29.229 423.845Z" fill="#DBDBDD"/>
<path d="M71.8613 403.176H10.4607C10.3183 403.176 10.1817 403.115 10.081 403.008C9.98031 402.9 9.92374 402.755 9.92374 402.603C9.92374 402.451 9.98031 402.305 10.081 402.197C10.1817 402.09 10.3183 402.03 10.4607 402.03H71.8613C72.0037 402.03 72.1403 402.09 72.241 402.197C72.3418 402.305 72.3983 402.451 72.3983 402.603C72.3983 402.755 72.3418 402.9 72.241 403.008C72.1403 403.115 72.0037 403.176 71.8613 403.176Z" fill="#DBDBDD"/>
<path d="M75.8124 463.097L78.9041 479.427H88.1755L91.2659 463.097H75.8124Z" fill="#5287E0"/>
<path d="M163.691 463.097L166.782 479.427H176.053L179.145 463.097H163.691Z" fill="#5287E0"/>
<path d="M265.334 178.319C265.334 178.319 266.39 172.397 269.209 167.312C273.271 159.987 273.371 157.246 274.713 156.77C277.495 155.78 276.67 163.916 275.846 166.885C275.022 169.854 286.149 162.048 297.687 163.697C309.226 165.346 298.82 170.844 293.669 172.932C288.518 175.021 279.692 179.297 278.559 183.48C275.333 185.466 265.334 178.319 265.334 178.319Z" fill="#FFB6B6"/>
<path d="M193.708 282.876H61.2502V290.021H193.708V282.876Z" fill="#323F8B"/>
<path d="M66.4323 290.024V456.79C66.4323 458.462 67.0546 460.066 68.1624 461.248C69.2702 462.43 70.7727 463.094 72.3393 463.094H182.619C184.186 463.094 185.688 462.43 186.796 461.248C187.904 460.066 188.526 458.462 188.526 456.79V290.024H66.4323Z" fill="#DBDBDD"/>
<path d="M175.568 303.492H79.3875C77.413 303.492 75.8124 305.2 75.8124 307.307V329.247C75.8124 331.354 77.413 333.062 79.3875 333.062H175.568C177.543 333.062 179.143 331.354 179.143 329.247V307.307C179.143 305.2 177.543 303.492 175.568 303.492Z" fill="white"/>
<path d="M172.24 343.22H82.7155C78.903 343.22 75.8124 346.519 75.8124 350.587V446.127C75.8124 450.195 78.903 453.494 82.7155 453.494H172.24C176.053 453.494 179.143 450.195 179.143 446.127V350.587C179.143 346.519 176.053 343.22 172.24 343.22Z" fill="#818190"/>
<path d="M179.572 381.62H75.3868V387.557H179.572V381.62Z" fill="#DBDBDD"/>
<path d="M179.572 416.838H75.3868V422.775H179.572V416.838Z" fill="#DBDBDD"/>
<path d="M533.824 1H413.526C381.797 1 356.076 28.3234 356.076 62.0287V163.971C356.076 197.676 381.797 225 413.526 225H533.824C565.553 225 591.274 197.676 591.274 163.971V62.0287C591.274 28.3234 565.553 1 533.824 1Z" fill="white"/>
<path d="M533.297 227H414.053C398.434 226.979 383.461 220.356 372.416 208.584C361.372 196.812 355.159 180.851 355.139 164.202V62.7976C355.159 46.149 361.372 30.1884 372.416 18.4161C383.461 6.64382 398.434 0.0209459 414.053 0H533.297C548.916 0.0209459 563.889 6.64382 574.934 18.4161C585.978 30.1884 592.191 46.149 592.211 62.7976V164.197C592.193 180.847 585.98 196.809 574.935 208.582C563.891 220.355 548.917 226.979 533.297 227ZM414.053 4.2164C399.484 4.23595 385.517 10.4136 375.215 21.3945C364.914 32.3753 359.118 47.263 359.1 62.7923V164.197C359.118 179.726 364.914 194.614 375.215 205.595C385.517 216.576 399.484 222.753 414.053 222.773H533.297C547.865 222.752 561.832 216.574 572.133 205.593C582.435 194.613 588.231 179.726 588.25 164.197V62.7976C588.231 47.2687 582.435 32.3818 572.133 21.4013C561.832 10.4207 547.865 4.24263 533.297 4.22168L414.053 4.2164Z" fill="#DBDBDD"/>
<path d="M573.47 164.279V62.7207C573.47 38.5744 555.192 19 532.644 19L413.769 19C391.221 19 372.943 38.5744 372.943 62.7207V164.279C372.943 188.426 391.221 208 413.769 208H532.644C555.192 208 573.47 188.426 573.47 164.279Z" fill="white"/>
<path d="M532.209 210H412.349C400.904 209.984 389.932 205.103 381.842 196.426C373.751 187.749 369.203 175.986 369.195 163.718V61.2551C369.208 48.9918 373.759 37.2349 381.849 28.5634C389.939 19.892 400.908 15.0141 412.349 15H532.209C543.647 15.0198 554.611 19.9001 562.697 28.5709C570.783 37.2418 575.331 48.9955 575.344 61.2551V163.718C575.338 175.982 570.792 187.743 562.706 196.42C554.619 205.096 543.651 209.98 532.209 210ZM412.349 19.2671C401.964 19.2798 392.006 23.7076 384.663 31.5791C377.319 39.4507 373.188 50.1231 373.176 61.2551V163.718C373.188 174.851 377.319 185.524 384.662 193.396C392.006 201.268 401.963 205.697 412.349 205.712H532.209C542.593 205.693 552.545 201.262 559.885 193.39C567.225 185.518 571.353 174.847 571.363 163.718V61.2551C571.352 50.1227 567.222 39.4494 559.878 31.5776C552.534 23.7057 542.576 19.2784 532.189 19.2671H412.349Z" fill="#DBDBDD"/>
<path d="M458.723 135.85C456.203 134.403 453.836 131.796 451.621 128.031C449.406 124.265 448.295 119.821 448.289 114.697C448.289 109.719 449.509 105.986 451.951 103.497C454.392 101.008 457.981 99.1237 462.719 97.8436L480.024 93.2782C487.423 91.1982 491.122 87.351 491.122 81.7367C491.122 78.6895 489.754 76.0423 487.018 73.7952C484.281 71.548 479.583 70.4262 472.922 70.4298C467.143 70.3874 461.387 71.2368 455.829 72.9525C450.5 74.6379 446.209 76.5935 442.954 78.8193C440.418 76.7191 438.24 74.1563 436.516 71.2458C434.741 68.2804 433.853 64.7124 433.853 60.5416C433.786 56.5888 434.959 52.7284 437.18 49.5921C439.402 46.4667 442.473 43.9031 446.394 41.9013C450.842 39.7225 455.548 38.2237 460.377 37.4479C466.288 36.444 472.264 35.9606 478.247 36.0025C495.709 36.0025 508.918 40.2124 517.872 48.6321C526.826 57.0518 531.303 68.0742 531.303 81.6993C531.303 107.36 514.581 123.798 481.136 131.012L458.723 135.85ZM451.399 167.36C451.399 160.789 453.286 155.379 457.059 151.13C460.833 146.881 466.05 144.748 472.71 144.73C479.371 144.73 484.586 146.863 488.356 151.13C492.126 155.397 494.013 160.807 494.016 167.36C494.016 173.941 492.13 179.354 488.356 183.6C484.583 187.845 479.368 189.979 472.71 190C466.053 190 460.836 187.867 457.059 183.6C453.283 179.333 451.396 173.92 451.399 167.36Z" fill="#6414E9"/>
<path d="M402.765 309.393C410.317 309.393 416.439 302.86 416.439 294.801C416.439 286.742 410.317 280.209 402.765 280.209C395.214 280.209 389.092 286.742 389.092 294.801C389.092 302.86 395.214 309.393 402.765 309.393Z" fill="#5287E0"/>
<path d="M399.426 300.613C399.468 300.294 399.569 299.987 399.724 299.709C399.878 299.432 400.082 299.19 400.325 298.997C400.808 298.62 401.41 298.499 402.132 298.635C402.853 298.77 403.381 299.105 403.714 299.638C404.031 300.19 404.147 300.847 404.042 301.485C403.936 302.122 403.617 302.697 403.142 303.101C402.659 303.478 402.057 303.599 401.337 303.463C400.616 303.327 400.089 302.993 399.754 302.46C399.587 302.191 399.473 301.889 399.417 301.572C399.36 301.255 399.364 300.929 399.426 300.613ZM405.983 288.516C405.918 288.908 405.816 289.475 405.677 290.216C405.538 290.958 405.374 291.756 405.183 292.61C404.992 293.464 404.786 294.316 404.563 295.165C404.34 296.014 404.121 296.744 403.905 297.355C403.805 297.403 403.699 297.437 403.591 297.456C403.449 297.482 403.305 297.499 403.161 297.507C403.013 297.517 402.864 297.517 402.716 297.507C402.585 297.499 402.455 297.484 402.326 297.461C401.924 297.4 401.54 297.246 401.199 297.012C400.911 296.798 400.765 296.463 400.758 296.009C400.751 295.396 400.782 294.783 400.849 294.175C400.926 293.359 401.018 292.477 401.126 291.529C401.234 290.58 401.352 289.641 401.479 288.712C401.607 287.784 401.725 286.995 401.832 286.345C402.21 286.212 402.603 286.13 403 286.102C403.415 286.066 403.832 286.087 404.242 286.163C404.899 286.286 405.381 286.544 405.688 286.937C405.994 287.325 406.093 287.848 405.983 288.516Z" fill="#FD696C"/>
<path d="M195.087 119.289C195.087 119.289 201.252 117.315 202.119 122.971C202.119 122.971 206.434 123.761 206.434 127.444C206.434 131.128 202.612 131.919 202.612 131.919C202.612 131.919 202.92 134.354 201.503 135.866C200.085 137.377 195.091 134.29 195.091 134.29L193.241 122.971L195.087 119.289Z" fill="black"/>
<path d="M268.81 472.941C263.932 473.868 250.392 476.125 239.297 474.988C229.228 473.958 217.759 473.358 212.287 473.109C212.745 467.354 213.697 460.375 214.542 454.77C218.513 455.838 225.003 456.75 231.043 453.868L237.288 450.886C239.772 455.077 243.207 460.313 245.786 462.071C249.223 464.415 259.391 466.295 264.116 467.069C264.881 467.194 265.607 467.514 266.232 468.001C266.858 468.488 267.366 469.128 267.712 469.867L268.217 470.947C268.505 471.577 268.705 472.249 268.81 472.941Z" fill="#5287E0"/>
<path d="M268.217 479.427H215.153C214.737 479.427 214.325 479.335 213.942 479.159C213.56 478.983 213.215 478.726 212.929 478.403C212.643 478.079 212.421 477.697 212.278 477.28C212.135 476.862 212.073 476.418 212.096 475.974C212.143 475.064 212.208 474.105 212.287 473.109C217.759 473.358 229.232 473.958 239.297 474.989C250.393 476.125 263.932 473.868 268.81 472.941C269.32 476.076 268.217 479.427 268.217 479.427Z" fill="#182462"/>
<path d="M237.292 450.893L231.047 453.875C225.006 456.757 218.518 455.845 214.546 454.777C215.416 449.024 216.176 444.73 216.176 444.73C216.176 444.73 217.186 444.864 222.099 445.403C227.013 445.942 234.072 445.134 234.072 445.134C234.072 445.134 235.405 447.713 237.292 450.893Z" fill="#FD696C"/>
<path d="M127.184 426.017C124.805 421.378 118.482 408.404 115.95 396.82C113.654 386.312 110.528 374.516 109.004 368.901C114.26 367.529 120.762 366.264 126.003 365.334C126.321 369.692 127.58 376.546 132.068 381.736L136.709 387.101C133.778 390.951 130.225 396.095 129.486 399.265C128.501 403.49 130.074 414.372 130.895 419.397C131.028 420.212 130.975 421.048 130.741 421.837C130.508 422.625 130.1 423.342 129.552 423.927L128.753 424.787C128.289 425.276 127.76 425.69 127.184 426.017Z" fill="#5287E0"/>
<path d="M121.235 427.479L103.88 372.455C103.803 372.213 103.773 371.958 103.791 371.705C103.809 371.451 103.875 371.204 103.984 370.978C104.094 370.751 104.245 370.551 104.428 370.388C104.611 370.226 104.823 370.104 105.052 370.03C106.244 369.647 107.578 369.267 109.004 368.894C110.528 374.509 113.654 386.304 115.95 396.813C118.482 408.397 124.811 421.371 127.184 426.01C124.564 427.526 121.235 427.479 121.235 427.479Z" fill="#182462"/>
<path d="M136.706 387.094L132.065 381.728C127.577 376.539 126.318 369.685 126 365.327C131.387 364.371 135.442 363.771 135.442 363.771C135.442 363.771 135.644 364.834 136.735 369.976C137.825 375.118 140.793 381.998 140.793 381.998C140.793 381.998 138.932 384.174 136.706 387.094Z" fill="#FD696C"/>
<path d="M237.6 440.867C237.6 450.334 230.057 451.182 223.458 450.106C218.326 449.272 213.765 447.279 213.765 447.279C213.765 447.279 197.556 386.874 186.227 355.403C184.962 351.893 183.758 348.742 182.645 346.076C181.109 342.397 179.745 339.642 178.628 338.132C174.653 333.341 170.604 328.695 166.68 324.127C148.452 302.889 133.057 283.391 141.307 259.309C170.873 257.447 193.483 259.309 193.483 259.309C193.483 259.309 237.6 392.45 237.6 440.867Z" fill="#191970"/>
<path d="M237.66 329.807C237.66 353.257 138.457 384.268 138.457 384.268C138.457 384.268 131.904 377.275 129.967 370.791C129.63 369.728 129.449 368.617 129.43 367.496C129.43 360.361 187.25 331.871 187.25 331.871C187.25 331.871 152.345 322.904 134.902 304.283C120.382 288.786 127.787 263.099 130.687 254.915C131.271 253.265 131.671 252.328 131.671 252.328L140.916 253.56L154.744 255.401L170.925 257.55L175.009 266.189L175.848 267.962L181.928 280.827C181.928 280.827 237.66 306.358 237.66 329.807Z" fill="#141466"/>
<path d="M278.679 184.699C278.021 196.439 254.142 245.355 236.046 245.355C217.951 245.355 200.508 230.762 195.004 215.471L192.99 201.732L188.525 171.329C210.726 185.009 222.796 221.561 233.459 219.147C244.123 216.733 263.513 175.352 263.513 175.352C263.513 175.352 277.081 177.877 278.555 183.48C278.661 183.876 278.703 184.288 278.679 184.699Z" fill="white"/>
<path d="M236.047 245.929C227.464 245.929 218.387 242.62 210.489 236.616C203.091 230.99 197.266 223.358 194.514 215.678C194.488 215.608 194.476 215.533 194.478 215.458C194.48 215.383 194.496 215.309 194.524 215.24C194.553 215.171 194.594 215.109 194.645 215.057C194.696 215.005 194.757 214.965 194.822 214.938C194.888 214.911 194.958 214.898 195.029 214.9C195.099 214.902 195.169 214.919 195.233 214.949C195.298 214.98 195.356 215.024 195.405 215.078C195.453 215.133 195.491 215.197 195.516 215.267C200.618 229.464 217.563 244.781 236.053 244.781C253.62 244.781 277.491 196.403 278.15 184.663C278.169 184.317 278.134 183.97 278.045 183.636C278.006 183.49 278.023 183.333 278.093 183.2C278.162 183.067 278.278 182.969 278.415 182.928C278.552 182.886 278.699 182.904 278.824 182.978C278.948 183.052 279.04 183.176 279.079 183.322C279.2 183.78 279.248 184.256 279.223 184.731C278.863 191.125 272.196 206.829 264.359 219.739C258.415 229.521 246.844 245.929 236.047 245.929Z" fill="#CAE2F5"/>
<path d="M263.513 175.352C259.521 183.662 255.189 191.995 250.394 199.869C250.394 199.869 260.456 184.406 261.476 182.567C262.496 180.729 265.085 175.69 265.085 175.69L263.513 175.352Z" fill="#CAE2F5"/>
<path d="M232.524 219.765C227.032 219.765 222.361 212.769 218.83 207.478C217.872 206.045 216.965 204.684 216.169 203.66L216.145 203.627L215.628 202.852C207.885 191.231 199.878 179.212 188.251 171.821C188.128 171.743 188.04 171.616 188.005 171.469C187.97 171.322 187.992 171.165 188.065 171.035C188.138 170.904 188.256 170.81 188.394 170.773C188.533 170.736 188.679 170.759 188.801 170.836C200.622 178.352 208.696 190.464 216.504 202.187L217.008 202.945C217.827 203.999 218.739 205.366 219.704 206.813C223.549 212.571 228.813 220.452 234.599 218.219C236.261 217.282 237.679 215.941 238.73 214.875C238.833 214.77 238.971 214.713 239.114 214.717C239.256 214.721 239.391 214.785 239.489 214.896C239.587 215.006 239.64 215.153 239.637 215.305C239.633 215.457 239.573 215.601 239.47 215.706C238.362 216.829 236.86 218.247 235.068 219.252L235.003 219.282C234.21 219.599 233.371 219.762 232.524 219.765Z" fill="#CAE2F5"/>
<path d="M278.679 184.699C278.021 196.439 254.142 245.355 236.046 245.355C217.951 245.355 200.508 230.762 195.004 215.471L192.99 201.733L194.884 194.45C194.884 194.45 203.813 211.739 207.459 224.055C211.106 236.372 226.254 242.413 237.666 237.871C248.961 233.378 273.955 202.761 278.558 183.48C278.663 183.876 278.703 184.288 278.679 184.699Z" fill="#CAE2F5"/>
<path d="M196.947 261.505C195.586 264.357 193.026 266.22 189.658 267.324C170.637 273.562 125.865 255.639 125.865 255.639C125.865 255.639 127.476 227.362 133.458 194.43C133.674 193.238 133.912 192.092 134.173 190.992C141.114 161.601 163.024 162.883 163.024 162.883C163.024 162.883 181.021 162.392 188.531 171.623C200.508 186.328 205.993 242.537 196.947 261.505Z" fill="white"/>
<path d="M181.906 175.791L188.525 180.501V169.743C188.525 168.755 184.363 166.878 184.363 166.878L181.906 175.791Z" fill="#151A66"/>
<path d="M189.658 267.324C170.637 273.562 125.865 255.639 125.865 255.639C125.865 255.639 127.476 227.362 133.458 194.43C133.674 193.238 133.912 192.092 134.173 190.992L144.395 190.085C144.395 190.085 141.826 207.556 139.092 214.653C136.359 221.749 134.931 240.402 144.395 246.234C153.86 252.065 158.522 264.297 173.711 264.297C183.339 264.294 187.733 266.045 189.658 267.324Z" fill="#CAE2F5"/>
<path d="M170.543 236.791C165.36 236.934 160.34 239.004 157.721 237.937C155.409 237 146.786 230.415 146.786 230.415L139.086 241.245C139.086 241.245 149.169 246.464 152.973 250.462C156.776 254.459 161.928 258.122 164.942 259.37C164.942 259.37 179.721 262.158 181.87 258.012C184.019 253.866 184.388 252.476 177.826 248.666C171.264 244.857 169.383 244.055 169.562 242.527C169.74 241 178.064 242.191 178.495 238.499C179.043 233.812 170.543 236.791 170.543 236.791Z" fill="#FFB6B6"/>
<path d="M151.164 244.126C148.271 248.281 144.814 252.31 144.814 252.31C144.814 252.31 96.7755 224.945 93.1145 202.882C89.4535 180.818 154.672 164.377 154.672 164.377L152.423 193.71C144.991 201.643 124.78 202.879 124.78 202.879C124.78 202.879 135.978 213.608 144.814 223.162L144.821 223.169C149.549 228.279 153.598 233.054 154.89 235.665C155.598 237.088 153.578 240.656 151.164 244.126Z" fill="white"/>
<path d="M115.336 229.362C115.336 229.362 95.4532 214.931 95.8694 200.967C96.2855 187.004 127.476 173.293 127.476 173.293C110.07 180.226 91.0941 190.695 93.1078 202.882C96.7702 224.945 144.809 252.31 144.809 252.31L115.336 229.362Z" fill="#CAE2F5"/>
<path d="M152.424 193.711C144.991 201.642 124.78 202.88 124.78 202.88L142.842 197.668C146.655 196.569 152.424 193.711 152.424 193.711Z" fill="#9FBED3"/>
<path d="M201.448 152.075C200.874 158.638 195.849 160.213 192.025 160.445C191.285 160.488 190.544 160.488 189.804 160.445C189.186 160.409 188.575 160.604 188.077 160.996C187.578 161.389 187.223 161.953 187.072 162.594L186.638 164.435L183.592 177.364C174.975 177.824 168.081 163.339 168.081 163.339C168.081 163.339 175.196 147.706 172.389 136.211C169.582 124.716 175.19 117.13 186.393 117.13C197.596 117.13 202.387 141.329 201.448 152.075Z" fill="#FFB6B6"/>
<path d="M169.688 145.671C169.688 145.671 171.596 149.956 175.729 149.396C179.863 148.836 179.86 145.178 179.86 145.178C179.86 145.178 181.925 147.151 184.827 143.204C187.73 139.257 182.454 135.704 182.454 135.704C182.454 135.704 181.405 129.302 185.229 131.658C189.052 134.013 188.182 136.295 191.886 135.31C195.59 134.324 191.886 129.388 191.886 129.388C191.886 129.388 199.839 134.026 199.839 129.388C199.839 124.751 198.405 123.228 198.405 123.228C198.405 123.228 199.827 116.219 195.586 113.606C195.586 113.606 196.049 108.672 190.546 108.227C185.044 107.783 184.305 112.421 184.305 112.421C184.305 112.421 179.236 108.869 176.352 110.644C173.468 112.42 174.411 116.375 174.411 116.375C174.411 116.375 170.434 112.229 167.474 118.15C164.514 124.072 168.52 126.539 168.52 126.539C168.52 126.539 164.793 125.257 164.239 127.828C163.684 130.4 166.567 132.169 166.567 132.169C166.567 132.169 163.172 132.072 164.168 136.512C165.164 140.952 167.752 140.953 167.752 140.953C167.752 140.953 166.18 142.334 166.18 143.913C166.18 145.492 169.688 145.671 169.688 145.671Z" fill="black"/>
<path d="M70.0235 187.758H79.2344C80.1797 187.758 81.0863 188.159 81.7548 188.872C82.4232 189.586 82.7987 190.553 82.7987 191.562V197.588C82.7987 198.597 82.4232 199.564 81.7548 200.278C81.0863 200.991 80.1797 201.392 79.2344 201.392H70.0235V187.758Z" fill="#6414E9"/>
<path d="M70.0235 202.972H79.2344C80.1797 202.972 81.0863 203.373 81.7548 204.086C82.4232 204.799 82.7987 205.767 82.7987 206.776V212.802C82.7987 213.811 82.4232 214.778 81.7548 215.491C81.0863 216.205 80.1797 216.606 79.2344 216.606H70.0235V202.972Z" fill="#5287E0"/>
<path d="M70.0235 218.187H79.2344C80.1797 218.187 81.0863 218.588 81.7548 219.301C82.4232 220.015 82.7987 220.982 82.7987 221.991V228.017C82.7987 229.026 82.4232 229.993 81.7548 230.707C81.0863 231.42 80.1797 231.821 79.2344 231.821H70.0235V218.187Z" fill="#FD696C"/>
<path d="M35.2984 177.218H30.2171V244.997H35.2984V177.218Z" fill="#0AEDC7"/>
<path d="M72.5676 177.514H35.2998V244.699H72.5676C73.5408 244.699 74.4741 244.287 75.1624 243.553C75.8507 242.818 76.2376 241.822 76.2379 240.784V181.426C76.2365 180.388 75.8492 179.393 75.161 178.66C74.4728 177.926 73.5401 177.514 72.5676 177.514Z" fill="white"/>
<path d="M72.5675 244.986H35.2997C35.2285 244.986 35.1602 244.956 35.1098 244.902C35.0595 244.848 35.0312 244.775 35.0312 244.699V177.514C35.0312 177.438 35.0595 177.365 35.1098 177.312C35.1602 177.258 35.2285 177.228 35.2997 177.228H72.5675C73.6117 177.229 74.6128 177.673 75.3511 178.461C76.0895 179.249 76.505 180.317 76.5064 181.431V240.784C76.5046 241.898 76.089 242.966 75.3507 243.753C74.6123 244.541 73.6115 244.984 72.5675 244.986ZM35.5709 244.413H72.5675C73.4693 244.412 74.3339 244.029 74.9717 243.349C75.6095 242.669 75.9683 241.746 75.9694 240.784V181.425C75.9669 180.464 75.6075 179.543 74.9699 178.863C74.3323 178.184 73.4685 177.802 72.5675 177.801H35.5682L35.5709 244.413Z" fill="#DBDBDD"/>
<path d="M64.0964 187.004H47.4387C46.1916 187.004 45.1806 188.083 45.1806 189.414V197.851C45.1806 199.182 46.1916 200.261 47.4387 200.261H64.0964C65.3435 200.261 66.3545 199.182 66.3545 197.851V189.414C66.3545 188.083 65.3435 187.004 64.0964 187.004Z" fill="#6414E9"/>
<path d="M60.3306 190.376H51.203C50.6313 190.376 50.1679 190.87 50.1679 191.48C50.1679 192.09 50.6313 192.585 51.203 192.585H60.3306C60.9023 192.585 61.3657 192.09 61.3657 191.48C61.3657 190.87 60.9023 190.376 60.3306 190.376Z" fill="white"/>
<path d="M62.1349 194.681H49.3986C48.827 194.681 48.3636 195.175 48.3636 195.785C48.3636 196.396 48.827 196.89 49.3986 196.89H62.1349C62.7066 196.89 63.17 196.396 63.17 195.785C63.17 195.175 62.7066 194.681 62.1349 194.681Z" fill="white"/>
<path d="M435.115 480H54.1216C53.9792 480 53.8426 479.94 53.7419 479.832C53.6412 479.725 53.5846 479.579 53.5846 479.427C53.5846 479.275 53.6412 479.129 53.7419 479.022C53.8426 478.914 53.9792 478.854 54.1216 478.854H435.115C435.258 478.854 435.394 478.914 435.495 479.022C435.596 479.129 435.652 479.275 435.652 479.427C435.652 479.579 435.596 479.725 435.495 479.832C435.394 479.94 435.258 480 435.115 480Z" fill="#29346D"/>
<path d="M384.119 457.22C383.857 456.683 383.805 456.057 383.976 455.48C384.146 454.902 384.525 454.421 385.028 454.141C385.531 453.862 386.117 453.807 386.658 453.989C387.2 454.171 387.651 454.574 387.913 455.111L399.685 479.235H394.863L384.119 457.22Z" fill="#0AEDC7"/>
<path d="M359.869 412.527C359.869 412.527 366.107 405.65 363.34 391.347C367.701 363.943 360.287 361.218 351.446 357.87C351.446 338.696 330.338 342.507 324.227 350.869C318.648 369.434 336.906 377.871 336.906 377.871C336.906 377.871 332.638 381.31 334.773 390.739C336.907 400.167 352.539 412.527 359.869 412.527Z" fill="#DCDDDE"/>
<path d="M374.121 406.564C374.121 406.564 389.685 401.348 388.486 386.051C387.287 370.754 385.935 369.78 385.935 369.78C385.935 369.78 398.286 364.606 404.384 352.338C410.482 340.07 406.903 326.642 406.903 326.642C406.903 326.642 371.863 312.836 376.473 351.246C372.835 350.375 350.311 388.466 374.121 406.564Z" fill="#DCDDDE"/>
<path d="M343.154 417.301C343.154 417.301 354.656 407.316 343.154 395.041C331.651 382.766 321.459 392.231 321.459 392.231C321.459 392.231 308.743 380.635 300.187 395.852C300.187 415.533 320.53 411.272 320.53 411.272C320.53 411.272 334.041 422.916 343.154 417.301Z" fill="#ECEDF2"/>
<path d="M389.192 407.998C389.192 407.998 397.168 413.236 402.745 410.617C408.321 407.998 408.321 403.99 408.321 403.99C408.321 403.99 414.152 409.536 421.503 406.289C428.855 403.043 427.968 395.874 427.968 395.874C427.968 395.874 425.052 383.565 415.545 385.323C406.039 387.081 406.551 391.816 406.551 391.816C406.551 391.816 401.608 383.158 394.256 388.975C386.904 394.792 389.192 407.998 389.192 407.998Z" fill="#ECEDF2"/>
<path d="M374.053 432.089C373.92 432.09 373.792 432.038 373.692 431.944C373.593 431.85 373.53 431.72 373.516 431.579C373.496 431.391 371.597 412.539 373.871 391.141C375.214 378.556 377.707 367.559 381.295 358.456C385.8 347.03 392.046 338.564 399.862 333.294C399.983 333.213 400.129 333.187 400.268 333.22C400.407 333.254 400.527 333.345 400.603 333.474C400.679 333.602 400.704 333.758 400.673 333.906C400.641 334.054 400.556 334.183 400.436 334.264C383.135 345.928 377.022 371.691 374.941 391.249C372.678 412.523 374.564 431.267 374.583 431.453C374.591 431.528 374.585 431.604 374.565 431.676C374.545 431.748 374.513 431.816 374.468 431.875C374.424 431.934 374.37 431.983 374.308 432.019C374.246 432.055 374.178 432.078 374.108 432.086L374.053 432.089Z" fill="#C6C6C7"/>
<path d="M378.472 427.563C378.416 427.564 378.36 427.554 378.307 427.535C378.173 427.488 378.061 427.387 377.996 427.252C377.931 427.118 377.919 426.962 377.961 426.818C377.986 426.734 380.58 418.256 386.562 410.352C390.088 405.695 394.08 402.136 398.442 399.777C403.901 396.822 409.932 395.753 416.372 396.6C416.514 396.619 416.642 396.697 416.73 396.817C416.817 396.937 416.856 397.089 416.838 397.24C416.82 397.391 416.747 397.528 416.635 397.621C416.522 397.715 416.38 397.756 416.238 397.737C404.932 396.25 395.236 400.727 387.415 411.046C381.549 418.782 379.005 427.092 378.981 427.169C378.946 427.284 378.878 427.383 378.786 427.454C378.695 427.525 378.585 427.563 378.472 427.563Z" fill="#DBDBDD"/>
<path d="M350.073 426.516C349.959 426.516 349.848 426.477 349.756 426.405C349.664 426.333 349.596 426.232 349.562 426.116C345.498 412.49 337.533 406.458 331.572 403.798C325.108 400.915 319.558 401.25 319.503 401.253C319.433 401.258 319.362 401.248 319.295 401.224C319.228 401.199 319.166 401.161 319.113 401.111C319.06 401.061 319.017 401.001 318.986 400.933C318.955 400.866 318.936 400.792 318.932 400.717C318.927 400.641 318.937 400.566 318.96 400.495C318.982 400.423 319.018 400.357 319.065 400.301C319.112 400.244 319.168 400.198 319.232 400.165C319.295 400.131 319.364 400.112 319.435 400.107C319.671 400.091 325.293 399.752 331.986 402.738C335.883 404.465 339.401 407.04 342.315 410.298C345.96 414.368 348.744 419.573 350.59 425.771C350.632 425.915 350.619 426.072 350.554 426.206C350.488 426.34 350.376 426.441 350.241 426.487C350.187 426.507 350.13 426.516 350.073 426.516Z" fill="#DBDBDD"/>
<path d="M361.142 429.569C361.004 429.569 360.871 429.512 360.771 429.41C360.671 429.308 360.611 429.169 360.605 429.022C359.873 411.007 353.356 394.133 348.022 383.15C342.229 371.229 336.537 363.481 336.476 363.404C336.387 363.285 336.346 363.133 336.362 362.981C336.378 362.83 336.45 362.691 336.562 362.596C336.674 362.501 336.817 362.457 336.959 362.474C337.101 362.492 337.23 362.568 337.319 362.688C337.377 362.765 343.123 370.583 348.96 382.592C352.389 389.647 355.183 396.75 357.261 403.707C359.863 412.411 361.347 420.91 361.675 428.966C361.681 429.118 361.631 429.266 361.534 429.378C361.438 429.49 361.304 429.557 361.162 429.563L361.142 429.569Z" fill="#C6C6C7"/>
<path d="M339.687 422.086V455.969C339.687 459.144 340.869 462.189 342.973 464.434C345.076 466.678 347.929 467.94 350.904 467.94H371.31C380.603 454.485 385.349 438.379 386.388 422.086H339.687Z" fill="#ECEDF2"/>
<path d="M386.388 422.086C385.349 438.379 380.603 454.485 371.31 467.94H380.564C383.539 467.94 386.392 466.678 388.495 464.434C390.599 462.189 391.78 459.144 391.78 455.969V422.086H386.388Z" fill="#DBDBDD"/>
<path d="M394.03 453.234H336.907C335.726 453.234 334.769 454.256 334.769 455.517C334.769 456.777 335.726 457.799 336.907 457.799H394.03C395.212 457.799 396.169 456.777 396.169 455.517C396.169 454.256 395.212 453.234 394.03 453.234Z" fill="#0AEDC7"/>
<path d="M343.655 457.22C343.917 456.683 343.968 456.057 343.798 455.48C343.713 455.194 343.577 454.929 343.396 454.699C343.216 454.469 342.995 454.28 342.746 454.141C342.243 453.862 341.656 453.807 341.115 453.989C340.574 454.171 340.123 454.574 339.861 455.111L328.087 479.235H332.911L343.655 457.22Z" fill="#0AEDC7"/>
<path d="M370.074 457.22C369.812 456.683 369.76 456.057 369.93 455.48C370.101 454.902 370.479 454.421 370.982 454.141C371.486 453.862 372.072 453.807 372.613 453.989C373.154 454.171 373.605 454.574 373.867 455.111L385.639 479.239H380.816L370.074 457.22Z" fill="#0AEDC7"/>
<path d="M192.027 160.445C191.288 160.488 190.546 160.488 189.807 160.445C189.189 160.41 188.578 160.604 188.079 160.997C187.581 161.389 187.226 161.953 187.075 162.594L186.641 164.435C184.234 162.411 180.538 158.037 181.906 152.923C181.906 152.923 186.504 159.722 192.026 160.445H192.027Z" fill="#EF9494"/>
<path d="M242.978 458.147C242.883 458.147 242.791 458.121 242.709 458.07C239.252 455.941 237.036 457.926 236.937 458.005C236.829 458.098 236.692 458.142 236.554 458.13C236.416 458.117 236.288 458.048 236.197 457.937C236.105 457.827 236.057 457.682 236.063 457.535C236.069 457.387 236.128 457.248 236.228 457.146C236.343 457.037 239.091 454.524 243.24 457.08C243.342 457.143 243.421 457.24 243.467 457.357C243.512 457.473 243.519 457.602 243.489 457.724C243.458 457.845 243.391 457.953 243.297 458.03C243.204 458.106 243.089 458.148 242.971 458.148L242.978 458.147Z" fill="#29346D"/>
<path d="M239.784 462.212C239.7 462.212 239.616 462.19 239.541 462.149C239.416 462.08 239.321 461.961 239.277 461.819C239.233 461.676 239.243 461.521 239.305 461.386C239.674 460.697 240.276 460.185 240.988 459.954C242.112 459.575 243.463 459.835 245.001 460.724C245.069 460.757 245.129 460.804 245.179 460.862C245.229 460.921 245.267 460.989 245.291 461.064C245.315 461.139 245.324 461.219 245.317 461.297C245.311 461.376 245.289 461.453 245.254 461.522C245.218 461.592 245.169 461.653 245.111 461.701C245.052 461.749 244.985 461.784 244.913 461.804C244.841 461.823 244.766 461.826 244.693 461.813C244.62 461.8 244.55 461.771 244.488 461.727C243.246 461.011 242.156 460.769 241.335 461.034C240.888 461.166 240.504 461.473 240.261 461.894C240.217 461.988 240.149 462.068 240.064 462.124C239.98 462.181 239.883 462.211 239.784 462.212Z" fill="#29346D"/>
<path d="M129.343 398.256C129.28 398.256 129.217 398.244 129.158 398.22C129.024 398.168 128.916 398.061 128.856 397.923C128.796 397.785 128.789 397.628 128.838 397.485C129.136 396.626 126.806 394.969 125.011 394.11C124.886 394.044 124.79 393.93 124.742 393.79C124.695 393.651 124.7 393.497 124.757 393.362C124.814 393.226 124.918 393.119 125.047 393.064C125.176 393.008 125.32 393.008 125.449 393.064C126.317 393.479 130.611 395.66 129.847 397.881C129.809 397.991 129.74 398.086 129.65 398.153C129.56 398.22 129.453 398.256 129.343 398.256Z" fill="#29346D"/>
<path d="M131.565 394.16C131.423 394.16 131.286 394.099 131.185 393.992C131.085 393.885 131.028 393.739 131.028 393.587C131.028 392.468 129.577 391.008 129.069 390.578C128.959 390.484 128.887 390.347 128.871 390.197C128.854 390.047 128.894 389.896 128.981 389.777C129.068 389.658 129.196 389.58 129.337 389.561C129.477 389.542 129.619 389.583 129.731 389.676C129.974 389.879 132.102 391.717 132.102 393.59C132.101 393.741 132.044 393.886 131.944 393.993C131.843 394.1 131.707 394.16 131.565 394.16Z" fill="#29346D"/>
<path d="M163.68 162.876L170.009 159.959C170.009 159.959 179.997 174.794 179.997 176.722C179.997 178.65 171.839 183.757 171.839 183.757L163.68 162.876Z" fill="#151A66"/>
<path d="M18.3305 324.227C18.3305 329.264 16.4554 334.095 13.1177 337.657C9.78006 341.219 5.2532 343.22 0.533 343.22C2.87032 343.22 5.18474 343.712 7.34412 344.666C9.50351 345.621 11.4655 347.02 13.1182 348.784C14.7709 350.548 16.0818 352.641 16.9762 354.946C17.8705 357.251 18.3307 359.721 18.3305 362.215C18.3305 357.178 20.2056 352.347 23.5433 348.785C26.881 345.223 31.4078 343.222 36.128 343.222C33.7907 343.222 31.4763 342.73 29.3169 341.776C27.1575 340.821 25.1955 339.422 23.5428 337.658C21.8901 335.894 20.5792 333.8 19.6849 331.496C18.7906 329.191 18.3303 326.721 18.3305 324.227Z" fill="#0AEDC7"/>
<path d="M278.686 407.997C278.686 416.951 272.779 424.209 265.483 424.209C272.775 424.209 278.686 431.469 278.686 440.423C278.686 431.469 284.593 424.209 291.888 424.209C284.597 424.209 278.686 416.951 278.686 407.997Z" fill="#0AEDC7"/>
<path d="M265.334 316.849C265.334 325.803 259.427 333.062 252.132 333.062C259.423 333.062 265.334 340.321 265.334 349.275C265.334 340.321 271.241 333.062 278.537 333.062C271.245 333.062 265.334 325.803 265.334 316.849Z" fill="#0AEDC7"/>
<path d="M151.164 244.126C151.218 243.991 154.02 237.021 154.02 236.149C154.02 235.276 145.1 223.541 144.822 223.173C149.551 228.283 153.6 233.059 154.891 235.669C155.598 237.087 153.578 240.656 151.164 244.126Z" fill="#CAE2F5"/>
<path d="M200.513 213.889L201.449 227.94L203.104 229.706L200.513 213.889Z" fill="#9FBED3"/>
<path d="M129.519 315.926C131.236 315.926 132.627 314.441 132.627 312.609C132.627 310.778 131.236 309.293 129.519 309.293C127.803 309.293 126.411 310.778 126.411 312.609C126.411 314.441 127.803 315.926 129.519 315.926Z" fill="#FD696C"/>
<path d="M70.1188 294.298C70.1188 294.298 66.5129 317.276 73.2066 322.333L98.6537 320.574C98.6537 320.574 95.7686 316.615 95.2531 311.449C94.7376 306.282 94.7389 294.298 94.7389 294.298H70.1188Z" fill="white"/>
<path d="M73.2093 322.62C73.1539 322.619 73.1 322.601 73.0549 322.566C70.2007 320.417 68.7978 314.973 68.8851 306.416C68.9483 302.342 69.2722 298.277 69.8544 294.251C69.865 294.183 69.8979 294.122 69.9471 294.078C69.9964 294.034 70.0587 294.01 70.1229 294.011H94.7457C94.8169 294.011 94.8852 294.042 94.9355 294.095C94.9859 294.149 95.0142 294.222 95.0142 294.298C95.0142 294.417 95.0142 306.333 95.527 311.419C96.0291 316.446 98.843 320.359 98.8725 320.397C98.9024 320.439 98.9212 320.488 98.9269 320.539C98.9326 320.591 98.9249 320.644 98.9047 320.691C98.8849 320.739 98.8533 320.779 98.8133 320.809C98.7733 320.839 98.7265 320.857 98.6779 320.86L73.2308 322.618L73.2093 322.62ZM70.3484 294.584C69.994 297.027 67.2607 317.304 73.2885 322.041L98.153 320.321C97.3971 319.154 95.4142 315.747 94.99 311.479C94.5228 306.801 94.4772 296.436 94.4731 294.584H70.3484Z" fill="#DBDBDD"/>
<path d="M73.2093 285.503C73.2093 285.503 72.6079 300.096 73.7248 300.784C75.817 300.439 77.8815 299.925 79.9003 299.245C79.9003 299.245 78.2531 286.821 78.2531 285.282C78.2531 283.743 73.2093 285.503 73.2093 285.503Z" fill="#6414E9"/>
<path d="M89.6679 304.212L75.1853 304.779C74.6548 304.8 74.2405 305.275 74.2599 305.842C74.2794 306.408 74.7252 306.85 75.2558 306.829L89.7383 306.262C90.2688 306.242 90.6831 305.766 90.6637 305.2C90.6442 304.634 90.1984 304.191 89.6679 304.212Z" fill="#DBDBDD"/>
<path d="M89.4509 311.903L79.3042 312.476C79.178 312.481 79.0521 312.459 78.9336 312.412C78.8152 312.365 78.7067 312.294 78.6141 312.202C78.5216 312.11 78.447 312 78.3945 311.877C78.342 311.755 78.3126 311.622 78.3081 311.487C78.2987 311.215 78.3908 310.951 78.5643 310.751C78.7378 310.552 78.9783 310.434 79.2331 310.424L89.3797 309.851C89.6345 309.841 89.8825 309.939 90.0693 310.125C90.2561 310.31 90.3664 310.566 90.3758 310.838C90.3807 310.973 90.3606 311.107 90.3167 311.234C90.2729 311.36 90.206 311.476 90.1201 311.575C90.0342 311.674 89.9309 311.754 89.8161 311.81C89.7012 311.866 89.5771 311.898 89.4509 311.903Z" fill="#DBDBDD"/>
<path d="M82.7987 117.417C82.7275 117.417 82.6592 117.387 82.6089 117.333C82.5585 117.279 82.5302 117.206 82.5302 117.13V88.7142C82.5302 88.6382 82.5585 88.5653 82.6089 88.5116C82.6592 88.4579 82.7275 88.4277 82.7987 88.4277C82.8699 88.4277 82.9382 88.4579 82.9886 88.5116C83.0389 88.5653 83.0672 88.6382 83.0672 88.7142V117.13C83.0672 117.206 83.0389 117.279 82.9886 117.333C82.9382 117.387 82.8699 117.417 82.7987 117.417Z" fill="#DBDBDD"/>
<path d="M82.7987 117.13C79.4599 117.131 76.2434 118.472 73.789 120.888C71.3346 123.303 69.8221 126.616 69.5523 130.168H96.0452C95.7754 126.616 94.2629 123.303 91.8085 120.888C89.3541 118.472 86.1376 117.131 82.7987 117.13Z" fill="#9A9AA7"/>
<path d="M96.0881 131.314C96.0881 130.926 96.0733 130.543 96.0451 130.168H69.5522C69.5241 130.548 69.5093 130.93 69.5093 131.314V134.562H96.0908L96.0881 131.314Z" fill="white"/>
<path d="M96.0881 135.135H69.5066C69.3642 135.135 69.2276 135.075 69.1269 134.967C69.0262 134.86 68.9696 134.714 68.9696 134.562V131.314C68.9696 130.92 68.9844 130.517 69.0139 130.118C69.0248 129.974 69.0861 129.839 69.1856 129.742C69.2852 129.644 69.4157 129.59 69.5509 129.59H96.0438C96.1791 129.59 96.3096 129.644 96.4091 129.742C96.5087 129.839 96.57 129.974 96.5809 130.118C96.6117 130.519 96.6265 130.921 96.6265 131.314V134.562C96.6265 134.637 96.6125 134.712 96.5855 134.781C96.5584 134.851 96.5187 134.914 96.4687 134.968C96.4187 135.021 96.3594 135.063 96.2941 135.092C96.2288 135.12 96.1588 135.135 96.0881 135.135ZM70.0436 133.989H95.5511V131.314C95.5511 131.123 95.5512 130.931 95.5391 130.741H70.0571C70.049 130.934 70.0463 131.128 70.0463 131.314L70.0436 133.989Z" fill="#DBDBDD"/>
<path d="M105.996 100.908C105.925 100.908 105.856 100.878 105.806 100.824C105.756 100.77 105.727 100.697 105.727 100.621V78.2712C105.727 78.1952 105.756 78.1223 105.806 78.0685C105.856 78.0148 105.925 77.9846 105.996 77.9846C106.067 77.9846 106.135 78.0148 106.186 78.0685C106.236 78.1223 106.264 78.1952 106.264 78.2712V100.621C106.264 100.697 106.236 100.77 106.186 100.824C106.135 100.878 106.067 100.908 105.996 100.908Z" fill="#DBDBDD"/>
<path d="M105.996 100.621C103.37 100.621 100.841 101.676 98.9108 103.575C96.9806 105.475 95.7908 108.08 95.578 110.872H116.415C116.202 108.079 115.012 105.474 113.082 103.575C111.151 101.675 108.622 100.621 105.996 100.621Z" fill="#9A9AA7"/>
<path d="M116.453 111.778C116.453 111.472 116.441 111.171 116.419 110.874H95.582C95.5597 111.172 95.548 111.473 95.5471 111.778V114.332H116.453V111.778Z" fill="white"/>
<path d="M116.452 114.905H95.5471C95.4047 114.905 95.2681 114.845 95.1674 114.737C95.0667 114.63 95.0101 114.484 95.0101 114.332V111.778C95.0101 111.465 95.0222 111.146 95.0463 110.828C95.0572 110.684 95.1185 110.55 95.218 110.452C95.3176 110.354 95.4481 110.3 95.5833 110.301H116.42C116.556 110.3 116.686 110.354 116.786 110.452C116.885 110.55 116.946 110.684 116.957 110.828C116.98 111.146 116.992 111.465 116.992 111.778V114.332C116.992 114.408 116.978 114.482 116.951 114.552C116.924 114.622 116.884 114.685 116.834 114.738C116.784 114.792 116.724 114.834 116.659 114.863C116.593 114.891 116.523 114.906 116.452 114.905ZM96.0841 113.759H115.915V111.778C115.915 111.668 115.915 111.558 115.915 111.447H96.0895C96.0895 111.557 96.0895 111.667 96.0895 111.778L96.0841 113.759Z" fill="#DBDBDD"/>
<path d="M185.74 249.931L184.68 249.748C185.287 245.757 185.767 241.699 186.108 237.686L187.182 237.789C186.84 241.829 186.356 245.914 185.74 249.931Z" fill="#CAE2F5"/>
<path d="M187.69 229.723L186.616 229.673C186.771 225.836 186.805 221.957 186.715 218.143L187.789 218.114C187.88 221.954 187.847 225.859 187.69 229.723Z" fill="#CAE2F5"/>
<path d="M185.472 201.032C183.901 188.364 181.425 180.767 181.4 180.688L182.414 180.307C182.439 180.384 184.951 188.093 186.536 200.877L185.472 201.032Z" fill="#CAE2F5"/>
</svg>
