<svg width="11" height="11" viewBox="0 0 11 11" fill="none" xmlns="http://www.w3.org/2000/svg">
<path d="M8.28266 0H2.71734C1.99687 0.000682592 1.3061 0.287193 0.796646 0.796646C0.287193 1.3061 0.000682592 1.99687 0 2.71734V8.28266C0.000682592 9.00313 0.287193 9.6939 0.796646 10.2034C1.3061 10.7128 1.99687 10.9993 2.71734 11H8.28266C9.00305 10.999 9.69366 10.7124 10.2031 10.2031C10.7124 9.69366 10.999 9.00305 11 8.28266V2.71734C10.999 1.99695 10.7124 1.30634 10.2031 0.796946C9.69366 0.287552 9.00305 0.000954975 8.28266 0ZM8.22594 3.47188C8.08775 3.4717 7.95272 3.43056 7.83792 3.35365C7.72312 3.27674 7.6337 3.16751 7.58098 3.03978C7.52826 2.91205 7.51459 2.77155 7.54172 2.63606C7.56884 2.50056 7.63554 2.37615 7.73337 2.27856C7.8312 2.18097 7.95577 2.11458 8.09134 2.08779C8.2269 2.061 8.36736 2.07501 8.49496 2.12804C8.62256 2.18108 8.73157 2.27077 8.8082 2.38576C8.88483 2.50075 8.92564 2.63588 8.92547 2.77406C8.92536 2.86581 8.90717 2.95664 8.87196 3.04137C8.83674 3.12609 8.78518 3.20305 8.72023 3.26785C8.65527 3.33264 8.57818 3.38401 8.49337 3.41902C8.40856 3.45403 8.31769 3.47199 8.22594 3.47188ZM5.5 2.88062C6.01806 2.88062 6.52449 3.03425 6.95525 3.32207C7.386 3.60989 7.72173 4.01898 7.91999 4.49761C8.11824 4.97624 8.17011 5.50291 8.06904 6.01101C7.96798 6.51912 7.7185 6.98585 7.35218 7.35218C6.98585 7.7185 6.51912 7.96798 6.01101 8.06904C5.50291 8.17011 4.97624 8.11824 4.49761 7.91999C4.01898 7.72173 3.60989 7.386 3.32207 6.95525C3.03425 6.52449 2.88062 6.01806 2.88062 5.5C2.88162 4.80561 3.15792 4.13994 3.64893 3.64893C4.13994 3.15792 4.80561 2.88162 5.5 2.88062Z" fill="white"/>
<path d="M5.49992 7.07602C5.81164 7.07602 6.11636 6.98358 6.37555 6.8104C6.63474 6.63721 6.83675 6.39106 6.95604 6.10307C7.07533 5.81507 7.10654 5.49817 7.04573 5.19244C6.98492 4.88671 6.83481 4.60588 6.61439 4.38546C6.39397 4.16504 6.11313 4.01493 5.8074 3.95411C5.50167 3.8933 5.18477 3.92451 4.89678 4.0438C4.60878 4.16309 4.36263 4.3651 4.18945 4.62429C4.01626 4.88348 3.92383 5.1882 3.92383 5.49992C3.92428 5.91779 4.09048 6.31841 4.38596 6.61389C4.68143 6.90936 5.08206 7.07556 5.49992 7.07602Z" fill="white"/>
</svg>
