<svg width="362" height="470" viewBox="0 0 362 470" fill="none" xmlns="http://www.w3.org/2000/svg">
<g style="mix-blend-mode:multiply">
<path d="M187.364 469.442C170.822 469.442 154.279 469.32 137.737 469.442C128.202 469.442 124.066 466.868 129.81 455.957C142.677 431.805 155.313 407.653 167.605 383.257C172.085 374.43 178.289 371.365 187.249 371.733C200.46 372.223 213.671 372.223 226.882 371.733C262.839 370.261 282.828 333.973 265.596 299.278C243.655 255.266 219.99 212.357 197.244 168.835C191.615 158.046 187.939 160.253 182.999 169.693C147.042 239.451 110.396 308.718 74.6685 378.598C41.3537 443.82 -22.7484 479.863 -85.0125 467.358C-175.881 449.214 -223.671 342.432 -179.098 253.794C-139.695 175.578 -97.8789 98.7094 -56.9822 21.3509C-37.338 -15.796 -18.2681 -53.3106 2.18022 -89.8444C21.8244 -124.907 51.2333 -141.703 89.0283 -139.864C90.4068 -139.864 91.9003 -139.864 93.2788 -139.619C103.618 -138.515 110.97 -137.289 115.45 -135.205C125.1 -130.669 122.688 -121.842 112.004 -101.614C42.7323 28.8293 -26.4245 159.395 -95.6962 289.838C-103.163 303.936 -109.367 318.28 -105.231 335.321C-96.7301 370.261 -60.3136 382.766 -29.0667 361.434C-19.6467 355.059 -12.4093 346.355 -6.89517 335.812C54.9094 217.874 116.714 100.058 178.519 -17.7575C179.897 -20.4546 181.391 -23.1518 182.654 -25.8489C187.594 -36.5148 191.615 -37.1278 197.588 -25.8489C245.723 65.9761 295.005 157.188 342.565 249.504C395.064 351.504 331.077 469.32 224.01 469.565C211.718 469.565 199.426 469.565 187.134 469.565L187.364 469.442Z" fill="#F6F6F6"/>
</g>
</svg>
