<svg width="205" height="31" viewBox="0 0 205 31" fill="none" xmlns="http://www.w3.org/2000/svg">
<path d="M20.3847 30.3657C19.505 30.3657 18.6254 30.3596 17.7458 30.3657C17.2388 30.3657 17.0189 30.2374 17.3243 29.6938C18.0085 28.4904 18.6804 27.2871 19.334 26.0715C19.5722 25.6317 19.9021 25.479 20.3785 25.4973C21.081 25.5217 21.7835 25.5217 22.486 25.4973C24.3979 25.424 25.4608 23.6159 24.5445 21.8872C23.3778 19.6943 22.1194 17.5563 20.91 15.3878C20.6107 14.8503 20.4152 14.9602 20.1525 15.4306C18.2406 18.9063 16.292 22.3576 14.3923 25.8394C12.6208 29.0891 9.21232 30.8849 5.90154 30.2619C1.06977 29.3578 -1.47134 24.0374 0.898736 19.621C2.99393 15.7238 5.2174 11.8938 7.392 8.03938C8.43655 6.18852 9.45055 4.31934 10.5379 2.49902C11.5824 0.75201 13.1462 -0.0848428 15.1558 0.0067838C15.2291 0.0067838 15.3085 0.00678175 15.3818 0.0189986C15.9316 0.0739746 16.3225 0.135059 16.5608 0.238903C17.0739 0.464915 16.9456 0.904721 16.3775 1.91261C12.6941 8.41199 9.01685 14.9175 5.33346 21.4169C4.93641 22.1193 4.60656 22.834 4.82646 23.6831C5.27849 25.424 7.21486 26.0471 8.87636 24.9842C9.37725 24.6665 9.76208 24.2328 10.0553 23.7075C13.3416 17.8312 16.628 11.961 19.9143 6.09079C19.9876 5.9564 20.067 5.82201 20.1342 5.68763C20.3969 5.15619 20.6107 5.12565 20.9283 5.68763C23.4877 10.2628 26.1083 14.8075 28.6372 19.4072C31.4287 24.4894 28.0263 30.3596 22.3332 30.3718C21.6796 30.3718 21.026 30.3718 20.3724 30.3718L20.3847 30.3657Z" fill="url(#paint0_linear_1085_10)"/>
<path d="M51.3788 25.6378C51.4949 25.8455 51.556 26.0532 51.556 26.267C51.556 26.6762 51.4216 26.9817 51.1589 27.1771C50.8963 27.3726 50.5786 27.4703 50.206 27.4703C49.8334 27.4703 49.5219 27.3909 49.2653 27.2382C48.6789 26.9083 48.2024 26.3708 47.8298 25.6256C47.4572 24.8803 47.274 23.7869 47.274 22.3392C47.274 21.3619 46.9807 20.6411 46.3943 20.1707C45.8079 19.7004 45.0444 19.4683 44.1098 19.4683H38.1846V26.0654C38.1846 26.4747 38.0685 26.8106 37.8303 27.0794C37.5982 27.3421 37.2928 27.4764 36.9201 27.4764C36.4681 27.4764 36.0833 27.342 35.7595 27.0672C35.4358 26.7923 35.277 26.4624 35.277 26.0715V8.36313C35.277 7.97219 35.4114 7.64233 35.6862 7.36746C35.9611 7.09258 36.291 6.95819 36.6819 6.95819H44.9222C45.979 6.95819 46.9441 7.21474 47.8237 7.73396C48.7033 8.25318 49.4058 8.96786 49.9372 9.87191C50.4626 10.7821 50.7313 11.8022 50.7313 12.9384C50.7313 14.0745 50.4381 15.0519 49.8517 16.0048C49.2653 16.9516 48.514 17.6602 47.5916 18.1305C48.3124 18.5031 48.8866 19.0224 49.3081 19.6821C49.7295 20.3479 49.9556 21.1176 49.9983 21.9972C50.0777 23.1089 50.1632 23.8664 50.261 24.2695C50.3587 24.6727 50.5725 24.9598 50.9085 25.1369C51.1039 25.2713 51.2628 25.4423 51.3788 25.65V25.6378ZM46.2599 16.4446C46.6998 16.0903 47.054 15.62 47.3289 15.0213C47.6038 14.4227 47.7382 13.7569 47.7382 13.0117C47.7382 12.071 47.4511 11.2769 46.8708 10.6233C46.2966 9.96965 45.5941 9.6398 44.7756 9.6398H38.1785V17.031H44.8611C45.3498 16.9944 45.814 16.7989 46.2538 16.4446H46.2599Z" fill="#020035"/>
<path d="M67.7678 20.0913C67.4929 20.3357 67.1691 20.4578 66.8026 20.4578H56.4793C56.6137 21.8872 57.1574 23.0295 58.1042 23.8908C59.051 24.7521 60.2116 25.1796 61.5799 25.1796C62.5206 25.1796 63.278 25.0453 63.8645 24.7704C64.4509 24.4955 64.9701 24.1473 65.416 23.7136C65.7092 23.5365 65.9902 23.451 66.2651 23.451C66.5949 23.451 66.8759 23.567 67.1019 23.8052C67.3279 24.0374 67.4379 24.3122 67.4379 24.6238C67.4379 25.033 67.2424 25.4057 66.8515 25.7355C66.2834 26.3036 65.5321 26.7801 64.5914 27.171C63.6507 27.5619 62.6977 27.7574 61.7204 27.7574C60.1383 27.7574 58.7456 27.4276 57.5422 26.7617C56.3389 26.0959 55.4104 25.1674 54.7568 23.9763C54.1032 22.7851 53.7733 21.4352 53.7733 19.9325C53.7733 18.2893 54.1093 16.8477 54.7873 15.6077C55.4592 14.3677 56.3511 13.4148 57.4567 12.749C58.5623 12.0832 59.7474 11.7533 61.0179 11.7533C62.2885 11.7533 63.443 12.077 64.5364 12.7184C65.6298 13.3659 66.5094 14.2517 67.1752 15.3878C67.8411 16.524 68.1831 17.7945 68.2014 19.1995C68.1831 19.5538 68.0365 19.847 67.7616 20.0913H67.7678ZM58.1775 15.2534C57.3773 15.8704 56.8459 16.8233 56.5954 18.1122H65.245V17.8801C65.1472 16.8416 64.683 15.9926 63.8522 15.3267C63.0215 14.6609 62.0808 14.3311 61.024 14.3311C59.9673 14.3311 58.9838 14.6365 58.1775 15.2534Z" fill="#020035"/>
<path d="M94.1868 18.2344V26.0654C94.1868 26.4746 94.0585 26.8106 93.8081 27.0794C93.5515 27.342 93.2217 27.4764 92.8124 27.4764C92.4031 27.4764 92.0672 27.342 91.7984 27.0672C91.5357 26.7923 91.4013 26.4624 91.4013 26.0715V18.271C91.4013 15.7116 90.3263 14.4288 88.1761 14.4288C87.4125 14.4288 86.7223 14.5998 86.1114 14.9419C85.4945 15.284 85.018 15.7482 84.676 16.3346C84.3339 16.9211 84.1628 17.5685 84.1628 18.271V26.0715C84.1628 26.4624 84.0285 26.7923 83.7658 27.0672C83.5031 27.342 83.1672 27.4764 82.7518 27.4764C82.3364 27.4764 82.0066 27.342 81.7561 27.0794C81.5057 26.8167 81.3774 26.4808 81.3774 26.0654V18.2344C81.3774 17.0799 81.1331 16.1575 80.6444 15.4611C80.1557 14.7648 79.3433 14.4227 78.2132 14.4227C77.0832 14.4227 76.1058 14.7892 75.3545 15.5222C74.6031 16.2552 74.2244 17.1593 74.2244 18.2344V26.0654C74.2244 26.4563 74.09 26.7862 73.8274 27.0611C73.5647 27.3359 73.2287 27.4703 72.8134 27.4703C72.398 27.4703 72.0681 27.3359 71.8177 27.0733C71.5611 26.8106 71.439 26.4746 71.439 26.0593V13.5125C71.439 13.1216 71.5734 12.7917 71.836 12.5169C72.0987 12.242 72.4285 12.1076 72.8195 12.1076C73.2104 12.1076 73.5647 12.242 73.8335 12.5169C74.0961 12.7917 74.2305 13.1216 74.2305 13.5125V14.5388C74.7375 13.7752 75.4156 13.1338 76.2707 12.6207C77.1198 12.1015 78.0422 11.8449 79.044 11.8449C81.469 11.8449 83.0389 12.92 83.7658 15.0702C84.1934 14.2517 84.9081 13.5064 85.9038 12.8406C86.8994 12.1748 87.9562 11.8449 89.0679 11.8449C92.4886 11.8449 94.199 13.9768 94.199 18.2344H94.1868Z" fill="#020035"/>
<path d="M98.3649 9.71309C98.1206 9.5054 97.9984 9.18166 97.9984 8.72963V8.25928C97.9984 7.78893 98.1328 7.45908 98.3955 7.26361C98.6581 7.06814 99.0674 6.9704 99.611 6.9704C100.155 6.9704 100.552 7.07424 100.796 7.27582C101.04 7.48351 101.163 7.80725 101.163 8.25928V8.72963C101.163 9.19998 101.034 9.52983 100.784 9.7253C100.527 9.92077 100.13 10.0185 99.5805 10.0185C99.0307 10.0185 98.6093 9.91467 98.3649 9.71309ZM100.594 27.0549C100.332 27.3298 99.9959 27.4642 99.5805 27.4642C99.1651 27.4642 98.8597 27.3298 98.597 27.0549C98.3344 26.7801 98.2 26.4502 98.2 26.0593V13.3659C98.2 12.975 98.3344 12.6451 98.597 12.3703C98.8597 12.0954 99.1896 11.961 99.5805 11.961C99.9714 11.961 100.326 12.0954 100.594 12.3703C100.857 12.6451 100.992 12.975 100.992 13.3659V26.0593C100.992 26.4502 100.857 26.7801 100.594 27.0549Z" fill="#020035"/>
<path d="M109.165 14.832V23.567C109.165 24.5444 109.604 25.0331 110.484 25.0331C110.618 25.0331 110.808 24.9964 111.04 24.9292C111.272 24.862 111.461 24.8254 111.596 24.8254C111.852 24.8254 112.066 24.9353 112.243 25.1491C112.42 25.3629 112.506 25.6378 112.506 25.9676C112.506 26.3769 112.274 26.7312 111.804 27.0244C111.333 27.3176 110.808 27.4642 110.221 27.4642C109.574 27.4642 108.988 27.397 108.45 27.2565C107.912 27.1221 107.436 26.774 107.015 26.2181C106.593 25.6622 106.385 24.8131 106.385 23.6831V14.8258H104.687C104.315 14.8258 104.009 14.7037 103.765 14.4593C103.52 14.215 103.398 13.9096 103.398 13.537C103.398 13.1644 103.52 12.865 103.765 12.6268C104.009 12.3947 104.315 12.2725 104.687 12.2725H106.385V9.81082C106.385 9.41988 106.52 9.09003 106.782 8.81515C107.045 8.54027 107.381 8.40588 107.796 8.40588C108.212 8.40588 108.517 8.54027 108.78 8.81515C109.043 9.09003 109.177 9.41988 109.177 9.81082V12.2725H111.608C111.981 12.2725 112.286 12.3947 112.53 12.639C112.775 12.8834 112.897 13.1888 112.897 13.5614C112.897 13.934 112.775 14.2333 112.53 14.4716C112.286 14.7037 111.981 14.8258 111.608 14.8258H109.177L109.165 14.832Z" fill="#020035"/>
<path d="M132.358 26.2059C132.358 26.5968 132.224 26.9206 131.961 27.171C131.699 27.4276 131.387 27.5497 131.039 27.5497C130.764 27.5497 130.514 27.4642 130.294 27.2993C130.068 27.1344 129.884 26.9022 129.75 26.609L127.93 22.2965H118.871L117.081 26.6335C116.983 26.9267 116.825 27.1527 116.599 27.3054C116.373 27.4642 116.122 27.5375 115.853 27.5375C115.444 27.5375 115.133 27.4276 114.913 27.2138C114.693 27 114.589 26.7068 114.589 26.3342C114.589 26.2547 114.607 26.102 114.65 25.8638L122.127 7.74617C122.261 7.43464 122.457 7.19642 122.701 7.02538C122.945 6.86045 123.226 6.79326 123.538 6.83602C123.831 6.83602 124.094 6.91543 124.332 7.06814C124.564 7.22696 124.735 7.44686 124.833 7.74006L132.279 25.6256C132.34 25.8027 132.364 25.986 132.364 26.1814L132.358 26.2059ZM119.983 19.6393H126.812L123.379 11.4296L119.977 19.6393H119.983Z" fill="#020035"/>
<path d="M133.824 24.2695C133.824 23.8786 134.032 23.5487 134.441 23.2738C134.637 23.1395 134.863 23.0662 135.113 23.0662C135.468 23.0662 135.785 23.2128 136.078 23.506C136.665 24.1718 137.294 24.6666 137.972 25.0025C138.644 25.3324 139.45 25.5034 140.391 25.5034C141.136 25.4851 141.79 25.3141 142.358 24.9903C142.926 24.6666 143.207 24.1473 143.207 23.4204C143.207 22.7546 142.92 22.2476 142.34 21.8933C141.765 21.539 140.916 21.2214 139.805 20.9282C138.711 20.635 137.801 20.3296 137.08 20.0058C136.359 19.6821 135.749 19.2117 135.248 18.6009C134.747 17.9839 134.502 17.1776 134.502 16.1819C134.502 15.3023 134.753 14.5327 135.248 13.8668C135.749 13.201 136.408 12.6818 137.239 12.3153C138.07 11.9427 138.974 11.7594 139.951 11.7594C140.929 11.7594 141.82 11.9366 142.749 12.2848C143.677 12.639 144.435 13.1766 145.021 13.8974C145.253 14.1723 145.375 14.4533 145.375 14.7465C145.375 15.058 145.217 15.3634 144.905 15.6566C144.71 15.8338 144.465 15.9193 144.172 15.9193C143.818 15.9193 143.537 15.8032 143.323 15.565C142.914 15.0946 142.407 14.7342 141.814 14.4777C141.216 14.2211 140.556 14.099 139.835 14.099C139.114 14.099 138.461 14.2517 137.941 14.551C137.422 14.8564 137.166 15.3695 137.166 16.0903C137.184 16.7745 137.483 17.2815 138.058 17.6174C138.632 17.9473 139.517 18.271 140.709 18.5826C141.747 18.8574 142.602 19.1506 143.286 19.4622C143.971 19.7737 144.545 20.2379 145.015 20.8549C145.485 21.4718 145.718 22.2782 145.718 23.2738C145.718 24.1901 145.455 24.9903 144.923 25.6622C144.398 26.3342 143.708 26.8534 142.859 27.2138C142.01 27.5742 141.106 27.7574 140.147 27.7574C138.913 27.7574 137.777 27.5436 136.732 27.1099C135.687 26.6823 134.802 25.9982 134.081 25.0575C133.904 24.7826 133.818 24.52 133.818 24.2634L133.824 24.2695Z" fill="#020035"/>
<path d="M147.813 24.2695C147.813 23.8786 148.02 23.5487 148.43 23.2738C148.625 23.1395 148.851 23.0662 149.102 23.0662C149.456 23.0662 149.774 23.2128 150.067 23.506C150.653 24.1718 151.282 24.6666 151.96 25.0025C152.632 25.3324 153.439 25.5034 154.379 25.5034C155.125 25.4851 155.778 25.3141 156.346 24.9903C156.914 24.6666 157.195 24.1473 157.195 23.4204C157.195 22.7546 156.908 22.2476 156.328 21.8933C155.754 21.539 154.905 21.2214 153.793 20.9282C152.699 20.635 151.789 20.3296 151.069 20.0058C150.348 19.6821 149.737 19.2117 149.236 18.6009C148.735 17.9839 148.491 17.1776 148.491 16.1819C148.491 15.3023 148.741 14.5327 149.236 13.8668C149.737 13.201 150.397 12.6818 151.227 12.3153C152.058 11.9427 152.962 11.7594 153.94 11.7594C154.917 11.7594 155.809 11.9366 156.737 12.2848C157.666 12.639 158.423 13.1766 159.01 13.8974C159.242 14.1723 159.364 14.4533 159.364 14.7465C159.364 15.058 159.205 15.3634 158.893 15.6566C158.698 15.8338 158.454 15.9193 158.16 15.9193C157.806 15.9193 157.525 15.8032 157.311 15.565C156.902 15.0946 156.395 14.7342 155.803 14.4777C155.204 14.2211 154.544 14.099 153.823 14.099C153.103 14.099 152.449 14.2517 151.93 14.551C151.411 14.8564 151.154 15.3695 151.154 16.0903C151.172 16.7745 151.472 17.2815 152.046 17.6174C152.62 17.9473 153.506 18.271 154.697 18.5826C155.735 18.8574 156.591 19.1506 157.275 19.4622C157.959 19.7737 158.533 20.2379 159.003 20.8549C159.474 21.4718 159.706 22.2782 159.706 23.2738C159.706 24.1901 159.443 24.9903 158.912 25.6622C158.386 26.3342 157.696 26.8534 156.847 27.2138C155.998 27.5742 155.094 27.7574 154.135 27.7574C152.901 27.7574 151.765 27.5436 150.72 27.1099C149.676 26.6823 148.79 25.9982 148.069 25.0575C147.892 24.7826 147.807 24.52 147.807 24.2634L147.813 24.2695Z" fill="#020035"/>
<path d="M175.386 12.5169C175.649 12.7917 175.783 13.1216 175.783 13.5125V21.313C175.783 23.3471 175.221 24.9231 174.097 26.0471C172.973 27.171 171.385 27.733 169.333 27.733C167.28 27.733 165.729 27.171 164.611 26.0471C163.499 24.9231 162.937 23.3471 162.937 21.313V13.5125C162.937 13.1216 163.072 12.7917 163.334 12.5169C163.597 12.242 163.927 12.1076 164.318 12.1076C164.709 12.1076 165.063 12.242 165.332 12.5169C165.594 12.7917 165.729 13.1216 165.729 13.5125V21.313C165.729 23.8725 166.932 25.1552 169.333 25.1552C170.524 25.1552 171.434 24.8315 172.057 24.1901C172.68 23.5426 172.998 22.5897 172.998 21.3191V13.5187C172.998 13.1277 173.132 12.7979 173.395 12.523C173.658 12.2481 173.987 12.1137 174.378 12.1137C174.769 12.1137 175.124 12.2481 175.392 12.523L175.386 12.5169Z" fill="#020035"/>
<path d="M188.916 12.1503C189.289 12.413 189.472 12.7429 189.472 13.1338C189.472 13.6042 189.35 13.9584 189.106 14.2028C188.861 14.4471 188.562 14.5693 188.214 14.5693C188.037 14.5693 187.774 14.5082 187.42 14.3921C187.011 14.2578 186.687 14.1845 186.455 14.1845C185.85 14.1845 185.257 14.3921 184.683 14.8136C184.109 15.2351 183.639 15.8093 183.278 16.5423C182.918 17.2753 182.735 18.0939 182.735 18.9918V26.0593C182.735 26.4502 182.6 26.7801 182.338 27.0549C182.075 27.3298 181.739 27.4642 181.324 27.4642C180.908 27.4642 180.578 27.3298 180.328 27.0672C180.071 26.8045 179.949 26.4685 179.949 26.0532V13.5064C179.949 13.1155 180.084 12.7856 180.346 12.5107C180.609 12.2359 180.939 12.1015 181.33 12.1015C181.721 12.1015 182.075 12.2359 182.344 12.5107C182.606 12.7856 182.741 13.1155 182.741 13.5064V15.003C183.168 14.044 183.816 13.2682 184.677 12.6696C185.538 12.0709 186.516 11.7655 187.609 11.7472C188.116 11.7472 188.556 11.8816 188.929 12.1442L188.916 12.1503Z" fill="#020035"/>
<path d="M204.456 20.0913C204.181 20.3357 203.858 20.4578 203.491 20.4578H193.168C193.302 21.8872 193.846 23.0295 194.793 23.8908C195.74 24.7521 196.9 25.1796 198.268 25.1796C199.209 25.1796 199.967 25.0453 200.553 24.7704C201.139 24.4955 201.659 24.1473 202.105 23.7136C202.398 23.5365 202.679 23.451 202.954 23.451C203.283 23.451 203.564 23.567 203.79 23.8052C204.016 24.0374 204.126 24.3122 204.126 24.6238C204.126 25.033 203.931 25.4057 203.54 25.7355C202.972 26.3036 202.221 26.7801 201.28 27.171C200.339 27.5619 199.386 27.7574 198.409 27.7574C196.827 27.7574 195.434 27.4276 194.231 26.7617C193.027 26.0959 192.099 25.1674 191.445 23.9763C190.792 22.7851 190.462 21.4352 190.462 19.9325C190.462 18.2893 190.798 16.8477 191.476 15.6077C192.148 14.3677 193.04 13.4148 194.145 12.749C195.251 12.0832 196.436 11.7533 197.706 11.7533C198.977 11.7533 200.132 12.077 201.225 12.7184C202.318 13.3659 203.198 14.2517 203.864 15.3878C204.53 16.524 204.872 17.7945 204.89 19.1995C204.872 19.5538 204.725 19.847 204.45 20.0913H204.456ZM194.866 15.2534C194.066 15.8704 193.534 16.8233 193.284 18.1122H201.933V17.8801C201.836 16.8416 201.372 15.9926 200.541 15.3267C199.71 14.6609 198.769 14.3311 197.713 14.3311C196.656 14.3311 195.672 14.6365 194.866 15.2534Z" fill="#020035"/>
<defs>
<linearGradient id="paint0_linear_1085_10" x1="0.00690355" y1="15.1924" x2="29.645" y2="15.1924" gradientUnits="userSpaceOnUse">
<stop stop-color="#190079"/>
<stop offset="0.2" stop-color="#1A0078"/>
<stop offset="0.28" stop-color="#210378"/>
<stop offset="0.33" stop-color="#2D0977"/>
<stop offset="0.37" stop-color="#3E1176"/>
<stop offset="0.41" stop-color="#541B75"/>
<stop offset="0.44" stop-color="#6F2774"/>
<stop offset="0.47" stop-color="#903672"/>
<stop offset="0.5" stop-color="#B54870"/>
<stop offset="0.52" stop-color="#DE5B6D"/>
<stop offset="0.54" stop-color="#FD696C"/>
<stop offset="0.56" stop-color="#DA5588"/>
<stop offset="0.59" stop-color="#BA44A2"/>
<stop offset="0.62" stop-color="#9F34B8"/>
<stop offset="0.65" stop-color="#8928CA"/>
<stop offset="0.69" stop-color="#781FD8"/>
<stop offset="0.74" stop-color="#6C18E1"/>
<stop offset="0.81" stop-color="#6515E7"/>
<stop offset="1" stop-color="#6414E9"/>
</linearGradient>
</defs>
</svg>
