<svg width="46" height="46" viewBox="0 0 46 46" fill="none" xmlns="http://www.w3.org/2000/svg">
<path d="M55.6559 0.839844H-9V47.0487H55.6559V0.839844Z" fill="#FF9933"/>
<path d="M55.6559 16.2427H-9V31.6456H55.6559V16.2427Z" fill="white"/>
<path d="M55.6559 31.6458H-9V47.0487H55.6559V31.6458Z" fill="#128807"/>
<path d="M23.328 30.1056C26.5021 30.1056 29.0752 27.3471 29.0752 23.9444C29.0752 20.5417 26.5021 17.7832 23.328 17.7832C20.1539 17.7832 17.5808 20.5417 17.5808 23.9444C17.5808 27.3471 20.1539 30.1056 23.328 30.1056Z" fill="#000088"/>
<path d="M23.328 29.3355C26.1053 29.3355 28.3568 26.9219 28.3568 23.9445C28.3568 20.9671 26.1053 18.5535 23.328 18.5535C20.5506 18.5535 18.2992 20.9671 18.2992 23.9445C18.2992 26.9219 20.5506 29.3355 23.328 29.3355Z" fill="white"/>
<path d="M23.328 25.0226C23.8834 25.0226 24.3337 24.5399 24.3337 23.9444C24.3337 23.3489 23.8834 22.8662 23.328 22.8662C22.7725 22.8662 22.3222 23.3489 22.3222 23.9444C22.3222 24.5399 22.7725 25.0226 23.328 25.0226Z" fill="#000088"/>
<path d="M28.281 24.9159C28.4187 24.9353 28.545 24.8313 28.5631 24.6835C28.5812 24.5357 28.4843 24.4001 28.3466 24.3807C28.2089 24.3612 28.0826 24.4653 28.0645 24.6131C28.0464 24.7609 28.1433 24.8964 28.281 24.9159Z" fill="#000088"/>
<path d="M23.328 29.3352L23.5004 26.1006L23.328 24.5603L23.1556 26.1006L23.328 29.3352Z" fill="#000088"/>
<path d="M27.8806 26.2531C28.0105 26.3118 28.1576 26.2493 28.2092 26.1135C28.2607 25.9777 28.1973 25.8201 28.0674 25.7613C27.9375 25.7026 27.7904 25.7651 27.7389 25.9009C27.6873 26.0367 27.7508 26.1944 27.8806 26.2531Z" fill="#000088"/>
<path d="M22.0344 29.1486L22.9791 26.0789L23.1714 24.5422L22.6301 25.9774L22.0344 29.1486Z" fill="#000088"/>
<path d="M27.1668 27.4369C27.2787 27.5293 27.4365 27.51 27.5194 27.3937C27.6022 27.2774 27.5787 27.1082 27.4669 27.0158C27.355 26.9233 27.1972 26.9427 27.1143 27.0589C27.0315 27.1752 27.055 27.3444 27.1668 27.4369Z" fill="#000088"/>
<path d="M20.8181 28.6096L22.4742 25.9091L23.0346 24.4815L22.165 25.7171L20.8181 28.6096Z" fill="#000088"/>
<path d="M26.1918 28.3829C26.2778 28.5026 26.4356 28.5275 26.5443 28.4385C26.653 28.3494 26.6714 28.1802 26.5854 28.0605C26.4994 27.9408 26.3415 27.9159 26.2328 28.0049C26.1241 28.0939 26.1057 28.2631 26.1918 28.3829Z" fill="#000088"/>
<path d="M19.7747 27.7529L22.029 25.6051L22.9174 24.3839L21.7783 25.3363L19.7747 27.7529Z" fill="#000088"/>
<path d="M25.0168 29.0317C25.0681 29.1672 25.2152 29.2293 25.3453 29.1704C25.4754 29.1114 25.5393 28.9538 25.488 28.8182C25.4367 28.6826 25.2896 28.6205 25.1595 28.6795C25.0294 28.7384 24.9655 28.8961 25.0168 29.0317Z" fill="#000088"/>
<path d="M18.9696 26.6454L21.67 25.175L22.8335 24.2468L21.5041 24.866L18.9696 26.6454Z" fill="#000088"/>
<path d="M23.7317 29.328C23.7479 29.4736 23.8742 29.5743 24.0138 29.5529C24.1533 29.5315 24.2533 29.3961 24.237 29.2505C24.2208 29.1049 24.0945 29.0042 23.9549 29.0256C23.8154 29.047 23.7154 29.1824 23.7317 29.328Z" fill="#000088"/>
<path d="M18.4679 25.3477L21.4279 24.6702L22.7754 24.0958L21.3439 24.3291L18.4679 25.3477Z" fill="#000088"/>
<path d="M22.4253 29.2582C22.4054 29.4081 22.4995 29.5436 22.6354 29.5609C22.7714 29.5782 22.8977 29.4708 22.9176 29.3209C22.9375 29.1711 22.8435 29.0355 22.7075 29.0182C22.5715 29.0009 22.4452 29.1083 22.4253 29.2582Z" fill="#000088"/>
<path d="M18.3016 23.9759L21.3131 24.0864L22.7508 23.9128L21.318 23.7799L18.3016 23.9759Z" fill="#000088"/>
<path d="M21.1725 28.8235C21.1187 28.9619 21.1784 29.1196 21.306 29.1756C21.4336 29.2317 21.5806 29.1648 21.6345 29.0264C21.6884 28.8879 21.6286 28.7302 21.5011 28.6742C21.3735 28.6181 21.2264 28.685 21.1725 28.8235Z" fill="#000088"/>
<path d="M18.4717 22.5536L21.3387 23.5676L22.7716 23.7801L21.4304 23.2013L18.4717 22.5536Z" fill="#000088"/>
<path d="M20.0641 28.0543C19.9813 28.1706 20.0048 28.3398 20.1167 28.4322C20.2286 28.5247 20.3864 28.5055 20.4692 28.3892C20.5521 28.273 20.5285 28.1037 20.4166 28.0113C20.3048 27.9188 20.1469 27.938 20.0641 28.0543Z" fill="#000088"/>
<path d="M18.9697 21.2435L21.5042 23.0228L22.8335 23.6421L21.6701 22.7138L18.9697 21.2435Z" fill="#000088"/>
<path d="M19.1823 27.0093C19.0738 27.098 19.0558 27.2672 19.142 27.3872C19.2282 27.5072 19.3861 27.5325 19.4945 27.4437C19.603 27.3549 19.6211 27.1857 19.5348 27.0657C19.4486 26.9458 19.2907 26.9205 19.1823 27.0093Z" fill="#000088"/>
<path d="M19.7683 20.1285L21.7889 22.5479L22.9255 23.5132L22.0251 22.2949L19.7683 20.1285Z" fill="#000088"/>
<path d="M18.5834 25.756C18.4564 25.8116 18.3975 25.9693 18.452 26.1082C18.5064 26.2472 18.6534 26.3148 18.7805 26.2593C18.9075 26.2037 18.9664 26.046 18.912 25.9071C18.8575 25.7681 18.7105 25.7005 18.5834 25.756Z" fill="#000088"/>
<path d="M20.81 19.2731L22.1777 22.1677L23.0442 23.4134L22.4692 21.9879L20.81 19.2731Z" fill="#000088"/>
<path d="M18.3071 24.3784C18.1707 24.3963 18.0758 24.5317 18.0952 24.6808C18.1146 24.8298 18.2409 24.9361 18.3773 24.9181C18.5137 24.9001 18.6086 24.7647 18.5892 24.6156C18.5699 24.4666 18.4436 24.3604 18.3071 24.3784Z" fill="#000088"/>
<path d="M22.0213 18.7352L22.6478 21.9082L23.1844 23.3515L22.9706 21.8166L22.0213 18.7352Z" fill="#000088"/>
<path d="M18.3717 22.9773C18.2323 22.9558 18.106 23.0563 18.0896 23.2019C18.0733 23.3474 18.1731 23.4828 18.3126 23.5043C18.4521 23.5258 18.5784 23.4252 18.5947 23.2797C18.611 23.1342 18.5112 22.9988 18.3717 22.9773Z" fill="#000088"/>
<path d="M23.3006 18.5563L23.1925 21.7842L23.3553 23.3255L23.4827 21.7899L23.3006 18.5563Z" fill="#000088"/>
<path d="M18.7754 21.6356C18.6455 21.5769 18.4984 21.6393 18.4469 21.7751C18.3953 21.9109 18.4587 22.0686 18.5886 22.1273C18.7184 22.186 18.8655 22.1236 18.9171 21.9878C18.9687 21.852 18.9052 21.6943 18.7754 21.6356Z" fill="#000088"/>
<path d="M24.6217 18.7403L23.677 21.81L23.4845 23.3467L24.0257 21.9115L24.6217 18.7403Z" fill="#000088"/>
<path d="M19.4883 20.4521C19.3765 20.3596 19.2186 20.3789 19.1358 20.4951C19.0529 20.6113 19.0764 20.7806 19.1883 20.873C19.3002 20.9655 19.458 20.9463 19.5409 20.8301C19.6237 20.7138 19.6002 20.5446 19.4883 20.4521Z" fill="#000088"/>
<path d="M25.837 19.2794L24.181 21.9797L23.6206 23.4074L24.4902 22.1718L25.837 19.2794Z" fill="#000088"/>
<path d="M20.4631 19.5067C20.3769 19.3868 20.2191 19.3615 20.1106 19.4503C20.002 19.539 19.9839 19.7083 20.0701 19.8282C20.1563 19.9482 20.3141 19.9734 20.4227 19.8847C20.5312 19.7959 20.5493 19.6267 20.4631 19.5067Z" fill="#000088"/>
<path d="M26.88 20.1369L24.6259 22.2833L23.7382 23.5047L24.8774 22.5533L26.88 20.1369Z" fill="#000088"/>
<path d="M21.6392 18.857C21.5879 18.7214 21.4408 18.6593 21.3107 18.7183C21.1806 18.7772 21.1167 18.9349 21.168 19.0705C21.2193 19.206 21.3663 19.2681 21.4965 19.2092C21.6266 19.1502 21.6905 18.9925 21.6392 18.857Z" fill="#000088"/>
<path d="M27.6863 21.2433L24.9859 22.7136L23.8225 23.6419L25.1519 23.0226L27.6863 21.2433Z" fill="#000088"/>
<path d="M22.9243 18.5607C22.9081 18.415 22.7818 18.3144 22.6422 18.3358C22.5027 18.3572 22.4027 18.4926 22.419 18.6382C22.4352 18.7838 22.5616 18.8845 22.7011 18.8631C22.8407 18.8417 22.9406 18.7063 22.9243 18.5607Z" fill="#000088"/>
<path d="M28.1881 22.541L25.2281 23.2185L23.8806 23.7929L25.3121 23.5596L28.1881 22.541Z" fill="#000088"/>
<path d="M24.23 18.6306C24.2502 18.4806 24.1565 18.3452 24.0209 18.3281C23.8852 18.3111 23.7589 18.4188 23.7388 18.5688C23.7186 18.7188 23.8123 18.8542 23.9479 18.8712C24.0836 18.8883 24.2099 18.7805 24.23 18.6306Z" fill="#000088"/>
<path d="M28.354 23.9098L25.3433 23.8068L23.9055 23.9793L25.3377 24.107L28.354 23.9098Z" fill="#000088"/>
<path d="M25.4829 19.0646C25.537 18.9258 25.4778 18.7681 25.3506 18.7124C25.2233 18.6567 25.0762 18.7241 25.022 18.8629C24.9678 19.0017 25.0271 19.1594 25.1543 19.2151C25.2816 19.2708 25.4287 19.2034 25.4829 19.0646Z" fill="#000088"/>
<path d="M28.1837 25.3333L25.3179 24.3198L23.8849 24.1102L25.2252 24.6897L28.1837 25.3333Z" fill="#000088"/>
<path d="M26.5873 19.8297C26.6727 19.7106 26.6532 19.5414 26.5439 19.4517C26.4346 19.362 26.2767 19.3858 26.1914 19.5049C26.106 19.6239 26.1254 19.7932 26.2347 19.8828C26.3441 19.9725 26.5019 19.9487 26.5873 19.8297Z" fill="#000088"/>
<path d="M27.6814 26.637L25.1584 24.8607L23.8273 24.2555L24.9828 25.1867L27.6814 26.637Z" fill="#000088"/>
<path d="M27.4691 20.8746C27.5801 20.7831 27.6023 20.6139 27.5186 20.4967C27.4349 20.3795 27.2771 20.3588 27.1661 20.4504C27.055 20.542 27.0329 20.7112 27.1166 20.8283C27.2002 20.9455 27.3581 20.9662 27.4691 20.8746Z" fill="#000088"/>
<path d="M26.8819 27.7542L24.8749 25.3371L23.7363 24.3822L24.6272 25.6029L26.8819 27.7542Z" fill="#000088"/>
<path d="M28.0688 22.1285C28.1979 22.0706 28.2601 21.9129 28.2078 21.7763C28.1555 21.6397 28.0084 21.5758 27.8793 21.6337C27.7502 21.6916 27.6879 21.8493 27.7402 21.9859C27.7926 22.1225 27.9396 22.1864 28.0688 22.1285Z" fill="#000088"/>
<path d="M25.8401 28.6113L24.4863 25.7182L23.6177 24.4794L24.1829 25.9064L25.8401 28.6113Z" fill="#000088"/>
<path d="M28.3451 23.5061C28.4836 23.4857 28.5818 23.3503 28.5645 23.2036C28.5472 23.057 28.4209 22.9545 28.2824 22.9749C28.1439 22.9952 28.0457 23.1306 28.063 23.2773C28.0803 23.424 28.2066 23.5264 28.3451 23.5061Z" fill="#000088"/>
<path d="M24.626 29.1501L24.0199 25.9783L23.4802 24.5405L23.6798 26.0766L24.626 29.1501Z" fill="#000088"/>
</svg>
