<svg width="55" height="44" viewBox="0 0 55 44" fill="none" xmlns="http://www.w3.org/2000/svg">
<path d="M4.66607 6.303C8.52311 2.12025 14.3595 0 22.0104 0H24.7595V7.75225L22.5492 8.195C18.7829 8.9485 16.163 10.4307 14.7609 12.606C14.0293 13.7779 13.6144 15.1196 13.5568 16.5H22.0104C22.7395 16.5 23.4387 16.7897 23.9543 17.3055C24.4699 17.8212 24.7595 18.5207 24.7595 19.25V38.5C24.7595 41.5333 22.2935 44 19.2612 44H2.76642C2.03731 44 1.33805 43.7103 0.822489 43.1945C0.306926 42.6788 0.0172861 41.9793 0.0172861 41.25V27.5L0.0255336 19.4728C0.000791345 19.1675 -0.521544 11.935 4.66607 6.303ZM49.5017 44H33.0069C32.2778 44 31.5785 43.7103 31.063 43.1945C30.5474 42.6788 30.2578 41.9793 30.2578 41.25V27.5L30.266 19.4728C30.2413 19.1675 29.7189 11.935 34.9066 6.303C38.7636 2.12025 44.6 0 52.2509 0H55V7.75225L52.7897 8.195C49.0234 8.9485 46.4035 10.4307 45.0014 12.606C44.2698 13.7779 43.8549 15.1196 43.7973 16.5H52.2509C52.98 16.5 53.6792 16.7897 54.1948 17.3055C54.7104 17.8212 55 18.5207 55 19.25V38.5C55 41.5333 52.534 44 49.5017 44Z" fill="#5287E0"/>
</svg>
