<svg width="319" height="149" viewBox="0 0 319 149" fill="none" xmlns="http://www.w3.org/2000/svg">
<g style="mix-blend-mode:multiply">
<path d="M412.974 148.597C395.172 148.597 377.369 148.465 359.566 148.597C349.305 148.597 344.854 145.827 351.036 134.09C364.882 108.109 378.482 82.1288 391.71 55.8844C396.532 46.3889 403.208 43.0918 412.851 43.4875C427.068 44.015 441.286 44.015 455.503 43.4875C494.199 41.9049 515.711 2.86805 497.166 -34.4544C473.553 -81.7998 448.085 -127.958 423.607 -174.776C417.549 -186.382 413.593 -184.008 408.276 -173.853C369.58 -98.8125 330.142 -24.2995 291.694 50.8729C255.841 121.034 186.855 159.807 119.848 146.355C22.0568 126.837 -29.3731 11.9679 18.5953 -83.3824C61.0003 -167.523 106.002 -250.212 150.014 -333.43C171.154 -373.39 191.677 -413.745 213.683 -453.046C234.824 -490.764 266.473 -508.832 307.147 -506.854C308.631 -506.854 310.238 -506.854 311.722 -506.59C322.848 -505.403 330.761 -504.084 335.582 -501.842C345.967 -496.962 343.371 -487.467 331.873 -465.707C257.324 -325.385 182.899 -184.931 108.35 -44.6093C100.315 -29.4429 93.6386 -14.0128 98.0893 4.31868C107.238 41.9049 146.429 55.3568 180.056 32.4095C190.193 25.5516 197.982 16.188 203.916 4.84622C270.429 -122.024 336.942 -248.762 403.455 -375.5C404.938 -378.401 406.546 -381.303 407.906 -384.204C413.222 -395.678 417.549 -396.337 423.978 -384.204C475.778 -285.425 528.816 -187.305 579.998 -87.9983C636.497 21.727 567.635 148.465 452.412 148.729C439.184 148.729 425.956 148.729 412.727 148.729L412.974 148.597Z" fill="url(#paint0_linear_55_32)" fill-opacity="0.1"/>
</g>
<defs>
<linearGradient id="paint0_linear_55_32" x1="0.545301" y1="-178.996" x2="600.397" y2="-178.996" gradientUnits="userSpaceOnUse">
<stop stop-color="#190079"/>
<stop offset="0.2" stop-color="#1A0078"/>
<stop offset="0.28" stop-color="#210378"/>
<stop offset="0.33" stop-color="#2D0977"/>
<stop offset="0.37" stop-color="#3E1176"/>
<stop offset="0.41" stop-color="#541B75"/>
<stop offset="0.44" stop-color="#6F2774"/>
<stop offset="0.47" stop-color="#903672"/>
<stop offset="0.5" stop-color="#B54870"/>
<stop offset="0.52" stop-color="#DE5B6D"/>
<stop offset="0.54" stop-color="#FD696C"/>
<stop offset="0.56" stop-color="#DA5588"/>
<stop offset="0.59" stop-color="#BA44A2"/>
<stop offset="0.62" stop-color="#9F34B8"/>
<stop offset="0.65" stop-color="#8928CA"/>
<stop offset="0.69" stop-color="#781FD8"/>
<stop offset="0.74" stop-color="#6C18E1"/>
<stop offset="0.81" stop-color="#6515E7"/>
<stop offset="1" stop-color="#6414E9"/>
</linearGradient>
</defs>
</svg>
