<svg width="36" height="30" viewBox="0 0 36 30" fill="none" xmlns="http://www.w3.org/2000/svg">
<path d="M35.4075 19.2293C34.6367 18.4585 33.3869 18.4585 32.616 19.2293L30.9953 20.8501V3.97905C30.9953 2.88887 30.1116 2.00519 29.0214 2.00519C27.9312 2.00519 27.0474 2.88893 27.0474 3.97905V20.8501L25.4267 19.2293C24.6559 18.4585 23.4061 18.4585 22.6352 19.2293C21.8644 20.0002 21.8644 21.25 22.6352 22.0209L27.6253 27.0109C28.3946 27.7805 29.646 27.7831 30.4174 27.0109L35.4075 22.0209C36.1783 21.25 36.1784 20.0002 35.4075 19.2293Z" fill="#6414E9"/>
<path d="M6.23786 30V26.5097C3.77939 26.3991 1.39575 25.7372 0 24.9291L1.10201 20.6269C2.6437 21.4716 4.80656 22.2431 7.193 22.2431C9.28383 22.2431 10.7151 21.435 10.7151 19.965C10.7151 18.5672 9.54109 17.6841 6.82535 16.7644C2.90003 15.4416 0.220776 13.6031 0.220776 10.0378C0.220776 6.80156 2.49683 4.26562 6.42216 3.49313V0H10.0163V3.23625C12.4748 3.34687 14.1269 3.85875 15.3365 4.44844L14.2728 8.60344C13.3195 8.19938 11.6319 7.35188 8.98821 7.35188C6.60458 7.35188 5.83373 8.38125 5.83373 9.41156C5.83373 10.6237 7.11816 11.3963 10.2371 12.5728C14.6012 14.1178 16.3636 16.1381 16.3636 19.4494C16.3636 22.7213 14.0511 25.515 9.83296 26.2509V30H6.23786Z" fill="#6414E9"/>
</svg>
