<svg width="595" height="487" viewBox="0 0 595 487" fill="none" xmlns="http://www.w3.org/2000/svg">
<path d="M312 413.9C329.9 413.9 344.4 409.9 344.4 404.9C344.4 399.9 329.9 395.9 312 395.9C294.1 395.9 279.6 399.9 279.6 404.9C279.6 409.9 294.1 413.9 312 413.9Z" fill="#E1E7FA"/>
<path d="M91.5 372.6L122.9 390.8L249.4 317.8L218 299.6L91.5 372.6Z" fill="#E1E7FA"/>
<path d="M313.2 317.8L439.7 390.8L471.1 372.6L344.6 299.6L313.2 317.8Z" fill="#E1E7FA"/>
<path d="M433.4 227.7L306.9 154.7L275.5 173L402 246L433.4 227.7Z" fill="#E1E7FA"/>
<path d="M534.9 279.4L511.9 292L566.3 323.7L589.3 311.1L534.9 279.4Z" fill="#E1E7FA"/>
<path d="M477.3 178.2L454.3 190.8L508.7 222.5L531.7 209.9L477.3 178.2Z" fill="#E1E7FA"/>
<path d="M224.2 255.5C224.2 264.7 217.4 276.1 208.9 281L176.4 299.8L126 328.9L105.7 340.6C97.1998 345.5 90.3998 342 90.2998 332.8L90.1998 283.3L89.9998 204.5L89.8998 182.2V164.6L89.7998 112.7C89.7998 107 93.9998 99.9 99.2998 96.8L150.1 67.5L167.1 57.7L188.7 45.2L214.2 30.5C219.5 27.5 223.7 29.6 223.8 35.4L223.9 67.6L224.2 170.5L224.3 222.6L224.2 255.5Z" fill="url(#paint0_linear_121_1083)"/>
<path d="M147.3 175.4C148.4 174.9 149.5 174.3 150.6 173.7C167.7 163.8 182.3 140.5 183.9 119.6C185.7 97.3 172.1 86.2 153.6 94.7C152.5 95.2 151.3 95.8 150.2 96.5C133.1 106.4 118.5 129.7 116.9 150.6C115.3 172.9 128.9 184 147.3 175.4ZM150 109.4C157.2 105.2 163.1 108.6 163.1 116.9C163.1 125.2 157.3 135.3 150.1 139.4C142.9 143.6 137 140.2 137 131.9C136.9 123.7 142.8 113.6 150 109.4ZM138.6 146.5C139.1 145.7 139.8 145.1 140.4 144.7C141 144.3 141.6 144.2 142.2 144.4C144.4 145.1 147.2 144.7 150.2 143C153.3 141.2 156.2 138.3 158.4 134.9C158.9 134.1 159.6 133.5 160.2 133.1C160.8 132.7 161.4 132.6 161.9 132.8C164.8 133.7 166.6 136.5 166.6 141.6V142C166.6 144.5 164.8 147.6 162.7 148.8L138.3 162.9C136.1 164.2 134.3 163.2 134.3 160.6V160.2C134.4 155.2 136 150.6 138.6 146.5Z" fill="#5287E0"/>
<path d="M112.1 226.9L191.7 180.9C194.3 179.4 196.3 175.8 196.3 172.9C196.3 170 194.2 168.8 191.6 170.2L112 216.2C109.4 217.7 107.4 221.3 107.4 224.2C107.4 227.2 109.5 228.4 112.1 226.9ZM139.7 204.4C140.3 204 140.8 204.3 140.8 205C140.8 205.7 140.3 206.5 139.7 206.9C139.1 207.2 138.6 207 138.6 206.3C138.6 205.5 139.1 204.7 139.7 204.4ZM136.2 206.4C136.8 206.1 137.3 206.3 137.3 207C137.3 207.7 136.8 208.5 136.2 208.9C135.6 209.2 135.1 209 135.1 208.3C135.1 207.6 135.6 206.7 136.2 206.4ZM132.7 208.4C133.3 208 133.8 208.3 133.8 209C133.8 209.7 133.3 210.5 132.7 210.9C132.1 211.2 131.6 211 131.6 210.3C131.6 209.6 132.1 208.8 132.7 208.4ZM129.2 210.4C129.8 210 130.3 210.3 130.3 211C130.3 211.7 129.8 212.5 129.2 212.9C128.6 213.2 128.1 213 128.1 212.3C128.1 211.6 128.6 210.8 129.2 210.4ZM125.6 212.5C126.2 212.2 126.7 212.4 126.7 213.1C126.7 213.8 126.2 214.6 125.6 215C125 215.4 124.5 215.1 124.5 214.4C124.6 213.7 125 212.8 125.6 212.5ZM122.1 214.5C122.7 214.2 123.2 214.4 123.2 215.1C123.2 215.8 122.7 216.6 122.1 217C121.5 217.4 121 217.1 121 216.4C121 215.7 121.5 214.8 122.1 214.5ZM118.6 216.5C119.2 216.2 119.7 216.4 119.7 217.1C119.7 217.8 119.2 218.6 118.6 219C118 219.4 117.5 219.1 117.5 218.4C117.5 217.7 118 216.9 118.6 216.5ZM115.1 218.6C115.7 218.3 116.2 218.5 116.2 219.2C116.2 219.9 115.7 220.7 115.1 221.1C114.5 221.4 114 221.2 114 220.5C114 219.7 114.5 218.9 115.1 218.6Z" fill="#5287E0"/>
<path d="M191.7 194.8L112.3 240.6C109.7 242.1 107.7 245.7 107.7 248.6C107.7 251.5 109.8 252.7 112.4 251.3L191.8 205.5C194.4 204 196.4 200.4 196.4 197.5C196.4 194.5 194.3 193.3 191.7 194.8ZM118.4 244.1C118.5 244.1 118.4 244.4 118.3 244.5C118.3 244.5 118.3 244.5 118.2 244.5L116.4 244.7C116.4 244.7 116.4 244.7 116.3 244.7C116.2 244.7 116.2 244.8 116.2 244.9L115.9 247.3C115.9 247.4 115.8 247.5 115.8 247.5C115.7 247.5 115.7 247.5 115.6 247.4L115.3 245.4C115.3 245.3 115.2 245.3 115.1 245.3L113.3 247.1C113.3 247.1 113.3 247.1 113.2 247.1C113.1 247.2 113 247 113.1 246.8L114.6 244.6V244.3L113.1 243.7C113 243.7 113.1 243.4 113.2 243.3C113.2 243.3 113.2 243.3 113.3 243.3L115.1 243.1C115.2 243.1 115.2 243 115.2 242.9L115.5 240.5C115.5 240.4 115.6 240.3 115.6 240.3C115.7 240.3 115.7 240.3 115.7 240.4L116 242.4C116 242.5 116.1 242.5 116.1 242.5C116.1 242.5 116.1 242.5 116.2 242.5L118 240.7C118 240.7 118 240.7 118.1 240.7C118.2 240.6 118.3 240.8 118.2 241L116.7 243.2V243.5L118.4 244.1ZM125.4 238.6L126.9 239.2C127 239.2 126.9 239.5 126.8 239.6C126.8 239.6 126.8 239.6 126.7 239.6L124.9 239.8C124.9 239.8 124.9 239.8 124.8 239.8C124.7 239.8 124.7 239.9 124.7 240L124.4 242.4C124.4 242.5 124.3 242.6 124.3 242.6C124.3 242.6 124.2 242.6 124.2 242.5L123.9 240.5C123.9 240.4 123.8 240.4 123.7 240.4L121.9 242.2C121.8 242.3 121.7 242.1 121.8 241.9L123.3 239.7V239.4L121.8 238.8C121.7 238.8 121.8 238.5 121.9 238.4C121.9 238.4 121.9 238.4 122 238.4L123.8 238.2C123.8 238.2 123.8 238.2 123.9 238.2C124 238.2 124 238.1 124.1 238L124.4 235.6C124.4 235.5 124.5 235.4 124.5 235.4C124.6 235.4 124.6 235.4 124.6 235.5L124.9 237.5C124.9 237.6 125 237.6 125 237.6C125 237.6 125 237.6 125.1 237.6L126.9 235.8C126.9 235.8 126.9 235.8 127 235.8C127.1 235.7 127.2 235.9 127.1 236.1L125.6 238.3V238.6H125.4ZM133.9 233.7L135.4 234.3C135.5 234.3 135.4 234.6 135.3 234.7C135.3 234.7 135.3 234.7 135.2 234.7L133.4 234.9C133.4 234.9 133.4 234.9 133.3 234.9C133.2 234.9 133.2 235 133.2 235.1L132.9 237.5C132.9 237.6 132.8 237.7 132.8 237.7C132.7 237.7 132.7 237.7 132.7 237.6L132.4 235.6C132.4 235.5 132.3 235.5 132.2 235.5C132.2 235.5 132.2 235.5 132.1 235.5L130.3 237.3C130.2 237.4 130.1 237.2 130.2 237L131.7 234.8V234.5L130.2 233.9C130.1 233.9 130.2 233.6 130.3 233.5C130.3 233.5 130.3 233.5 130.4 233.5L132.2 233.3C132.2 233.3 132.2 233.3 132.3 233.3C132.4 233.3 132.4 233.2 132.5 233.1L132.8 230.7C132.8 230.6 132.9 230.5 132.9 230.5C133 230.5 133 230.5 133 230.6L133.3 232.6C133.3 232.7 133.4 232.7 133.5 232.7L135.3 230.9C135.3 230.9 135.3 230.9 135.4 230.9C135.5 230.8 135.6 231 135.5 231.2L134 233.4L133.9 233.7ZM143.9 229.4C144 229.4 143.9 229.7 143.8 229.8C143.8 229.8 143.8 229.8 143.7 229.8L141.9 230C141.9 230 141.9 230 141.8 230C141.7 230 141.7 230.1 141.7 230.2L141.4 232.6C141.4 232.7 141.3 232.8 141.3 232.8C141.2 232.8 141.2 232.8 141.2 232.7L140.9 230.7C140.9 230.6 140.8 230.6 140.7 230.6C140.7 230.6 140.7 230.6 140.6 230.6L138.8 232.4C138.8 232.4 138.8 232.4 138.7 232.4C138.6 232.5 138.5 232.3 138.6 232.1L140.1 229.9V229.6L138.6 229C138.5 229 138.6 228.7 138.7 228.6C138.7 228.6 138.7 228.6 138.8 228.6L140.6 228.4C140.7 228.4 140.7 228.3 140.7 228.2L141 225.8C141 225.7 141.1 225.6 141.1 225.6C141.2 225.6 141.2 225.6 141.2 225.7L141.5 227.7C141.5 227.8 141.6 227.8 141.7 227.8C141.7 227.8 141.7 227.8 141.8 227.8L143.6 226C143.6 226 143.6 226 143.7 226C143.8 225.9 143.9 226.1 143.8 226.3L142.3 228.5V228.8L143.9 229.4ZM152.3 224.5C152.4 224.5 152.3 224.8 152.2 224.9C152.2 224.9 152.2 224.9 152.1 224.9L150.3 225.1C150.3 225.1 150.3 225.1 150.2 225.1C150.1 225.1 150.1 225.2 150.1 225.3L149.8 227.7C149.8 227.8 149.7 227.9 149.7 227.9C149.6 227.9 149.6 227.9 149.6 227.8L149.3 225.8C149.3 225.7 149.2 225.7 149.1 225.7L147.3 227.5C147.2 227.6 147.1 227.4 147.2 227.2L148.7 225V224.7L147.2 224.1C147.1 224.1 147.2 223.8 147.3 223.7C147.3 223.7 147.3 223.7 147.4 223.7L149.2 223.5C149.2 223.5 149.2 223.5 149.3 223.5C149.4 223.5 149.4 223.4 149.4 223.3L149.7 220.9C149.7 220.8 149.8 220.7 149.8 220.7C149.9 220.7 149.9 220.7 149.9 220.8L150.2 222.8C150.2 222.9 150.3 222.9 150.3 222.9C150.3 222.9 150.3 222.9 150.4 222.9L152.2 221.1C152.2 221.1 152.2 221.1 152.3 221.1C152.4 221 152.5 221.2 152.4 221.4L150.9 223.6V223.9L152.3 224.5Z" fill="#5287E0"/>
<path d="M205.7 172.9L213.8 168.2C216.4 166.7 218.4 163.1 218.4 160.2C218.4 157.3 216.3 156.1 213.7 157.5L205.6 162.2C203 163.7 201 167.3 201 170.2C201.1 173.1 203.1 174.3 205.7 172.9Z" fill="#5287E0"/>
<path d="M213.8 182.1L205.7 186.8C203.1 188.3 201.1 191.9 201.1 194.8C201.1 197.7 203.2 198.9 205.8 197.5L213.9 192.8C216.5 191.3 218.5 187.7 218.5 184.8C218.5 181.8 216.4 180.6 213.8 182.1Z" fill="#5287E0"/>
<path d="M186.8 228.3V228.4C186.8 232.6 183.8 237.8 180.1 240L144.1 260.8C140.4 262.9 137.4 261.2 137.4 257V256.9C137.4 252.7 140.4 247.5 144.1 245.3L180.1 224.5C183.8 222.4 186.8 224.1 186.8 228.3Z" fill="#5287E0"/>
<path d="M151.8 247.9C151.5 247.9 151 248 150.3 248.2C150 248.3 149.8 248.3 149.8 248.3C149.7 248.3 149.7 248.2 149.7 248.1C149.7 248 149.7 247.8 149.8 247.7C149.9 247.6 150 247.4 150.2 247.3C150.4 247.2 150.6 247.1 150.7 247.2C150.8 247.2 150.9 247.4 151 247.6L152.5 246.6C152.4 246 152.2 245.7 151.9 245.6C151.6 245.5 151.1 245.7 150.4 246.1C149.9 246.4 149.4 246.7 149.1 247.1C148.8 247.4 148.6 247.8 148.4 248.1C148.3 248.5 148.2 248.8 148.2 249.1C148.2 249.6 148.4 249.9 148.7 250C149 250.1 149.5 250.1 150.2 249.9C150.6 249.8 150.9 249.7 151 249.8C151.1 249.9 151.2 250 151.2 250.1C151.2 250.3 151.1 250.4 151 250.6C150.9 250.8 150.7 251 150.5 251.1C150.2 251.3 150 251.3 149.8 251.1C149.7 251 149.6 250.8 149.6 250.6L148.1 251.6C148.1 252.2 148.3 252.6 148.7 252.8C149 253 149.6 252.8 150.5 252.3C151 252 151.4 251.7 151.7 251.3C152 250.9 152.3 250.5 152.5 250.1C152.7 249.7 152.8 249.3 152.8 248.9C152.8 248.6 152.7 248.3 152.6 248.1C152.3 248 152.1 247.9 151.8 247.9Z" fill="white"/>
<path d="M153.4 246.2V250.5L154.8 249.7V245.4L153.4 246.2Z" fill="white"/>
<path d="M154.8 243.7L153.4 244.5V245.6L154.8 244.8V243.7Z" fill="white"/>
<path d="M159.7 242.5L158.4 243.3V243.9C158.2 243.7 158.1 243.7 157.9 243.6C157.7 243.6 157.5 243.7 157.2 243.8C156.7 244.1 156.4 244.5 156.1 245C155.8 245.5 155.7 246.1 155.7 246.8C155.7 247.4 155.8 247.8 156 248C156.3 248.3 156.7 248.3 157.2 248.1C157.5 248 157.7 247.7 157.9 247.5C158 247.3 158.2 247.1 158.3 246.8V247.4C158.3 247.7 158.3 248 158.2 248.2C158.1 248.4 157.9 248.5 157.7 248.7C157.5 248.8 157.4 248.8 157.3 248.8C157.2 248.8 157.2 248.7 157.1 248.6L155.7 249.2C155.7 249.3 155.7 249.4 155.7 249.4C155.7 249.8 155.8 250.1 156.1 250.2C156.4 250.3 156.9 250.1 157.7 249.7C158 249.5 158.3 249.3 158.6 249.1C158.9 248.9 159.1 248.7 159.2 248.4C159.4 248.1 159.5 247.9 159.6 247.6C159.7 247.3 159.7 247 159.7 246.7V246.5V242.5ZM158.1 246.2C158 246.4 157.8 246.6 157.6 246.7C157.4 246.8 157.3 246.8 157.1 246.7C157 246.6 156.9 246.4 156.9 246.1C156.9 245.7 157 245.5 157.1 245.2C157.2 245 157.4 244.8 157.5 244.7C157.7 244.6 157.8 244.6 158 244.7C158.1 244.8 158.2 245 158.2 245.3C158.3 245.7 158.2 246 158.1 246.2Z" fill="white"/>
<path d="M164.2 240.2C164 240.1 163.7 240.1 163.3 240.3C163 240.5 162.8 240.7 162.6 240.9C162.4 241.1 162.2 241.5 162 241.9V241.2L160.7 242V246.3L162.1 245.5V243.4C162.1 243 162.1 242.7 162.3 242.5C162.4 242.3 162.5 242.1 162.7 242C162.9 241.9 163 241.9 163.1 242C163.2 242.1 163.2 242.2 163.2 242.5V244.9L164.6 244.1V241.4C164.6 240.7 164.4 240.4 164.2 240.2Z" fill="white"/>
<path d="M171.3 234.2V237.8C171.3 238.1 171.2 238.4 171.1 238.7C170.9 239 170.7 239.2 170.5 239.3C170.2 239.5 170 239.5 169.9 239.4C169.7 239.3 169.7 239.1 169.7 238.8V235.2L168.1 236.1V239.6C168.1 239.9 168.1 240.2 168.2 240.5C168.3 240.7 168.4 240.9 168.5 241C168.7 241.1 168.9 241.2 169.1 241.2C169.3 241.2 169.5 241.1 169.8 241C170.1 240.9 170.4 240.7 170.6 240.6C171 240.3 171.4 240.1 171.7 239.8C171.9 239.6 172.1 239.3 172.3 238.9C172.5 238.5 172.7 238.2 172.7 237.8C172.8 237.4 172.8 237.1 172.8 236.7V233.2L171.3 234.2Z" fill="white"/>
<path d="M177.6 232.8C177.3 232.5 176.9 232.5 176.4 232.8C176.2 232.9 175.9 233.1 175.7 233.4C175.5 233.6 175.4 233.9 175.2 234.2V233.6L173.9 234.4V240.3L175.3 239.5V237.4C175.4 237.5 175.6 237.5 175.8 237.5C176 237.5 176.2 237.4 176.4 237.3C176.9 237 177.2 236.6 177.5 236.1C177.8 235.5 177.9 234.9 177.9 234.2C178 233.5 177.8 233.1 177.6 232.8ZM176.4 235.9C176.3 236.1 176.1 236.3 176 236.4C175.8 236.5 175.7 236.5 175.5 236.4C175.4 236.3 175.3 236.1 175.3 235.7C175.3 235.3 175.4 235 175.5 234.8C175.6 234.6 175.8 234.4 176 234.3C176.2 234.2 176.3 234.2 176.4 234.3C176.5 234.4 176.6 234.6 176.6 235C176.5 235.3 176.5 235.6 176.4 235.9Z" fill="white"/>
<path d="M149.1 266.2L175 251.2C175.4 251 175.7 250.5 175.7 250C175.7 249.6 175.4 249.4 175 249.6L149.1 264.5C148.7 264.7 148.4 265.2 148.4 265.7C148.4 266.2 148.7 266.4 149.1 266.2Z" fill="#5287E0"/>
<path d="M184.3 250.2L139.8 275.9C139.4 276.1 139.1 276.6 139.1 277.1C139.1 277.6 139.4 277.7 139.8 277.5L184.3 251.8C184.7 251.6 185 251.1 185 250.6C185 250.2 184.7 250 184.3 250.2Z" fill="#5287E0"/>
<path d="M150.1 139.4C157.3 135.2 163.1 125.2 163.1 116.9C163.1 108.6 157.2 105.3 150 109.4C142.8 113.6 137 123.6 137 131.9C137 140.2 142.8 143.6 150.1 139.4Z" fill="white"/>
<path d="M162 132.6C161.5 132.4 160.9 132.6 160.3 132.9C159.7 133.3 159 133.9 158.5 134.7C156.3 138.1 153.4 141 150.3 142.8C147.3 144.6 144.5 145 142.3 144.2C141.8 144 141.2 144.2 140.5 144.5C139.9 144.9 139.2 145.5 138.7 146.3C136.1 150.4 134.5 155.1 134.5 159.9V160.3C134.5 162.8 136.3 163.8 138.5 162.6L162.9 148.5C165.1 147.2 166.9 144.2 166.8 141.7V141.3C166.7 136.4 164.9 133.6 162 132.6Z" fill="white"/>
<path d="M118.4 241C118.5 240.8 118.4 240.7 118.3 240.7C118.3 240.7 118.3 240.7 118.2 240.7L116.4 242.5C116.4 242.5 116.4 242.5 116.3 242.5C116.2 242.5 116.2 242.5 116.2 242.4L115.9 240.4C115.9 240.3 115.8 240.3 115.8 240.3C115.7 240.3 115.7 240.4 115.7 240.5L115.4 242.9C115.4 243 115.3 243.1 115.3 243.1L113.5 243.3C113.5 243.3 113.5 243.3 113.4 243.3C113.3 243.4 113.2 243.6 113.3 243.7L114.8 244.3V244.6L113.3 246.8C113.2 247 113.3 247.1 113.4 247.1C113.4 247.1 113.4 247.1 113.5 247.1L115.3 245.3C115.4 245.3 115.4 245.3 115.5 245.4L115.8 247.4C115.8 247.5 115.9 247.5 116 247.5C116.1 247.5 116.1 247.4 116.1 247.3L116.4 244.9C116.4 244.8 116.5 244.7 116.5 244.7C116.5 244.7 116.5 244.7 116.6 244.7L118.4 244.5C118.4 244.5 118.4 244.5 118.5 244.5C118.6 244.4 118.7 244.2 118.6 244.1L117.1 243.5V243.2L118.4 241Z" fill="white"/>
<path d="M126.8 235.8C126.8 235.8 126.8 235.9 126.8 235.8L124.9 237.6C124.9 237.6 124.9 237.6 124.8 237.6C124.7 237.6 124.7 237.6 124.7 237.5L124.4 235.5C124.4 235.4 124.3 235.4 124.3 235.4C124.2 235.4 124.2 235.5 124.2 235.6L123.9 238C123.9 238.1 123.8 238.2 123.7 238.2C123.7 238.2 123.7 238.2 123.6 238.2L121.8 238.4C121.8 238.4 121.8 238.4 121.7 238.4C121.6 238.5 121.5 238.7 121.6 238.8L123.1 239.4V239.7L121.6 241.9C121.5 242.1 121.6 242.2 121.7 242.2C121.7 242.2 121.7 242.2 121.8 242.2L123.6 240.4C123.7 240.4 123.7 240.4 123.8 240.5L124.1 242.5C124.1 242.6 124.2 242.6 124.2 242.6C124.3 242.6 124.3 242.5 124.3 242.4L124.6 240C124.6 239.9 124.7 239.8 124.7 239.8C124.7 239.8 124.7 239.8 124.8 239.8L126.6 239.6C126.6 239.6 126.6 239.6 126.7 239.6C126.8 239.5 126.9 239.3 126.8 239.2L125.3 238.6V238.3L126.8 236.1C127.1 235.9 127 235.8 126.8 235.8Z" fill="white"/>
<path d="M135.3 230.9C135.3 230.9 135.3 231 135.3 230.9L133.4 232.7C133.4 232.7 133.4 232.7 133.3 232.7C133.2 232.7 133.2 232.7 133.1 232.6L132.8 230.6C132.8 230.5 132.7 230.5 132.7 230.5C132.6 230.5 132.6 230.6 132.6 230.7L132.3 233.1C132.3 233.2 132.2 233.3 132.1 233.3C132.1 233.3 132.1 233.3 132 233.3L130.2 233.5C130.2 233.5 130.2 233.5 130.1 233.5C130 233.6 129.9 233.8 130 233.9L131.5 234.5V234.8L130 237C129.9 237.2 130 237.3 130.1 237.3L131.9 235.5C132 235.5 132 235.5 132.1 235.6L132.4 237.6C132.4 237.7 132.5 237.7 132.5 237.7C132.6 237.7 132.6 237.6 132.6 237.5L132.9 235.1C132.9 235 133 234.9 133 234.9C133 234.9 133 234.9 133.1 234.9L134.9 234.7C134.9 234.7 134.9 234.7 135 234.7C135.1 234.6 135.2 234.4 135.1 234.3L133.6 233.7V233.4L135.1 231.2C135.5 231 135.4 230.9 135.3 230.9Z" fill="white"/>
<path d="M141.7 230.2C141.7 230.1 141.8 230 141.8 230C141.8 230 141.8 230 141.9 230L143.7 229.8C143.7 229.8 143.7 229.8 143.8 229.8C143.9 229.7 144 229.5 143.9 229.4L142.4 228.8V228.5L143.9 226.3C144 226.1 143.9 226 143.8 226C143.8 226 143.8 226 143.7 226L141.9 227.8C141.8 227.8 141.8 227.8 141.7 227.7L141.4 225.7C141.4 225.6 141.3 225.6 141.3 225.6C141.2 225.6 141.2 225.7 141.2 225.8L140.9 228.2C140.9 228.3 140.8 228.4 140.8 228.4L139 228.6C139 228.6 139 228.6 138.9 228.6C138.8 228.7 138.7 228.9 138.8 229L140.3 229.6V229.9L138.8 232.1C138.7 232.3 138.8 232.4 138.9 232.4C138.9 232.4 138.9 232.4 139 232.4L140.8 230.6C140.8 230.6 140.8 230.6 140.9 230.6C141 230.6 141 230.6 141.1 230.7L141.4 232.7C141.4 232.8 141.5 232.8 141.5 232.8C141.6 232.8 141.6 232.7 141.6 232.6L141.7 230.2Z" fill="white"/>
<path d="M147.2 227.4C147.1 227.6 147.2 227.7 147.3 227.7L149.1 225.9C149.2 225.9 149.2 225.9 149.3 226L149.6 228C149.6 228.1 149.7 228.1 149.7 228.1C149.8 228.1 149.8 228 149.8 227.9L150.1 225.5C150.1 225.4 150.2 225.3 150.2 225.3C150.2 225.3 150.2 225.3 150.3 225.3L152.1 225.1C152.1 225.1 152.1 225.1 152.2 225.1C152.3 225 152.4 224.8 152.3 224.7L150.8 224.1V223.8L152.3 221.6C152.4 221.4 152.3 221.3 152.2 221.3C152.2 221.3 152.2 221.3 152.1 221.3L150.3 223.1C150.3 223.1 150.3 223.1 150.2 223.1C150.1 223.1 150.1 223.1 150.1 223L149.8 221C149.8 220.9 149.7 220.9 149.7 220.9C149.6 220.9 149.6 221 149.6 221.1L149.3 223.5C149.3 223.6 149.2 223.7 149.2 223.7C149.2 223.7 149.2 223.7 149.1 223.7L147.3 223.9C147.3 223.9 147.3 223.9 147.2 223.9C147.1 224 147 224.2 147.1 224.3L148.6 224.9V225.2L147.2 227.4Z" fill="white"/>
<path d="M115.1 221.1C115.7 220.8 116.2 219.9 116.2 219.2C116.2 218.5 115.7 218.2 115.1 218.6C114.5 218.9 114 219.8 114 220.5C114 221.1 114.5 221.4 115.1 221.1Z" fill="white"/>
<path d="M118.6 216.5C118 216.9 117.5 217.7 117.5 218.4C117.5 219.1 118 219.4 118.6 219C119.2 218.7 119.7 217.8 119.7 217.1C119.7 216.5 119.2 216.2 118.6 216.5Z" fill="white"/>
<path d="M122.1 217C122.7 216.7 123.2 215.8 123.2 215.1C123.2 214.4 122.7 214.1 122.1 214.5C121.5 214.9 121 215.7 121 216.4C121.1 217.1 121.5 217.3 122.1 217Z" fill="white"/>
<path d="M125.7 215C126.3 214.7 126.8 213.8 126.8 213.1C126.8 212.4 126.3 212.1 125.7 212.5C125.1 212.9 124.6 213.7 124.6 214.4C124.6 215 125.1 215.3 125.7 215Z" fill="white"/>
<path d="M129.2 210.4C128.6 210.7 128.1 211.6 128.1 212.3C128.1 213 128.6 213.3 129.2 212.9C129.8 212.5 130.3 211.7 130.3 211C130.3 210.4 129.8 210.1 129.2 210.4Z" fill="white"/>
<path d="M132.7 210.9C133.3 210.5 133.8 209.7 133.8 209C133.8 208.3 133.3 208 132.7 208.4C132.1 208.7 131.6 209.6 131.6 210.3C131.6 211 132.1 211.2 132.7 210.9Z" fill="white"/>
<path d="M136.2 206.4C135.6 206.7 135.1 207.6 135.1 208.3C135.1 209 135.6 209.3 136.2 208.9C136.8 208.5 137.3 207.7 137.3 207C137.3 206.3 136.8 206 136.2 206.4Z" fill="white"/>
<path d="M139.7 206.9C140.3 206.5 140.8 205.7 140.8 205C140.8 204.3 140.3 204 139.7 204.4C139.1 204.7 138.6 205.6 138.6 206.3C138.6 206.9 139.1 207.2 139.7 206.9Z" fill="white"/>
<path d="M226.5 18.1C226.5 9.30002 220.3 5.80002 212.7 10.2L100.4 75C92.7999 79.4 86.5999 90 86.6999 98.8L87.3999 340.7C87.3999 345.5 89.2999 348.7 92.4999 350C94.8999 350.9 97.8999 350.5 101.3 348.5L213.5 283.7C216.8 281.8 219.9 278.7 222.2 275.1C225.3 270.4 227.2 264.9 227.2 259.9L226.5 18.1ZM115 74.2C116.7 73.2 118 74 118 75.9C118 77.8 116.7 80.1 115 81.1C113.3 82.1 112 81.3 112 79.4C112 77.5 113.3 75.2 115 74.2ZM104.4 78.7C106.8 77.3 108.8 78.4 108.9 81.2C108.9 84 106.9 87.4 104.5 88.9C102.1 90.3 100.1 89.2 99.9999 86.4C99.9999 83.5 102 80.1 104.4 78.7ZM209 280.9L105.7 340.6C97.1999 345.5 90.3999 342 90.2999 332.8L89.6999 112.8C89.6999 107.1 93.8999 100 99.1999 96.9L214.1 30.5C219.4 27.5 223.6 29.6 223.7 35.4L224.3 255.4C224.3 264.6 217.4 276.1 209 280.9Z" fill="#8842FC"/>
<path d="M115 74.2C116.7 73.2 118 74 118 75.9C118 77.8 116.7 80.1 115 81.1C113.3 82.1 112 81.3 112 79.4C112 77.5 113.3 75.2 115 74.2Z" fill="white"/>
<path d="M104.5 80.3C106.2 79.3 107.5 80.1 107.5 82C107.5 83.9 106.2 86.2 104.5 87.2C102.8 88.2 101.5 87.4 101.5 85.5C101.5 83.6 102.8 81.3 104.5 80.3Z" fill="url(#paint1_linear_121_1083)"/>
<path d="M104.5 78.7C102.1 80.1 100.1 83.5 100.1 86.4C100.1 89.2 102.1 90.4 104.6 88.9C107.1 87.5 109 84.1 109 81.2C108.9 78.4 106.9 77.3 104.5 78.7ZM104.5 87.2C102.8 88.2 101.5 87.4 101.5 85.5C101.5 83.6 102.8 81.3 104.5 80.3C106.2 79.3 107.5 80.1 107.5 82C107.5 83.9 106.1 86.3 104.5 87.2Z" fill="white"/>
<path d="M209.9 1.89999C207.4 0.399993 203.9 0.699993 200.1 2.89999L87.8999 67.7C80.2999 72.1 74.0999 82.8 74.1999 91.5L74.8999 333.4C74.8999 337.7 76.3999 340.7 79.0999 342.3L91.5999 349.6C88.8999 348.1 87.3999 345 87.3999 340.7L86.6999 98.8C86.6999 90 92.7999 79.4 100.4 75L212.7 10.2C216.5 7.99999 220 7.79999 222.5 9.19999L209.9 1.89999Z" fill="#6414E9"/>
<g style="mix-blend-mode:screen">
<path d="M167 57.8L89.7998 182.3V164.7L149.9 67.7L167 57.8Z" fill="#58595B"/>
</g>
<g style="mix-blend-mode:screen">
<path d="M224.2 222.7L176.5 299.7L126 328.9L224 170.6L224.2 222.7Z" fill="#58595B"/>
</g>
<g style="mix-blend-mode:screen">
<path d="M223.7 67.7L90.0999 283.3L89.8999 204.5L188.5 45.3L214 30.6C219.3 27.6 223.5 29.7 223.6 35.5L223.7 67.7Z" fill="#58595B"/>
</g>
<path d="M538.7 144.1L480.6 110.5C478.9 109.5 477.6 110.3 477.6 112.2L477.5 141.5C477.5 143.4 478.8 145.7 480.5 146.7L538.6 180.3C540.3 181.3 541.6 180.5 541.6 178.6L541.7 149.3C541.7 147.4 540.4 145.1 538.7 144.1ZM527.1 163C527.1 164.3 526.2 164.8 525.1 164.2L485.6 141.4C484.5 140.8 483.6 139.2 483.6 137.9V137.3C483.6 136 484.5 135.5 485.6 136.2L525.1 159C526.2 159.6 527.1 161.2 527.1 162.5V163ZM527.2 150.9C527.2 152.2 526.3 152.7 525.2 152L485.5 129.1C484.4 128.5 483.5 126.9 483.5 125.6V125C483.5 123.7 484.4 123.2 485.5 123.8L525.2 146.7C526.3 147.3 527.2 148.9 527.2 150.2V150.9ZM538 169.2C538 170.5 537.1 171 536 170.3L531.5 167.7C530.4 167.1 529.5 165.5 529.5 164.2V163.6C529.5 162.3 530.4 161.8 531.5 162.5L536 165.1C537.1 165.7 538 167.3 538 168.6V169.2ZM538 157.2C538 158.5 537.1 159 536 158.3L531.5 155.7C530.4 155.1 529.5 153.5 529.5 152.2V151.6C529.5 150.3 530.4 149.8 531.5 150.4L536 153C537.1 153.6 538 155.2 538 156.5V157.2Z" fill="#5287E0"/>
<path d="M488.8 139.8C488.9 139.8 488.8 139.7 488.8 139.6L487.9 139.5L487.8 139.4L487.7 138.2C487.7 138.1 487.7 138.1 487.6 138.1H487.5L487.3 139.1C487.3 139.1 487.3 139.2 487.2 139.1L486.3 138.2C486.2 138.2 486.2 138.2 486.3 138.3L487 139.4C487 139.5 487 139.5 487 139.5L486.3 139.7C486.2 139.7 486.3 139.8 486.3 139.9L487.2 140L487.3 140.1L487.4 141.2C487.4 141.3 487.4 141.3 487.5 141.3H487.6L487.8 140.3C487.8 140.3 487.8 140.3 487.9 140.3L488.8 141.2C488.9 141.2 488.9 141.2 488.8 141.1L488.1 140C488.1 139.9 488.1 139.9 488.1 139.9L488.8 139.8Z" fill="#5287E0"/>
<path d="M493 142.2C493.1 142.2 493 142.1 493 142L492.1 141.9L492 141.8L491.9 140.7C491.9 140.6 491.9 140.6 491.8 140.6H491.7L491.5 141.6C491.5 141.6 491.5 141.7 491.4 141.6L490.5 140.7C490.4 140.7 490.4 140.7 490.5 140.8L491.2 141.9C491.2 142 491.2 142 491.2 142L490.5 142.2C490.4 142.2 490.5 142.3 490.5 142.4L491.4 142.5L491.5 142.6L491.6 143.8C491.6 143.9 491.6 143.9 491.7 143.9H491.8L492 142.9C492 142.9 492 142.9 492.1 142.9L493 143.8C493.1 143.8 493.1 143.8 493 143.7L492.3 142.6C492.3 142.5 492.3 142.5 492.3 142.5L493 142.2Z" fill="#5287E0"/>
<path d="M497.2 144.6C497.3 144.6 497.2 144.5 497.2 144.4L496.3 144.3L496.2 144.2L496 143C496 143 496 142.9 495.9 142.9H495.8L495.6 143.9C495.6 143.9 495.6 144 495.5 143.9L494.6 143C494.5 143 494.5 143 494.6 143.1L495.3 144.2C495.3 144.3 495.3 144.3 495.3 144.3L494.6 144.5C494.5 144.5 494.6 144.6 494.6 144.7L495.5 144.8L495.6 144.9L495.7 146C495.7 146.1 495.7 146.1 495.8 146.1H495.9L496.1 145.1C496.1 145.1 496.1 145.1 496.2 145.1L497.1 146C497.2 146 497.2 146 497.1 145.9L496.4 144.8C496.4 144.7 496.4 144.7 496.4 144.7L497.2 144.6Z" fill="#5287E0"/>
<path d="M501.3 147C501.4 147 501.3 146.9 501.3 146.8L500.4 146.7L500.3 146.6L500.2 145.5C500.2 145.4 500.2 145.4 500.1 145.4H500L499.8 146.4C499.8 146.4 499.8 146.5 499.7 146.4L498.8 145.5C498.7 145.5 498.7 145.5 498.8 145.6L499.5 146.7C499.5 146.8 499.5 146.8 499.5 146.8L498.8 147C498.7 147 498.8 147.1 498.8 147.2L499.7 147.3L499.8 147.4L499.9 148.5C499.9 148.6 499.9 148.6 500 148.6H500.1L500.3 147.6C500.3 147.6 500.3 147.5 500.4 147.6L501.3 148.5C501.4 148.5 501.4 148.5 501.3 148.4L500.6 147.3C500.6 147.2 500.6 147.2 500.6 147.2L501.3 147Z" fill="#5287E0"/>
<path d="M505.5 149.4C505.6 149.4 505.5 149.3 505.5 149.2L504.6 149.1L504.5 149L504.4 147.9C504.4 147.8 504.4 147.8 504.3 147.8H504.2L504 148.8C504 148.8 504 148.9 503.9 148.8L503 147.9C502.9 147.9 502.9 147.9 503 148L503.7 149.1C503.7 149.2 503.7 149.2 503.7 149.2L503 149.4C502.9 149.4 503 149.5 503 149.6L503.9 149.7L504 149.8L504.1 150.9C504.1 151 504.1 151 504.2 151H504.3L504.5 150C504.5 150 504.5 150 504.6 150L505.5 150.9C505.6 150.9 505.6 150.9 505.5 150.8L504.8 149.7C504.8 149.6 504.8 149.6 504.8 149.6L505.5 149.4Z" fill="#5287E0"/>
<path d="M487.3 126.9C487 126.7 486.8 126.9 486.8 127.2C486.8 127.5 487 128 487.3 128.1C487.6 128.3 487.8 128.1 487.8 127.8C487.8 127.5 487.6 127.1 487.3 126.9Z" fill="#5287E0"/>
<path d="M489 127.9C488.7 127.7 488.5 127.9 488.5 128.2C488.5 128.5 488.7 129 489 129.1C489.3 129.3 489.5 129.1 489.5 128.8C489.5 128.5 489.3 128.1 489 127.9Z" fill="#5287E0"/>
<path d="M490.7 128.9C490.4 128.7 490.2 128.9 490.2 129.2C490.2 129.5 490.4 130 490.7 130.1C491 130.3 491.2 130.1 491.2 129.8C491.2 129.5 491 129.1 490.7 128.9Z" fill="#5287E0"/>
<path d="M492.4 129.9C492.1 129.7 491.9 129.9 491.9 130.2C491.9 130.5 492.1 131 492.4 131.1C492.7 131.3 492.9 131.1 492.9 130.8C493 130.5 492.7 130.1 492.4 129.9Z" fill="#5287E0"/>
<path d="M494.2 130.9C493.9 130.7 493.7 130.9 493.7 131.2C493.7 131.5 493.9 132 494.2 132.1C494.5 132.3 494.7 132.1 494.7 131.8C494.7 131.5 494.5 131.1 494.2 130.9Z" fill="#5287E0"/>
<path d="M495.9 131.9C495.6 131.7 495.4 131.9 495.4 132.2C495.4 132.5 495.6 133 495.9 133.1C496.2 133.3 496.4 133.1 496.4 132.8C496.4 132.5 496.2 132.1 495.9 131.9Z" fill="#5287E0"/>
<path d="M497.6 132.9C497.3 132.7 497.1 132.9 497.1 133.2C497.1 133.5 497.3 134 497.6 134.1C497.9 134.3 498.1 134.1 498.1 133.8C498.1 133.5 497.9 133.1 497.6 132.9Z" fill="#5287E0"/>
<path d="M499.4 133.9C499.1 133.7 498.9 133.9 498.9 134.2C498.9 134.5 499.1 135 499.4 135.1C499.7 135.3 499.9 135.1 499.9 134.8C499.9 134.5 499.6 134.1 499.4 133.9Z" fill="#5287E0"/>
<path d="M525.2 146.8L485.5 123.9C484.4 123.3 483.5 123.8 483.5 125.1V125.7C483.5 127 484.4 128.5 485.5 129.2L525.2 152.1C526.3 152.7 527.2 152.2 527.2 151V150.4C527.2 149 526.3 147.5 525.2 146.8ZM487.3 128.2C487 128 486.8 127.6 486.8 127.3C486.8 127 487 126.8 487.3 127C487.6 127.2 487.8 127.6 487.8 127.9C487.8 128.2 487.5 128.3 487.3 128.2ZM489 129.2C488.7 129 488.5 128.6 488.5 128.3C488.5 128 488.7 127.8 489 128C489.3 128.2 489.5 128.6 489.5 128.9C489.5 129.2 489.3 129.3 489 129.2ZM490.7 130.2C490.4 130 490.2 129.6 490.2 129.3C490.2 129 490.4 128.8 490.7 129C491 129.2 491.2 129.6 491.2 129.9C491.3 130.2 491 130.3 490.7 130.2ZM492.4 131.2C492.1 131 491.9 130.6 491.9 130.3C491.9 130 492.1 129.8 492.4 130C492.7 130.2 492.9 130.6 492.9 130.9C493 131.2 492.7 131.3 492.4 131.2ZM494.2 132.2C493.9 132 493.7 131.6 493.7 131.3C493.7 131 493.9 130.8 494.2 131C494.5 131.2 494.7 131.6 494.7 131.9C494.7 132.2 494.5 132.3 494.2 132.2ZM495.9 133.2C495.6 133 495.4 132.6 495.4 132.3C495.4 132 495.6 131.8 495.9 132C496.2 132.2 496.4 132.6 496.4 132.9C496.4 133.2 496.2 133.3 495.9 133.2ZM497.6 134.1C497.3 133.9 497.1 133.5 497.1 133.2C497.1 132.9 497.3 132.7 497.6 132.9C497.9 133.1 498.1 133.5 498.1 133.8C498.2 134.2 497.9 134.3 497.6 134.1ZM499.3 135.1C499 134.9 498.8 134.5 498.8 134.2C498.8 133.9 499 133.7 499.3 133.9C499.6 134.1 499.8 134.5 499.8 134.8C499.9 135.2 499.6 135.3 499.3 135.1Z" fill="white"/>
<path d="M525.1 158.9L485.6 136C484.5 135.4 483.6 135.9 483.6 137.1V137.7C483.6 139 484.5 140.5 485.6 141.2L525.1 164C526.2 164.6 527.1 164.1 527.1 162.8V162.2C527.1 161.1 526.2 159.5 525.1 158.9ZM488.1 140.2L488.8 141.3C488.9 141.4 488.8 141.5 488.8 141.4L487.9 140.5H487.8L487.6 141.5C487.6 141.5 487.6 141.6 487.5 141.5L487.4 141.4L487.3 140.3C487.3 140.3 487.3 140.2 487.2 140.2L486.3 140.1C486.2 140.1 486.2 139.9 486.3 139.9L487 139.7V139.6L486.3 138.5C486.2 138.4 486.3 138.3 486.3 138.4L487.2 139.3H487.3L487.5 138.3C487.5 138.3 487.5 138.3 487.6 138.3L487.7 138.4L487.8 139.5C487.8 139.5 487.8 139.6 487.9 139.6L488.8 139.7C488.9 139.7 488.9 139.9 488.8 139.9L488.1 140.1C488 140.1 488 140.1 488.1 140.2ZM492.3 142.6L493 143.7C493.1 143.8 493 143.9 493 143.8L492.1 142.9H492L491.8 143.9C491.8 143.9 491.8 143.9 491.7 143.9L491.6 143.8L491.5 142.6C491.5 142.6 491.5 142.5 491.4 142.5L490.5 142.4C490.4 142.4 490.4 142.2 490.5 142.2L491.2 142V141.9L490.5 140.8C490.4 140.7 490.5 140.6 490.5 140.7L491.4 141.6H491.5L491.7 140.6C491.7 140.6 491.7 140.6 491.8 140.6L491.9 140.7L492 141.8C492 141.8 492 141.9 492.1 141.9L493 142C493.1 142 493.1 142.2 493 142.2L492.3 142.4C492.2 142.5 492.2 142.5 492.3 142.6ZM496.4 145L497.1 146.1C497.2 146.2 497.1 146.3 497.1 146.2L496.2 145.3H496.1L495.9 146.3C495.9 146.3 495.9 146.4 495.8 146.3L495.7 146.2L495.6 145.1C495.6 145.1 495.6 145 495.5 145L494.6 144.9C494.5 144.9 494.5 144.7 494.6 144.7L495.3 144.5V144.4L494.6 143.3C494.5 143.2 494.6 143.1 494.6 143.2L495.5 144.1H495.6L495.8 143.1C495.8 143.1 495.8 143.1 495.9 143.1L496 143.2L496.1 144.4C496.1 144.4 496.1 144.5 496.2 144.5L497.1 144.6C497.2 144.6 497.2 144.8 497.1 144.8L496.4 145C496.4 145 496.4 144.9 496.4 145ZM500.6 147.4L501.3 148.5C501.4 148.6 501.3 148.7 501.3 148.6L500.4 147.7H500.3L500.1 148.7C500.1 148.7 500.1 148.8 500 148.7L499.9 148.6L499.8 147.5C499.8 147.5 499.8 147.4 499.7 147.4L498.8 147.3C498.7 147.3 498.7 147.1 498.8 147.1L499.5 146.9V146.8L498.8 145.7C498.7 145.6 498.8 145.5 498.8 145.6L499.7 146.5H499.8L500 145.5C500 145.5 500 145.5 500.1 145.5L500.2 145.6L500.3 146.8C500.3 146.8 500.3 146.9 500.4 146.9L501.3 147C501.4 147 501.4 147.2 501.3 147.2L500.6 147.4C500.6 147.4 500.6 147.3 500.6 147.4ZM504.8 149.8L505.5 150.9C505.6 151 505.5 151.1 505.5 151L504.6 150.1H504.5L504.3 151.1C504.3 151.1 504.3 151.2 504.2 151.1L504.1 151L504 149.9C504 149.9 504 149.8 503.9 149.8L503 149.7C502.9 149.7 502.9 149.5 503 149.5L503.7 149.3V149.2L503 148.1C502.9 148 503 147.9 503 148L503.9 148.9H504L504.2 147.9C504.2 147.9 504.2 147.9 504.3 147.9L504.4 148L504.5 149.1C504.5 149.1 504.5 149.2 504.6 149.2L505.5 149.3C505.6 149.3 505.6 149.5 505.5 149.5L504.8 149.7C504.7 149.7 504.7 149.8 504.8 149.8Z" fill="white"/>
<path d="M536 153.1L531.5 150.5C530.4 149.9 529.5 150.4 529.5 151.7V152.3C529.5 153.6 530.4 155.1 531.5 155.8L536 158.4C537.1 159 538 158.5 538 157.3V156.7C538 155.3 537.1 153.7 536 153.1Z" fill="white"/>
<path d="M536 165.1L531.5 162.5C530.4 161.9 529.5 162.4 529.5 163.6V164.2C529.5 165.5 530.4 167 531.5 167.7L536 170.3C537.1 170.9 538 170.4 538 169.2V168.6C538 167.3 537.1 165.8 536 165.1Z" fill="white"/>
<path d="M369.4 107.9L319.5 79.1C316.2 77.2 313.5 78.7 313.5 82.5L313.4 106.3C313.4 110.1 316.1 114.8 319.4 116.7L369.3 145.5C372.6 147.4 375.3 145.9 375.3 142.1L375.4 118.3C375.4 114.5 372.7 109.8 369.4 107.9ZM338.1 97.6L361.7 111.3C362 111.5 362.3 111.9 362.3 112.3C362.3 112.7 362 112.8 361.7 112.6L338.1 99C337.8 98.8 337.5 98.4 337.5 98C337.5 97.6 337.7 97.5 338.1 97.6ZM319.5 86.9L334.8 95.7C335.1 95.9 335.4 96.4 335.4 96.7C335.4 97.1 335.1 97.2 334.8 97L319.5 88.2C319.2 88 318.9 87.6 318.9 87.2C318.9 86.9 319.2 86.7 319.5 86.9ZM334.7 117.6L319.4 108.8C319.1 108.6 318.8 108.1 318.8 107.8C318.8 107.4 319.1 107.3 319.4 107.5L334.7 116.3C335 116.5 335.3 116.9 335.3 117.3C335.3 117.7 335 117.8 334.7 117.6ZM318.9 100.7C318.9 100.3 319.2 100.2 319.5 100.4L344.9 115.1C345.2 115.3 345.5 115.8 345.5 116.1C345.5 116.5 345.2 116.6 344.9 116.4L319.5 101.7C319.1 101.5 318.9 101.1 318.9 100.7ZM361.6 133.2L338 119.6C337.7 119.4 337.4 118.9 337.4 118.6C337.4 118.2 337.7 118.1 338 118.3L361.6 132C361.9 132.2 362.2 132.6 362.2 133C362.2 133.3 362 133.4 361.6 133.2ZM370.5 138.3L365.5 135.4C365.2 135.2 365 134.8 365 134.5C365 134.2 365.2 134 365.5 134.2L370.5 137.1C370.8 137.3 371 137.7 371 138C371 138.3 370.8 138.5 370.5 138.3ZM370.4 131.2L350.9 119.9C350.6 119.7 350.3 119.2 350.3 118.9C350.3 118.5 350.6 118.4 350.9 118.6L370.4 129.9C370.7 130.1 371 130.5 371 130.9C371 131.2 370.8 131.4 370.4 131.2ZM370.5 124.8L319.5 95.4C319.2 95.2 318.9 94.8 318.9 94.4C318.9 94 319.2 93.9 319.5 94.1L370.5 123.5C370.8 123.7 371.1 124.2 371.1 124.5C371.1 124.9 370.8 125 370.5 124.8ZM370.6 117.8L365.6 114.9C365.3 114.7 365.1 114.3 365.1 114C365.1 113.7 365.3 113.5 365.6 113.7L370.6 116.6C370.9 116.8 371.1 117.2 371.1 117.5C371.1 117.8 370.8 117.9 370.6 117.8Z" fill="#FD696C"/>
<path d="M338.1 99L361.7 112.7C362 112.9 362.3 112.7 362.3 112.4C362.3 112 362 111.6 361.7 111.4L338.1 97.7C337.8 97.5 337.5 97.7 337.5 98C337.5 98.4 337.7 98.8 338.1 99Z" fill="white"/>
<path d="M370.6 116.6L365.6 113.7C365.3 113.5 365.1 113.7 365.1 114C365.1 114.3 365.3 114.7 365.6 114.9L370.6 117.8C370.9 118 371.1 117.8 371.1 117.5C371.1 117.2 370.8 116.7 370.6 116.6Z" fill="white"/>
<path d="M370.5 123.5L319.5 94.1C319.2 93.9 318.9 94.1 318.9 94.4C318.9 94.8 319.2 95.2 319.5 95.4L370.5 124.8C370.8 125 371.1 124.8 371.1 124.5C371.1 124.1 370.8 123.7 370.5 123.5Z" fill="white"/>
<path d="M362.2 132.9C362.2 132.5 361.9 132.1 361.6 131.9L338 118.2C337.7 118 337.4 118.2 337.4 118.5C337.4 118.9 337.7 119.3 338 119.5L361.6 133.2C362 133.4 362.2 133.2 362.2 132.9Z" fill="white"/>
<path d="M370.4 129.8L350.9 118.5C350.6 118.3 350.3 118.5 350.3 118.8C350.3 119.2 350.6 119.6 350.9 119.8L370.4 131.1C370.7 131.3 371 131.1 371 130.8C371 130.5 370.8 130 370.4 129.8Z" fill="white"/>
<path d="M370.5 137.1L365.5 134.2C365.2 134 365 134.2 365 134.5C365 134.8 365.2 135.2 365.5 135.4L370.5 138.3C370.8 138.5 371 138.3 371 138C371 137.7 370.8 137.3 370.5 137.1Z" fill="white"/>
<path d="M591.3 260.7L545 234C543 232.8 541.4 233.8 541.4 236.1L541.3 260.2C541.3 262.5 542.9 265.3 544.9 266.5L591.2 293.2C593.2 294.4 594.8 293.4 594.8 291.1L594.9 267C594.9 264.6 593.3 261.8 591.3 260.7ZM576.1 258.7L586.9 264.9C587.1 265 587.2 265.3 587.2 265.6C587.2 265.9 587.1 266.1 586.9 266L576.1 259.8C576 259.7 575.8 259.4 575.8 259.1C575.8 258.8 575.9 258.6 576.1 258.7ZM567.6 253.8L574.5 257.8C574.6 257.9 574.8 258.2 574.8 258.5C574.8 258.8 574.7 259 574.5 258.9L567.6 254.9C567.4 254.8 567.3 254.5 567.3 254.2C567.4 253.9 567.5 253.7 567.6 253.8ZM564.7 262.3C564.2 268 559.8 269.9 554.6 267C554.3 266.8 553.9 266.6 553.6 266.4C548 262.6 544 254.5 544.6 248.5C545.1 242.8 549.5 240.9 554.7 243.8C555 244 555.4 244.2 555.7 244.4C561.2 248.2 565.2 256.2 564.7 262.3ZM574.5 276.8L567.6 272.8C567.4 272.7 567.3 272.4 567.3 272.1C567.3 271.8 567.4 271.6 567.6 271.7L574.5 275.7C574.6 275.8 574.8 276.1 574.8 276.5C574.8 276.7 574.7 276.9 574.5 276.8ZM567.3 265.9C567.3 265.6 567.4 265.4 567.6 265.5L579.1 272.2C579.3 272.3 579.4 272.6 579.4 272.9C579.4 273.2 579.3 273.4 579.1 273.3L567.6 266.6C567.4 266.5 567.3 266.2 567.3 265.9ZM586.8 283.9L576 277.7C575.9 277.6 575.7 277.3 575.7 276.9C575.7 276.6 575.8 276.4 576 276.5L586.8 282.7C587 282.8 587.1 283.1 587.1 283.4C587.1 283.7 586.9 283.9 586.8 283.9ZM590.8 286.2L588.5 284.9C588.4 284.8 588.3 284.5 588.3 284.2C588.3 283.9 588.4 283.7 588.5 283.8L590.8 285.1C590.9 285.2 591 285.5 591 285.8C591.1 286.1 591 286.3 590.8 286.2ZM590.8 280L581.9 274.9C581.7 274.8 581.6 274.5 581.6 274.1C581.6 273.8 581.7 273.6 581.9 273.7L590.8 278.8C591 278.9 591.1 279.2 591.1 279.5C591.1 279.9 591 280.1 590.8 280ZM590.8 274.5L567.6 261.1C567.4 261 567.3 260.7 567.3 260.4C567.3 260.1 567.4 259.9 567.6 260L590.8 273.4C591 273.5 591.1 273.8 591.1 274.1C591.1 274.4 591 274.6 590.8 274.5ZM590.9 268.4L588.6 267.1C588.5 267 588.4 266.7 588.4 266.5C588.4 266.3 588.5 266 588.6 266.1L590.9 267.4C591 267.5 591.1 267.8 591.1 268.1C591.1 268.3 591 268.5 590.9 268.4Z" fill="#FD696C"/>
<path d="M554.5 256.4C556.7 257.7 558.4 256.6 558.4 254.2C558.4 251.7 556.7 248.7 554.5 247.4C552.3 246.2 550.6 247.2 550.6 249.6C550.5 252.2 552.3 255.2 554.5 256.4Z" fill="#FD696C"/>
<path d="M557.5 258C557.3 257.9 557.1 257.9 557 257.9C556.3 258.1 555.5 258 554.5 257.5C553.6 257 552.7 256.1 552.1 255.1C551.9 254.9 551.8 254.7 551.6 254.6C551.4 254.5 551.2 254.5 551.1 254.5C550.3 254.8 549.8 255.7 549.8 257.1V257.2C549.8 258 550.3 258.9 551 259.3L558.3 263.5C559 263.9 559.5 263.6 559.5 262.8V262.7C559.5 261.2 559 259.7 558.1 258.4C557.9 258.3 557.7 258.2 557.5 258Z" fill="#FD696C"/>
<path d="M567.6 253.8C567.4 253.7 567.3 253.9 567.3 254.2C567.3 254.5 567.4 254.9 567.6 254.9L574.5 258.9C574.6 259 574.8 258.8 574.8 258.5C574.8 258.2 574.7 257.8 574.5 257.8L567.6 253.8Z" fill="white"/>
<path d="M586.9 266.1C587.1 266.2 587.2 266 587.2 265.7C587.2 265.4 587.1 265 586.9 265L576.1 258.8C576 258.7 575.8 258.9 575.8 259.2C575.8 259.5 575.9 259.9 576.1 259.9L586.9 266.1Z" fill="white"/>
<path d="M588.6 266.1C588.5 266 588.4 266.2 588.4 266.5C588.4 266.8 588.5 267.1 588.6 267.1L590.9 268.4C591 268.5 591.1 268.3 591.1 268C591.1 267.7 591 267.4 590.9 267.3L588.6 266.1Z" fill="white"/>
<path d="M567.6 260C567.4 259.9 567.3 260.1 567.3 260.4C567.3 260.7 567.4 261.1 567.6 261.1L590.8 274.5C591 274.6 591.1 274.4 591.1 274.1C591.1 273.8 591 273.4 590.8 273.4L567.6 260Z" fill="white"/>
<path d="M567.6 271.6C567.4 271.5 567.3 271.7 567.3 272C567.3 272.3 567.4 272.7 567.6 272.8L574.5 276.8C574.6 276.9 574.8 276.7 574.8 276.4C574.8 276.1 574.7 275.7 574.5 275.6L567.6 271.6Z" fill="white"/>
<path d="M576 276.5C575.9 276.4 575.7 276.6 575.7 276.9C575.7 277.2 575.8 277.6 576 277.7L586.8 283.9C587 284 587.1 283.8 587.1 283.5C587.1 283.2 587 282.8 586.8 282.8L576 276.5Z" fill="white"/>
<path d="M579.2 273.3C579.4 273.4 579.5 273.2 579.5 272.9C579.5 272.6 579.4 272.2 579.2 272.2L567.7 265.5C567.5 265.4 567.4 265.6 567.4 265.9C567.4 266.2 567.5 266.6 567.7 266.7L579.2 273.3Z" fill="white"/>
<path d="M581.9 273.7C581.7 273.6 581.6 273.8 581.6 274.1C581.6 274.4 581.7 274.8 581.9 274.9L590.8 280C591 280.1 591.1 279.9 591.1 279.6C591.1 279.3 591 278.9 590.8 278.9L581.9 273.7Z" fill="white"/>
<path d="M588.6 283.8C588.5 283.7 588.4 283.9 588.4 284.2C588.4 284.5 588.5 284.8 588.6 284.9L590.9 286.2C591 286.3 591.1 286.1 591.1 285.8C591.1 285.5 591 285.2 590.9 285.1L588.6 283.8Z" fill="white"/>
<path d="M555.6 244.3C555.3 244.1 554.9 243.9 554.6 243.7C549.5 240.7 545.1 242.7 544.5 248.4C543.9 254.5 548 262.5 553.5 266.3C553.8 266.5 554.2 266.8 554.5 266.9C559.6 269.9 564 267.9 564.6 262.2C565.2 256.2 561.2 248.2 555.6 244.3ZM554.5 247.4C556.7 248.7 558.4 251.7 558.4 254.2C558.4 256.7 556.6 257.7 554.5 256.4C552.3 255.2 550.6 252.1 550.6 249.6C550.6 247.2 552.3 246.2 554.5 247.4ZM559.5 263C559.5 263.8 559 264.1 558.3 263.7L551 259.5C550.3 259.1 549.8 258.2 549.8 257.4V257.3C549.8 255.8 550.3 255 551.1 254.7C551.3 254.6 551.5 254.7 551.6 254.8C551.8 254.9 552 255.1 552.1 255.3C552.8 256.3 553.6 257.1 554.5 257.7C555.4 258.2 556.3 258.4 557 258.1C557.2 258 557.4 258.1 557.5 258.2C557.7 258.3 557.9 258.5 558 258.7C558.9 260 559.4 261.5 559.5 263Z" fill="white"/>
<path d="M23.7 160C21.2 158.5 17.7 158.7 13.8 161C6.2 165.4 0 176.1 0 184.9C0 189.3 1.6 192.3 4 193.8L12.5 198.8C10 197.4 8.5 194.3 8.5 189.9C8.5 181.1 14.7 170.4 22.3 166C26.1 163.8 29.6 163.6 32.2 165L23.7 160Z" fill="#FF575B"/>
<path d="M22.3 165.9C30 161.5 36.2 165 36.2 173.8C36.2 182.6 30 193.3 22.4 197.7C14.7 202.1 8.5 198.6 8.5 189.8C8.5 181.1 14.7 170.4 22.3 165.9Z" fill="#FD696C"/>
<path d="M32.5002 168.8C27.7002 174.3 23.8002 180.8 20.4002 187.4C18.5002 187.1 16.6002 187 14.4002 187.4L14.2002 187.7C16.1002 188.7 18.8002 189.9 20.8002 190.8C24.6002 183.8 28.9002 175.9 32.5002 168.8Z" fill="white"/>
<path d="M334.6 310.2C334.6 310.2 333.9 352.5 326.2 361.9C322.5 366.5 310.1 390.8 310.1 390.8C308.7 391 307.4 390.7 306.4 389C308.9 375.2 312.3 363.4 317.7 356.5C320.5 337 312.2 328.6 321.4 310.1L334.6 310.2Z" fill="#F9CBCB"/>
<path d="M337.9 310.2C341.2 330.5 340 342 337.4 363.2C337.4 363.4 337.3 363.6 337.3 363.8L329.8 396.2L326 396.7C325 386 325.6 372.5 327.5 363.5C326.1 337.1 312.8 329.7 325.2 310.2H337.9Z" fill="#F9CBCB"/>
<path d="M312.4 370.7C316.6 370.2 320.5 367.7 323.2 370.8C325.2 373.1 327.5 374.9 330.3 375.8C331.5 376.2 332.8 376.4 334.2 376.5C336.8 376.6 339.1 374.6 339.8 371.7C341.1 366.1 343.1 355.8 343.1 345.3C343.1 326.4 337.7 308.9 337.7 308.9C337.7 308.9 337.6 308.9 337.5 308.8C335.8 308.4 324.7 306.2 320.7 311.2C316.3 316.7 313.1 323.9 314.2 337.9C315 347.9 311 357.3 308.3 363.9C306.9 367.4 309.2 371.1 312.4 370.7Z" fill="#191970"/>
<path d="M334.8 277.5L339.4 287.3C339.4 287.3 339.6 287.1 339.8 286.6C341.6 283.7 348.2 272.8 349.9 268.4C351.3 264.9 351.5 255.9 351.3 249.7C351.2 247.4 351 245.5 350.8 244.5C350.8 244.5 353.7 241.9 351 240.4C348.4 239 350.2 234.9 349.3 234.8C348.3 234.7 347.8 240.2 347.8 240.2C347.8 240.2 346.4 238.8 346 239.3C345.3 240.1 347.7 244.5 347.7 244.5C347.4 245.5 347.1 246.5 346.8 247.6C345.3 253 344.2 258.9 343.7 265.3C340.8 268.3 337.8 272.6 334.8 277.5Z" fill="#F9CBCB"/>
<path d="M322 309.8H338.5C337.6 306.1 335.5 304.1 338.6 295.6C339.9 292.1 340.1 289.1 339.8 286.6C339 280.5 334.8 277.5 334.8 277.5L330.8 275.3H326L321.1 278.8C321.1 278.8 321.4 292.5 322.1 297.1C322.8 301.2 323.6 305.9 322 309.8Z" fill="#3E3279"/>
<path d="M319.3 312.4C326.9 316.3 329.5 312.1 335.2 312.1C335.7 312.1 336.1 312.1 336.6 312.2C338.4 312.4 339.8 310.8 339.5 309.1C338.6 303.8 338.9 297.9 340.2 290C340.5 288.2 341 286.5 341.7 284.9C342.1 283.9 342.6 282.9 343.1 282C345.6 277.6 348.8 271.5 349.9 268.6C351.3 265.1 351.5 256.1 351.3 249.9L346.8 247.8C345.3 253.2 344.1 258.6 343.2 265.3C340.9 267.7 338.8 271.2 336.5 275C335.6 276.5 333.6 277 332.1 276.2L330.9 275.5H326L321.1 279C321.1 279 321.4 292.7 322.1 297.3C322.8 301.2 320.9 308.4 319.3 312.4Z" fill="#FD696C"/>
<path d="M304.4 298.6C304.4 298.7 304.4 298.7 304.4 298.8C304.6 300.1 305.4 301.6 306.5 303.2C308.7 306.1 312 309.1 314.2 310.8C315.4 311.8 316.3 312.4 316.3 312.4C314.2 317.2 318.5 321.6 319.8 319.1C320.1 318.5 319.1 316.7 319.1 315.9C319.1 315.4 319.9 314.9 320.5 314.1C321.1 313.2 320.6 312 320.2 311.4C319.4 310.4 318.7 309.2 317.9 308C315.9 304.8 313.7 301.4 310.7 299C315.8 296.3 319.2 295.1 322.8 291.9L321.1 278.6C321.1 278.7 304 292.5 304.4 298.6Z" fill="#F9CBCB"/>
<path d="M304.4 298.6C304.4 298.7 304.4 298.7 304.4 298.8C305.1 300.3 305.8 301.8 306.5 303.2C308.7 306.1 312 309.1 314.2 310.8L317.8 308.1C315.8 304.9 313.6 301.5 310.6 299.1C315.7 296.4 319.1 295.2 322.7 292L321 278.7C321.1 278.7 304 292.5 304.4 298.6Z" fill="#FD696C"/>
<path d="M334.3 257.8C334.3 257.8 336.6 264.1 334.8 268C333.1 271.9 326.1 269.2 326.1 269.2L334.3 257.8Z" fill="#F9CBCB"/>
<path d="M329.7 269.4L330.8 275.3H326L326.2 269.2L329.7 269.4Z" fill="#F9CBCB"/>
<path d="M309.6 280C310.1 276.5 308.1 274.9 309.3 271.6C310.5 268.5 314.2 267 315.8 264.1C317 261.9 316.9 259.3 317.8 256.9C319.1 253.6 322.5 251.2 326 251.1C329.5 251 333.1 253.2 334.5 256.5C334.5 256.5 336.4 259.9 333.6 264.6C332.1 267.1 328.1 269.3 327.2 272.1C325.6 277.3 332.7 284.4 330.7 289.4C329.6 292.2 326.5 292.1 325.9 295C325.4 297.6 330.2 299.5 325.9 305.1C322.7 309.3 318.9 305.9 316.4 305.7C314.3 305.5 310.8 307.7 306.9 305.5C299.9 301.6 305.8 296.2 304.3 290.8C302.5 284 309.1 283.7 309.6 280Z" fill="#452E8A"/>
<path d="M325.9 395L325.3 398.1C325.1 399 325 399.9 325.1 400.7L325.5 404.1H326.7L326.6 402C326.7 401.4 327.4 401.2 327.7 401.7L328.9 403.1C329.2 403.7 329.8 404.2 330.6 404.3C332.8 404.6 337 404.7 337.2 403.3C337.4 401.8 333.3 401.7 332.1 400.1C331 398.5 330.2 395.1 330.2 395.1C328.8 395.7 327.3 395.5 325.9 395Z" fill="#452E8A"/>
<path d="M306.5 389.1L304.5 391.5C303.9 392.2 303.5 393 303.2 393.8L302.1 397L303.2 397.5L304 395.5C304.3 395 305 395.1 305.1 395.7L305.6 397.5C305.6 398.2 306 398.9 306.6 399.3C308.4 400.5 312.2 402.4 313 401.2C313.8 400 310.1 398.1 309.8 396.1C309.4 394.2 310.2 390.8 310.2 390.8C308.7 390.7 307.5 390.1 306.5 389.1Z" fill="#452E8A"/>
<path d="M533.7 410.7C555.9 410.7 574 406.5 574 401.4C574 396.3 556 392.1 533.7 392.1C511.5 392.1 493.4 396.3 493.4 401.4C493.4 406.5 511.5 410.7 533.7 410.7Z" fill="#E3E5F2"/>
<path d="M524.2 383.8C524.2 383.8 510.1 385.9 510.3 385.7C510.5 385.6 536.2 398.7 536.2 398.7L561.4 387.4L548.9 383.8H524.2Z" fill="#452E8A"/>
<path d="M529.7 403.1C529.6 403.1 529.6 403.1 529.5 403.1H529.4C525.8 403.1 523.5 403 523.5 403C523.5 403 523.3 403 523 403.1C519.9 403.7 503.4 406.9 504.8 400.7C506 395.2 516 395.9 520 396.4C521 396.5 521.6 396.6 521.6 396.6C521.6 396.6 523.6 395.8 526.7 394.5C526.8 394.5 527 394.4 527.1 394.3C537.4 390.3 559 382.7 564.6 387.3C564.7 387.3 564.7 387.4 564.8 387.5C564.9 387.6 564.9 387.6 565 387.7C565 387.7 565.1 387.8 565.1 387.9C565.1 387.9 565.1 387.9 565.1 388C565.2 388.1 565.2 388.2 565.3 388.2C565.4 388.3 565.4 388.4 565.5 388.5C565.5 388.6 565.6 388.7 565.6 388.8C565.7 389 565.8 389.2 565.8 389.5C565.8 389.7 565.9 390 565.9 390.2C565.9 390.6 566 391 566 391.4C565.4 401.4 541.4 403 529.7 403.1Z" fill="#FFD8D9"/>
<path d="M527.5 403.6L526.6 394.7L526.2 393.6C536.5 389.6 558.8 382.8 564.5 387.6C564.6 387.7 564.6 387.7 564.7 387.8C564.8 387.9 564.8 387.9 564.9 388C564.9 388 565 388.1 565 388.2C565 388.2 565 388.2 565 388.3C565.1 388.4 565.1 388.5 565.2 388.5C565.3 388.6 565.3 388.7 565.4 388.8C565.4 388.9 565.5 389 565.5 389.1C565.6 389.3 565.7 389.5 565.7 389.8C565.7 390 565.8 390.3 565.8 390.5C565.8 390.9 565.9 391.3 565.9 391.7C565.5 401.5 527.5 403.6 527.5 403.6Z" fill="#382570"/>
<path d="M521.5 396.7C521.5 396.7 502.8 393 501.9 401C501 409.5 523.4 403.1 523.4 403.1C523.4 403.1 514.8 405 515.2 400.2C515.5 395.5 521.5 396.7 521.5 396.7Z" fill="#382570"/>
<path d="M549.3 364.5C545.6 369.7 548.9 383.8 548.9 383.8H524.2C524.9 382.8 526.8 370.7 522.5 363.9C515.5 353.1 523 344.6 523 344.6L533.3 342.7L534 339.4L534.5 337.1L534.6 336.6H539.2L539.4 337.6L539.8 339.7L540.3 342.9L549.7 344.9C549.6 345.1 557.7 352.7 549.3 364.5Z" fill="#FFD8D9"/>
<path d="M524.2 383.8C524.8 383 526.3 374 524 367.2C528.9 365.8 528 379.3 536.2 383.8H524.2Z" fill="#C4626E"/>
<path d="M562.7 375.3C562.4 376.9 561.3 378.6 559.7 380.3C555.4 384.7 546.7 384.5 540.8 386.1L540.2 382.9C540.2 382.9 550.8 379.9 553.1 376.2C553.3 375.8 553.5 375.4 553.6 375.1C554.4 371.4 550.1 366.7 550.1 366.7L549.6 345.1C549.6 345.1 564 367.2 562.7 375.3Z" fill="#FFD8D9"/>
<path d="M532.9 383L533 385.1C533.2 385 533.2 384.8 533 384.7C527.7 383.6 519 385.1 514.7 381.5C512.1 379.3 510.6 376.5 510.3 374.4C509 366.3 523.1 344.7 523.1 344.7L522.6 366.3C522.6 366.3 518.3 371 519.1 374.7C519.2 375.4 519.8 376.2 520.5 377.1C523.7 380.8 532.9 383 532.9 383Z" fill="#FFD8D9"/>
<path d="M557.8 356.2C555.1 350.6 551.8 345.9 549.6 345.1C549.4 345 549.2 345 549.1 345L540.2 343.1C539.3 345 533.7 345.2 533.3 342.9L523.5 344.7C523.4 344.7 523.2 344.7 523 344.8C520.2 345.7 515.4 353.3 512.4 360.9C510.3 366.3 509 371.7 509.9 374.9C510.5 377 512 379.8 514.6 382L516.4 380.5L520.9 376.8C520.1 375.9 519.2 375.3 519.1 374.7C518.5 371.9 522.2 368.7 524.1 367.3C526.3 374.1 524.9 383 524.3 383.9H549C549 383.9 546.4 372.6 548.4 366.5C550.3 368.3 554 372.2 553.4 375C553.3 375.3 553.2 375.7 553 376.1L557.8 379.2L559.6 380.4C559.8 380.5 560.1 380.5 560.2 380.3C561.7 378.6 562.6 376.8 562.9 375.3C563.7 371 561.1 362.9 557.8 356.2Z" fill="#FD696C"/>
<path d="M567.8 400C569.3 406.3 552.4 403.3 549.3 402.6C549 402.5 548.8 402.5 548.8 402.5C548.8 402.5 546.4 402.6 542.6 402.6C542.5 402.6 542.5 402.6 542.4 402.6C537 402.6 529 402.3 521.8 401C513 399.4 505.4 396.4 505.4 390.5C505.4 390.3 505.4 390 505.4 389.8C505.4 389.5 505.5 389.3 505.5 389C505.5 388.8 505.6 388.5 505.7 388.3C505.7 388.2 505.8 388.1 505.8 388C505.8 387.9 505.9 387.8 506 387.7C506.1 387.6 506.1 387.5 506.2 387.5C506.2 387.5 506.2 387.5 506.3 387.4C506.3 387.3 506.4 387.3 506.4 387.2C506.5 387.1 506.5 387.1 506.6 387C507.3 386.4 508.2 385.9 509.4 385.7C517.5 383.9 535.8 390.2 545 393.7C545.1 393.7 545.3 393.8 545.4 393.9C548.6 395.1 550.6 396 550.6 396C550.6 396 551.2 395.9 552.2 395.7C556.4 395.3 566.5 394.5 567.8 400Z" fill="#FFD8D9"/>
<path d="M545.9 392.8L545.5 394L542.6 402.7L542.2 403.9C537.3 403.9 530.3 403.4 523.7 402.2C514.1 400.4 505.4 397 505.4 390.6C505.4 390.4 505.4 390.1 505.4 389.9C505.4 389.6 505.5 389.4 505.5 389.1C505.5 388.9 505.6 388.6 505.7 388.4C505.7 388.3 505.8 388.2 505.8 388.1C505.8 388 505.9 387.9 506 387.8C506.1 387.7 506.1 387.6 506.2 387.6C506.2 387.6 506.2 387.6 506.3 387.5C506.3 387.4 506.4 387.4 506.4 387.3C506.5 387.2 506.5 387.2 506.6 387.1C507.3 386.4 508.3 385.9 509.5 385.7C517.9 383.7 536.6 389.3 545.9 392.8Z" fill="#452E8A"/>
<path d="M550.7 396.1C550.7 396.1 569.8 392.2 570.7 400.3C571.7 409 548.9 402.7 548.9 402.7C548.9 402.7 557.2 404.3 556.8 399.4C556.2 394.5 550.7 396.1 550.7 396.1Z" fill="#452E8A"/>
<path d="M551.9 362.8H520.9C519.8 362.8 519.1 363.9 519.3 365.3L522.4 385.5C522.5 386.4 523.3 387.1 524.2 387.1H548.7C549.6 387.1 550.4 386.4 550.5 385.5L553.6 365.3C553.7 363.9 553 362.8 551.9 362.8Z" fill="white"/>
<path d="M530.5 331.2C530.5 331.2 526.8 327.2 529.8 322C529.8 322 530.7 323.6 531.8 323.2C531.8 323.2 531.9 319.3 539.7 318.6C539.7 318.6 539.1 320.1 539.4 320.5C542 319.4 544.5 322.2 547 321.1C547 321.1 547.7 325.6 544.8 328.2C544.8 328.2 545.2 329.7 544.2 331.3C543.1 332.7 530.5 331.2 530.5 331.2Z" fill="#382570"/>
<path d="M531.6 330C531.6 330 529.9 328.3 529.8 330C529.6 331.9 531.9 333.3 531.9 333.3C531.9 333.3 532.4 339.2 537.4 339.2C542.4 339.2 543.1 333.3 543.1 333.3C543.1 333.3 545.7 332.6 545.1 330.4C544.8 329.3 543.5 330.4 543.5 330.4V327.6C543.5 327.6 542.1 328.3 539.5 327.2C537.6 326.4 536.9 325.2 535.3 325.3C533.4 325.3 531.6 327.3 531.6 330Z" fill="#FFD8D9"/>
<path d="M57.6 389.8C55.3 379.8 53.7 350.9 59.1 331.6C63.7 314.9 59.2 305.1 59.1 305L60.1 304.5C60.3 304.9 64.9 314.8 60.1 331.9C54.8 351.1 56.3 379.6 58.6 389.6L57.6 389.8Z" fill="url(#paint2_linear_121_1083)"/>
<path d="M63.1001 390.6C62.4001 390.3 58.7001 387.6 60.2001 360C61.7001 332.2 47.2001 327.7 47.1001 327.6L47.4001 326.5C48.0001 326.7 62.9001 331.3 61.3001 360C59.9001 387 63.5001 389.5 63.6001 389.5L63.1001 390.6Z" fill="url(#paint3_linear_121_1083)"/>
<path d="M61.2 389C60.4 385.5 61.9 377.8 63.5 369.7C64.6 364.2 65.7 358.6 65.9 354.8C66.1 350.9 65.5 346.2 64.9 341.7C64.1 335.4 63.3 329.4 64.6 325.2C65.4 322.5 67.4 320.6 69.9 319.8C72.6 319 75.7 319.6 78.1 321.5L77.4 322.4C75.3 320.7 72.6 320.2 70.2 320.9C68 321.6 66.4 323.3 65.6 325.6C64.4 329.6 65.1 335.4 65.9 341.6C66.5 346.2 67.1 350.9 66.9 354.9C66.7 358.8 65.6 364.5 64.5 370C63 377.6 61.5 385.5 62.2 388.8L61.2 389Z" fill="url(#paint4_linear_121_1083)"/>
<path d="M29.3997 340.2C32.5997 338.9 36.2997 332.7 39.7997 332.8C40.5997 336.8 34.6997 336.9 32.4997 339.3C30.6997 341.7 39.2997 343.1 43.0997 340.6C46.1997 338.7 44.8997 334.2 48.2997 327.5C51.0997 321.7 53.1997 321.5 53.3997 318C53.7997 311.7 47.1997 305.9 46.4997 306.3C46.1997 306.5 46.9997 307.6 47.3997 310.4C47.6997 310.6 47.6997 321.9 44.6997 318.2C42.6997 313.5 47.9997 310.1 44.3997 304.8C41.6997 300.8 34.8997 301 34.6997 301.5C38.1997 302.3 40.3997 311.2 38.8997 314.8C37.7997 316.9 36.9997 315.1 36.5997 313C34.6997 306.2 34.0997 302.5 29.0997 299.8C22.9997 296.5 18.1997 302.3 10.4997 303.7C10.4997 303.7 8.69968 313.2 12.5997 318.4C16.2997 323.4 21.3997 318.6 25.3997 319.8C27.1997 320.1 27.6997 322.4 26.5997 323.6C25.0997 325.9 21.3997 326.1 18.7997 326.3C14.3997 326.5 12.8997 325.6 12.3997 326.4C10.9997 328.5 17.8997 334.2 21.4997 332.9C26.1997 333.2 31.2997 325.3 35.9997 327.3C36.1997 331 26.8997 335.2 22.9997 335.5C20.8997 335.4 19.4997 334.5 19.2997 334.8C20.2997 336.7 26.4997 341.2 29.3997 340.2Z" fill="url(#paint5_linear_121_1083)"/>
<path d="M37.1998 339.4C38.2998 339.3 39.2998 338.9 40.1998 338.2C41.0998 337.6 41.6998 336.8 42.1998 335.9C42.7998 334.9 43.0998 333.8 43.5998 332.8C44.0998 331.7 44.5998 330.5 45.0998 329.5C45.3998 329 45.5998 328.5 45.8998 328.1C46.1998 327.7 46.4998 327.4 46.9998 327.3C47.0998 327.3 47.0998 327.4 47.1998 327.4C47.3998 327.5 47.6998 327.7 47.8998 327.9V327.8C47.4998 327.5 46.9998 327.2 46.4998 327C46.2998 326.8 46.1998 326.7 46.0998 326.5C45.9998 326.3 45.8998 326.1 45.8998 325.9C45.8998 325.6 45.9998 325.3 46.1998 324.9C46.2998 324.6 46.4998 324.3 46.5998 324C47.5998 321.9 48.7998 320 49.4998 317.8C50.0998 316 50.2998 314 49.5998 312.3C49.5998 312.2 49.4998 312.3 49.4998 312.4C49.8998 313.4 49.9998 314.6 49.8998 315.7C49.6998 317.9 48.6998 319.8 47.6998 321.7C47.1998 322.8 46.5998 323.8 46.1998 324.9C45.9998 325.3 45.7998 325.8 45.9998 326.2C46.0998 326.4 46.1998 326.7 46.3998 326.9C45.0998 326.3 43.6998 325.8 42.1998 325.4C42.0998 325.4 42.0998 325.4 41.9998 325.3C41.2998 324.5 40.7998 323.5 40.5998 322.5C40.0998 320.4 40.5998 318.2 41.1998 316.2C41.3998 315.6 41.4998 315.1 41.6998 314.5C41.7998 314 41.9998 313.4 41.9998 312.9C42.0998 312 41.8998 310.9 41.1998 310.3C41.0998 310.2 41.0998 310.3 41.0998 310.4C41.9998 311.3 41.8998 312.6 41.6998 313.7C41.1998 315.9 40.3998 318.1 40.2998 320.4C40.1998 322.2 40.6998 324.1 41.7998 325.4C40.4998 325 39.1998 324.6 37.8998 323.9C37.1998 323.5 36.5998 323.1 35.9998 322.7C35.4998 322.3 34.8998 321.8 34.4998 321.4C33.6998 320.6 32.8998 319.8 32.0998 319C31.5998 317.9 31.3998 316.7 31.2998 315.5C31.0998 313.4 31.1998 311.2 30.4998 309.1C29.8998 307.3 28.3998 305.5 26.2998 305.5C26.1998 305.5 26.1998 305.6 26.2998 305.6C27.3998 305.6 28.4998 306.2 29.1998 307.1C30.5998 308.7 30.8998 311 30.9998 313.1C31.0998 315 31.0998 317 31.8998 318.8C31.7998 318.7 31.6998 318.6 31.5998 318.5C30.4998 317.5 29.3998 316.6 28.0998 315.9C25.4998 314.4 22.6998 313.4 19.8998 312.5C19.7998 312.5 19.7998 312.6 19.8998 312.6C20.1998 312.7 20.5998 312.8 20.8998 312.9C23.5998 313.8 26.2998 314.8 28.6998 316.4C27.8998 316.2 27.0998 316.4 26.3998 316.6C25.4998 316.8 24.3998 317 23.4998 316.4C23.3998 316.4 23.3998 316.4 23.3998 316.5C24.1998 317.1 25.1998 317 26.0998 316.8C26.9998 316.6 27.9998 316.3 28.9998 316.6C30.1998 317.4 31.2998 318.3 32.2998 319.4C33.2998 320.4 34.1998 321.4 35.2998 322.3C35.3998 322.4 35.4998 322.5 35.5998 322.6C34.5998 322.2 33.3998 322.4 32.3998 322.8C31.1998 323.3 30.2998 324.1 29.2998 325C28.3998 325.8 27.3998 326.6 26.2998 327.2C24.1998 328.4 21.8998 329.1 19.4998 329.2C19.3998 329.2 19.3998 329.3 19.4998 329.3C20.7998 329.2 22.0998 329 23.2998 328.6C24.3998 328.2 25.4998 327.8 26.4998 327.2C27.4998 326.6 28.4998 325.8 29.3998 325C30.3998 324.2 31.2998 323.3 32.4998 322.9C33.5998 322.5 34.8998 322.3 35.9998 322.9C36.8998 323.6 37.7998 324.1 38.7998 324.6C40.1998 325.2 41.6998 325.6 43.0998 326.1C43.1998 326.1 43.2998 326.2 43.4998 326.2C42.6998 326.3 41.8998 326.7 41.1998 327.2C40.4998 327.7 39.8998 328.4 39.2998 329.1C38.6998 329.8 38.0998 330.5 37.3998 331.1C36.0998 332.3 34.5998 333.4 32.9998 334.2C32.8998 334.2 32.9998 334.3 32.9998 334.3C33.8998 333.8 34.6998 333.3 35.4998 332.8C36.1998 332.3 36.8998 331.7 37.4998 331.1C38.1998 330.5 38.7998 329.8 39.3998 329.1C39.9998 328.4 40.5998 327.8 41.3998 327.2C42.0998 326.7 42.8998 326.4 43.6998 326.3C44.7998 326.7 45.7998 327.1 46.7998 327.6C46.3998 327.7 46.0998 328 45.7998 328.3C45.3998 328.8 45.0998 329.4 44.7998 329.9C44.1998 331 43.6998 332.1 43.2998 333.2C42.8998 334.3 42.4998 335.4 41.8998 336.4C41.3998 337.3 40.6998 338.1 39.7998 338.7C38.9998 339.3 37.9998 339.6 36.9998 339.7C37.0998 339.3 37.0998 339.4 37.1998 339.4Z" fill="white"/>
<path d="M98.8997 314.3C95.4997 314.8 90.3997 320 87.0997 319C87.2997 315 92.9997 316.2 95.6997 314.4C98.0997 312.5 89.9997 309.1 85.6997 310.6C82.1997 311.7 82.3997 316.4 77.4997 322.1C73.3997 327.1 71.2997 326.8 70.2997 330.1C68.3997 336.2 73.3997 343.3 74.1997 343.1C74.4997 343 73.9997 341.8 74.2997 338.9C74.0997 338.6 76.7997 327.7 78.6997 332C79.5997 337 73.5997 339.1 75.7997 345.1C77.4997 349.6 84.0997 351.1 84.3997 350.6C81.1997 349 81.1997 339.8 83.4997 336.7C84.9997 334.9 85.4997 336.8 85.2997 339C85.5997 346 85.1997 349.8 89.3997 353.6C94.5997 358.3 100.6 353.7 108.4 354.2C108.4 354.2 112.4 345.4 109.9 339.5C107.5 333.8 101.4 337.2 97.7997 335.1C96.0997 334.3 96.1997 332 97.5997 331.2C99.5997 329.3 103.2 330 105.8 330.5C110.1 331.3 111.4 332.6 112 331.9C113.8 330.2 108.6 323 104.7 323.4C100.3 322 93.3997 328.4 89.2997 325.4C89.9997 321.8 99.9997 319.9 103.9 320.5C105.9 321.1 107.1 322.3 107.4 322.1C107 319.8 102 314 98.8997 314.3Z" fill="url(#paint6_linear_121_1083)"/>
<path d="M91.1 313.2C90 313.1 88.9 313.2 87.9 313.6C86.9 314 86.1 314.6 85.4 315.3C84.6 316.1 84 317.1 83.3 318C82.6 319 81.8 320 81 320.9C80.6 321.3 80.3 321.7 79.8 322.1C79.5 322.4 79 322.7 78.5 322.6C78.4 322.5 78.4 322.5 78.3 322.4C78.1 322.2 77.9 322 77.7 321.8C77.7 321.8 77.7 321.9 77.6 321.9C78 322.3 78.3 322.7 78.7 323C78.8 323.2 78.9 323.4 79 323.6C79.1 323.8 79.1 324 79.1 324.2C79 324.5 78.8 324.8 78.6 325.1C78.4 325.4 78.2 325.6 78 325.9C76.6 327.7 74.9 329.3 73.7 331.2C72.7 332.8 72.1 334.7 72.3 336.6C72.3 336.7 72.4 336.7 72.4 336.6C72.3 335.5 72.4 334.4 72.8 333.3C73.5 331.2 74.9 329.6 76.3 327.9C77.1 327 77.9 326.1 78.6 325.1C78.9 324.7 79.2 324.3 79.1 323.9C79.1 323.6 79 323.4 78.9 323.1C80 324 81.3 324.8 82.6 325.6C82.7 325.6 82.7 325.7 82.8 325.7C83.3 326.6 83.5 327.7 83.5 328.8C83.5 331 82.5 332.9 81.5 334.8C81.2 335.3 80.9 335.8 80.7 336.3C80.4 336.8 80.2 337.3 80 337.8C79.7 338.7 79.6 339.7 80.1 340.6C80.1 340.7 80.2 340.6 80.2 340.5C79.6 339.5 79.9 338.2 80.4 337.2C81.4 335.1 82.7 333.3 83.4 331C83.9 329.3 83.9 327.4 83.1 325.8C84.3 326.5 85.5 327.2 86.5 328.2C87.1 328.7 87.6 329.3 88 329.8C88.4 330.3 88.8 330.9 89.2 331.5C89.8 332.5 90.4 333.4 91 334.4C91.2 335.6 91.1 336.8 91 338C90.7 340.1 90 342.2 90.2 344.4C90.4 346.3 91.4 348.4 93.4 348.9C93.5 348.9 93.5 348.8 93.4 348.8C92.3 348.5 91.5 347.7 90.9 346.7C89.9 344.8 90.2 342.5 90.6 340.5C91 338.6 91.4 336.7 91.1 334.7C91.2 334.8 91.3 334.9 91.3 335.1C92.1 336.3 93 337.4 94.1 338.4C96.2 340.5 98.8 342.1 101.3 343.7C101.4 343.7 101.4 343.6 101.4 343.6C101.1 343.4 100.8 343.2 100.5 343C98.1 341.5 95.7 339.8 93.7 337.8C94.4 338.1 95.2 338.1 96 338.2C97 338.2 98.1 338.3 98.7 339.1C98.7 339.2 98.8 339.1 98.8 339C98.2 338.3 97.2 338.1 96.3 338.1C95.4 338.1 94.3 338.1 93.5 337.6C92.5 336.5 91.7 335.4 91 334.1C90.3 332.9 89.6 331.7 88.8 330.6C88.7 330.5 88.6 330.4 88.6 330.3C89.5 330.9 90.7 331 91.8 330.8C93 330.6 94.2 330 95.3 329.4C96.4 328.8 97.5 328.3 98.7 328C101 327.4 103.5 327.2 105.8 327.7C105.9 327.7 105.9 327.6 105.8 327.6C104.5 327.4 103.2 327.3 101.9 327.4C100.7 327.5 99.6 327.7 98.4 328C97.2 328.3 96.2 328.8 95.1 329.4C94 330 92.8 330.6 91.6 330.7C90.4 330.9 89.1 330.7 88.2 329.8C87.5 328.9 86.7 328.2 85.9 327.5C84.7 326.6 83.4 325.8 82.1 325.1C82 325 81.9 325 81.8 324.9C82.6 325 83.5 324.8 84.3 324.5C85.1 324.2 85.9 323.7 86.6 323.2C87.4 322.7 88.1 322.2 88.9 321.7C90.5 320.8 92.2 320.2 93.9 319.8C94 319.8 94 319.7 93.9 319.7C92.9 319.9 92 320.2 91.1 320.6C90.3 320.9 89.5 321.3 88.7 321.7C87.9 322.1 87.2 322.6 86.4 323.2C85.7 323.7 84.9 324.2 84 324.5C83.2 324.8 82.3 324.9 81.5 324.8C80.5 324.2 79.6 323.6 78.8 322.8C79.2 322.8 79.6 322.6 79.9 322.3C80.4 321.9 80.8 321.4 81.2 321C82 320.1 82.8 319.2 83.4 318.2C84.1 317.3 84.7 316.3 85.5 315.4C86.2 314.6 87.1 314 88.1 313.7C89 313.4 90 313.2 91 313.3C91.2 313.3 91.2 313.2 91.1 313.2Z" fill="white"/>
<path d="M38.3001 299.3C41.3001 300.9 48.5001 299.8 50.6001 302.6C48.0001 305.7 44.2001 301.3 41.0001 301.1C38.0001 301.2 42.4001 308.8 46.7001 310.1C50.2001 311.3 52.8001 307.4 60.1001 305.7C66.4001 304.2 67.8001 305.7 70.7001 303.6C75.9001 299.9 76.1001 291.1 75.4001 290.9C75.1001 290.8 74.8001 292.1 72.8001 294.2C72.8001 294.5 64.1001 301.7 65.1001 297.1C67.4001 292.6 73.4001 294.4 75.3001 288.3C76.7001 283.7 72.2001 278.5 71.7001 278.7C73.3001 281.9 67.8001 289.3 64.1001 290.4C61.8001 290.9 62.6001 289.1 64.0001 287.5C68.0001 281.7 70.5001 278.9 69.4001 273.3C68.1001 266.5 60.5001 266.5 54.5001 261.4C54.5001 261.4 46.1001 266.1 44.5001 272.3C43.0001 278.3 49.9001 279.2 51.6001 283.1C52.5001 284.7 51.0001 286.5 49.4001 286.4C46.6001 286.7 44.2001 284 42.4001 282.1C39.5001 278.9 39.2001 277.1 38.2001 277.2C35.7001 277.5 35.6001 286.4 39.0001 288.4C41.7001 292.2 51.1001 291.1 52.5001 296C49.7001 298.5 40.6001 294 37.9001 291.2C36.6001 289.5 36.4001 287.8 36.1001 287.9C35.2001 290 35.7001 297.7 38.3001 299.3Z" fill="url(#paint7_linear_121_1083)"/>
<path d="M43.9002 304.8C44.7002 305.5 45.7002 306.1 46.7002 306.3C47.7002 306.6 48.7002 306.6 49.8002 306.4C50.9002 306.2 52.0002 305.8 53.1002 305.5C54.3002 305.1 55.5002 304.8 56.7002 304.6C57.2002 304.5 57.8002 304.4 58.4002 304.3C58.9002 304.3 59.4002 304.3 59.7002 304.6C59.7002 304.7 59.7002 304.8 59.7002 304.9C59.7002 305.2 59.8002 305.5 59.8002 305.8H59.9002C59.9002 305.3 59.8002 304.8 59.7002 304.2C59.7002 304 59.8002 303.7 59.9002 303.5C60.0002 303.3 60.1002 303.1 60.2002 302.9C60.5002 302.7 60.8002 302.6 61.1002 302.5C61.4002 302.4 61.7002 302.3 62.0002 302.2C64.2002 301.6 66.5002 301.3 68.6002 300.5C70.3002 299.8 72.0002 298.7 72.9002 297C72.9002 296.9 72.8002 296.9 72.8002 296.9C72.2002 297.9 71.4002 298.7 70.5002 299.3C68.7002 300.5 66.6002 301 64.5002 301.5C63.3002 301.8 62.2002 302 61.0002 302.3C60.6002 302.4 60.1002 302.6 59.9002 303C59.8002 303.2 59.7002 303.5 59.6002 303.7C59.3002 302.3 58.7002 300.9 58.1002 299.5C58.1002 299.4 58.0002 299.4 58.0002 299.3C58.1002 298.2 58.6002 297.2 59.3002 296.4C60.6002 294.7 62.6002 293.7 64.5002 292.8C65.0002 292.6 65.6002 292.3 66.1002 292.1C66.6002 291.9 67.1002 291.6 67.6002 291.3C68.4002 290.8 69.1002 290 69.2002 289C69.2002 288.9 69.1002 288.9 69.1002 289C69.0002 290.2 68.0002 291 66.9002 291.6C64.9002 292.7 62.7002 293.4 60.8002 294.8C59.4002 295.9 58.2002 297.4 57.9002 299.2C57.4002 297.9 56.9002 296.6 56.6002 295.3C56.4002 294.6 56.4002 293.8 56.3002 293.1C56.3002 292.4 56.3002 291.7 56.3002 291.1C56.4002 290 56.5002 288.8 56.6002 287.7C57.1002 286.6 57.9002 285.7 58.8002 284.9C60.3002 283.4 62.1002 282.1 63.2002 280.3C64.2002 278.7 64.6002 276.4 63.4002 274.8C63.4002 274.7 63.3002 274.8 63.3002 274.9C64.0002 275.8 64.2002 277 64.0002 278.1C63.7002 280.2 62.1002 281.8 60.5002 283.2C59.1002 284.5 57.6002 285.8 56.6002 287.5C56.6002 287.4 56.6002 287.2 56.6002 287.1C56.7002 285.6 56.6002 284.2 56.4002 282.8C55.9002 279.9 54.9002 277.1 53.8002 274.3C53.8002 274.2 53.7002 274.3 53.7002 274.3C53.8002 274.6 54.0002 275 54.1002 275.3C55.1002 278 56.1002 280.7 56.4002 283.6C56.0002 282.9 55.4002 282.4 54.8002 281.9C54.1002 281.3 53.2002 280.6 53.1002 279.6C53.1002 279.5 53.0002 279.5 53.0002 279.6C53.0002 280.6 53.8002 281.3 54.5002 281.9C55.2002 282.5 56.1002 283.1 56.4002 284C56.5002 285.4 56.5002 286.9 56.4002 288.3C56.3002 289.7 56.1002 291 56.1002 292.4C56.1002 292.5 56.1002 292.7 56.1002 292.8C55.7002 291.8 54.8002 291 53.9002 290.4C52.8002 289.8 51.5002 289.6 50.3002 289.4C49.1002 289.2 47.9002 288.9 46.7002 288.5C44.5002 287.6 42.4002 286.3 40.8002 284.5C40.8002 284.4 40.7002 284.5 40.7002 284.6C41.6002 285.6 42.6002 286.4 43.7002 287.1C44.7002 287.7 45.7002 288.3 46.8002 288.7C47.9002 289.1 49.1002 289.4 50.3002 289.6C51.5002 289.8 52.8002 290 53.9002 290.6C54.9002 291.2 55.9002 292.1 56.1002 293.3C56.1002 294.4 56.3002 295.5 56.6002 296.5C57.0002 298 57.6002 299.4 58.2002 300.8C58.2002 300.9 58.3002 301 58.3002 301.2C57.7002 300.6 56.9002 300.3 56.1002 300.1C55.2002 299.9 54.3002 299.8 53.4002 299.8C52.5002 299.8 51.6002 299.7 50.6002 299.6C48.8002 299.4 47.1002 298.9 45.4002 298.2C45.3002 298.2 45.3002 298.3 45.3002 298.3C46.2002 298.7 47.1002 299 48.1002 299.3C49.0002 299.5 49.8002 299.7 50.7002 299.8C51.6002 299.9 52.5002 300 53.4002 300C54.3002 300 55.2002 300.1 56.1002 300.3C56.9002 300.5 57.7002 300.9 58.3002 301.5C58.7002 302.6 59.1002 303.6 59.3002 304.7C59.0002 304.4 58.5002 304.4 58.1002 304.4C57.5002 304.4 56.9002 304.6 56.2002 304.7C55.0002 304.9 53.9002 305.2 52.7002 305.6C51.6002 306 50.5002 306.4 49.3002 306.5C48.3002 306.7 47.2002 306.6 46.2002 306.3C45.6002 305.9 44.7002 305.4 43.9002 304.8C43.9002 304.7 43.8002 304.8 43.9002 304.8Z" fill="white"/>
<path d="M70.5998 399.1C70.5998 400.8 65.8998 402.2 60.1998 402.2C54.4998 402.2 49.7998 400.8 49.7998 399.1C49.7998 397.4 54.4998 396 60.1998 396C65.8998 395.9 70.5998 397.3 70.5998 399.1Z" fill="#FD696C"/>
<path d="M73.2999 380.2C73.1999 382 70.7999 396.4 70.5999 399.2H49.8999C49.5999 396.3 47.0999 382.1 46.8999 380.2H73.2999Z" fill="#FD696C"/>
<path d="M46.8999 380.2C46.8999 380.5 46.9999 381.3 47.0999 382.6H55.0999C70.0999 382.4 70.5999 399.2 70.5999 399.2C70.7999 396.4 73.1999 382 73.2999 380.2H46.8999Z" fill="#E8B7D1"/>
<path d="M72.7998 380.2H47.3998C45.6998 380.2 44.2998 379.1 44.2998 377.7C44.2998 376.3 45.6998 375.2 47.3998 375.2H72.7998C74.4998 375.2 75.8998 376.3 75.8998 377.7C75.8998 379 74.4998 380.2 72.7998 380.2Z" fill="#FD696C"/>
<path d="M291.9 229.6C292.1 230 292.2 230.4 292.1 230.9C292 231.5 291.5 231.9 290.9 232.1L285.3 233.7C284.7 233.9 284.1 233.7 283.7 233.3C283.3 232.9 283.1 232.3 283.2 231.7L284.6 226C284.7 225.4 285.2 225 285.8 224.8C286.4 224.6 287 224.8 287.4 225.2L291.6 229.2C291.8 229.4 291.9 229.5 291.9 229.6ZM284.6 232.3C284.6 232.3 284.6 232.4 284.6 232.3C284.7 232.4 284.8 232.5 285 232.5L290.6 230.9C290.8 230.9 290.8 230.7 290.8 230.6C290.8 230.5 290.8 230.4 290.7 230.3L286.5 226.3C286.4 226.2 286.2 226.2 286.2 226.2C286.1 226.2 286 226.3 286 226.5L284.6 232.2C284.5 232.2 284.5 232.3 284.6 232.3Z" fill="#FD696C"/>
<path d="M432.8 113.6L434.9 111.5C435.4 111 435.4 110.3 434.9 109.8C434.4 109.3 433.7 109.3 433.2 109.8L431.1 111.9L429 109.8C428.5 109.3 427.8 109.3 427.3 109.8C426.8 110.3 426.8 111 427.3 111.5L429.4 113.6L427.3 115.7C426.8 116.2 426.8 116.9 427.3 117.4C427.5 117.6 427.8 117.8 428.1 117.8C428.4 117.8 428.7 117.7 428.9 117.4L431 115.3L433.1 117.4C433.3 117.6 433.6 117.8 433.9 117.8C434.2 117.8 434.5 117.7 434.7 117.4C435.2 116.9 435.2 116.2 434.7 115.7L432.8 113.6Z" fill="#191970"/>
<path d="M25.2002 255.3L27.3002 253.2C27.8002 252.7 27.8002 252 27.3002 251.5C26.8002 251 26.1002 251 25.6002 251.5L23.5002 253.6L21.4002 251.5C20.9002 251 20.2002 251 19.7002 251.5C19.2002 252 19.2002 252.7 19.7002 253.2L21.8002 255.3L19.7002 257.4C19.2002 257.9 19.2002 258.6 19.7002 259.1C19.9002 259.3 20.2002 259.5 20.5002 259.5C20.8002 259.5 21.1002 259.4 21.3002 259.1L23.4002 257L25.5002 259.1C25.7002 259.3 26.0002 259.5 26.3002 259.5C26.6002 259.5 26.9002 259.4 27.1002 259.1C27.6002 258.6 27.6002 257.9 27.1002 257.4L25.2002 255.3Z" fill="#191970"/>
<path d="M581.4 217C578.8 217 576.7 214.9 576.7 212.3C576.7 209.7 578.8 207.6 581.4 207.6C584 207.6 586.1 209.7 586.1 212.3C586.1 214.9 584 217 581.4 217ZM581.4 209.1C579.6 209.1 578.2 210.6 578.2 212.3C578.2 214.1 579.7 215.5 581.4 215.5C583.2 215.5 584.6 214 584.6 212.3C584.7 210.5 583.2 209.1 581.4 209.1Z" fill="#6414E9"/>
<path d="M47.4002 124.8C44.8002 124.8 42.7002 122.7 42.7002 120.1C42.7002 117.5 44.8002 115.4 47.4002 115.4C50.0002 115.4 52.1002 117.5 52.1002 120.1C52.1002 122.6 50.0002 124.8 47.4002 124.8ZM47.4002 116.8C45.6002 116.8 44.2002 118.3 44.2002 120C44.2002 121.8 45.7002 123.2 47.4002 123.2C49.1002 123.2 50.6002 121.7 50.6002 120C50.7002 118.2 49.2002 116.8 47.4002 116.8Z" fill="#6414E9"/>
<path d="M134.1 420.1V430.5C134.1 428.4 132.6 426.3 129.6 424.6C123.6 421.4 114 421.4 108.1 424.6C105.2 426.2 103.7 428.3 103.7 430.4V420C103.7 417.9 105.2 415.8 108.1 414.2C114 411 123.6 411 129.6 414.2C132.6 415.8 134.1 418 134.1 420.1Z" fill="#CC7C58"/>
<path d="M100.5 425.7V436.1C99.4002 435.1 98.7002 434 98.2002 432.9V422.5C98.7002 423.6 99.5002 424.7 100.5 425.7Z" fill="url(#paint8_linear_121_1083)"/>
<path d="M125.7 416.4C129.5 418.4 129.5 421.7 125.7 423.8C122 425.8 115.9 425.8 112.1 423.8C108.3 421.8 108.3 418.5 112.1 416.4C115.8 414.3 121.9 414.3 125.7 416.4Z" fill="url(#paint9_linear_121_1083)"/>
<path d="M139.3 423.1V433.5C138.8 434.6 137.9 435.6 136.8 436.6V426.2C137.9 425.2 138.8 424.2 139.3 423.1Z" fill="#E6A333"/>
<path d="M99.8999 423.7L101 424.3V413.9L99.8999 413.3C98.8999 412.8 98.3999 412 98.3999 411.3V421.7C98.3999 422.4 98.8999 423.1 99.8999 423.7Z" fill="#F0B95B"/>
<path d="M141.2 423.1H139.8C140 422.8 140.1 422.5 140.1 422.1V411.7C140.1 412.4 139.6 413.1 138.6 413.6L137.3 414.3V424.7L138.6 424C138.9 423.8 139.1 423.7 139.3 423.5V429.3C139.1 429.8 138.6 430.3 137.9 430.6C135.9 431.7 132.7 431.7 130.7 430.6L129.4 429.9V440.3L130.7 441C132.7 442.1 135.9 442.1 137.9 441C138.9 440.5 139.4 439.8 139.4 439.1V433.4H141.2C144 433.4 146.3 432.2 146.3 430.6V420.2C146.3 421.9 144 423.1 141.2 423.1Z" fill="url(#paint10_linear_121_1083)"/>
<path d="M125.7 423.7C122 425.7 115.9 425.7 112.1 423.7C110.2 422.7 109.3 421.3 109.3 420V430.4C109.3 431.7 110.2 433.1 112.1 434.1C112.5 434.3 112.9 434.5 113.3 434.6V441.4V442.4C113.3 443.2 113.9 443.9 114.8 444.4C115.7 444.9 117 445.2 118.4 445.2C121.2 445.2 123.5 444 123.5 442.4V434.9C124.3 434.7 125 434.4 125.7 434C127.6 433 128.5 431.7 128.5 430.3V419.9C128.5 421.4 127.6 422.7 125.7 423.7Z" fill="url(#paint11_linear_121_1083)"/>
<path d="M99.2 430.3C98.8 430.1 98.5 429.8 98.2 429.6V422.5H96.6C95.2 422.5 93.9 422.2 93 421.7C92.1 421.2 91.5 420.5 91.5 419.7V430.1C91.5 430.9 92.1 431.6 93 432.1C93.9 432.6 95.2 432.9 96.6 432.9H97.7V438.8C97.7 439.5 98.2 440.2 99.2 440.8C101.2 441.9 104.4 441.9 106.4 440.8L107.5 440.2V429.8L106.4 430.4C104.4 431.4 101.2 431.4 99.2 430.3Z" fill="url(#paint12_linear_121_1083)"/>
<path d="M113.3 431.1V441.5C111.3 441.2 109.4 440.7 107.6 440.1V429.7C109.4 430.3 111.3 430.8 113.3 431.1Z" fill="url(#paint13_linear_121_1083)"/>
<path d="M129.4 430V440.4C127.6 441 125.6 441.4 123.5 441.6V431.2C125.5 431 127.5 430.6 129.4 430Z" fill="url(#paint14_linear_121_1083)"/>
<path d="M144.8 418.4C143.9 417.9 142.6 417.6 141.2 417.6H139.6C139.1 416.5 138.4 415.4 137.3 414.4L138.6 413.7C140.6 412.6 140.6 410.9 138.6 409.8C136.6 408.7 133.4 408.7 131.4 409.8L130.3 410.4C128.5 409.8 126.6 409.3 124.6 409V408C124.6 407.2 124 406.5 123.1 406C122.2 405.5 120.9 405.2 119.5 405.2C116.7 405.2 114.4 406.4 114.4 408V408.9C112.4 409.1 110.4 409.5 108.6 410.1L107.3 409.4C105.3 408.3 102.1 408.3 100.1 409.4C98.1002 410.5 98.1002 412.2 100.1 413.3L101.2 413.9C100.1 414.9 99.2002 415.9 98.7002 417H96.8002C94.0002 417 91.7002 418.2 91.7002 419.8C91.7002 420.6 92.3002 421.3 93.2002 421.8C94.1002 422.3 95.4002 422.6 96.8002 422.6H98.4002C98.9002 423.7 99.6002 424.8 100.7 425.8L99.4002 426.5C97.4002 427.6 97.4002 429.3 99.4002 430.4C101.4 431.5 104.6 431.5 106.6 430.4L107.7 429.8C109.5 430.4 111.4 430.9 113.4 431.2V432.2C113.4 433 114 433.7 114.9 434.2C115.8 434.7 117.1 435 118.5 435C121.3 435 123.6 433.8 123.6 432.2V431.3C125.6 431.1 127.6 430.7 129.5 430.1L130.8 430.8C132.8 431.9 136 431.9 138 430.8C140 429.7 140 428 138 426.9L136.9 426.3C138 425.3 138.9 424.3 139.4 423.2H141.3C144.1 423.2 146.4 422 146.4 420.4C146.3 419.6 145.7 418.9 144.8 418.4ZM129.7 425.9C123.8 429.1 114.2 429.1 108.2 425.9C102.2 422.7 102.2 417.5 108.1 414.2C114 411 123.6 411 129.6 414.2C135.6 417.4 135.6 422.7 129.7 425.9Z" fill="url(#paint15_linear_121_1083)"/>
<path d="M197.8 409.5V416.3C197.8 414.9 196.8 413.5 194.9 412.5C191 410.4 184.7 410.4 180.8 412.5C178.9 413.5 177.9 414.9 177.9 416.3V409.5C177.9 408.1 178.9 406.8 180.8 405.7C184.7 403.6 191 403.6 194.9 405.7C196.8 406.7 197.8 408.1 197.8 409.5Z" fill="#FF4549"/>
<path d="M175.9 413.1V419.9C175.2 419.2 174.7 418.5 174.4 417.8V411C174.7 411.8 175.2 412.5 175.9 413.1Z" fill="#FFA5A7"/>
<path d="M192.3 407C194.8 408.3 194.8 410.5 192.3 411.8C189.9 413.1 185.9 413.1 183.4 411.8C180.9 410.5 180.9 408.3 183.4 407C185.9 405.7 189.8 405.7 192.3 407Z" fill="#FD696C"/>
<path d="M201.2 411.5V418.3C200.8 419 200.3 419.7 199.5 420.3V413.5C200.3 412.9 200.9 412.2 201.2 411.5Z" fill="#FFA5A7"/>
<path d="M175.4 411.8L176.1 412.2V405.4L175.4 405C174.7 404.6 174.4 404.2 174.4 403.7V410.5C174.4 411 174.8 411.5 175.4 411.8Z" fill="#ED4C4F"/>
<path d="M202.5 411.5H201.6C201.7 411.3 201.8 411.1 201.8 410.9V404.1C201.8 404.6 201.5 405 200.8 405.4L199.9 405.9V412.7L200.8 412.2C201 412.1 201.1 412 201.3 411.9V415.7C201.2 416 200.9 416.3 200.4 416.6C199.1 417.3 197 417.3 195.7 416.6L194.8 416.1V422.9L195.7 423.4C197 424.1 199.1 424.1 200.4 423.4C201 423 201.4 422.6 201.4 422.1V418.4H202.5C204.3 418.4 205.8 417.6 205.8 416.6V409.8C205.8 410.7 204.3 411.5 202.5 411.5Z" fill="#ED4C4F"/>
<path d="M192.3 411.9C189.9 413.2 185.9 413.2 183.4 411.9C182.2 411.2 181.5 410.4 181.5 409.5V416.3C181.5 417.2 182.1 418.1 183.4 418.7C183.6 418.8 183.9 418.9 184.2 419.1V423.6V424.3C184.2 424.8 184.6 425.3 185.2 425.6C185.8 425.9 186.6 426.1 187.6 426.1C189.4 426.1 190.9 425.3 190.9 424.3V419.4C191.4 419.3 191.9 419.1 192.3 418.8C193.5 418.1 194.1 417.3 194.1 416.4V409.6C194.2 410.3 193.5 411.2 192.3 411.9Z" fill="#ED4C4F"/>
<path d="M175 416.2C174.7 416.1 174.5 415.9 174.4 415.7V411.1H173.3C172.4 411.1 171.5 410.9 170.9 410.6C170.3 410.3 169.9 409.8 169.9 409.3V416.1C169.9 416.6 170.3 417.1 170.9 417.4C171.5 417.7 172.3 417.9 173.3 417.9H174V421.7C174 422.2 174.3 422.6 175 423C176.3 423.7 178.4 423.7 179.7 423L180.4 422.6V415.8L179.7 416.2C178.4 416.9 176.3 416.9 175 416.2Z" fill="#ED4C4F"/>
<path d="M184.2 416.7V423.5C182.9 423.3 181.6 423 180.4 422.6V415.8C181.6 416.2 182.9 416.5 184.2 416.7Z" fill="#FFA5A7"/>
<path d="M194.7 416V422.8C193.5 423.2 192.2 423.4 190.9 423.6V416.8C192.2 416.6 193.5 416.4 194.7 416Z" fill="#FFA5A7"/>
<path d="M204.8 408.4C204.2 408.1 203.4 407.9 202.4 407.9H201.3C201 407.2 200.5 406.5 199.8 405.8L200.7 405.3C202 404.6 202 403.4 200.7 402.7C199.4 402 197.3 402 196 402.7L195.3 403.1C194.1 402.7 192.9 402.4 191.5 402.2V401.5C191.5 401 191.1 400.5 190.5 400.2C189.9 399.9 189.1 399.7 188.1 399.7C186.3 399.7 184.8 400.5 184.8 401.5V402.1C183.5 402.3 182.2 402.5 181 402.9L180.1 402.4C178.8 401.7 176.7 401.7 175.4 402.4C174.1 403.1 174.1 404.3 175.4 405L176.1 405.4C175.4 406 174.8 406.7 174.4 407.4H173.2C171.4 407.4 169.9 408.2 169.9 409.2C169.9 409.7 170.3 410.2 170.9 410.5C171.5 410.8 172.3 411 173.3 411H174.4C174.7 411.7 175.2 412.4 175.9 413.1L175 413.6C173.7 414.3 173.7 415.5 175 416.2C176.3 416.9 178.4 416.9 179.7 416.2L180.4 415.8C181.6 416.2 182.8 416.5 184.2 416.7V417.4C184.2 417.9 184.6 418.4 185.2 418.7C185.8 419 186.6 419.2 187.6 419.2C189.4 419.2 190.9 418.4 190.9 417.4V416.8C192.2 416.6 193.5 416.4 194.7 416L195.6 416.5C196.9 417.2 199 417.2 200.3 416.5C201.6 415.8 201.6 414.6 200.3 413.9L199.6 413.5C200.3 412.9 200.9 412.2 201.3 411.5H202.5C204.3 411.5 205.8 410.7 205.8 409.7C205.8 409.1 205.4 408.7 204.8 408.4ZM194.9 413.3C191 415.4 184.7 415.4 180.8 413.3C176.9 411.2 176.9 407.8 180.8 405.7C184.7 403.6 191 403.6 194.9 405.7C198.8 407.7 198.8 411.2 194.9 413.3Z" fill="#FD696C"/>
<path opacity="0.5" d="M422.2 438V445.7C422.2 450 419.4 454.3 413.7 457.6C408 460.9 400.5 462.6 393 462.6C386.9 462.6 380.7 461.5 375.6 459.3L375.2 459.5V460.1L370.3 463L335.1 483.4V483.5L332.3 485.2C329.7 486.7 325.6 486.7 323 485.2C321.7 484.4 321 483.5 321 482.5V476.3C321 475.3 321.6 474.4 322.9 473.6L325.7 472H325.6L327.4 471L360.9 451.5L364.2 449.6C363.6 448.3 363.4 446.9 363.4 445.5V437.8V437.9C363.4 433.5 366.2 429.2 371.9 425.9C383.3 419.3 402 419.3 413.5 425.9C419.5 429.4 422.4 433.9 422.2 438.4C422.2 438.3 422.2 438.2 422.2 438Z" fill="#DDE2EB"/>
<path d="M391.7 449.1C405.5 449.1 416.6 442.8 416.6 435.2C416.6 427.5 405.4 421.4 391.6 421.4C377.8 421.4 366.7 427.7 366.7 435.3C366.8 442.9 377.9 449.1 391.7 449.1Z" fill="url(#paint16_linear_121_1083)"/>
<path d="M416.6 433.1V440.8C416.6 437.1 414.1 433.3 409.2 430.5C399.4 424.8 383.6 424.8 374 430.5C369.2 433.3 366.8 436.9 366.8 440.6V432.9C366.8 429.2 369.2 425.6 374 422.8C383.7 417.2 399.5 417.2 409.2 422.8C414.1 425.6 416.6 429.3 416.6 433.1Z" fill="#FD696C"/>
<path d="M391.7 449.1C405.5 449.1 416.6 443 416.6 435.7C416.6 428.3 405.4 422.3 391.6 422.4C377.8 422.5 366.7 428.5 366.7 435.8C366.8 443.1 377.9 449.1 391.7 449.1Z" fill="#6D6E71"/>
<path d="M362.2 440.5V432.8C362.2 436.4 364.2 440.1 368.1 443.1V450.8C364.2 447.8 362.2 444.1 362.2 440.5Z" fill="#FD696C"/>
<path d="M374.5 446.7V454.4L372 455.8V448.1L374.5 446.7Z" fill="#FD696C"/>
<path d="M421.1 433.1V440.8C421.1 445.1 418.3 449.4 412.6 452.7C402.3 458.7 386 459.2 374.5 454.4V446.7C386.1 451.6 402.3 451 412.6 445C418.3 441.7 421.1 437.4 421.1 433.1Z" fill="#FD696C"/>
<path d="M374 449V455.3L369.1 458.1V451.9L374 449Z" fill="#FD696C"/>
<path d="M369.1 451.9L333.8 472.4L324.4 467L326.2 466L359.7 446.5L369.1 451.9Z" fill="#8842FC"/>
<path d="M369.1 451.9V458.1L333.8 478.6V472.4L369.1 451.9Z" fill="#6414E9"/>
<path d="M331.1 474.1C328.5 475.6 324.4 475.6 321.8 474.1C320.5 473.3 319.8 472.3 319.8 471.4V477.7C319.8 478.7 320.4 479.7 321.8 480.4C324.4 481.9 328.6 481.9 331.1 480.4L333.9 478.7V472.4L331.1 474.1Z" fill="#FD696C"/>
<path d="M326.4 465.9L324.6 467L334 472.4L331.2 474.1C328.6 475.6 324.5 475.6 321.9 474.1C319.3 472.6 319.3 470.2 321.8 468.7L326.4 465.9Z" fill="#FD696C"/>
<path d="M412.4 420.9C400.9 414.2 382.2 414.2 370.8 420.8C360.4 426.8 359.6 436.4 368.2 443L370.2 441.8L368.2 443L366 444.3L364.7 443.5L359.8 446.4L369.2 451.8L374.1 449L372.3 447.9L374.5 446.6C386.1 451.5 402.3 450.9 412.6 444.9C424 438.4 423.9 427.6 412.4 420.9ZM409.4 443.2C399.7 448.8 384 448.8 374.2 443.2C364.4 437.5 364.3 428.4 374 422.8C383.7 417.2 399.5 417.2 409.2 422.8C419 428.4 419.1 437.5 409.4 443.2Z" fill="#FD696C"/>
<path d="M469.3 297.2L311.6 203C305.9 199.6 301.2 190.9 301.2 183.8V140.5C301.2 133.4 305.9 130.3 311.6 133.8L469.3 228C475 231.4 479.7 240.1 479.7 247.2V290.5C479.7 297.7 475 300.7 469.3 297.2Z" fill="#191970"/>
<path d="M323.2 185.4L315.9 155.6L319.1 157.6L325.8 185.1L324.2 184.1L331.2 165.2L334.1 167L340.9 194.5L339.3 193.5L346.1 174.5L349.1 176.4L341.8 197L338.5 194.9L332.1 169.3L332.9 169.8L326.5 187.4L323.2 185.4Z" fill="white"/>
<path d="M360.5 208.9C358.7 207.8 357.2 206.4 355.8 204.7C354.4 203 353.4 201.2 352.7 199.3C352 197.4 351.6 195.5 351.6 193.6C351.6 191.7 352 190.2 352.7 189.2C353.4 188.2 354.4 187.7 355.7 187.6C357 187.6 358.4 188 360 189C361.6 190 363 191.3 364.3 192.9C365.5 194.5 366.5 196.2 367.2 198.1C367.9 200 368.3 202 368.3 203.9C368.3 204 368.3 204.2 368.3 204.4C368.3 204.6 368.3 204.8 368.3 204.9L354.1 196.1V193.6L366.7 201.4L365.5 201.5C365.5 200.3 365.3 199.1 364.8 197.8C364.3 196.6 363.7 195.4 362.9 194.4C362.1 193.4 361.2 192.5 360.1 191.8C359.1 191.1 358.1 190.8 357.3 190.9C356.5 190.9 355.8 191.3 355.4 192C355 192.7 354.7 193.7 354.7 194.9V195.5C354.7 196.8 355 198.1 355.5 199.4C356 200.7 356.7 201.9 357.7 203.1C358.6 204.2 359.7 205.2 360.9 205.9C361.9 206.5 362.8 206.9 363.6 207C364.4 207.1 365.1 207 365.7 206.6L367.4 209.9C366.6 210.4 365.7 210.6 364.6 210.5C363.5 210.4 361.9 209.7 360.5 208.9Z" fill="white"/>
<path d="M372.3 216V189.3L375.3 191.2V217.9L372.3 216Z" fill="white"/>
<path d="M388.3 226.2C386.6 225.1 385.1 223.8 383.8 222.1C382.5 220.4 381.4 218.6 380.7 216.7C379.9 214.8 379.6 212.9 379.6 211C379.6 209.1 380 207.7 380.7 206.7C381.5 205.7 382.5 205.2 383.8 205.2C385.1 205.2 386.6 205.7 388.3 206.8C389.8 207.7 391.2 208.9 392.3 210.3C393.5 211.7 394.4 213.3 395 215.1L392.7 215.4C392.2 214.1 391.5 213 390.7 212.1C389.9 211.2 389.1 210.4 388.2 209.9C387.1 209.2 386.1 208.9 385.3 208.9C384.4 208.9 383.8 209.3 383.3 210C382.8 210.7 382.5 211.7 382.5 213.1C382.5 214.5 382.8 215.8 383.3 217.1C383.8 218.4 384.5 219.6 385.3 220.7C386.2 221.8 387.1 222.7 388.2 223.3C389.1 223.9 389.9 224.2 390.7 224.2C391.5 224.2 392.1 224 392.7 223.4L395 226.5C394.4 227.4 393.4 227.9 392.3 227.8C391.2 227.6 389.8 227.1 388.3 226.2Z" fill="white"/>
<path d="M406.1 237.3C404.4 236.3 403 234.9 401.7 233.3C400.4 231.6 399.4 229.8 398.6 227.9C397.8 226 397.5 224 397.5 222.2C397.5 220.3 397.9 218.9 398.6 217.9C399.4 216.9 400.4 216.4 401.7 216.4C403 216.4 404.5 216.9 406.2 217.9C407.9 218.9 409.3 220.3 410.6 221.9C411.9 223.5 412.9 225.3 413.7 227.3C414.4 229.2 414.8 231.1 414.8 233C414.8 234.9 414.4 236.3 413.7 237.3C413 238.3 411.9 238.8 410.6 238.8C409.2 238.8 407.8 238.3 406.1 237.3ZM406.1 234.2C407.2 234.9 408.1 235.2 409 235.2C409.8 235.2 410.5 234.8 411 234.1C411.5 233.4 411.7 232.3 411.7 231C411.7 229.6 411.5 228.3 411 227C410.5 225.7 409.9 224.5 409 223.4C408.1 222.3 407.2 221.4 406.1 220.8C405 220.1 404.1 219.8 403.2 219.8C402.4 219.8 401.7 220.2 401.2 220.9C400.7 221.6 400.4 222.6 400.4 224C400.4 225.3 400.7 226.7 401.2 228C401.7 229.3 402.4 230.5 403.2 231.6C404 232.7 405 233.6 406.1 234.2Z" fill="white"/>
<path d="M439.7 238.7C441 239.5 442.2 240.6 443.2 241.8C444.2 243 445 244.4 445.6 246C446.2 247.6 446.5 249.3 446.5 251.2V262.2L443.5 260.3V249.7C443.5 247.9 443.1 246.2 442.4 244.8C441.6 243.4 440.6 242.3 439.2 241.4C438.2 240.8 437.3 240.5 436.6 240.5C435.8 240.5 435.3 240.9 434.9 241.5C434.5 242.2 434.3 243.2 434.3 244.6V254.4L431.3 252.5V241.9C431.3 240.1 430.9 238.4 430.2 237C429.5 235.6 428.4 234.5 427 233.6C426 233 425.1 232.7 424.4 232.7C423.7 232.7 423.1 233.1 422.6 233.7C422.2 234.4 422 235.4 422 236.8V246.6L419 244.7V226L421.9 227.8V232.9L421.4 231.3C421.9 230.4 422.7 229.9 423.8 229.9C424.9 229.9 426.2 230.3 427.6 231.2C429.2 232.2 430.6 233.5 431.7 235.1C432.9 236.7 433.6 238.5 434 240.6L432.8 239.3C433.3 238.1 434.2 237.5 435.4 237.4C436.6 237.3 438 237.7 439.7 238.7Z" fill="white"/>
<path d="M459.5 270.5C457.7 269.4 456.2 268 454.8 266.3C453.4 264.6 452.4 262.8 451.7 260.9C451 259 450.6 257.1 450.6 255.2C450.6 253.3 451 251.8 451.7 250.8C452.4 249.8 453.4 249.3 454.7 249.2C456 249.2 457.4 249.6 459 250.6C460.6 251.6 462 252.9 463.3 254.5C464.5 256.1 465.5 257.8 466.2 259.7C466.9 261.6 467.3 263.6 467.3 265.5C467.3 265.6 467.3 265.8 467.3 266C467.3 266.2 467.3 266.4 467.3 266.5L453.1 257.7V255.2L465.7 263L464.5 263.1C464.5 261.9 464.3 260.7 463.8 259.4C463.3 258.1 462.7 257 461.9 256C461.1 255 460.2 254.1 459.1 253.4C458.1 252.7 457.1 252.4 456.3 252.5C455.5 252.5 454.8 252.9 454.4 253.6C453.9 254.3 453.7 255.3 453.7 256.5V257.1C453.7 258.4 454 259.7 454.5 261C455 262.3 455.7 263.5 456.7 264.7C457.7 265.9 458.7 266.8 459.9 267.5C460.9 268.1 461.8 268.5 462.6 268.6C463.4 268.7 464.1 268.6 464.7 268.2L466.4 271.5C465.6 272 464.7 272.2 463.6 272.1C462.1 271.9 460.9 271.4 459.5 270.5Z" fill="white"/>
<defs>
<linearGradient id="paint0_linear_121_1083" x1="184.93" y1="81.0249" x2="84.7195" y2="452.768" gradientUnits="userSpaceOnUse">
<stop stop-color="#F0F7FF"/>
<stop offset="1" stop-color="#C4D1FF"/>
</linearGradient>
<linearGradient id="paint1_linear_121_1083" x1="101.463" y1="83.75" x2="107.469" y2="83.75" gradientUnits="userSpaceOnUse">
<stop stop-color="#AD88FF"/>
<stop offset="1" stop-color="#6038BA"/>
</linearGradient>
<linearGradient id="paint2_linear_121_1083" x1="55.4258" y1="347.15" x2="62.2738" y2="347.15" gradientUnits="userSpaceOnUse">
<stop stop-color="#1E2694"/>
<stop offset="1" stop-color="#150E44"/>
</linearGradient>
<linearGradient id="paint3_linear_121_1083" x1="47.0323" y1="358.55" x2="63.5156" y2="358.55" gradientUnits="userSpaceOnUse">
<stop stop-color="#1E2694"/>
<stop offset="1" stop-color="#150E44"/>
</linearGradient>
<linearGradient id="paint4_linear_121_1083" x1="60.9414" y1="354.227" x2="78.1119" y2="354.227" gradientUnits="userSpaceOnUse">
<stop stop-color="#1E2694"/>
<stop offset="1" stop-color="#150E44"/>
</linearGradient>
<linearGradient id="paint5_linear_121_1083" x1="10.1682" y1="320.36" x2="53.3957" y2="320.36" gradientUnits="userSpaceOnUse">
<stop stop-color="#F5CBFB"/>
<stop offset="1" stop-color="#84D4FF"/>
</linearGradient>
<linearGradient id="paint6_linear_121_1083" x1="69.8721" y1="332.982" x2="112.478" y2="332.982" gradientUnits="userSpaceOnUse">
<stop stop-color="#F5CBFB"/>
<stop offset="1" stop-color="#84D4FF"/>
</linearGradient>
<linearGradient id="paint7_linear_121_1083" x1="35.687" y1="285.863" x2="75.6923" y2="285.863" gradientUnits="userSpaceOnUse">
<stop stop-color="#F5CBFB"/>
<stop offset="1" stop-color="#84D4FF"/>
</linearGradient>
<linearGradient id="paint8_linear_121_1083" x1="98.216" y1="429.3" x2="100.51" y2="429.3" gradientUnits="userSpaceOnUse">
<stop stop-color="#FFDD4F"/>
<stop offset="1" stop-color="#FF8F5C"/>
</linearGradient>
<linearGradient id="paint9_linear_121_1083" x1="109.288" y1="420.062" x2="128.499" y2="420.062" gradientUnits="userSpaceOnUse">
<stop stop-color="#FFDD4F"/>
<stop offset="1" stop-color="#FF8F5C"/>
</linearGradient>
<linearGradient id="paint10_linear_121_1083" x1="129.339" y1="426.763" x2="146.274" y2="426.763" gradientUnits="userSpaceOnUse">
<stop stop-color="#FFDD4F"/>
<stop offset="1" stop-color="#FF8F5C"/>
</linearGradient>
<linearGradient id="paint11_linear_121_1083" x1="109.256" y1="432.55" x2="128.511" y2="432.55" gradientUnits="userSpaceOnUse">
<stop stop-color="#FFDD4F"/>
<stop offset="1" stop-color="#FF8F5C"/>
</linearGradient>
<linearGradient id="paint12_linear_121_1083" x1="91.48" y1="430.663" x2="107.549" y2="430.663" gradientUnits="userSpaceOnUse">
<stop stop-color="#FFDD4F"/>
<stop offset="1" stop-color="#FF8F5C"/>
</linearGradient>
<linearGradient id="paint13_linear_121_1083" x1="107.531" y1="435.6" x2="113.301" y2="435.6" gradientUnits="userSpaceOnUse">
<stop stop-color="#FFDD4F"/>
<stop offset="1" stop-color="#FF8F5C"/>
</linearGradient>
<linearGradient id="paint14_linear_121_1083" x1="123.482" y1="435.8" x2="129.371" y2="435.8" gradientUnits="userSpaceOnUse">
<stop stop-color="#FFDD4F"/>
<stop offset="1" stop-color="#FF8F5C"/>
</linearGradient>
<linearGradient id="paint15_linear_121_1083" x1="91.5178" y1="420.1" x2="146.274" y2="420.1" gradientUnits="userSpaceOnUse">
<stop stop-color="#FFDD4F"/>
<stop offset="1" stop-color="#FFB65C"/>
</linearGradient>
<linearGradient id="paint16_linear_121_1083" x1="366.7" y1="435.25" x2="416.6" y2="435.25" gradientUnits="userSpaceOnUse">
<stop stop-color="white"/>
<stop offset="1" stop-color="#BDE1FF"/>
</linearGradient>
</defs>
</svg>
