<svg width="41" height="30" viewBox="0 0 41 30" fill="none" xmlns="http://www.w3.org/2000/svg">
<path d="M38.0169 20.431H35.2545C35.2545 9.50656 29.1369 5.8162 25.6032 4.59617V2.32757C25.6032 1.04236 24.5613 0 23.2757 0H16.5513C15.2661 0 14.2238 1.04236 14.2238 2.32757V4.71875C10.6521 6.05594 4.91349 9.84987 4.91349 20.431H2.32757C1.04197 20.431 0 21.4733 0 22.7586V27.6724C0 28.9572 1.04197 30 2.32757 30H9.0519C10.3371 30 11.3795 28.9572 11.3795 27.6724V22.7586C11.3795 21.4733 10.3367 20.431 9.0519 20.431H6.4652C6.4652 11.1704 11.0614 7.66196 14.2238 6.34184V7.24145C14.2238 8.52665 15.2665 9.56901 16.5513 9.56901H19.138V20.431H16.5513C15.2661 20.431 14.2238 21.4733 14.2238 22.7586V27.6724C14.2238 28.9572 15.2665 30 16.5513 30H23.2757C24.5613 30 25.6032 28.9572 25.6032 27.6724V22.7586C25.6032 21.4733 24.5613 20.431 23.2757 20.431H20.6897V9.56901H23.2757C24.5613 9.56901 25.6032 8.52665 25.6032 7.24145V6.20451C28.7641 7.41136 33.7028 10.8317 33.7028 20.431H31.2926C30.0078 20.431 28.965 21.4733 28.965 22.7586V27.6724C28.965 28.9572 30.0078 30 31.2926 30H38.0169C39.3025 30 40.3445 28.9572 40.3445 27.6724V22.7586C40.3445 21.4733 39.3025 20.431 38.0169 20.431Z" fill="white"/>
</svg>
