<svg width="26" height="30" viewBox="0 0 26 30" fill="none" xmlns="http://www.w3.org/2000/svg">
<path fill-rule="evenodd" clip-rule="evenodd" d="M22.8571 0H2.85714C1.28571 0 0 1.28571 0 2.85714V22.8571C0 24.4286 1.28571 25.7143 2.85714 25.7143H8.57143L12.8571 30L17.1429 25.7143H22.8571C24.4286 25.7143 25.7143 24.4286 25.7143 22.8571V2.85714C25.7143 1.28571 24.4286 0 22.8571 0ZM14.2857 22.8571H11.4286V20H14.2857V22.8571ZM17.2857 11.8571L16 13.1429C14.8571 14.1429 14.2857 15 14.2857 17.1429H11.4286V16.4286C11.4286 14.8571 12 13.4286 13.1429 12.4286L14.8571 10.5714C15.4286 10.1429 15.7143 9.42857 15.7143 8.57143C15.7143 7 14.4286 5.71429 12.8571 5.71429C11.2857 5.71429 10 7 10 8.57143H7.14286C7.14286 5.42857 9.71429 2.85714 12.8571 2.85714C16 2.85714 18.5714 5.42857 18.5714 8.57143C18.5714 9.85714 18 11 17.2857 11.8571Z" fill="#FCFCFC"/>
</svg>
