<svg width="711" height="352" viewBox="0 0 711 352" fill="none" xmlns="http://www.w3.org/2000/svg">
<path d="M276.255 164.79C276.255 164.79 280.203 168.199 283.074 164.969C285.945 161.74 287.021 153.129 287.021 153.129L289.892 153.847C289.892 153.847 288.608 168.085 285.227 170.532C280.023 174.3 273.028 170.352 273.028 170.352L276.257 164.79H276.255Z" fill="#FFC5C5"/>
<path d="M482.071 117.247H398.952C396.113 117.247 393.79 119.57 393.79 122.409V151.23C396.593 148.415 400.473 146.673 404.761 146.673C413.316 146.673 420.25 153.607 420.25 162.162C420.25 170.717 413.316 177.651 404.761 177.651C400.473 177.651 396.595 175.909 393.79 173.094V205.53C393.79 208.369 396.113 210.692 398.952 210.692H429.986C426.935 213.52 425.023 217.561 425.023 222.05C425.023 230.605 431.958 237.539 440.512 237.539C449.067 237.539 456.001 230.605 456.001 222.05C456.001 217.561 454.089 213.522 451.039 210.692H482.073C484.912 210.692 487.235 208.369 487.235 205.53V122.411C487.235 119.572 484.912 117.249 482.073 117.249L482.071 117.247Z" fill="#FFBE30"/>
<path d="M472.626 332.4V249.281C472.626 246.442 470.303 244.118 467.464 244.118H438.643C441.458 246.922 443.2 250.802 443.2 255.09C443.2 263.644 436.265 270.579 427.711 270.579C419.156 270.579 412.222 263.644 412.222 255.09C412.222 250.802 413.964 246.924 416.779 244.118H384.343C381.504 244.118 379.181 246.442 379.181 249.281V280.315C376.353 277.264 372.312 275.352 367.822 275.352C359.268 275.352 352.333 282.286 352.333 290.841C352.333 299.396 359.268 306.33 367.822 306.33C372.31 306.33 376.351 304.418 379.181 301.368V332.401C379.181 335.241 381.504 337.564 384.343 337.564H467.462C470.301 337.564 472.624 335.241 472.624 332.401L472.626 332.4Z" fill="#191970"/>
<path d="M287.455 154.217V237.336C287.455 240.175 289.778 242.498 292.617 242.498H321.438C318.623 239.694 316.881 235.814 316.881 231.527C316.881 222.972 323.815 216.038 332.37 216.038C340.925 216.038 347.859 222.972 347.859 231.527C347.859 235.814 346.117 239.693 343.302 242.498H375.738C378.577 242.498 380.9 240.175 380.9 237.336V206.302C383.728 209.352 387.769 211.264 392.259 211.264C400.813 211.264 407.747 204.33 407.747 195.775C407.747 187.221 400.813 180.286 392.259 180.286C387.769 180.286 383.73 182.198 380.9 185.249V154.215C380.9 151.376 378.577 149.053 375.738 149.053H292.619C289.78 149.053 287.457 151.376 287.457 154.215L287.455 154.217Z" fill="#6414E9"/>
<path d="M293.393 268.377L292.567 272.962C292.567 272.962 303.977 276.64 312.93 270.924C323.468 264.198 328.157 250.286 322.182 248.406C318.19 247.15 312.358 260.863 309.194 263.273C302.979 268.007 293.393 268.375 293.393 268.375V268.377Z" fill="#497BD0"/>
<path d="M214.825 337.562H297.944C300.783 337.562 303.106 335.239 303.106 332.4V303.579C300.303 306.394 296.423 308.136 292.135 308.136C283.58 308.136 276.646 301.201 276.646 292.647C276.646 284.092 283.58 277.158 292.135 277.158C296.423 277.158 300.301 278.9 303.106 281.715V249.279C303.106 246.44 300.783 244.117 297.944 244.117H266.91C269.96 241.289 271.872 237.248 271.872 232.758C271.872 224.204 264.938 217.269 256.384 217.269C247.829 217.269 240.895 224.204 240.895 232.758C240.895 237.248 242.807 241.287 245.857 244.117H214.823C211.984 244.117 209.661 246.44 209.661 249.279V332.398C209.661 335.237 211.984 337.56 214.823 337.56L214.825 337.562Z" fill="#FFBE30"/>
<path d="M497.266 292.235C497.188 292.235 497.107 292.222 497.027 292.194L463.502 280.385C463.128 280.254 462.931 279.843 463.062 279.469C463.193 279.095 463.604 278.897 463.978 279.03L497.503 290.838C497.877 290.969 498.073 291.38 497.943 291.754C497.838 292.05 497.561 292.233 497.266 292.233V292.235Z" fill="#C3D2EA"/>
<path d="M463.741 292.235C463.445 292.235 463.167 292.05 463.064 291.756C462.931 291.383 463.128 290.973 463.503 290.841L497.029 279.032C497.402 278.899 497.812 279.097 497.945 279.471C498.075 279.845 497.881 280.254 497.505 280.387L463.98 292.196C463.902 292.224 463.821 292.237 463.741 292.237V292.235Z" fill="#C3D2EA"/>
<path d="M497.266 304.077C497.188 304.077 497.107 304.064 497.027 304.036L463.502 292.227C463.128 292.096 462.931 291.685 463.062 291.311C463.193 290.937 463.604 290.741 463.978 290.872L497.503 302.681C497.877 302.812 498.073 303.223 497.943 303.597C497.838 303.892 497.561 304.077 497.266 304.077Z" fill="#C3D2EA"/>
<path d="M463.741 304.077C463.445 304.077 463.167 303.892 463.064 303.597C462.931 303.223 463.128 302.813 463.503 302.681L497.029 290.872C497.402 290.739 497.812 290.937 497.945 291.311C498.075 291.685 497.881 292.094 497.505 292.227L463.98 304.036C463.902 304.064 463.821 304.077 463.741 304.077Z" fill="#C3D2EA"/>
<path d="M497.266 315.917C497.188 315.917 497.107 315.904 497.027 315.876L463.502 304.068C463.128 303.937 462.931 303.526 463.062 303.152C463.193 302.778 463.604 302.582 463.978 302.713L497.503 314.521C497.877 314.652 498.073 315.063 497.943 315.437C497.838 315.732 497.561 315.916 497.266 315.916V315.917Z" fill="#C3D2EA"/>
<path d="M463.741 315.918C463.445 315.918 463.167 315.733 463.064 315.439C462.931 315.065 463.128 314.656 463.503 314.523L497.029 302.715C497.402 302.582 497.812 302.78 497.945 303.154C498.075 303.528 497.881 303.937 497.505 304.07L463.98 315.879C463.902 315.907 463.821 315.92 463.741 315.92V315.918Z" fill="#C3D2EA"/>
<path d="M497.266 327.76C497.188 327.76 497.107 327.747 497.027 327.719L463.502 315.91C463.128 315.779 462.931 315.368 463.062 314.994C463.193 314.62 463.604 314.424 463.978 314.555L497.503 326.364C497.877 326.494 498.073 326.906 497.943 327.279C497.838 327.575 497.561 327.758 497.266 327.758V327.76Z" fill="#C3D2EA"/>
<path d="M463.741 327.76C463.445 327.76 463.167 327.575 463.064 327.282C462.931 326.908 463.128 326.498 463.503 326.366L497.029 314.557C497.402 314.424 497.812 314.622 497.945 314.996C498.075 315.37 497.881 315.779 497.505 315.912L463.98 327.721C463.902 327.749 463.821 327.762 463.741 327.762V327.76Z" fill="#C3D2EA"/>
<path d="M497.266 339.84C497.188 339.84 497.107 339.826 497.027 339.798L463.502 327.99C463.128 327.859 462.931 327.448 463.062 327.074C463.193 326.7 463.604 326.504 463.978 326.635L497.503 338.443C497.877 338.574 498.073 338.985 497.943 339.359C497.838 339.654 497.561 339.838 497.266 339.838V339.84Z" fill="#C3D2EA"/>
<path d="M463.741 339.84C463.445 339.84 463.167 339.655 463.064 339.361C462.931 338.987 463.127 338.578 463.503 338.445L497.028 326.637C497.402 326.504 497.812 326.702 497.944 327.076C498.075 327.45 497.881 327.859 497.505 327.992L463.98 339.8C463.901 339.828 463.821 339.841 463.741 339.841V339.84Z" fill="#C3D2EA"/>
<path d="M504.14 278.794C504.14 279.781 502.849 280.589 501.27 280.589H459.735C458.156 280.589 456.865 279.781 456.865 278.794C456.865 277.807 458.156 277 459.735 277H501.27C502.849 277 504.14 277.807 504.14 278.794Z" fill="#5945BF"/>
<path d="M498.638 335.728H462.367V342.546H498.638V335.728Z" fill="#5945BF"/>
<path d="M474.888 347.032C474.888 348.815 473.441 350.261 471.658 350.261C469.875 350.261 468.428 348.815 468.428 347.032C468.428 345.249 469.875 343.802 471.658 343.802C473.441 343.802 474.888 345.249 474.888 347.032Z" fill="#24377C"/>
<path d="M472.974 347.032C472.974 347.759 472.385 348.347 471.658 348.347C470.931 348.347 470.342 347.759 470.342 347.032C470.342 346.305 470.931 345.716 471.658 345.716C472.385 345.716 472.974 346.305 472.974 347.032Z" fill="#C3D2EA"/>
<path d="M490.836 350.015C492.484 349.332 493.266 347.443 492.584 345.795C491.901 344.147 490.012 343.364 488.364 344.047C486.716 344.73 485.933 346.619 486.616 348.267C487.298 349.915 489.188 350.697 490.836 350.015Z" fill="#24377C"/>
<path d="M490.915 347.032C490.915 347.759 490.326 348.347 489.599 348.347C488.872 348.347 488.283 347.759 488.283 347.032C488.283 346.305 488.872 345.716 489.599 345.716C490.326 345.716 490.915 346.305 490.915 347.032Z" fill="#C3D2EA"/>
<path d="M494.73 271.147L494.819 273.423H496.915L497.279 270.784L494.73 271.147Z" fill="#FFAAB8"/>
<path d="M494.512 272.38C494.512 272.38 491.537 273.887 489.591 274.169C487.169 274.52 487.479 276.049 487.479 276.049H494.41C494.41 276.049 494.899 275.743 495.299 275.634C495.697 275.526 495.8 276.049 495.8 276.049H497.8C497.8 276.049 498.133 274.905 498.023 273.709C497.912 272.511 497.245 271.96 497.245 271.96C497.245 271.96 497.023 272.696 496.023 272.881C495.023 273.066 494.512 272.382 494.512 272.382V272.38Z" fill="#5945BF"/>
<path d="M468.416 271.147L468.505 273.423H470.6L470.965 270.784L468.416 271.147Z" fill="#FFAAB8"/>
<path d="M468.198 272.38C468.198 272.38 465.223 273.887 463.277 274.169C460.855 274.52 461.165 276.049 461.165 276.049H468.096C468.096 276.049 468.585 275.743 468.985 275.634C469.384 275.526 469.486 276.049 469.486 276.049H471.486C471.486 276.049 471.819 274.905 471.709 273.709C471.598 272.511 470.931 271.96 470.931 271.96C470.931 271.96 470.709 272.696 469.709 272.881C468.709 273.066 468.198 272.382 468.198 272.382V272.38Z" fill="#5945BF"/>
<path d="M493.451 271.603H497.643C497.643 271.603 494.922 251.553 493.352 243.075C491.604 233.642 490.558 228.403 489.16 225.084C487.762 221.764 484.444 218.271 484.444 218.271L474.488 218.794C474.488 218.794 470.645 231.196 468.897 245.52C467.15 259.843 467.675 271.547 467.675 271.547H471.518C471.518 271.547 473.835 259.493 476.409 249.712C478.143 243.118 480.426 233.119 481.474 233.642C482.523 234.166 484.268 242.726 486.889 250.411C489.801 258.953 493.451 271.603 493.451 271.603Z" fill="#B7B0F0"/>
<path d="M452.207 180.55C452.115 181.096 451.661 183.555 452.207 184.465C452.752 185.376 453.3 185.467 453.573 186.013C453.846 186.559 454.119 187.469 454.119 187.469L455.939 186.559C455.939 186.559 454.846 184.465 454.664 183.372C454.483 182.279 452.207 180.55 452.207 180.55Z" fill="#FFAAB8"/>
<path d="M486.353 180.367C486.353 180.367 486.809 180.185 487.719 180.912C488.629 181.641 488.721 182.46 488.721 182.824C488.721 183.189 489.266 184.191 489.266 184.191L487.811 184.099C487.811 184.099 487.538 183.097 486.992 182.824C486.446 182.552 485.536 181.458 485.626 181.185C485.717 180.912 486.444 181.823 486.536 181.367C486.627 180.91 486.355 180.365 486.355 180.365L486.353 180.367Z" fill="#FFAAB8"/>
<path d="M489.16 223.512C489.16 223.512 485.143 212.333 484.618 207.791C484.095 203.249 491.255 198.534 491.255 192.77C491.255 187.005 489.683 184.211 489.683 184.211L487.412 184.037C487.412 184.037 487.089 192.398 484.093 194.168C480.25 196.439 475.534 197.138 471.516 196.612C467.499 196.089 462.696 193.424 459.9 190.28C457.105 187.136 456.58 186.219 456.58 186.219L453.61 187.79C453.61 187.79 455.706 196.437 463.479 200.106C469.417 202.907 469.987 204.657 470.465 210.412C470.989 216.699 472.037 223.861 472.037 223.861C472.037 223.861 477.802 227.53 483.74 227.53C489.678 227.53 489.154 223.514 489.154 223.514L489.16 223.512Z" fill="#4BB5B5"/>
<path d="M473.058 192.568C473.058 192.568 473.482 194.388 473.665 195.784C473.847 197.181 476.155 196.209 476.155 196.209L475.366 191.656L473.06 192.566L473.058 192.568Z" fill="#FFAAB8"/>
<path d="M470.266 184.131C470.266 184.131 470.266 185.361 470.372 186.891C470.426 187.675 470.202 188.626 470.325 189.443C470.348 189.585 470.679 189.641 470.703 189.779C471 191.465 471.495 192.848 472.329 192.751C474.393 192.508 475.972 190.445 475.972 190.445C475.972 190.445 476.336 186.437 473.787 184.617C471.238 182.796 470.266 184.131 470.266 184.131Z" fill="#FFAAB8"/>
<path d="M473.527 195.128C473.919 195.652 470.907 202.988 472.086 205.87C473 208.105 474.05 209.144 477.588 209.144C480.091 209.144 480.471 210.978 485.317 211.24C490.163 211.501 492.059 209.141 491.604 205.606C490.95 200.496 483.11 197.624 482.769 190.927C482.405 183.765 480.469 179.841 476.407 179.055C476.407 179.055 472.486 178.359 470.25 181.937C468.286 185.08 470.643 185.08 470.643 185.08C470.643 185.08 472.52 185.835 473.133 187.57C473.919 189.798 473.525 195.125 473.525 195.125L473.527 195.128Z" fill="#515151"/>
<path d="M470.396 187.458C470.359 187.327 470.398 187.043 470.815 186.905C471.011 186.839 471.15 186.886 471.232 186.936C471.428 187.056 471.469 187.295 471.473 187.321L471.118 187.376C471.112 187.344 471.086 187.267 471.043 187.241C471.019 187.226 470.98 187.228 470.927 187.245C470.774 187.295 470.742 187.357 470.742 187.374L470.395 187.458H470.396Z" fill="#D8368B"/>
<path d="M392.597 141.986C392.597 141.986 394.869 141.507 396.185 141.148C397.501 140.789 398.936 142.225 399.056 142.943C399.176 143.66 396.903 144.378 395.946 144.617C394.989 144.857 391.64 144.378 391.64 144.378L392.597 141.986Z" fill="#FFAAB8"/>
<path d="M373.323 142.251L372.529 146.513C372.529 146.513 373.564 147.167 374.295 146.871C375.026 146.576 375.028 145.686 375.028 145.686L375.699 142.926L373.323 142.251Z" fill="#FFAAB8"/>
<path d="M382.188 148.43C380.719 147.901 377.947 147.23 376.929 146.376C375.91 145.522 374.921 145.696 374.921 145.696C374.921 145.696 374.988 146.355 373.873 146.421C372.755 146.488 372.452 145.43 372.452 145.43L371.916 148.445L383.106 149.645C383.091 149.191 382.896 148.686 382.186 148.43H382.188Z" fill="#51468D"/>
<path d="M371.918 148.447L371.755 149.361L382.932 150.559C382.932 150.559 383.125 150.133 383.11 149.647L371.92 148.447H371.918Z" fill="#51468D"/>
<path d="M364.129 129.906C364.129 129.906 374.564 124.504 375.31 125.002C376.056 125.499 373.506 128.998 373.071 133.212C372.325 140.429 372.183 141.374 372.325 144.161H377.302C377.302 144.161 390.242 120.523 386.261 116.54C382.28 112.559 361.875 117.785 361.875 117.785L364.131 129.906H364.129Z" fill="#09C6A6"/>
<path d="M335.301 138.537L330.761 137.691C330.761 137.691 330.066 138.793 330.38 139.573C330.694 140.35 331.643 140.352 331.643 140.352L334.583 141.066L335.301 138.535V138.537Z" fill="#FFAAB8"/>
<path d="M328.72 147.982C329.284 146.417 329.998 143.464 330.907 142.38C331.817 141.296 331.632 140.242 331.632 140.242C331.632 140.242 330.929 140.315 330.86 139.124C330.789 137.934 331.914 137.612 331.914 137.612L328.703 137.042L327.425 148.963C327.909 148.948 328.447 148.741 328.72 147.984V147.982Z" fill="#51468D"/>
<path d="M328.701 137.04L327.727 136.866L326.451 148.772C326.451 148.772 326.905 148.976 327.423 148.961L328.701 137.04Z" fill="#51468D"/>
<path d="M333.258 137.692L332.761 143.664C332.761 143.664 358.389 153.368 363.118 148.89C367.845 144.412 363.89 123.688 363.89 123.688L354.657 112.812C354.657 112.812 349.182 117.041 350.178 125.003C351.175 132.966 355.404 138.937 353.911 139.436C352.418 139.933 351.059 139.055 345.452 138.191C338.983 137.195 333.26 137.694 333.26 137.694L333.258 137.692Z" fill="#0AEDC7"/>
<path d="M352.468 114.597C352.468 114.597 357.643 107.335 369.837 105.345C382.029 103.354 390.242 108.331 390.242 108.331C390.242 108.331 389.231 113.367 388.748 114.8C388.053 116.869 387.504 117.787 380.289 119.778C373.073 121.768 368.916 122.97 366.604 125.003C365.144 126.287 365.208 127.336 365.208 127.336C361.021 124.764 359.227 123.688 356.415 120.936C353.328 117.914 352.468 114.597 352.468 114.597Z" fill="#FD696C"/>
<path d="M387.255 109.464C383.274 108.967 374.284 122.209 379.293 134.844C382.55 143.062 392.597 145.096 392.597 145.096L393.912 141.507C393.912 141.507 385.754 137.58 386.01 129.618C386.259 121.905 391.236 109.961 387.255 109.462V109.464Z" fill="#E85053"/>
<path d="M389.846 108.137L393.315 108.257L392.836 111.008L388.769 112.324L389.846 108.137Z" fill="#FFAAB8"/>
<path d="M391.819 108.376L390.623 111.718L391.341 111.546L391.819 108.376Z" fill="#EF8FA4"/>
<path d="M398.978 102.808C397.875 102.422 394.266 102.571 392.463 107.053C390.659 111.535 391.197 113.12 392.134 114.058C393.068 114.995 395.786 113.137 395.786 113.137L396.481 113.537C396.481 113.537 397.561 112.167 398.455 111.193C398.744 110.877 399.053 110.733 399.275 110.548C400.197 109.78 402.098 106.902 401.376 105.287C400.655 103.674 400.083 103.197 398.98 102.808H398.978Z" fill="#FFAAB8"/>
<path d="M399.056 107.599C399.236 108.795 400.32 109.479 401.15 109.214C402.645 108.735 403.366 106.025 402.286 104.19C401.09 102.156 398.099 100.123 394.87 102.515C391.64 104.907 391.52 106.582 391.64 108.137C391.705 108.999 396.273 104.715 395.827 106.702C395.486 108.214 398.008 105.812 398.398 105.924C398.817 106.044 398.849 106.214 399.056 107.599Z" fill="#515151"/>
<path d="M395.898 107.117C395.898 107.117 396.126 105.627 394.989 105.864C394.174 106.036 393.69 107.216 393.728 107.784C393.765 108.352 394.174 108.395 394.174 108.395L395.898 107.117Z" fill="#FFAAB8"/>
<path d="M397.894 111.384L397.685 111.092C397.711 111.073 397.943 110.892 397.823 110.675C397.7 110.449 397.41 110.561 397.397 110.565L397.266 110.23C397.472 110.15 397.92 110.101 398.139 110.501C398.358 110.901 398.075 111.253 397.896 111.382L397.894 111.384Z" fill="#D8368B"/>
<path d="M394.501 113.116L394.143 113.141L394.203 113.978L394.561 113.953L394.501 113.116Z" fill="#D8368B"/>
<path d="M265.49 158.869C261.417 162.629 272.314 172.197 272.314 172.197L277.42 164.39C277.42 164.39 268.534 156.056 265.49 158.869Z" fill="#0CD7B5"/>
<path d="M250.68 235.71L250.28 240.851C250.28 240.851 251.588 241.492 252.414 241.051C253.24 240.61 253.13 239.556 253.13 239.556L253.575 236.207L250.68 235.71Z" fill="#F287B7"/>
<path d="M261.95 241.894C260.144 241.453 256.782 241.014 255.47 240.132C254.158 239.251 253.008 239.58 253.008 239.58C253.008 239.58 253.173 240.35 251.861 240.571C250.549 240.791 250.055 239.58 250.055 239.58L249.803 243.214H263.191C263.116 242.679 262.821 242.105 261.95 241.892V241.894Z" fill="#E2345A"/>
<path d="M249.803 243.216L249.726 244.316H263.098C263.098 244.316 263.271 243.788 263.191 243.216H249.803Z" fill="#FF7B9E"/>
<path d="M222.29 235.453L221.492 240.548C221.492 240.548 222.746 241.29 223.604 240.913C224.462 240.537 224.434 239.477 224.434 239.477L225.137 236.173L222.29 235.453Z" fill="#F287B7"/>
<path d="M233.245 241.894C231.44 241.453 228.077 241.014 226.765 240.132C225.453 239.251 224.304 239.58 224.304 239.58C224.304 239.58 224.468 240.35 223.156 240.571C221.844 240.791 221.35 239.58 221.35 239.58L221.098 243.214H234.486C234.411 242.679 234.116 242.105 233.245 241.892V241.894Z" fill="#E2345A"/>
<path d="M221.098 243.216L221.021 244.316H234.392C234.392 244.316 234.564 243.787 234.486 243.216H221.098Z" fill="#FF7B9E"/>
<path d="M259.798 187.161C259.798 187.161 267.183 202.188 265.893 211.87C264.961 218.873 254.389 238.539 254.389 238.539H248.754C248.754 238.539 254.49 215.613 254.32 210.679C254.188 206.842 243.571 184.948 243.571 184.948L259.797 187.161H259.798Z" fill="#FD696C"/>
<path d="M226.714 238.539C226.714 238.539 238.54 220.507 243.328 212.728C249.229 203.139 253.408 186.669 253.408 186.669L243.575 182.245C243.575 182.245 239.699 182.088 236.446 191.095C235.454 193.844 234.308 202.179 231.652 209.735C227.011 222.933 220.221 238.541 220.221 238.541H226.716L226.714 238.539Z" fill="#FD696C"/>
<path d="M269.319 155.88C269.319 155.88 269.467 158.093 269.893 159.116C270.319 160.136 271.766 159.712 271.766 159.712L273.723 156.734L272.31 152.951L269.319 155.882V155.88Z" fill="#FFC5C5"/>
<path d="M239.811 184.365C245.506 190.174 249.834 192.338 255.683 191.108C258.963 190.418 261.454 189.718 261.454 189.718C261.454 189.718 264.873 178.004 268.276 171.537C271.68 165.07 271.68 159.966 271.68 159.966L269.297 155.542C269.297 155.542 263.68 153.841 255.683 162.009C250.103 167.708 239.811 184.365 239.811 184.365Z" fill="#0AEDC7"/>
<path d="M265.428 171.399C265.428 171.399 267.187 179.15 275.777 181.834C281.519 183.628 286.404 180.641 286.404 180.641L285.93 177.961C285.93 177.961 281.061 179.275 276.465 176.212C272.727 173.72 272.065 167.313 272.065 167.313L265.428 171.397V171.399Z" fill="#FFC5C5"/>
<path d="M265.514 157.809C260.122 159.099 264.948 172.773 264.948 172.773L273.22 168.461C273.22 168.461 269.546 156.845 265.514 157.809Z" fill="#0AEDC7"/>
<path d="M285.93 177.963C285.93 177.963 286.53 176.591 286.827 175.182C287.126 173.761 287.141 172.775 287.5 172.894C287.859 173.014 287.739 179.563 287.5 180.161C287.261 180.759 285.885 180.879 285.885 180.879L285.93 177.963Z" fill="#FFC5C5"/>
<path d="M286.961 153.308C286.961 153.308 287.081 149.839 287.56 148.823C288.038 147.806 287.799 151.993 288.098 152.77C288.397 153.548 290.49 152.112 289.832 153.069C289.174 154.026 288.816 154.086 288.696 154.863C288.576 155.641 287.38 156.837 287.38 156.837L286.961 153.308Z" fill="#FFC5C5"/>
<path d="M272.071 153.727C272.071 153.727 272.489 157.615 272.848 157.615C273.207 157.615 273.446 157.017 273.446 157.017L272.071 153.727Z" fill="#EF9D8B"/>
<path d="M274.11 145.716C273.011 146.116 270.422 148.482 271.871 153.092C273.319 157.701 274.637 158.624 275.953 158.755C277.27 158.886 278.192 155.725 278.192 155.725L278.982 155.594C278.982 155.594 278.949 153.85 279.022 152.531C279.046 152.103 279.192 151.796 279.246 151.512C279.47 150.333 279.115 146.903 277.534 146.112C275.953 145.322 275.207 145.318 274.11 145.718V145.716Z" fill="#FFC5C5"/>
<path d="M274.044 151.065C274.758 151.422 276.96 149.839 277.678 149.346C278.395 148.853 279.201 149.916 280.19 149.346C281.356 148.673 281.67 146.699 280.1 145.802C278.829 145.075 278.214 145.268 277.095 144.77C275.883 144.232 273.82 144.187 272.34 146.071C270.859 147.955 270.456 150.423 270.994 151.813C271.532 153.204 271.532 154.011 271.801 153.697C272.071 153.383 272.85 152.058 273.177 151.514C273.536 150.916 273.805 150.946 274.044 151.065Z" fill="#515151"/>
<path d="M274.074 151.305C274.074 151.305 273.4 150.058 272.788 150.886C272.37 151.454 272.43 152.202 272.669 152.621C272.908 153.039 273.237 152.92 273.237 152.92L274.074 151.305Z" fill="#FFC5C5"/>
<path d="M278.825 153.123L278.48 153.024C278.502 152.948 278.515 152.804 278.474 152.742C278.468 152.733 278.457 152.716 278.411 152.708C278.207 152.677 277.979 152.908 277.915 152.991L277.631 152.772C277.646 152.751 278.011 152.286 278.465 152.353C278.599 152.374 278.708 152.441 278.777 152.548C278.921 152.77 278.835 153.088 278.825 153.123Z" fill="#D8368B"/>
<path d="M276.913 156.658L277.751 156.957C277.751 156.957 277.332 157.555 277.033 157.316C276.734 157.076 276.913 156.658 276.913 156.658Z" fill="white"/>
<path d="M315.414 341.792L314.935 346.961C314.935 346.961 313.528 347.374 312.784 346.795C312.04 346.216 312.328 345.189 312.328 345.189L312.459 341.79H315.416L315.414 341.792Z" fill="#FFC5C5"/>
<path d="M303.324 347.518C305.141 347.075 308.528 346.632 309.849 345.745C311.171 344.859 312.328 345.19 312.328 345.19C312.328 345.19 312.163 345.965 313.485 346.188C314.806 346.41 315.301 345.19 315.301 345.19L315.556 348.847H302.076C302.151 348.309 302.448 347.731 303.326 347.517L303.324 347.518Z" fill="#E2345A"/>
<path d="M315.554 348.849L315.631 349.957H302.17C302.17 349.957 301.996 349.425 302.076 348.849H315.556H315.554Z" fill="#FF7B9E"/>
<path d="M332.524 342.231L333.211 346.703C333.211 346.703 331.578 347.374 330.832 346.797C330.088 346.218 330.204 345.363 330.204 345.363L329.512 342.319L332.524 342.233V342.231Z" fill="#FFC5C5"/>
<path d="M321.376 347.518C323.193 347.075 326.58 346.633 327.901 345.745C329.223 344.859 330.38 345.19 330.38 345.19C330.38 345.19 330.215 345.965 331.537 346.188C332.858 346.41 333.353 345.19 333.353 345.19L333.608 348.847H320.128C320.203 348.309 320.5 347.732 321.378 347.517L321.376 347.518Z" fill="#E2345A"/>
<path d="M333.604 348.849L333.681 349.958H320.22C320.22 349.958 320.046 349.425 320.126 348.849H333.606H333.604Z" fill="#FF7B9E"/>
<path d="M334.821 281.735C334.821 281.735 336.8 286.438 333.83 292.871C330.86 299.306 319.724 310.442 318.98 316.135C318.238 321.826 317.248 343.358 317.248 343.358H310.317C310.317 343.358 306.605 320.589 308.833 309.7C311.061 298.811 318.732 286.189 318.732 286.189L334.819 281.735H334.821Z" fill="#191970"/>
<path d="M333.583 291.882C333.583 291.882 331.108 310.69 331.108 317.126C331.108 323.561 335.019 343.177 335.019 343.177H328.139C328.139 343.177 320.722 325.796 320.468 315.886C320.221 306.235 319.973 284.952 319.973 284.952L333.585 291.882H333.583Z" fill="#191970"/>
<path d="M326.361 246.507C326.361 246.507 328.428 247.29 329.112 247.883C330.832 249.374 331.993 251.406 332.748 256.437C333.503 261.467 333 270.27 333.503 273.539C334.006 276.808 335.264 282.341 335.264 282.341C335.264 282.341 329.479 286.112 325.707 286.615C321.935 287.118 318.162 288.376 316.906 286.615C315.648 284.854 316.653 269.513 317.158 263.729C317.661 257.944 319.857 249.582 320.287 248.913C320.969 247.849 326.365 246.505 326.365 246.505L326.361 246.507Z" fill="#5287E0"/>
<path d="M299.641 279.074C299.641 279.074 300.673 280.909 302.852 281.481C305.031 282.055 305.833 281.367 307.095 281.367H308.814L308.585 279.303C308.585 279.303 306.291 279.303 305.717 279.074C305.144 278.844 303.538 277.01 303.08 277.124C302.622 277.238 304.112 279.303 303.31 279.074C302.508 278.844 299.641 279.074 299.641 279.074Z" fill="#FFC5C5"/>
<path d="M326.64 247.015C326.64 247.015 325.585 248.909 323.09 249.249C321.773 249.428 321.887 247.754 321.887 247.754L321.999 242.274L325.099 239.786L326.638 247.017L326.64 247.015Z" fill="#FFC5C5"/>
<path d="M322.051 245.614C322.051 245.614 322.709 246.451 323.845 245.195C324.982 243.939 324.862 241.606 324.862 241.606L322.051 245.614Z" fill="#EF9D8B"/>
<path d="M320.167 246.062C321.817 245.976 323.406 244.623 324.101 243.58C324.797 242.537 325.449 241.165 325.449 241.165C325.449 241.165 326.828 240.238 326.896 239.489C327.096 237.294 324.718 234.444 321.533 233.827C316.01 232.756 317.337 240.438 317.674 242.335C318.018 244.275 318.834 246.131 320.165 246.06L320.167 246.062Z" fill="#FFC5C5"/>
<path d="M322.646 236.255C322.646 236.255 322.911 237.833 323.959 238.457C324.533 238.799 324.571 239.846 324.707 240.034C324.819 240.191 324.972 240.1 324.972 240.1C324.972 240.1 325.172 239.5 325.27 239.408C325.743 238.96 326.498 238.941 326.599 239.476C326.761 240.343 325.316 241.214 325.316 241.214C325.316 241.214 329.069 239.244 328.04 236.388C327.01 233.53 325.548 233.833 325.548 233.833L322.646 236.255Z" fill="#515151"/>
<path d="M319.838 242.862H318.851V240.53H319.21V242.504H319.838V242.862Z" fill="#D8368B"/>
<path d="M320.429 240.033L320.115 239.857C320.126 239.835 320.414 239.322 320.972 239.365C321.518 239.405 321.692 239.765 321.699 239.78L321.374 239.932C321.374 239.932 321.273 239.747 320.946 239.724C320.615 239.702 320.429 240.029 320.427 240.033H320.429Z" fill="#D8368B"/>
<path d="M317.646 240.35L317.307 240.231C317.315 240.208 317.515 239.663 317.978 239.663C318.343 239.663 318.539 239.9 318.599 240.042L318.268 240.182C318.262 240.169 318.188 240.023 317.978 240.023C317.769 240.023 317.648 240.348 317.646 240.352V240.35Z" fill="#D8368B"/>
<path d="M319.15 244.208C319.15 244.208 320.018 244.268 320.378 244.029C320.739 243.789 320.451 244.926 319.945 245.045C319.438 245.165 319.15 244.208 319.15 244.208Z" fill="white"/>
<path d="M315.73 239.257C315.73 239.257 314.302 235.412 317.371 232.981C320.107 230.813 322.305 230.949 324.12 231.923C325.748 232.798 326.471 234.143 323.84 236.074C321.208 238.003 315.73 239.257 315.73 239.257Z" fill="#515151"/>
<path d="M316.756 281.892C316.756 281.892 322.408 281.483 326.466 277.391C330.521 273.3 329.92 266.799 329.92 266.799L316.758 281.892H316.756Z" fill="#A09CE5"/>
<path d="M308.012 278.845L308.768 283.443C308.768 283.443 320.752 283.096 327.279 274.719C334.962 264.857 334.732 250.178 328.473 250.402C324.29 250.552 323.378 265.428 321.201 268.754C316.926 275.292 308.012 278.845 308.012 278.845Z" fill="#5287E0"/>
<path d="M308.59 283.471L307.812 278.739L307.938 278.683C308.044 278.634 318.575 273.818 321.494 267.306C322.89 264.192 323.421 261.028 323.89 258.233C324.427 255.034 324.853 252.505 326.355 251.189L326.591 251.46C325.184 252.692 324.769 255.163 324.243 258.293C323.77 261.108 323.236 264.297 321.821 267.454C319.021 273.698 309.422 278.382 308.211 278.954L308.943 283.417L308.59 283.475V283.471Z" fill="white"/>
<path d="M66.9768 260.521C65.6872 263.452 70.9897 270.327 82.632 272.39C93.6483 274.343 101.543 267.407 101.543 267.407L100.551 265.714C100.551 265.714 90.7101 269.452 85.1328 268.654C78.1164 267.65 68.5954 256.838 66.9749 260.521H66.9768Z" fill="#FEBEAD"/>
<path d="M71.911 242.171C71.911 242.171 71.098 235.596 64.504 237.274C57.9099 238.953 60.6724 247.35 57.1847 248.52C53.6971 249.692 48.5366 256.241 53.4597 259.94C58.3809 263.639 53.17 265.056 50.2487 268.31C47.3273 271.566 48.8525 280.889 53.7419 279.113C58.6314 277.337 59.9379 278.438 62.1695 281.3C64.4012 284.163 69.0196 253.884 69.0196 253.884L71.911 242.169V242.171Z" fill="#515151"/>
<path d="M78.279 312.238C78.279 312.238 77.7669 324.363 77.2548 332.389C76.7426 340.414 75.7184 348.356 75.7184 348.356H73.6699L71.4495 325.557L78.2809 312.236L78.279 312.238Z" fill="#FEBEAD"/>
<path d="M66.4964 331.022L63.4218 348.562H61.2013L60.6892 330.852L66.1543 330.34" fill="#FEBEAD"/>
<path d="M66.2835 257.417C66.2835 257.417 66.9825 257.989 69.0572 259.129C70.4608 259.899 74.2363 259.585 76.7427 270.628C77.1951 272.618 76.4007 279.279 77.1988 284.176C79.2473 296.763 83.062 315.997 72.4738 327.437C61.8856 338.88 64.4481 332.048 56.5924 335.635C48.7368 339.222 36.7131 335.278 32.1022 332.886C27.4912 330.495 37.3094 328.112 46.1257 321.152C56.9999 312.567 59.6147 305.383 63.8687 289.099C67.6909 274.467 63.0818 270.912 63.5939 265.104C64.106 259.299 66.2854 257.417 66.2854 257.417H66.2835Z" fill="#6414E9"/>
<path d="M73.668 347.672C73.668 347.672 73.554 349.778 73.44 350.12C73.326 350.462 82.718 350.12 82.718 350.12C82.718 350.12 83.174 349.096 81.9218 348.868C80.6695 348.64 78.3351 348.412 77.4248 347.958C76.5146 347.502 75.7165 347.674 75.7165 347.674C75.7165 347.674 75.8305 348.072 74.9203 348.186C74.0101 348.3 73.668 347.674 73.668 347.674V347.672Z" fill="#982F0D"/>
<path d="M82.6341 349.466H73.6682V349.636H82.6341V349.466Z" fill="white"/>
<path d="M78.0345 348.232L77.6934 348.744L77.8348 348.838L78.176 348.326L78.0345 348.232Z" fill="white"/>
<path d="M79.2366 348.382L78.8955 348.894L79.037 348.988L79.3781 348.477L79.2366 348.382Z" fill="white"/>
<path d="M61.2017 347.878C61.2017 347.878 61.0877 349.984 60.9737 350.326C60.8597 350.668 70.2517 350.326 70.2517 350.326C70.2517 350.326 70.7077 349.302 69.4555 349.074C68.2032 348.846 65.8687 348.618 64.9585 348.164C64.0483 347.707 63.2502 347.879 63.2502 347.879C63.2502 347.879 63.3642 348.278 62.454 348.392C61.5437 348.506 61.2017 347.879 61.2017 347.879V347.878Z" fill="#982F0D"/>
<path d="M70.1673 349.672H61.2014V349.842H70.1673V349.672Z" fill="white"/>
<path d="M65.5692 348.438L65.228 348.949L65.3696 349.044L65.7107 348.532L65.5692 348.438Z" fill="white"/>
<path d="M66.7621 348.608L66.4209 349.119L66.5624 349.214L66.9036 348.702L66.7621 348.608Z" fill="white"/>
<path d="M66.3472 257.798C66.3472 257.798 66.835 256.142 66.6649 253.41C66.4948 250.677 66.6014 249.085 66.6014 249.085L69.7395 250.417C69.7395 250.417 70.4236 254.174 70.7637 256.395C71.1058 258.615 72.13 261.006 72.13 261.006L66.3472 257.798Z" fill="#FEBEAD"/>
<path d="M66.3639 250.722C66.3639 250.722 67.7003 254.109 69.0348 254.92C70.102 255.569 70.5132 255.111 70.5132 255.111L70.3693 253.823L66.3621 250.722H66.3639Z" fill="#F26B6B"/>
<path d="M71.3897 254.286C72.6084 254.29 72.8345 252.763 73.027 250.275C73.0495 249.993 73.5803 250.072 73.5878 249.78C73.6139 248.707 72.7112 247.638 72.599 246.141C72.3822 243.218 71.5991 242.311 70.2141 241.896C66.3452 240.734 63.3864 244.653 64.4126 247.7C65.4368 250.744 68.4815 254.279 71.3897 254.286Z" fill="#FEBEAD"/>
<path d="M64.9376 251.537C64.9376 251.537 66.2235 250.75 65.9207 247.675C65.6179 244.601 67.6029 245.44 68.9318 243.451C69.9766 241.887 72.1708 243.635 72.1708 243.635C72.1708 243.635 74.1109 239.732 71.0532 239.749C67.9954 239.767 61.8331 245.629 62.3826 247.761C62.9302 249.894 64.9395 251.537 64.9395 251.537H64.9376Z" fill="#515151"/>
<path d="M66.1976 248.391C66.1976 248.391 64.5696 247.462 64.3809 248.989C64.2052 250.414 65.9453 250.606 65.9453 250.606L66.1976 248.391Z" fill="#FEBEAD"/>
<path d="M72.4121 252.288C71.6084 252.243 71.1187 251.567 71.0981 251.537L71.2701 251.414C71.2701 251.414 71.7243 252.036 72.4233 252.077L72.4121 252.288Z" fill="#F26B6B"/>
<path d="M70.0983 247.46L69.9282 247.333C69.9394 247.317 70.231 246.937 70.9039 246.713C71.1693 246.623 71.345 246.633 71.4422 246.739C71.5711 246.881 71.4758 247.109 71.4646 247.135L71.2702 247.049C71.2926 246.997 71.3095 246.909 71.2852 246.883C71.2665 246.862 71.1786 246.846 70.9712 246.915C70.3656 247.118 70.1002 247.459 70.0964 247.462L70.0983 247.46Z" fill="#F26B6B"/>
<path d="M66.7303 261.774C64.5679 263.174 64.822 267.626 66.9845 269.151C69.147 270.678 70.8012 270.551 72.0721 269.659C73.3449 268.77 68.8928 260.374 66.7303 261.774Z" fill="#6414E9"/>
<path d="M102.805 265.688C102.902 266.28 101.388 267.596 100.683 268.194C99.9768 268.792 100.526 267.889 99.7338 267.751C98.9432 267.613 97.7096 266.635 99.0554 265.36C100.401 264.084 102.805 265.688 102.805 265.688Z" fill="#FEBEAD"/>
<path d="M98.19 276.604H180.696C183.514 276.604 185.821 274.298 185.821 271.479V240.853C183.038 243.647 179.186 245.376 174.932 245.376C166.44 245.376 159.559 239.165 159.559 230.674C159.559 222.183 166.442 215.301 174.932 215.301C179.187 215.301 183.038 217.03 185.821 219.824V188.974C185.821 186.155 183.514 183.849 180.696 183.849H149.892C152.92 181.041 154.817 177.03 154.817 172.574C154.817 164.083 147.933 157.201 139.444 157.201C130.955 157.201 124.071 164.085 124.071 172.574C124.071 177.03 125.968 181.041 128.996 183.849H98.1919C95.3733 183.849 93.0669 186.155 93.0669 188.974V271.479C93.0669 274.298 95.3733 276.604 98.1919 276.604H98.19Z" fill="#0AEDC7"/>
<path d="M97.8517 275.154C97.8218 275.206 97.7938 275.255 97.7695 275.296C95.9341 275.498 87.1065 276.343 82.4339 274.474C75.8529 271.842 69.1542 259.088 66.7114 262.284C64.7657 264.827 68.7692 274.401 79.12 277.513C87.4373 280.014 94.1491 277.38 98.3433 277.025C98.2312 276.395 98.0667 275.773 97.8517 275.154Z" fill="#FEBEAD"/>
<path d="M101.433 275.849C101.237 276.416 99.2798 276.855 98.3751 277.047C97.4686 277.238 98.3807 276.703 97.7509 276.206C97.121 275.709 96.5005 274.263 98.2892 273.78C100.08 273.298 101.433 275.849 101.433 275.849Z" fill="#FEBEAD"/>
<line y1="350.5" x2="711" y2="350.5" stroke="black"/>
<path d="M630.812 261.783C630.812 261.783 642.322 269.239 652.525 262.83C662.496 256.566 663.538 249.924 667.634 253.234C671.731 256.542 665.104 267.883 650.228 270.857C636.911 273.521 627.298 261.273 627.298 261.273L630.81 261.783H630.812Z" fill="#FF9C8A"/>
<path d="M663.799 345.804H660.866V348.66H663.799V345.804Z" fill="#FF9C8A"/>
<path d="M679.45 345.804H676.518V348.66H679.45V345.804Z" fill="#FF9C8A"/>
<path d="M658.324 257.686L665.412 265.177C665.412 265.177 672.408 256.828 667.795 253.139C663.182 249.449 658.323 257.686 658.323 257.686H658.324Z" fill="#B3D5F7"/>
<path d="M637.167 268.801V186.841C637.167 184.041 634.875 181.75 632.076 181.75H603.657C606.432 184.514 608.15 188.34 608.15 192.568C608.15 201.003 601.313 207.84 592.878 207.84C584.443 207.84 577.606 201.003 577.606 192.568C577.606 188.34 579.323 184.516 582.099 181.75H550.115C547.316 181.75 545.024 184.041 545.024 186.841V217.443C542.236 214.434 538.251 212.55 533.825 212.55C525.39 212.55 518.553 219.387 518.553 227.822C518.553 236.257 525.39 243.094 533.825 243.094C538.251 243.094 542.236 241.21 545.024 238.201V268.803C545.024 271.603 547.316 273.894 550.115 273.894H632.076C634.875 273.894 637.167 271.603 637.167 268.803V268.801Z" fill="#FD696C"/>
<path d="M659.9 287.557C659.9 287.557 655.658 307.339 656.728 319.793C657.801 332.248 660.158 346.533 660.158 346.533H664.446C664.446 346.533 665.519 321.075 667.233 313.016C668.948 304.956 673.451 287.557 673.451 287.557H659.897H659.9Z" fill="#09D3B2"/>
<path d="M663.799 287.763C663.799 287.763 666.307 304.541 668.694 314.432C671.081 324.323 675.643 346.533 675.643 346.533H680.028C680.028 346.533 679.879 317.023 679.516 307.177C679.161 297.592 678.167 288.387 678.167 288.387L663.801 287.763H663.799Z" fill="#0AEDC7"/>
<path d="M658.403 291.477C658.403 291.477 658.962 275.795 659.521 266.42C660.08 257.045 662.188 254.2 663.678 252.838C665.167 251.473 669.023 249.036 671.227 250.914C682.177 260.247 678.798 270.265 678.518 280.059C678.239 289.815 678.899 289.774 678.899 289.774C678.899 289.774 671.627 290.966 666.227 291.819C660.825 292.671 658.405 291.478 658.405 291.478L658.403 291.477Z" fill="#CDE3F9"/>
<path d="M669.582 250.742L667.44 243.842L664.419 244.567L664.541 252.329C664.541 252.329 665.251 253.239 666.814 252.783C668.916 252.17 669.582 250.742 669.582 250.742Z" fill="#FF9C8A"/>
<path d="M654.484 349.124C654.176 349.741 654.381 350.154 654.381 350.154H664.261C664.261 350.154 664.672 347.89 664.158 347.683C663.644 347.477 663.747 348.3 662.203 348.094C660.659 347.889 661.483 347.064 659.218 347.683C656.955 348.3 654.484 349.124 654.484 349.124Z" fill="#515151"/>
<path d="M670.137 349.124C669.829 349.741 670.034 350.154 670.034 350.154H679.914C679.914 350.154 680.325 347.89 679.811 347.683C679.297 347.477 679.4 348.3 677.856 348.094C676.312 347.889 677.137 347.064 674.871 347.683C672.608 348.3 670.137 349.124 670.137 349.124Z" fill="#515151"/>
<path d="M671.311 255.034C666.395 253.144 667.718 259.004 659.779 267.7C653.371 274.719 642.071 273.289 637.946 272.476L637.322 272.195C637.322 272.195 636.849 271.1 635.692 270.1C634.535 269.1 632.924 268.218 632.737 268.455C632.55 268.693 634.505 269.977 634.126 270.483C633.816 270.898 629.586 268.326 629.449 268.988C629.313 269.65 632.791 270.485 632.685 271.08C632.578 271.674 628.756 269.64 628.649 270.235C628.543 270.829 632.154 271.724 631.982 272.289C631.81 272.853 628.311 271.526 628.369 272.115C628.427 272.702 631.518 272.965 631.576 273.552C631.634 274.139 628.945 273.336 629.367 274.007C629.79 274.677 636.157 274.864 636.157 274.864C636.157 274.864 648.837 280.432 660.156 277.152C673.2 273.371 676.224 256.925 671.309 255.034H671.311Z" fill="#FF9C8A"/>
<path d="M663.582 261.407L672.628 266.358C672.628 266.358 676.723 256.265 671.2 254.17C665.677 252.075 663.582 261.407 663.582 261.407Z" fill="#B3D5F7"/>
<path d="M664.535 248.457C664.535 248.457 665.931 248.139 666.63 246.933C667.329 245.728 667.582 244.204 667.582 244.204L664.472 247.06L664.535 248.457Z" fill="#DD4A36"/>
<path d="M662.973 247.281C664.464 247.587 666.945 245.64 667.532 244.47C668.044 243.446 669.827 234.156 663.448 234.646C660.182 234.896 659.949 237.405 659.457 239.825C659.162 241.279 658.695 243.412 659.08 243.646C659.465 243.879 660.179 243.345 660.442 243.646C661.276 244.595 661.489 246.976 662.975 247.281H662.973Z" fill="#FF9C8A"/>
<path d="M667.126 241.805C667.126 241.805 667.206 240.119 668.145 240.15C669.083 240.182 668.969 240.829 668.969 240.829C668.969 240.829 670.83 239.73 669.687 236.652C668.784 234.22 664.143 232.134 661.194 234.248C658.244 236.362 659.773 237.638 659.773 237.638C659.773 237.638 661.614 239.068 664.491 238.487C666.296 238.122 666.397 238.814 666.397 238.814L666.679 241.885L667.126 241.81V241.805Z" fill="#515151"/>
<path d="M667.963 242.618C667.963 242.618 669.359 241.73 669.004 240.595C668.825 240.023 667.711 239.633 667.201 240.143C666.689 240.653 667.025 242.477 667.025 242.477L667.963 242.618Z" fill="#FF9C8A"/>
<path d="M660.953 238.141C660.953 238.141 657.276 237.427 659.639 233.797C661.47 230.985 664.855 231.041 666.648 232.358C668.255 233.541 669.821 235.814 666.722 237.465C663.623 239.117 660.953 238.139 660.953 238.139V238.141Z" fill="#515151"/>
<path d="M662.739 243.777L661.266 245.02L661.403 245.181L662.875 243.939L662.739 243.777Z" fill="#DD4A36"/>
<path d="M661.459 240.592C661.403 240.655 661.276 240.636 661.173 240.549C661.07 240.461 661.031 240.337 661.087 240.272C661.143 240.208 661.27 240.227 661.373 240.315C661.476 240.403 661.515 240.526 661.459 240.592Z" fill="#DD4A36"/>
<path d="M677.862 342.932C677.819 342.932 677.781 342.898 677.778 342.853L677.735 342.343C677.731 342.296 677.765 342.255 677.811 342.251C677.856 342.246 677.899 342.281 677.903 342.328L677.946 342.838C677.95 342.885 677.916 342.926 677.869 342.93C677.867 342.93 677.864 342.93 677.862 342.93V342.932ZM677.746 341.575C677.703 341.575 677.666 341.541 677.662 341.498L677.617 340.99C677.613 340.943 677.647 340.902 677.694 340.898C677.738 340.894 677.781 340.928 677.785 340.975L677.83 341.483C677.834 341.53 677.8 341.571 677.753 341.575C677.752 341.575 677.748 341.575 677.746 341.575ZM677.628 340.22C677.585 340.22 677.548 340.186 677.544 340.143L677.499 339.635C677.495 339.588 677.529 339.547 677.576 339.543C677.621 339.541 677.664 339.573 677.667 339.62L677.712 340.128C677.716 340.175 677.682 340.216 677.636 340.22C677.634 340.22 677.63 340.22 677.628 340.22ZM677.509 338.867C677.466 338.867 677.428 338.833 677.424 338.79L677.38 338.283C677.376 338.237 677.41 338.196 677.456 338.192C677.503 338.186 677.544 338.222 677.548 338.268L677.593 338.775C677.596 338.822 677.563 338.863 677.516 338.867C677.514 338.867 677.51 338.867 677.509 338.867ZM677.387 337.513C677.344 337.513 677.307 337.48 677.303 337.437L677.256 336.93C677.252 336.883 677.286 336.842 677.333 336.839C677.381 336.835 677.421 336.869 677.424 336.915L677.471 337.422C677.475 337.468 677.441 337.51 677.395 337.513C677.393 337.513 677.389 337.513 677.387 337.513ZM677.264 336.16C677.221 336.16 677.183 336.127 677.18 336.084L677.133 335.577C677.129 335.53 677.163 335.489 677.21 335.485C677.256 335.482 677.297 335.515 677.301 335.562L677.348 336.069C677.352 336.115 677.318 336.156 677.271 336.16C677.269 336.16 677.266 336.16 677.264 336.16ZM677.139 334.809C677.096 334.809 677.058 334.775 677.054 334.732L677.008 334.226C677.004 334.179 677.038 334.138 677.084 334.134C677.131 334.13 677.172 334.164 677.176 334.211L677.223 334.717C677.226 334.764 677.193 334.805 677.146 334.809C677.144 334.809 677.14 334.809 677.139 334.809ZM677.011 333.458C676.968 333.458 676.931 333.424 676.927 333.381L676.879 332.874C676.875 332.828 676.909 332.787 676.955 332.783C677 332.779 677.043 332.813 677.047 332.859L677.096 333.366C677.099 333.413 677.066 333.454 677.019 333.458C677.017 333.458 677.013 333.458 677.011 333.458ZM676.882 332.106C676.839 332.106 676.802 332.074 676.798 332.03L676.75 331.523C676.746 331.476 676.78 331.435 676.826 331.43C676.873 331.428 676.914 331.459 676.918 331.506L676.967 332.013C676.97 332.059 676.937 332.101 676.89 332.106C676.888 332.106 676.884 332.106 676.882 332.106ZM676.752 330.755C676.709 330.755 676.671 330.723 676.667 330.678L676.619 330.172C676.615 330.125 676.649 330.084 676.696 330.078C676.742 330.078 676.783 330.108 676.789 330.155L676.838 330.661C676.841 330.708 676.808 330.749 676.761 330.755C676.757 330.755 676.755 330.755 676.753 330.755H676.752ZM676.619 329.404C676.576 329.404 676.539 329.372 676.535 329.327L676.484 328.82C676.481 328.774 676.514 328.733 676.561 328.727C676.608 328.721 676.649 328.757 676.654 328.804L676.705 329.31C676.709 329.357 676.675 329.398 676.628 329.404C676.626 329.404 676.623 329.404 676.621 329.404H676.619ZM676.484 328.052C676.441 328.052 676.404 328.02 676.4 327.976L676.35 327.469C676.346 327.422 676.38 327.381 676.426 327.376C676.475 327.372 676.514 327.405 676.52 327.45L676.57 327.957C676.574 328.004 676.54 328.045 676.494 328.05C676.49 328.05 676.488 328.05 676.484 328.05V328.052ZM676.346 326.703C676.303 326.703 676.266 326.671 676.262 326.626L676.21 326.12C676.204 326.073 676.238 326.032 676.284 326.026C676.331 326.021 676.372 326.056 676.378 326.101L676.43 326.607C676.436 326.654 676.4 326.695 676.355 326.701C676.352 326.701 676.35 326.701 676.346 326.701V326.703ZM676.204 325.353C676.161 325.353 676.124 325.321 676.12 325.277L676.066 324.77C676.06 324.723 676.094 324.682 676.14 324.677C676.187 324.673 676.228 324.705 676.234 324.751L676.288 325.258C676.294 325.305 676.26 325.346 676.213 325.351C676.21 325.351 676.208 325.351 676.204 325.351V325.353ZM676.058 324.004C676.015 324.004 675.978 323.972 675.974 323.929L675.918 323.423C675.912 323.376 675.946 323.335 675.993 323.329C676.039 323.323 676.081 323.357 676.086 323.404L676.142 323.91C676.148 323.957 676.114 323.998 676.068 324.004C676.064 324.004 676.062 324.004 676.058 324.004ZM675.909 322.654C675.866 322.654 675.83 322.623 675.825 322.58L675.767 322.073C675.761 322.026 675.795 321.985 675.841 321.98C675.886 321.974 675.929 322.008 675.935 322.054L675.993 322.561C675.998 322.608 675.965 322.649 675.918 322.654C675.914 322.654 675.912 322.654 675.909 322.654ZM675.754 321.305C675.711 321.305 675.675 321.273 675.669 321.23L675.61 320.725C675.604 320.679 675.638 320.638 675.684 320.632C675.731 320.625 675.772 320.66 675.778 320.707L675.838 321.211C675.843 321.258 675.81 321.299 675.763 321.305C675.759 321.305 675.755 321.305 675.754 321.305ZM675.595 319.957C675.552 319.957 675.516 319.926 675.511 319.883L675.453 319.376C675.447 319.329 675.481 319.288 675.527 319.283C675.574 319.279 675.615 319.311 675.621 319.357L675.679 319.862C675.684 319.909 675.651 319.95 675.604 319.955C675.6 319.955 675.598 319.955 675.595 319.955V319.957ZM675.443 318.608C675.4 318.608 675.363 318.576 675.359 318.533L675.305 318.027C675.299 317.98 675.333 317.939 675.38 317.933C675.426 317.929 675.468 317.961 675.473 318.008L675.527 318.514C675.533 318.561 675.499 318.602 675.453 318.608C675.449 318.608 675.447 318.608 675.443 318.608ZM675.299 317.258C675.256 317.258 675.219 317.227 675.215 317.182L675.163 316.675C675.157 316.629 675.193 316.587 675.238 316.582C675.284 316.576 675.325 316.612 675.331 316.657L675.383 317.163C675.389 317.21 675.355 317.251 675.309 317.257C675.305 317.257 675.303 317.257 675.299 317.257V317.258ZM675.159 315.907C675.116 315.907 675.079 315.875 675.075 315.83L675.025 315.324C675.019 315.277 675.054 315.236 675.101 315.23C675.148 315.227 675.189 315.26 675.195 315.307L675.245 315.814C675.251 315.86 675.215 315.901 675.169 315.907C675.165 315.907 675.163 315.907 675.159 315.907ZM675.023 314.556C674.98 314.556 674.942 314.524 674.939 314.479L674.888 313.973C674.884 313.926 674.918 313.885 674.965 313.879C675.013 313.879 675.053 313.909 675.058 313.956L675.109 314.462C675.112 314.509 675.079 314.55 675.032 314.556C675.03 314.556 675.026 314.556 675.025 314.556H675.023ZM674.89 313.204C674.847 313.204 674.81 313.171 674.806 313.128L674.757 312.621C674.754 312.575 674.787 312.533 674.834 312.53C674.879 312.526 674.922 312.56 674.926 312.606L674.974 313.113C674.978 313.16 674.944 313.201 674.898 313.206C674.896 313.206 674.892 313.206 674.89 313.206V313.204ZM674.759 311.853C674.716 311.853 674.679 311.819 674.675 311.776L674.627 311.27C674.623 311.223 674.656 311.182 674.703 311.178C674.748 311.176 674.791 311.208 674.795 311.255L674.843 311.761C674.847 311.808 674.813 311.849 674.767 311.853C674.765 311.853 674.761 311.853 674.759 311.853ZM674.632 310.502C674.589 310.502 674.552 310.468 674.548 310.425L674.501 309.917C674.498 309.87 674.531 309.829 674.578 309.825C674.626 309.821 674.666 309.855 674.669 309.902L674.716 310.41C674.72 310.457 674.686 310.498 674.64 310.502C674.638 310.502 674.634 310.502 674.632 310.502ZM674.507 309.149C674.464 309.149 674.426 309.115 674.423 309.072L674.376 308.565C674.372 308.519 674.406 308.478 674.453 308.474C674.499 308.468 674.54 308.504 674.544 308.55L674.591 309.057C674.595 309.104 674.561 309.145 674.514 309.149C674.512 309.149 674.509 309.149 674.507 309.149ZM674.384 307.797C674.341 307.797 674.303 307.764 674.299 307.721L674.253 307.214C674.249 307.167 674.283 307.126 674.329 307.122C674.376 307.122 674.417 307.152 674.421 307.199L674.468 307.706C674.471 307.752 674.438 307.793 674.391 307.797C674.389 307.797 674.385 307.797 674.384 307.797ZM674.262 306.446C674.219 306.446 674.182 306.412 674.178 306.369L674.133 305.863C674.129 305.816 674.163 305.775 674.21 305.771C674.258 305.769 674.298 305.801 674.301 305.848L674.346 306.354C674.35 306.401 674.316 306.442 674.269 306.446C674.268 306.446 674.264 306.446 674.262 306.446ZM674.141 305.095C674.098 305.095 674.06 305.061 674.056 305.018L674.012 304.511C674.008 304.465 674.041 304.424 674.088 304.42C674.135 304.416 674.176 304.45 674.18 304.496L674.225 305.003C674.228 305.05 674.195 305.091 674.148 305.095C674.146 305.095 674.142 305.095 674.141 305.095ZM674.021 303.741C673.978 303.741 673.941 303.708 673.937 303.665L673.892 303.158C673.888 303.111 673.922 303.07 673.969 303.067C674.015 303.067 674.056 303.097 674.06 303.143L674.105 303.65C674.109 303.697 674.075 303.738 674.028 303.741C674.026 303.741 674.023 303.741 674.021 303.741ZM673.903 302.388C673.86 302.388 673.823 302.355 673.819 302.312L673.774 301.805C673.77 301.758 673.804 301.717 673.851 301.713C673.898 301.71 673.939 301.743 673.942 301.79L673.987 302.297C673.991 302.343 673.957 302.384 673.911 302.388C673.909 302.388 673.905 302.388 673.903 302.388ZM673.785 301.035C673.742 301.035 673.705 301.001 673.701 300.958L673.658 300.452C673.655 300.405 673.688 300.364 673.735 300.36C673.78 300.356 673.823 300.39 673.827 300.437L673.87 300.945C673.873 300.992 673.84 301.033 673.793 301.037C673.791 301.037 673.787 301.037 673.785 301.037V301.035ZM673.67 299.682C673.627 299.682 673.589 299.648 673.585 299.603L673.542 299.095C673.539 299.048 673.572 299.007 673.619 299.003C673.666 299 673.707 299.033 673.711 299.08L673.754 299.588C673.757 299.635 673.724 299.676 673.677 299.68C673.675 299.68 673.671 299.68 673.67 299.68V299.682ZM673.555 298.327C673.513 298.327 673.475 298.293 673.471 298.248L673.428 297.74C673.425 297.693 673.458 297.652 673.505 297.648C673.552 297.645 673.593 297.678 673.597 297.725L673.64 298.233C673.643 298.28 673.61 298.321 673.563 298.325C673.561 298.325 673.557 298.325 673.555 298.325V298.327ZM673.442 296.972C673.399 296.972 673.361 296.938 673.357 296.893L673.314 296.385C673.311 296.338 673.344 296.297 673.391 296.293C673.438 296.289 673.479 296.323 673.483 296.37L673.526 296.878C673.529 296.925 673.496 296.966 673.449 296.97C673.447 296.97 673.443 296.97 673.442 296.97V296.972ZM673.329 295.615C673.286 295.615 673.249 295.581 673.245 295.536L673.204 295.024C673.2 294.977 673.236 294.936 673.281 294.932C673.326 294.932 673.369 294.964 673.372 295.011L673.413 295.523C673.417 295.57 673.382 295.611 673.335 295.615C673.333 295.615 673.329 295.615 673.327 295.615H673.329Z" fill="white"/>
<path d="M673.042 293.708C673.042 293.708 673.032 293.708 673.028 293.708C672.978 293.701 672.928 293.69 672.877 293.68C672.83 293.671 672.802 293.626 672.812 293.579C672.821 293.534 672.866 293.505 672.913 293.514C672.961 293.525 673.01 293.533 673.056 293.542C673.103 293.549 673.133 293.592 673.126 293.639C673.118 293.68 673.083 293.71 673.042 293.71V293.708ZM672.083 293.434C672.073 293.434 672.062 293.433 672.053 293.428C671.903 293.372 671.743 293.306 671.578 293.234C671.535 293.215 671.516 293.164 671.535 293.121C671.554 293.078 671.604 293.06 671.647 293.078C671.81 293.149 671.967 293.215 672.114 293.271C672.157 293.288 672.18 293.336 672.163 293.379C672.15 293.413 672.118 293.434 672.085 293.434H672.083ZM670.847 292.873C670.834 292.873 670.821 292.869 670.808 292.863C670.651 292.781 670.5 292.701 670.358 292.62C670.316 292.598 670.302 292.546 670.324 292.505C670.346 292.463 670.399 292.45 670.44 292.471C670.582 292.549 670.731 292.63 670.887 292.71C670.928 292.733 670.944 292.783 670.922 292.824C670.907 292.854 670.877 292.871 670.847 292.871V292.873ZM669.666 292.204C669.651 292.204 669.636 292.2 669.621 292.191C669.352 292.024 669.188 291.916 669.188 291.916C669.148 291.89 669.139 291.837 669.163 291.798C669.189 291.759 669.242 291.748 669.281 291.774C669.281 291.774 669.444 291.882 669.709 292.045C669.748 292.069 669.761 292.121 669.737 292.161C669.72 292.187 669.694 292.202 669.664 292.202L669.666 292.204Z" fill="white"/>
<path d="M680.787 344.79H674.946V346.567H680.787V344.79Z" fill="#5FCE9E"/>
<path d="M665.171 344.79H659.33V346.567H665.171V344.79Z" fill="#5FCE9E"/>
<path d="M432.663 79.8469L428.271 116.181H426.275C426.275 116.181 424.279 98.2141 424.079 90.4276C423.905 83.6168 425.477 79.8469 425.477 79.8469H432.663Z" fill="#FFAAB8"/>
<path d="M448.089 76.3817L453.427 115.449L450.896 116.021C450.896 116.021 444.706 97.6609 442.672 89.5566C440.893 82.4673 441.536 78.1778 441.536 78.1778L448.091 76.3817H448.089Z" fill="#FFAAB8"/>
<path d="M460.763 115.211C459.102 114.806 456.003 114.4 454.793 113.589C453.584 112.778 452.526 113.082 452.526 113.082C452.526 113.082 452.678 113.793 451.468 113.994C450.259 114.198 449.807 113.082 449.807 113.082L449.575 116.43H461.907C461.838 115.936 461.567 115.409 460.763 115.213V115.211Z" fill="#5287E0"/>
<path d="M449.573 116.43L449.502 117.445H461.819C461.819 117.445 461.978 116.957 461.905 116.43H449.573Z" fill="#1D4994"/>
<path d="M436.656 115.211C434.994 114.806 431.895 114.4 430.686 113.589C429.477 112.778 428.419 113.082 428.419 113.082C428.419 113.082 428.57 113.793 427.361 113.994C426.152 114.198 425.7 113.082 425.7 113.082L425.468 116.43H437.8C437.731 115.936 437.46 115.409 436.656 115.213V115.211Z" fill="#5287E0"/>
<path d="M425.468 116.43L425.397 117.445H437.714C437.714 117.445 437.873 116.957 437.8 116.43H425.468Z" fill="#1D4994"/>
<path d="M427.968 44.4469C427.968 44.4469 428.021 45.3385 427.15 47.372C426.098 49.828 425.043 52.168 424.694 57.1976C424.096 65.7785 424.772 82.5421 424.772 82.5421L432.415 83.3215C432.415 83.3215 433.507 76.1462 434.286 68.1914C435.065 60.2367 435.338 60.1208 435.338 60.1208C435.338 60.1208 436.69 65.201 438.613 71.9352C440.484 78.4862 441.302 82.6972 441.302 82.6972L449.023 81.6449C449.023 81.6449 447.738 69.44 445.865 60.2386C444.715 54.5847 442.052 49.4579 441.069 46.5515C440.568 45.0731 440.366 44.5628 440.366 44.5628L427.967 44.4451L427.968 44.4469Z" fill="#EAAB21"/>
<path d="M440.446 29.0459C440.446 29.0459 443.957 34.0363 446.607 31.8532C449.259 29.6702 448.635 19.766 448.635 19.766L446.998 19.2988C446.998 19.2988 445.515 28.8123 444.891 28.345C444.267 27.8778 443.097 26.3171 443.097 26.3171L440.445 29.0459H440.446Z" fill="#FFAAB8"/>
<path d="M437.617 17.269C439.245 16.5475 441.598 21.6575 443.962 26.2292L439.74 30.3337C435.29 25.4255 434.548 18.6296 437.617 17.269Z" fill="#3C71CC"/>
<path d="M448.751 17.9493C448.734 16.5138 448.773 16.155 448.773 16.155L448.209 16.1643C448.205 16.1998 448.205 16.2017 448.209 16.1643L446.085 16.2017C446.085 16.2017 446.087 17.1157 446.745 18.8315C447.405 20.5529 448.326 21.2669 448.863 21.3659C449.07 21.4033 449.599 21.3678 449.607 21.179C449.616 20.9248 448.769 19.6726 448.749 17.9455L448.751 17.9493Z" fill="#B6D3F2"/>
<path d="M450.13 7.89747C447.001 8.22829 444.723 8.28436 443.947 8.29558C443.871 8.2881 443.796 8.28249 443.717 8.28249C442.013 8.28249 440.63 10.0861 440.63 12.3103C440.63 14.5345 441.979 16.2914 443.654 16.3363C443.654 16.3363 443.667 16.3363 443.689 16.3363C443.699 16.3363 443.708 16.3363 443.717 16.3363C443.751 16.3363 443.785 16.3344 443.818 16.3325C444.383 16.325 446.413 16.3232 449.973 16.6185C454.999 17.0353 459.554 18.1268 459.554 18.1268V6.28821C459.554 6.28821 455.603 7.31806 450.13 7.8956V7.89747Z" fill="#D2E6FF"/>
<path d="M442.977 12.2729C442.977 10.3814 443.899 8.78527 445.166 8.26193C444.614 8.28249 444.2 8.29184 443.947 8.29371C443.871 8.28623 443.796 8.28062 443.717 8.28062C442.013 8.28062 440.63 10.0843 440.63 12.3084C440.63 14.5326 441.979 16.2895 443.654 16.3344C443.654 16.3344 443.667 16.3344 443.689 16.3344C443.699 16.3344 443.708 16.3344 443.717 16.3344C443.751 16.3344 443.785 16.3325 443.818 16.3307C444.059 16.3269 444.568 16.325 445.349 16.3475C443.99 15.9082 442.977 14.2523 442.977 12.2711V12.2729Z" fill="#B6D3F2"/>
<path d="M460.617 19.4202C462.813 19.4202 464.593 16.191 464.593 12.2075C464.593 8.22407 462.813 4.99484 460.617 4.99484C458.422 4.99484 456.642 8.22407 456.642 12.2075C456.642 16.191 458.422 19.4202 460.617 19.4202Z" fill="#E6F2FF"/>
<path d="M464.241 12.2075C464.241 15.8148 462.737 18.7399 460.879 18.7399C459.021 18.7399 457.517 15.8148 457.517 12.2075C457.517 8.60023 459.021 5.67516 460.879 5.67516C462.737 5.67516 464.241 8.60023 464.241 12.2075Z" fill="#A7CAEA"/>
<path d="M460.879 10.202L457.517 9.45813C457.517 9.45813 456.989 10.3684 456.874 12.101C456.756 13.8336 457.341 14.9588 457.341 14.9588L460.879 14.2579V10.2039V10.202Z" fill="#86B7DB"/>
<path d="M461.924 12.2168C461.905 13.3363 461.421 14.2391 460.845 14.2335C460.27 14.2279 459.817 13.3158 459.836 12.1962C459.855 11.0766 460.339 10.1739 460.914 10.1795C461.49 10.1851 461.942 11.0972 461.924 12.2168Z" fill="#D2E6FF"/>
<path d="M432.647 0.0490897C432.647 0.0490897 426.879 -0.881699 426.004 5.36282C425.445 9.34952 427.142 11.3943 426.509 13.1755C425.526 15.9398 424.782 18.0388 425.101 19.235C425.421 20.4312 425.154 20.5097 425.154 20.5097L427.944 22.8217C427.944 22.8217 436.394 22.2628 437.271 20.1116C438.147 17.9584 432.168 0.342533 432.168 0.342533" fill="#515151"/>
<path d="M441.928 48.0729C441.928 48.0729 439.757 39.6454 440.68 31.6121C441.244 26.6965 441.097 25.2443 439.822 20.7828C438.547 16.3195 436.209 17.882 432.17 17.4353C428.131 16.9886 424.305 15.428 424.942 21.0052C425.58 26.5825 427.636 31.7112 427.425 36.8436C427.211 41.9761 426.957 47.4505 426.957 47.4505C426.957 47.4505 429.525 49.7065 434.133 48.8542C439.826 47.8001 439.79 47.9402 441.93 48.0748L441.928 48.0729Z" fill="#5287E0"/>
<path d="M436.473 1.53879C436.473 1.53879 439.581 7.75714 438.306 11.5027C437.032 15.2502 438.091 15.482 439.502 17.5342C441.256 20.0854 440.512 25.4534 440.512 25.4534L437.032 25.5338C437.032 25.5338 437.43 20.1135 436.314 18.3584C435.198 16.6053 434.321 13.8951 434.878 11.1046C435.437 8.31412 436.153 1.61916 436.153 1.61916" fill="#515151"/>
<path d="M430.1 9.43204C430.1 9.43204 430.728 12.23 430.617 14.5813C430.565 15.6803 430.208 17.6353 430.208 17.6353C430.208 17.6353 432.355 19.5866 434.337 19.4745C435.703 19.3979 435.196 18.0484 435.196 18.0484C435.196 18.0484 434.593 15.8765 434.239 13.3458C433.998 11.6244 433.808 10.3385 433.808 10.3385L430.098 9.43204H430.1Z" fill="#FFAAB8"/>
<path d="M434.161 12.8262C434.161 12.8262 434.06 13.8972 432.806 13.344C431.451 12.7459 430.254 9.7834 430.254 9.7834L434.161 12.8262Z" fill="#EF8FA4"/>
<path d="M434.597 13.1178C432.322 13.0599 429.427 10.1236 429.32 6.64152C429.216 3.15946 430.935 0.881083 433.541 1.0493C436.811 1.2605 438.224 3.88092 438.013 6.94244C437.802 10.0077 436.206 13.1608 434.595 13.1197L434.597 13.1178Z" fill="#FFAAB8"/>
<path d="M430.839 2.90152C430.312 4.07155 430.127 6.19667 429.742 6.62095C429.359 7.04522 429.311 6.88635 429.359 8.00218C429.408 9.11801 427.825 8.00218 427.968 6.51441C428.112 5.02664 428.4 3.27346 428.879 2.63425C429.359 1.9969 430.839 2.89965 430.839 2.89965V2.90152Z" fill="#515151"/>
<path d="M437.563 1.30723C438.822 2.78191 438.707 5.69203 438.707 5.69203C438.707 5.69203 436.094 5.21356 433.888 5.21356C431.683 5.21356 429.804 5.45279 429.804 5.45279C429.804 5.45279 429.315 0.511005 432.335 0.111027C435.172 -0.262785 436.744 0.350268 437.561 1.30723H437.563Z" fill="#515151"/>
<path d="M435.434 9.02081H434.294V8.58158H434.963L434.819 6.53122L435.258 6.49945L435.434 9.02081Z" fill="#C72471"/>
<path d="M429.851 6.67327C429.851 6.67327 429.142 5.80229 428.735 6.49758C428.328 7.19287 428.7 8.77035 429.466 8.90119C430.232 9.03202 430.529 8.64326 430.529 8.64326L429.851 6.67327Z" fill="#FFAAB8"/>
<path d="M433.552 6.47329C433.552 6.47329 433.34 6.14994 432.993 6.14994C432.645 6.14994 432.484 6.3462 432.477 6.35367L432.124 6.092C432.135 6.07705 432.408 5.70885 432.993 5.70885C433.578 5.70885 433.91 6.21536 433.923 6.23779L433.552 6.47142L433.738 6.35554L433.553 6.47329H433.552Z" fill="#C72471"/>
<path d="M437.204 6.67704C437.194 6.66583 436.991 6.41537 436.632 6.41537C436.273 6.41537 436.108 6.57611 436.101 6.58359L435.778 6.28828C435.806 6.2565 436.071 5.97801 436.632 5.97801C437.192 5.97801 437.536 6.39108 437.549 6.40977L437.202 6.67891L437.204 6.67704Z" fill="#C72471"/>
<path d="M435.695 10.2245C435.763 10.3609 435.578 10.9217 434.959 10.9534C434.308 10.9852 433.477 10.1759 433.75 10.0226C434.021 9.86938 433.981 10.189 434.778 10.2301C435.357 10.2619 435.628 10.0881 435.695 10.2245Z" fill="white"/>
<path d="M431.585 28.7039C431.539 28.7039 431.492 28.702 431.443 28.6964C429.503 28.4815 428.881 24.8742 428.855 24.7209L428.815 24.491L433.062 24.0443L433.083 24.2667C433.094 24.3938 433.355 27.4067 432.359 28.3843C432.14 28.5973 431.881 28.7057 431.585 28.7057V28.7039ZM429.333 24.8779C429.498 25.6498 430.128 28.1076 431.492 28.259C431.712 28.2833 431.896 28.2217 432.053 28.0684C432.699 27.4348 432.722 25.4704 432.662 24.5265L429.333 24.8779Z" fill="white"/>
<path d="M448.345 17.1942C448.009 17.4035 447.252 18.7063 447.547 19.1268C447.84 19.5474 448.052 19.7156 448.64 19.5044C449.229 19.295 449.102 18.5792 449.061 18.0334C449.018 17.4877 448.683 16.983 448.347 17.1923L448.345 17.1942Z" fill="#FFAAB8"/>
<path d="M446.725 17.8147C446.803 17.9699 446.569 18.1269 446.607 18.3998C446.646 18.6726 447.153 19.6857 447.153 19.6857C447.153 19.6857 446.255 18.867 446.216 18.282C446.177 17.697 446.723 17.8147 446.723 17.8147H446.725Z" fill="#FFAAB8"/>
<path d="M424.459 36.5969C424.573 34.468 425.668 30.7748 426.761 26.4404L421.806 25.618C421.806 25.618 420.476 31.713 420.717 37.2716C420.958 42.8302 421.808 47.9813 422.104 49.6466C422.143 50.4373 422.279 52.497 422.705 53.5548C423.29 55.0127 424.285 54.9492 424.285 54.4426C424.285 53.9361 423.817 51.1475 424.109 51.5288C424.401 51.9082 424.812 53.5567 424.87 52.4783C424.916 51.6297 424.165 50.0391 423.844 49.3999C423.931 47.4486 424.216 41.1779 424.46 36.595L424.459 36.5969Z" fill="#FFAAB8"/>
<path d="M426.501 17.0372C428.352 17.6933 427.376 23.5004 426.858 28.4217L420.874 27.1713C422.113 21.5323 424.862 16.456 426.503 17.0372H426.501Z" fill="#3C71CC"/>
<path d="M139.194 113.679C139.194 113.679 138.175 114.086 137.463 114.391C136.751 114.696 135.317 116.17 136.437 117.29C137.556 118.409 139.194 117.955 139.704 116.836C140.212 115.716 140.62 115.105 140.62 115.105L139.194 113.679Z" fill="#FEBEAD"/>
<path d="M165.897 181.088L165.774 178.787C165.774 178.787 163.221 178.471 163.034 178.627C162.761 178.853 162.679 181.497 162.679 181.497C162.679 181.497 164.163 182.172 164.725 181.851C165.29 181.527 165.895 181.088 165.895 181.088H165.897Z" fill="#FEBEAD"/>
<path d="M162.716 180.38C162.716 180.38 157.116 181.292 156.81 182.729C156.503 184.168 165.045 183.376 165.045 183.376L165.962 181.008C165.962 181.008 164.873 181.696 164.452 181.582C163.748 181.391 162.718 180.378 162.718 180.378L162.716 180.38Z" fill="#5287E0"/>
<path d="M169.115 180.978L170.785 176.864C170.785 176.864 173.414 177.731 173.306 177.946C173.198 178.163 172.198 180.486 172.198 180.486C172.198 180.486 171.024 181.888 170.398 181.714C169.906 181.578 169.115 180.978 169.115 180.978Z" fill="#FEBEAD"/>
<path d="M172.287 180.363C172.287 180.363 177.863 181.417 178.134 182.862C178.405 184.307 169.885 183.299 169.885 183.299L169.028 180.909C169.028 180.909 170.1 181.625 170.523 181.522C171.231 181.348 172.287 180.363 172.287 180.363Z" fill="#5287E0"/>
<path d="M175.452 121.876H158.772V82.8169L168.478 81.4675L173.831 86.7214L175.452 121.876Z" fill="#EBF8FC"/>
<path d="M156.425 119.645C156.425 119.645 153.326 135.016 155.309 150.51C157.292 166.005 162.529 179.363 162.529 179.363L166.217 179.58C166.217 179.58 164.357 154.974 164.977 146.421C165.598 137.868 167.332 133.653 167.332 133.653C167.332 133.653 171.424 141.462 172.042 152.123C172.663 162.785 170.244 177.412 170.244 177.412L173.033 179.395C173.033 179.395 182.548 158.456 180.842 143.819C179.128 129.115 175.782 119.151 175.782 119.151L156.423 119.647L156.425 119.645Z" fill="#515151"/>
<path d="M138.45 113.54C138.45 113.54 145.511 102.083 149.048 93.8313C151.279 88.6259 153.386 81.1572 165.781 80.9703C178.224 80.7834 175.697 88.1119 184.036 87.4802C190.382 86.9998 191.795 77.8938 191.795 77.8938L194.398 78.761C194.398 78.761 193.191 93.1098 186.836 94.9359C181.13 96.5769 176.689 96.0909 176.689 96.0909C176.689 96.0909 176.689 101.668 177.433 106.627C178.177 111.585 180.47 122.463 180.47 122.463L174.893 123.392C174.521 123.516 170.349 105.758 170.121 96.9582C169.873 87.4129 170.742 82.3309 165.288 82.0842C159.215 81.8076 160.824 87.5381 162.189 96.7115C163.482 105.418 158.346 124.695 158.346 124.695L152.397 122.835C152.397 122.835 155.247 112.578 155.372 105.388C155.496 98.1974 155.249 96.2461 155.249 96.2461C155.249 96.2461 152.645 102.289 148.307 108.115C143.969 113.94 140.745 115.677 140.745 115.677L138.452 113.539L138.45 113.54Z" fill="#5287E0"/>
<path d="M191.425 75.507C191.425 75.507 190.774 78.1106 191.518 78.761C192.262 79.4115 193.935 79.2264 194.4 78.761C194.866 78.2956 194.122 75.507 193.935 74.95C193.748 74.393 191.425 75.507 191.425 75.507Z" fill="#FEBEAD"/>
<path d="M167.788 83.6842C167.788 83.6842 167.424 81.4469 167.242 79.8788C167.061 78.3125 167.061 76.9686 167.061 76.9686L163.693 76.8565C163.693 76.8565 163.368 78.9797 163.095 80.6581C162.822 82.3366 162.418 83.9066 162.418 83.9066C162.418 83.9066 163.785 85.0261 165.695 84.8019C167.607 84.5776 167.788 83.6823 167.788 83.6823V83.6842Z" fill="#FEBEAD"/>
<path d="M167.2 78.6321C167.2 78.6321 167.063 80.4974 165.561 80.361C164.058 80.2245 163.467 78.0396 163.467 78.0396L167.2 78.6321Z" fill="#F26B6B"/>
<path d="M170.28 70.3036C170.28 70.3036 170.285 71.6979 169.876 72.7894C169.467 73.881 168.373 74.1557 168.373 74.1557L168.237 70.47L170.28 70.3055V70.3036Z" fill="#515151"/>
<path d="M161.301 73.8324C161.301 73.8324 158.695 70.0961 160.364 67.9355C162.331 65.388 164.187 65.2048 166.508 66.1599C168.829 67.115 167.327 68.4813 167.327 68.4813L161.301 73.8324Z" fill="#515151"/>
<path d="M166.385 79.0358C164.787 79.3946 162.346 78.077 161.299 73.8323C160.254 69.5896 161.566 67.9355 164.011 67.6271C168.274 67.0869 169.682 70.4213 169.611 72.7913C169.532 75.365 167.983 78.6769 166.385 79.0358Z" fill="#FEBEAD"/>
<path d="M163.011 67.7953C163.011 67.7953 165.101 63.5039 168.547 66.3599C171.134 68.5037 172.162 69.0532 172.162 69.0532C172.162 69.0532 169.736 71.4157 167.271 70.5615C164.805 69.7055 163.011 67.7953 163.011 67.7953Z" fill="#515151"/>
<path d="M163.777 66.5785C163.777 66.5785 161.865 65.7019 160.774 68.4775C159.682 71.2512 160.774 73.4417 160.774 73.4417C160.774 73.4417 161.183 72.4193 162.959 70.2288C164.734 68.0383 163.777 66.5785 163.777 66.5785Z" fill="#515151"/>
<path d="M166.125 77.0098C166.561 77.0098 166.873 76.7743 166.888 76.763L166.802 76.6528C166.802 76.6528 166.374 76.9742 165.852 76.8359C165.323 76.6958 165.015 76.1799 165.013 76.1743L164.893 76.2453C164.906 76.2696 165.232 76.8172 165.818 76.9724C165.925 77.0004 166.03 77.0116 166.127 77.0116L166.125 77.0098Z" fill="#F26B6B"/>
<path d="M165.817 75.2883L166.704 75.236L166.555 73.4828L166.417 73.4959L166.555 75.1052L165.809 75.15L165.817 75.2883Z" fill="#F26B6B"/>
<path d="M164.215 72.9258C164.222 72.9109 164.385 72.5577 164.744 72.5577C165.103 72.5577 165.269 72.8305 165.275 72.8418L165.396 72.7726C165.389 72.7576 165.189 72.4193 164.744 72.4193C164.299 72.4193 164.097 72.853 164.088 72.8698L164.215 72.9258Z" fill="#F26B6B"/>
<path d="M168.318 73.1034L168.448 73.0567C168.441 73.0343 168.245 72.5109 167.791 72.5109C167.336 72.5109 167.144 72.9427 167.135 72.9614L167.262 73.0174C167.269 73.0025 167.432 72.6492 167.791 72.6492C168.149 72.6492 168.316 73.0997 168.316 73.1034H168.318Z" fill="#F26B6B"/>
<path d="M161.925 72.2212C161.925 72.2212 161.421 71.7241 160.81 71.9988C160.206 72.2698 160.183 73.4286 160.72 74.1426C161.084 74.6286 161.748 74.5893 161.748 74.5893L161.927 72.2212H161.925Z" fill="#FEBEAD"/>
<path d="M161.667 97.274C161.66 97.2535 160.856 95.1676 159.809 92.8163C158.591 90.0744 157.116 88.5829 157.101 88.568L157.03 88.4969L159.108 86.7251L156.613 85.4466L156.649 85.3663C156.669 85.3195 157.176 84.2131 158.91 82.9739C160.647 81.7347 162.716 81.5328 162.736 81.531L162.753 81.716C162.733 81.7179 160.712 81.9141 159.019 83.1253C157.587 84.1477 157.006 85.0915 156.858 85.3644L159.441 86.6877L157.303 88.5119C157.613 88.8446 158.899 90.3099 159.979 92.7435C161.028 95.1003 161.834 97.1899 161.841 97.2105L161.667 97.2778V97.274Z" fill="white"/>
<path d="M170.648 96.3862L170.465 96.3563C170.469 96.332 170.846 93.9714 171.523 92.1846C172.126 90.594 173.272 88.938 173.528 88.5773L171.422 86.854L173.474 86.1494C173.381 85.9195 173.016 85.1906 171.79 83.9159C170.276 82.3403 167.702 81.531 167.676 81.5235L167.73 81.3459C167.757 81.3534 170.375 82.1777 171.923 83.7869C173.472 85.398 173.674 86.1531 173.682 86.1849L173.702 86.2672L171.796 86.9232L173.781 88.5474L173.728 88.6184C173.715 88.6371 172.364 90.4894 171.695 92.2537C171.024 94.0219 170.65 96.3638 170.646 96.3881L170.648 96.3862Z" fill="white"/>
<path d="M155.277 96.6834L155.092 96.6797C155.092 96.6442 155.15 93.0612 154.784 90.4352C154.417 87.8129 153.559 85.6448 153.55 85.6223L153.722 85.5532C153.731 85.5756 154.599 87.7643 154.967 90.409C155.335 93.0519 155.279 96.6479 155.277 96.6834Z" fill="white"/>
<path d="M176.661 97.1208C176.661 97.089 176.474 93.9994 176.412 92.1603C176.351 90.3193 176.566 85.9681 176.568 85.9232L176.753 85.9326C176.751 85.9756 176.536 90.3193 176.598 92.1528C176.659 93.9901 176.844 97.0778 176.846 97.1077L176.661 97.1189V97.1208Z" fill="white"/>
<path d="M172.856 107.129L172.85 107.316L175.733 107.409L175.739 107.222L172.856 107.129Z" fill="white"/>
<path d="M172.282 74.0696L167.719 73.8173V72.2697L172.282 72.0174V74.0696Z" fill="#191970"/>
<path d="M187.189 75.4397L172.281 74.4977V71.5894L187.189 70.6474V75.4397Z" fill="#191970"/>
<path d="M197.882 76.1555L186.81 75.3873V70.6997L197.882 69.9315V76.1555Z" fill="#191970"/>
<path d="M187.337 70.382H186.664C186.631 70.382 186.604 70.4087 186.604 70.4418V75.6434C186.604 75.6764 186.631 75.7032 186.664 75.7032H187.337C187.37 75.7032 187.397 75.6764 187.397 75.6434V70.4418C187.397 70.4087 187.37 70.382 187.337 70.382Z" fill="#191970"/>
<path d="M172.618 71.5782H171.945C171.912 71.5782 171.885 71.605 171.885 71.638V74.4509C171.885 74.484 171.912 74.5108 171.945 74.5108H172.618C172.651 74.5108 172.678 74.484 172.678 74.4509V71.638C172.678 71.605 172.651 71.5782 172.618 71.5782Z" fill="#191970"/>
<path d="M168.056 72.2417H167.383C167.35 72.2417 167.323 72.2684 167.323 72.3015V73.7855C167.323 73.8185 167.35 73.8453 167.383 73.8453H168.056C168.089 73.8453 168.115 73.8185 168.115 73.7855V72.3015C168.115 72.2684 168.089 72.2417 168.056 72.2417Z" fill="#191970"/>
<path d="M199.407 73.0435C199.407 74.5219 198.725 75.72 197.882 75.72C197.039 75.72 196.357 74.5219 196.357 73.0435C196.357 71.5651 197.039 70.367 197.882 70.367C198.725 70.367 199.407 71.5651 199.407 73.0435Z" fill="#D2FDFF"/>
<path d="M197.882 70.367C198.725 70.367 199.407 71.5651 199.407 73.0435C199.407 74.5219 198.725 75.72 197.882 75.72C197.039 75.72 196.357 74.5219 196.357 73.0435C196.357 71.5651 197.039 70.367 197.882 70.367ZM197.882 69.9315C196.783 69.9315 195.921 71.2978 195.921 73.0435C195.921 74.7892 196.783 76.1555 197.882 76.1555C198.981 76.1555 199.842 74.7892 199.842 73.0435C199.842 71.2978 198.981 69.9315 197.882 69.9315Z" fill="#191970"/>
<path d="M196.91 73.0902C196.889 73.0902 196.867 73.0902 196.846 73.0846C196.641 73.0491 196.503 72.8547 196.538 72.6491C196.766 71.3221 197.45 70.7502 197.48 70.7259C197.643 70.595 197.88 70.6193 198.011 70.7801C198.142 70.9408 198.119 71.1763 197.96 71.309C197.934 71.3315 197.458 71.7539 197.284 72.7781C197.252 72.9613 197.093 73.0921 196.912 73.0921L196.91 73.0902Z" fill="white"/>
<path d="M545.465 65.8364C545.465 65.8364 545.801 64.586 546.36 64.2122C546.919 63.8365 547.031 62.4628 546.919 61.9619C546.807 61.461 546.136 61.5862 546.136 61.5862C545.689 61.5862 545.684 60.0854 544.794 60.0854C544.457 60.0854 542.108 60.2106 541.886 60.5863C541.661 60.9619 541.439 62.9618 541.886 63.4609C542.332 63.9599 542.893 65.7112 542.893 65.7112L545.467 65.8364H545.465Z" fill="#FEBEAD"/>
<path d="M554.04 98.7505C554.04 98.7505 547.041 93.9171 543.874 83.2523C540.708 72.5856 542.542 65.0869 542.542 65.0869H546.209C546.209 65.0869 547.042 79.2731 550.792 82.899C554.184 86.1792 556.978 87.024 558.479 87.4614C559.769 87.8371 560.374 92.0854 558.875 95.5862C557.375 99.0851 554.042 98.7524 554.042 98.7524L554.04 98.7505Z" fill="#0AEDC7"/>
<path d="M573.372 176.496L573.121 178.997L570.955 179.414L570.705 175.997L573.372 176.496Z" fill="#FEBEAD"/>
<path d="M564.359 179.52C565.746 179.182 568.333 178.844 569.342 178.165C570.352 177.489 571.234 177.741 571.234 177.741C571.234 177.741 571.107 178.333 572.118 178.503C573.127 178.674 573.505 177.741 573.505 177.741L573.699 180.535H563.404C563.462 180.124 563.688 179.683 564.359 179.518V179.52Z" fill="#6414E9"/>
<path d="M573.701 180.537L573.759 181.384H563.477C563.477 181.384 563.344 180.976 563.406 180.537H573.701Z" fill="#6414E9"/>
<path d="M561.621 176.496L561.372 178.997L559.206 179.414L558.956 175.997L561.621 176.496Z" fill="#FEBEAD"/>
<path d="M552.611 179.52C553.997 179.182 556.584 178.844 557.594 178.165C558.603 177.489 559.485 177.741 559.485 177.741C559.485 177.741 559.358 178.333 560.369 178.503C561.378 178.674 561.756 177.741 561.756 177.741L561.95 180.535H551.656C551.713 180.124 551.94 179.683 552.611 179.518V179.52Z" fill="#6414E9"/>
<path d="M561.952 180.537L562.01 181.384H551.728C551.728 181.384 551.595 180.976 551.657 180.537H561.952Z" fill="#6414E9"/>
<path d="M566.163 75.6489C565.225 75.3985 564.539 75.0247 562.851 75.3368C561.163 75.6489 560.539 78.9198 560.038 78.4207C559.539 77.9217 559.225 74.0247 561.225 72.5874C563.225 71.1501 569.163 72.2117 569.35 75.8377C569.536 79.4618 567.411 81.3365 566.662 81.8991C565.912 82.4616 565.6 82.2747 565.6 82.2747L566.163 75.6508V75.6489Z" fill="#515151"/>
<path d="M560.92 78.8395C560.92 78.8395 559.945 77.8395 559.648 78.4414C559.35 79.0432 560.096 80.5814 560.505 80.5459C560.915 80.5123 560.922 78.8376 560.922 78.8376L560.92 78.8395Z" fill="#FEBEAD"/>
<path d="M571.372 121.417C571.372 121.417 572.372 124.915 572.206 132.25C572.039 139.582 571.538 146.916 572.206 154.248C572.873 161.581 574.206 176.58 574.206 176.58H569.705C569.705 176.58 564.705 164.082 563.038 150.748C561.483 138.305 562.038 136.081 562.038 136.081C562.038 136.081 560.539 151.579 561.204 159.914C561.872 168.246 562.705 176.58 562.705 176.58H557.539C557.539 176.58 552.207 151.082 552.706 139.916C553.207 128.751 555.539 120.751 555.539 120.751L571.372 121.418V121.417Z" fill="#515151"/>
<path d="M574.538 88.9193C576.054 90.2444 573.205 99.9187 572.011 106.948C570.882 113.602 572.372 122.417 572.372 122.417C572.372 122.417 568.039 124.917 561.873 124.084C556.251 123.323 554.874 121.417 554.874 121.417C554.874 121.417 553.707 108.417 554.167 99.8271C554.588 91.9546 554.961 86.8726 559.042 87.5866C563.122 88.3006 573.024 87.596 574.54 88.9193H574.538Z" fill="#0AEDC7"/>
<path d="M566.464 81.4131C566.464 81.4131 565.931 83.7906 566.051 85.7961C566.107 86.7325 566.445 88.4016 566.445 88.4016C566.445 88.4016 564.548 90.0445 562.776 89.9286C561.555 89.8501 561.995 88.7062 561.995 88.7062C561.995 88.7062 562.512 86.8615 562.804 84.7083C563.002 83.243 563.161 82.1496 563.161 82.1496L566.464 81.4131Z" fill="#FEBEAD"/>
<path d="M569.976 116.333C568.789 116.394 567.475 116.645 567.475 116.645C567.475 117.269 568.976 117.269 568.976 117.269C568.976 117.269 567.539 117.331 567.475 117.768C567.413 118.206 569.099 117.955 569.099 117.955C569.099 117.955 567.537 118.331 567.537 118.705C567.537 119.078 569.475 118.766 569.475 118.766C569.475 118.766 567.725 119.204 567.787 119.579C567.851 119.955 570.288 119.83 571.35 119.454C572.411 119.078 572.912 118.955 572.912 118.955L572.725 116.393C572.725 116.393 571.976 115.267 571.85 114.705L571.725 114.142C571.725 114.142 571.475 115.955 571.101 116.079C570.725 116.204 569.976 116.329 569.976 116.329V116.333Z" fill="#FEBEAD"/>
<path d="M574.538 88.9193C574.538 88.9193 588.704 104.752 587.036 110.417C585.369 116.084 572.787 120.146 572.787 120.146L572.536 115.77C572.536 115.77 581.203 112.417 578.035 106.916C574.869 101.418 571.202 100.584 571.202 94.7507C571.202 88.9174 574.534 88.9174 574.534 88.9174L574.538 88.9193Z" fill="#0AEDC7"/>
<path d="M566.081 82.2112C566.081 82.2112 564.247 86.0446 563.414 85.8783C562.58 85.712 562.83 85.0877 562.83 85.0877L566.081 82.2131V82.2112Z" fill="#F26B6B"/>
<path d="M561.518 85.0952C559.034 84.3569 559.029 73.9425 563.886 74.1425C568.744 74.3425 567.86 78.1311 567.327 79.8618C566.794 81.5944 564.288 85.9194 561.518 85.0952Z" fill="#FEBEAD"/>
<path d="M565.705 72.6697C565.705 72.6697 564.569 75.148 562.871 75.92C560.122 77.1704 557.956 72.4211 557.956 72.4211C557.956 72.4211 559.373 72.9201 561.623 71.5875C564.099 70.1203 565.707 72.6715 565.707 72.6715L565.705 72.6697Z" fill="#515151"/>
<path d="M565.288 72.1706C565.288 72.1706 570.288 73.0865 569.204 77.503C568.424 80.6767 567.327 79.8618 567.327 79.8618C567.327 79.8618 565.454 77.8357 564.787 75.7536C564.12 73.6696 565.286 72.1706 565.286 72.1706H565.288Z" fill="#515151"/>
<path d="M562.658 81.5627L562.668 81.3589L561.862 81.3234L562.223 78.6825L562.021 78.6563L561.632 81.516L562.658 81.5627Z" fill="#F26B6B"/>
<path d="M566.83 79.5441C566.83 79.5441 568.08 78.9198 568.163 79.5852C568.247 80.2525 567.037 81.4599 566.664 81.2935C566.288 81.1272 566.83 79.5441 566.83 79.5441Z" fill="#FEBEAD"/>
<path d="M564.46 79.0245L564.619 78.8974C564.604 78.8787 564.254 78.447 563.8 78.4021C563.324 78.3554 563.09 78.7254 563.079 78.7404L563.251 78.8469C563.258 78.8357 563.436 78.5684 563.78 78.6021C564.15 78.6395 564.458 79.0189 564.46 79.0226V79.0245Z" fill="#F26B6B"/>
<path d="M561.455 78.6843L561.623 78.5703C561.61 78.5516 561.309 78.1142 560.915 78.0675C560.496 78.0189 560.292 78.3964 560.283 78.4114L560.461 78.5067C560.466 78.4955 560.614 78.2357 560.89 78.2675C561.143 78.2974 561.384 78.5777 561.455 78.6824V78.6843Z" fill="#F26B6B"/>
<path d="M562.955 82.4617C563.04 82.5869 562.748 83.628 562.122 83.5027C561.498 83.3775 561.455 82.7532 561.372 82.5028C561.288 82.2523 561.664 82.5439 562.206 82.5869C562.522 82.6112 562.955 82.4617 562.955 82.4617Z" fill="white"/>
<path d="M570.017 128.235C570.069 128.235 570.114 128.194 570.118 128.141L570.14 127.84C570.144 127.784 570.103 127.736 570.047 127.732C569.994 127.728 569.942 127.769 569.938 127.826L569.918 128.128C569.914 128.184 569.955 128.233 570.011 128.237C570.013 128.237 570.017 128.237 570.019 128.237L570.017 128.235Z" fill="white"/>
<path d="M572.314 174.935L572.202 174.33C572.192 174.275 572.228 174.221 572.284 174.212C572.338 174.202 572.392 174.238 572.402 174.294L572.512 174.898C572.523 174.952 572.486 175.006 572.432 175.015C572.426 175.015 572.419 175.017 572.413 175.017C572.364 175.017 572.323 174.984 572.314 174.935ZM572.129 173.928L572.02 173.322C572.011 173.268 572.047 173.216 572.103 173.204C572.157 173.195 572.211 173.231 572.22 173.287L572.329 173.89C572.338 173.945 572.303 173.997 572.247 174.008C572.241 174.008 572.235 174.008 572.228 174.008C572.179 174.008 572.138 173.974 572.129 173.924V173.928ZM571.948 172.92L571.841 172.315C571.832 172.26 571.867 172.208 571.923 172.197C571.977 172.186 572.03 172.223 572.041 172.279L572.148 172.883C572.157 172.937 572.121 172.991 572.065 173.001C572.06 173.001 572.054 173.001 572.047 173.001C571.998 173.001 571.955 172.967 571.948 172.917V172.92ZM571.77 171.913L571.665 171.307C571.656 171.253 571.693 171.201 571.748 171.191C571.802 171.18 571.854 171.219 571.863 171.274L571.968 171.877C571.977 171.932 571.94 171.984 571.886 171.995C571.88 171.995 571.875 171.995 571.869 171.995C571.82 171.995 571.777 171.961 571.77 171.911V171.913ZM571.596 170.905L571.493 170.3C571.484 170.244 571.521 170.193 571.576 170.184C571.628 170.175 571.682 170.212 571.691 170.266L571.794 170.872C571.804 170.926 571.766 170.978 571.712 170.99C571.706 170.99 571.701 170.99 571.695 170.99C571.647 170.99 571.604 170.954 571.596 170.905ZM571.424 169.898C571.391 169.7 571.357 169.498 571.323 169.292C571.314 169.238 571.351 169.186 571.406 169.177C571.46 169.167 571.512 169.205 571.521 169.261C571.555 169.466 571.589 169.668 571.622 169.866C571.632 169.92 571.594 169.973 571.54 169.982C571.535 169.982 571.529 169.982 571.523 169.982C571.475 169.982 571.432 169.947 571.424 169.898ZM571.256 168.889L571.157 168.283C571.148 168.227 571.185 168.177 571.241 168.167C571.295 168.156 571.348 168.195 571.357 168.251L571.456 168.857C571.465 168.911 571.428 168.963 571.374 168.973C571.368 168.973 571.363 168.973 571.357 168.973C571.308 168.973 571.265 168.937 571.258 168.889H571.256ZM571.09 167.879L570.992 167.274C570.983 167.218 571.021 167.167 571.077 167.158C571.131 167.15 571.183 167.186 571.192 167.242L571.29 167.848C571.299 167.902 571.262 167.954 571.206 167.964C571.2 167.964 571.194 167.964 571.189 167.964C571.14 167.964 571.097 167.928 571.09 167.879ZM570.927 166.87L570.832 166.265C570.822 166.21 570.862 166.158 570.916 166.149C570.968 166.139 571.022 166.177 571.032 166.233L571.127 166.838C571.136 166.893 571.097 166.945 571.043 166.954C571.037 166.954 571.032 166.954 571.026 166.954C570.978 166.954 570.935 166.919 570.927 166.868V166.87ZM570.768 165.859L570.675 165.253C570.665 165.197 570.705 165.147 570.759 165.138C570.815 165.13 570.865 165.167 570.875 165.222L570.968 165.827C570.978 165.883 570.938 165.934 570.884 165.943C570.878 165.943 570.873 165.943 570.869 165.943C570.821 165.943 570.778 165.908 570.77 165.857L570.768 165.859ZM570.613 164.848C570.583 164.646 570.551 164.444 570.521 164.24C570.514 164.184 570.551 164.134 570.607 164.126C570.662 164.117 570.714 164.156 570.721 164.212C570.751 164.416 570.781 164.618 570.813 164.818C570.822 164.874 570.783 164.924 570.729 164.934C570.723 164.934 570.718 164.934 570.714 164.934C570.665 164.934 570.622 164.898 570.615 164.848H570.613ZM570.462 163.837L570.372 163.229C570.364 163.173 570.402 163.123 570.458 163.115C570.51 163.108 570.564 163.145 570.572 163.201L570.66 163.809C570.667 163.865 570.63 163.915 570.574 163.923C570.568 163.923 570.564 163.923 570.559 163.923C570.51 163.923 570.467 163.887 570.46 163.837H570.462ZM570.314 162.825C570.284 162.624 570.256 162.42 570.228 162.218C570.221 162.162 570.258 162.112 570.314 162.104C570.368 162.097 570.421 162.134 570.428 162.19C570.456 162.392 570.486 162.596 570.514 162.797C570.521 162.854 570.484 162.904 570.428 162.911C570.422 162.911 570.419 162.911 570.413 162.911C570.364 162.911 570.321 162.876 570.314 162.825ZM570.172 161.811C570.144 161.607 570.116 161.405 570.088 161.201C570.08 161.145 570.12 161.095 570.174 161.087C570.23 161.078 570.28 161.119 570.288 161.173C570.316 161.377 570.344 161.579 570.372 161.783C570.379 161.839 570.342 161.889 570.286 161.897C570.28 161.897 570.277 161.897 570.271 161.897C570.221 161.897 570.178 161.859 570.172 161.809V161.811ZM570.034 160.796C570.006 160.592 569.979 160.39 569.953 160.188C569.946 160.132 569.985 160.082 570.041 160.074C570.095 160.067 570.148 160.106 570.155 160.162C570.181 160.364 570.207 160.568 570.236 160.77C570.243 160.826 570.204 160.876 570.15 160.884C570.146 160.884 570.14 160.884 570.136 160.884C570.086 160.884 570.043 160.846 570.037 160.796H570.034ZM569.901 159.783C569.875 159.579 569.849 159.377 569.824 159.173C569.817 159.117 569.856 159.067 569.912 159.061C569.966 159.054 570.019 159.093 570.024 159.149C570.049 159.351 570.075 159.555 570.101 159.757C570.108 159.813 570.069 159.863 570.013 159.871C570.009 159.871 570.004 159.871 570 159.871C569.95 159.871 569.907 159.833 569.899 159.783H569.901ZM569.774 158.768C569.75 158.564 569.725 158.36 569.701 158.158C569.695 158.102 569.735 158.052 569.789 158.046C569.847 158.041 569.895 158.08 569.901 158.134C569.925 158.336 569.95 158.54 569.974 158.743C569.981 158.8 569.94 158.85 569.886 158.856C569.882 158.856 569.878 158.856 569.873 158.856C569.822 158.856 569.779 158.818 569.772 158.768H569.774ZM569.654 157.751C569.63 157.547 569.608 157.344 569.585 157.142C569.579 157.086 569.619 157.037 569.675 157.03C569.731 157.024 569.779 157.063 569.787 157.119C569.809 157.321 569.832 157.525 569.856 157.729C569.862 157.785 569.822 157.833 569.766 157.841C569.763 157.841 569.759 157.841 569.755 157.841C569.705 157.841 569.66 157.803 569.654 157.751ZM569.542 156.734C569.52 156.529 569.499 156.325 569.479 156.123C569.473 156.067 569.514 156.018 569.568 156.013C569.619 156.005 569.673 156.048 569.679 156.102C569.699 156.304 569.72 156.508 569.742 156.712C569.748 156.768 569.708 156.816 569.652 156.822C569.649 156.822 569.645 156.822 569.641 156.822C569.591 156.822 569.546 156.783 569.54 156.732L569.542 156.734ZM569.439 155.716C569.419 155.51 569.4 155.306 569.381 155.104C569.376 155.048 569.417 155 569.473 154.994C569.529 154.989 569.578 155.03 569.583 155.086C569.602 155.288 569.621 155.491 569.641 155.695C569.647 155.751 569.606 155.8 569.55 155.805C569.546 155.805 569.542 155.805 569.54 155.805C569.488 155.805 569.445 155.766 569.439 155.714V155.716ZM569.346 154.697C569.327 154.489 569.312 154.286 569.295 154.084C569.292 154.028 569.333 153.979 569.389 153.976C569.445 153.968 569.493 154.013 569.497 154.069C569.512 154.271 569.529 154.475 569.548 154.68C569.553 154.736 569.512 154.785 569.456 154.79C569.452 154.79 569.451 154.79 569.447 154.79C569.394 154.79 569.351 154.751 569.346 154.699V154.697ZM569.265 153.676C569.25 153.469 569.237 153.265 569.224 153.063C569.221 153.007 569.264 152.959 569.32 152.957C569.381 152.949 569.424 152.996 569.426 153.052C569.439 153.252 569.452 153.456 569.467 153.663C569.471 153.719 569.43 153.768 569.374 153.772C569.372 153.772 569.368 153.772 569.366 153.772C569.314 153.772 569.269 153.731 569.265 153.678V153.676ZM569.2 152.654C569.194 152.548 569.189 152.443 569.183 152.34C569.178 152.241 569.174 152.14 569.17 152.039C569.168 151.983 569.211 151.936 569.267 151.934C569.323 151.934 569.37 151.976 569.372 152.032C569.376 152.133 569.381 152.232 569.385 152.331C569.391 152.434 569.394 152.538 569.402 152.643C569.406 152.699 569.363 152.746 569.307 152.749C569.305 152.749 569.303 152.749 569.301 152.749C569.247 152.749 569.204 152.708 569.2 152.654ZM569.153 151.632C569.146 151.43 569.138 151.226 569.133 151.019C569.133 150.963 569.176 150.916 569.232 150.914C569.288 150.916 569.335 150.957 569.336 151.011C569.342 151.219 569.35 151.422 569.357 151.622C569.359 151.678 569.316 151.725 569.26 151.727H569.256C569.202 151.727 569.157 151.684 569.155 151.63L569.153 151.632ZM569.122 150.609C569.116 150.407 569.112 150.202 569.108 149.996C569.108 149.94 569.151 149.895 569.208 149.893C569.256 149.899 569.31 149.936 569.31 149.993C569.314 150.2 569.318 150.404 569.323 150.606C569.323 150.662 569.28 150.708 569.224 150.708H569.222C569.168 150.708 569.123 150.665 569.122 150.609ZM569.103 149.587C569.101 149.385 569.097 149.179 569.097 148.974C569.097 148.918 569.142 148.873 569.198 148.871C569.254 148.871 569.299 148.916 569.299 148.972C569.299 149.178 569.303 149.383 569.305 149.585C569.305 149.641 569.26 149.686 569.206 149.688C569.15 149.688 569.105 149.643 569.105 149.589L569.103 149.587ZM569.094 148.565C569.094 148.381 569.094 148.196 569.094 148.013V147.952C569.094 147.895 569.138 147.851 569.194 147.851C569.251 147.851 569.295 147.895 569.295 147.952V148.011C569.295 148.196 569.295 148.381 569.295 148.563C569.295 148.619 569.251 148.664 569.194 148.664C569.138 148.664 569.094 148.619 569.094 148.563V148.565ZM569.194 147.643C569.138 147.643 569.094 147.598 569.094 147.542C569.094 147.338 569.094 147.135 569.097 146.929C569.097 146.873 569.148 146.836 569.2 146.828C569.256 146.828 569.301 146.875 569.301 146.931C569.301 147.137 569.299 147.34 569.297 147.544C569.297 147.6 569.252 147.645 569.196 147.645L569.194 147.643ZM569.2 146.621C569.144 146.621 569.099 146.574 569.099 146.518C569.099 146.314 569.103 146.111 569.107 145.905C569.107 145.849 569.146 145.804 569.209 145.806C569.265 145.806 569.31 145.853 569.308 145.909C569.305 146.114 569.303 146.318 569.301 146.522C569.301 146.578 569.256 146.623 569.2 146.623V146.621ZM569.213 145.598C569.157 145.598 569.112 145.552 569.114 145.496C569.118 145.292 569.122 145.086 569.125 144.883C569.125 144.826 569.166 144.78 569.228 144.783C569.284 144.783 569.329 144.83 569.327 144.886C569.323 145.092 569.32 145.296 569.316 145.499C569.316 145.555 569.269 145.598 569.215 145.598H569.213ZM569.232 144.576C569.176 144.576 569.131 144.529 569.133 144.473L569.146 143.86C569.146 143.804 569.193 143.767 569.249 143.761C569.305 143.761 569.35 143.81 569.348 143.864L569.335 144.477C569.335 144.531 569.288 144.576 569.234 144.576H569.232ZM569.256 143.552C569.2 143.552 569.157 143.503 569.157 143.449L569.174 142.834C569.174 142.778 569.222 142.735 569.279 142.735C569.335 142.735 569.378 142.784 569.378 142.84L569.361 143.453C569.361 143.507 569.314 143.552 569.26 143.552H569.258H569.256ZM569.284 142.529C569.228 142.529 569.185 142.481 569.185 142.425L569.204 141.812C569.206 141.756 569.254 141.709 569.308 141.714C569.365 141.714 569.407 141.763 569.406 141.819L569.387 142.432C569.387 142.486 569.34 142.529 569.286 142.529H569.282H569.284ZM569.316 141.509C569.26 141.509 569.217 141.46 569.219 141.404L569.239 140.793C569.241 140.737 569.286 140.692 569.344 140.696C569.4 140.698 569.443 140.744 569.441 140.801L569.421 141.412C569.421 141.466 569.374 141.509 569.32 141.509C569.32 141.509 569.318 141.509 569.316 141.509ZM569.351 140.49C569.295 140.488 569.252 140.442 569.254 140.386L569.277 139.773C569.279 139.716 569.32 139.673 569.381 139.675C569.437 139.677 569.48 139.724 569.479 139.78L569.456 140.393C569.454 140.447 569.409 140.49 569.355 140.49C569.355 140.49 569.353 140.49 569.351 140.49ZM569.391 139.47C569.335 139.468 569.292 139.421 569.294 139.365L569.32 138.752C569.322 138.696 569.372 138.649 569.424 138.655C569.48 138.657 569.523 138.705 569.522 138.76L569.495 139.373C569.493 139.427 569.449 139.47 569.394 139.47C569.394 139.47 569.393 139.47 569.391 139.47ZM569.434 138.447C569.378 138.445 569.335 138.399 569.336 138.343L569.365 137.73C569.366 137.674 569.411 137.631 569.469 137.632C569.525 137.634 569.568 137.683 569.566 137.737L569.54 138.35C569.538 138.404 569.494 138.447 569.439 138.447H569.436H569.434ZM569.479 137.427C569.422 137.425 569.379 137.376 569.383 137.322L569.411 136.709C569.413 136.653 569.464 136.608 569.518 136.614C569.574 136.616 569.617 136.664 569.613 136.72L569.585 137.333C569.583 137.388 569.538 137.431 569.484 137.431C569.484 137.431 569.48 137.431 569.479 137.431V137.427ZM569.527 136.406C569.471 136.403 569.428 136.356 569.432 136.3L569.462 135.687C569.465 135.631 569.508 135.588 569.568 135.591C569.624 135.595 569.667 135.642 569.664 135.698L569.634 136.311C569.632 136.365 569.587 136.406 569.533 136.406C569.533 136.406 569.529 136.406 569.527 136.406ZM569.578 135.386C569.522 135.382 569.479 135.335 569.482 135.279L569.514 134.666C569.518 134.61 569.566 134.569 569.621 134.571C569.677 134.575 569.72 134.621 569.716 134.677L569.684 135.291C569.682 135.345 569.637 135.386 569.583 135.386C569.583 135.386 569.579 135.386 569.578 135.386ZM569.632 134.365C569.576 134.362 569.533 134.315 569.536 134.259L569.57 133.651H569.671L569.57 133.646L569.772 133.663L569.738 134.27C569.735 134.324 569.692 134.365 569.637 134.365C569.637 134.365 569.634 134.365 569.632 134.365ZM569.688 133.345C569.632 133.341 569.589 133.294 569.593 133.238L569.628 132.625C569.632 132.569 569.682 132.528 569.735 132.53C569.791 132.534 569.834 132.58 569.83 132.636L569.794 133.25C569.791 133.304 569.748 133.345 569.693 133.345C569.693 133.345 569.69 133.345 569.688 133.345ZM569.748 132.324C569.692 132.321 569.649 132.274 569.652 132.218L569.69 131.605C569.693 131.549 569.735 131.508 569.796 131.509C569.852 131.513 569.893 131.56 569.892 131.616L569.854 132.229C569.85 132.283 569.807 132.324 569.753 132.324C569.751 132.324 569.75 132.324 569.748 132.324ZM569.809 131.304C569.753 131.3 569.71 131.252 569.714 131.197L569.751 130.584C569.755 130.528 569.798 130.489 569.858 130.489C569.914 130.493 569.957 130.541 569.953 130.595L569.916 131.209C569.912 131.263 569.867 131.304 569.815 131.304C569.813 131.304 569.811 131.304 569.809 131.304ZM569.873 130.283C569.817 130.28 569.776 130.231 569.779 130.177L569.819 129.564C569.822 129.508 569.875 129.468 569.925 129.47C569.981 129.474 570.022 129.523 570.021 129.577L569.981 130.19C569.978 130.244 569.933 130.285 569.88 130.285C569.879 130.285 569.877 130.285 569.873 130.285V130.283ZM569.938 129.263C569.882 129.259 569.841 129.21 569.845 129.154L569.886 128.541C569.89 128.485 569.942 128.446 569.994 128.448C570.05 128.452 570.092 128.5 570.088 128.556L570.047 129.169C570.043 129.224 569.998 129.263 569.946 129.263C569.944 129.263 569.942 129.263 569.938 129.263Z" fill="white"/>
<path d="M572.538 175.681C572.538 175.681 572.551 175.681 572.557 175.681C572.611 175.67 572.648 175.617 572.637 175.563L572.581 175.266C572.57 175.212 572.517 175.174 572.463 175.186C572.409 175.197 572.372 175.249 572.383 175.303L572.439 175.601C572.448 175.649 572.491 175.683 572.538 175.683V175.681Z" fill="white"/>
<path d="M571.146 128.33L570.656 127.971C570.611 127.938 570.602 127.874 570.634 127.829C570.667 127.784 570.731 127.775 570.776 127.807L571.265 128.166C571.31 128.199 571.32 128.263 571.288 128.308C571.267 128.334 571.237 128.349 571.206 128.349C571.185 128.349 571.165 128.343 571.146 128.33ZM570.331 127.732L569.841 127.373C569.796 127.34 569.787 127.276 569.819 127.231C569.852 127.186 569.916 127.177 569.961 127.209L570.451 127.568C570.495 127.601 570.505 127.665 570.473 127.71C570.452 127.736 570.422 127.751 570.391 127.751C570.37 127.751 570.35 127.745 570.331 127.732ZM569.516 127.134L569.026 126.775C568.981 126.742 568.972 126.678 569.004 126.633C569.038 126.588 569.101 126.579 569.146 126.611L569.636 126.97C569.68 127.003 569.69 127.067 569.658 127.112C569.637 127.138 569.608 127.153 569.576 127.153C569.555 127.153 569.535 127.147 569.516 127.134ZM568.701 126.536L568.647 126.497C568.602 126.463 568.593 126.401 568.624 126.355C568.658 126.31 568.72 126.3 568.767 126.332L568.821 126.371C568.866 126.405 568.875 126.469 568.843 126.513C568.823 126.54 568.793 126.555 568.761 126.555C568.74 126.555 568.72 126.549 568.701 126.536Z" fill="white"/>
</svg>
