<svg width="613" height="337" viewBox="0 0 613 337" fill="none" xmlns="http://www.w3.org/2000/svg">
<path d="M297.079 337C460.732 337 593.398 322.639 593.398 304.924C593.398 287.209 460.732 272.848 297.079 272.848C133.426 272.848 0.759766 287.209 0.759766 304.924C0.759766 322.639 133.426 337 297.079 337Z" fill="#5287E0" fill-opacity="0.22"/>
<path d="M416.095 302.719C416.095 302.719 409.77 296.207 411.947 292.498C414.125 288.79 417.797 300.465 417.797 300.465C417.797 300.465 415.894 286.658 419.838 286.42C423.781 286.179 419.838 300.465 419.838 300.465C419.838 300.465 421.302 297.134 422.729 296.927C424.156 296.72 423.751 299.751 421.198 302.719H416.095Z" fill="#FD696C"/>
<path d="M416.548 302.88C416.529 302.862 414.721 300.989 413.238 298.623C411.216 295.396 410.737 292.834 411.808 291.007C412.207 290.327 412.689 290.013 413.235 290.074C414.342 290.199 415.59 291.891 417.048 295.243C417.484 296.247 417.871 297.25 418.173 298.083C417.825 294.46 417.42 287.253 419.402 284.837C419.829 284.315 420.348 284.035 420.946 283.998C421.525 283.962 422.007 284.172 422.37 284.617C424.154 286.816 422.55 294.655 421.668 298.321C422.324 297.247 423.254 296.055 424.206 295.917C424.654 295.85 425.011 296.021 425.215 296.387C425.798 297.445 425.008 300.16 422.681 302.865L422.327 302.56C424.615 299.901 425.237 297.394 424.807 296.61C424.7 296.411 424.529 296.338 424.273 296.375C423.05 296.552 421.62 299.233 421.174 300.251L420.738 300.096C420.772 299.971 424.166 287.567 422.01 284.907C421.745 284.578 421.409 284.431 420.976 284.459C420.506 284.486 420.11 284.706 419.765 285.127C417.264 288.18 418.862 300.007 418.878 300.126L418.426 300.227C417.6 297.601 415.05 290.745 413.187 290.531C412.83 290.489 412.516 290.723 412.214 291.239C409.862 295.246 416.816 302.478 416.886 302.551L416.554 302.874L416.548 302.88Z" fill="#44393D"/>
<path d="M315.297 321.211C315.297 321.211 308.971 314.699 311.149 310.99C313.326 307.281 316.998 318.957 316.998 318.957C316.998 318.957 315.095 305.15 319.039 304.912C322.985 304.671 319.039 318.957 319.039 318.957C319.039 318.957 320.5 315.626 321.93 315.419C323.361 315.211 322.952 318.243 320.399 321.211H315.297Z" fill="#FD696C"/>
<path d="M315.748 321.372C315.73 321.354 313.921 319.481 312.439 317.114C310.417 313.888 309.938 311.326 311.009 309.499C311.408 308.819 311.887 308.508 312.436 308.566C313.543 308.691 314.791 310.383 316.248 313.735C316.685 314.739 317.072 315.742 317.374 316.575C317.026 312.951 316.621 305.744 318.603 303.329C319.03 302.807 319.548 302.527 320.146 302.49C320.726 302.45 321.208 302.664 321.571 303.109C323.355 305.308 321.751 313.143 320.869 316.813C321.525 315.739 322.455 314.546 323.407 314.409C323.855 314.345 324.212 314.513 324.413 314.879C324.996 315.94 324.206 318.652 321.879 321.357L321.525 321.052C323.812 318.392 324.434 315.885 324.004 315.102C323.898 314.903 323.727 314.83 323.471 314.867C322.248 315.044 320.817 317.724 320.372 318.74L319.936 318.585C319.969 318.46 323.364 306.055 321.208 303.396C320.942 303.066 320.607 302.92 320.174 302.948C319.704 302.975 319.308 303.195 318.963 303.615C316.462 306.665 318.06 318.493 318.075 318.615L317.624 318.716C316.797 316.09 314.248 309.233 312.384 309.02C312.033 308.98 311.713 309.209 311.411 309.728C309.06 313.735 316.014 320.967 316.084 321.04L315.751 321.363L315.748 321.372Z" fill="#44393D"/>
<path d="M193.302 307.315C193.302 307.315 186.977 300.803 189.154 297.095C191.332 293.386 195.004 305.061 195.004 305.061C195.004 305.061 193.101 291.254 197.045 291.016C200.988 290.775 197.045 305.061 197.045 305.061C197.045 305.061 198.506 301.731 199.936 301.523C201.363 301.316 200.958 304.347 198.405 307.315H193.302Z" fill="#FD696C"/>
<path d="M193.754 307.477C193.736 307.458 191.927 305.586 190.445 303.219C188.426 299.992 187.944 297.43 189.015 295.603C189.414 294.923 189.893 294.612 190.442 294.67C191.549 294.795 192.797 296.488 194.255 299.84C194.691 300.843 195.078 301.846 195.38 302.679C195.032 299.056 194.627 291.849 196.609 289.433C197.036 288.912 197.555 288.631 198.152 288.594C198.735 288.558 199.214 288.768 199.577 289.214C201.361 291.413 199.757 299.248 198.875 302.917C199.531 301.843 200.461 300.651 201.413 300.514C201.861 300.45 202.218 300.617 202.419 300.983C203.002 302.045 202.212 304.756 199.885 307.461L199.531 307.156C201.818 304.494 202.441 301.99 202.011 301.203C201.904 301.005 201.733 300.931 201.477 300.968C200.254 301.145 198.823 303.826 198.378 304.845L197.942 304.689C197.975 304.564 201.37 292.16 199.214 289.5C198.948 289.171 198.607 289.025 198.18 289.052C197.71 289.079 197.314 289.299 196.969 289.72C194.468 292.773 196.066 304.597 196.081 304.719L195.63 304.82C194.804 302.194 192.254 295.338 190.39 295.124C190.036 295.085 189.719 295.313 189.417 295.832C187.066 299.837 194.02 307.071 194.09 307.144L193.757 307.467L193.754 307.477Z" fill="#44393D"/>
<path d="M54.8834 308.239L41.2167 308.154C33.0307 309.163 25.9243 301.252 25.9243 291.129V47.4943C25.9243 37.4142 32.9697 29.518 41.1282 30.4573H58.034C65.18 31.2808 167.682 51.7825 167.682 60.6151V277.09C167.682 285.88 61.9928 307.361 54.8834 308.236V308.239Z" fill="#6414E9"/>
<path d="M172.065 294.118L58.1195 308.154C49.9335 309.163 42.8271 301.252 42.8271 291.129V47.4943C42.8271 37.4142 49.8725 29.518 58.0311 30.4573L171.977 43.5782C179.123 44.4016 184.588 51.7825 184.588 60.6151V277.09C184.588 285.88 179.174 293.24 172.068 294.115L172.065 294.118Z" fill="#6414E9"/>
<path d="M177.734 64.5556V260.401C177.734 268.355 172.955 275.013 166.675 275.806L109.51 283.019L66.0335 288.506C58.8022 289.418 52.5254 282.263 52.5254 273.101V52.6852C52.5254 43.5629 58.7503 36.423 65.9542 37.2709L143.633 46.4359L166.599 49.1443C172.04 49.7848 176.38 54.8415 177.469 61.3501C177.646 62.3871 177.734 63.4637 177.734 64.5586V64.5556Z" fill="#FF8F00"/>
<path d="M56.7289 308.379C53.7949 308.379 50.931 307.254 48.5337 305.137C44.8738 301.898 42.687 296.662 42.687 291.129V47.4943C42.687 41.9861 44.8555 36.7646 48.491 33.5225C51.2512 31.0643 54.6427 29.9236 58.0465 30.317L58.0129 30.5976C54.6915 30.2164 51.3763 31.3296 48.6771 33.733C45.1026 36.9202 42.9676 42.0623 42.9676 47.4943V291.126C42.9676 296.582 45.1178 301.74 48.7198 304.924C51.4373 307.327 54.7678 308.422 58.1014 308.014L58.1349 308.294C57.6652 308.352 57.1955 308.379 56.7259 308.379H56.7289Z" fill="#30262A"/>
<path d="M230.496 44.7829L214.987 48.9125C211.76 49.7726 209.842 53.0848 210.702 56.3116L214.831 71.8205C215.691 75.0474 219.004 76.9658 222.23 76.1057L226.159 75.0596C226.933 74.8522 227.751 75.1846 228.162 75.8708L232.31 82.7667L232.664 74.6326C232.698 73.8487 233.238 73.1747 233.997 72.9734L237.739 71.9761C240.966 71.116 242.884 67.8038 242.024 64.5769L237.895 49.068C237.035 45.8412 233.722 43.9228 230.496 44.7829Z" fill="#FFE500"/>
<path d="M232.488 52.1149C228.389 49.8 226.071 53.5179 225.18 55.4851C224.936 56.0249 224.28 56.2354 223.768 55.9365C223.146 55.5735 222.295 55.2258 221.49 55.0154C219.105 54.3963 216.286 55.1709 215.365 58.6235C214.508 61.8442 219.269 64.8026 223.167 66.5228C225.052 67.3524 227.108 67.9014 228.568 68.2216C229.688 68.4686 230.819 67.8648 231.237 66.7973C231.612 65.8365 232.393 63.8388 232.976 62.3718C234.616 58.2453 235.559 53.8473 232.488 52.1149Z" fill="#FD696C"/>
<path d="M416.453 0.406324L399.837 6.03345C396.378 7.20463 394.527 10.956 395.698 14.4147L401.325 31.0307C402.496 34.4893 406.248 36.3406 409.706 35.1695L413.915 33.7451C414.745 33.4646 415.66 33.7665 416.16 34.4832L421.183 41.7024L420.982 32.8027C420.964 31.9426 421.504 31.171 422.315 30.8965L426.322 29.5393C429.781 28.3681 431.632 24.6167 430.461 21.1581L424.834 4.54203C423.663 1.08341 419.912 -0.7679 416.453 0.403274V0.406324Z" fill="#FFE500"/>
<path d="M419.155 8.25988C414.516 6.03343 412.256 10.2545 411.427 12.4627C411.198 13.0696 410.499 13.3472 409.92 13.0574C409.215 12.7067 408.261 12.3895 407.367 12.2187C404.72 11.7155 401.703 12.7646 400.95 16.5984C400.246 20.1729 405.653 23.0582 410.03 24.6502C412.146 25.4188 414.428 25.8672 416.044 26.1142C417.282 26.3033 418.475 25.5622 418.853 24.3666C419.192 23.293 419.899 21.0544 420.43 19.4135C421.921 14.7959 422.629 9.9282 419.155 8.25988Z" fill="#FD696C"/>
<path d="M542.529 21.5149L517.703 16.6503C512.536 15.6377 507.528 19.0048 506.516 24.1714L501.651 48.9979C500.638 54.1644 504.005 59.1724 509.172 60.185L515.458 61.4172C516.696 61.6612 517.627 62.692 517.736 63.9517L518.847 76.5875L524.971 65.3058C525.562 64.217 526.792 63.6375 528.005 63.8754L533.995 65.0496C539.162 66.0622 544.17 62.6951 545.183 57.5285L550.047 32.7021C551.06 27.5355 547.693 22.5275 542.526 21.5149H542.529Z" fill="#FD696C"/>
<path d="M509.027 43.3067C512.647 38.7531 519.125 33.0376 528.104 34.5747C528.586 34.6571 529.053 34.349 529.181 33.8763L530.355 29.6094C530.581 28.7951 531.669 28.6395 532.112 29.3593L540.414 42.8553C540.731 43.3707 540.502 44.0478 539.938 44.2644L527.064 49.2266C526.35 49.5011 525.612 48.8759 525.768 48.1256L526.597 44.1424C526.71 43.6086 526.36 43.0871 525.823 42.9925C523.261 42.535 516.115 41.6658 510.231 44.7584C509.31 45.2434 508.374 44.1241 509.024 43.3097L509.027 43.3067Z" fill="#F7F0F7"/>
<path d="M382.681 36.9263L363.064 31.5004C358.983 30.372 354.759 32.7661 353.631 36.847L348.205 56.4641C347.076 60.5449 349.471 64.7691 353.552 65.8976L358.52 67.27C359.499 67.5415 360.182 68.426 360.191 69.4416L360.307 79.6467L365.913 70.9727C366.453 70.137 367.474 69.7466 368.435 70.0119L373.169 71.3204C377.25 72.4488 381.474 70.0546 382.602 65.9738L388.028 46.3567C389.156 42.2758 386.762 38.0517 382.681 36.9232V36.9263Z" fill="#FF8F00"/>
<path d="M376.337 46.07C377.097 43.3251 375.486 40.4826 372.738 39.7231C369.994 38.9637 367.151 40.5741 366.392 43.319C365.632 46.067 367.243 48.9065 369.987 49.6659C372.732 50.4253 375.575 48.815 376.334 46.067L376.337 46.07Z" fill="#F7F0F7"/>
<path d="M357.337 60.1668L375.45 65.1748C377.835 65.8336 380.071 63.7322 379.556 61.3136C378.818 57.858 376.429 53.5545 369.448 51.6239C362.467 49.6933 358.209 52.1577 355.8 54.744C354.113 56.5526 354.955 59.505 357.337 60.1638V60.1668Z" fill="#F7F0F7"/>
<path d="M360.964 40.5283L360.277 43.7643C360.213 44.0692 360.409 44.3712 360.714 44.4352L363.782 45.0849C364.087 45.1489 364.285 45.4509 364.218 45.7559C364.154 46.0609 363.852 46.2591 363.547 46.192L360.479 45.5424C360.174 45.4783 359.872 45.6735 359.808 45.9785L359.115 49.2511C359.051 49.5561 358.749 49.7543 358.444 49.6872L358.371 49.672C358.066 49.6079 357.868 49.306 357.935 49.001L358.627 45.7284C358.691 45.4234 358.496 45.1215 358.191 45.0574L355.123 44.4078C354.818 44.3437 354.62 44.0418 354.687 43.7368C354.751 43.4318 355.053 43.2336 355.358 43.3007L358.426 43.9503C358.731 44.0143 359.033 43.8191 359.097 43.5142L359.783 40.2782C359.847 39.9732 360.149 39.7749 360.454 39.842L360.528 39.8573C360.833 39.9213 361.031 40.2233 360.964 40.5283Z" fill="#F7F0F7"/>
<path d="M421.404 191.43C412.797 179.45 403.772 163.166 398.181 146.001C396.885 142.024 396.449 140.487 396.031 138.068C395.693 136.119 391.877 134.5 388.538 135.043C385.405 135.552 382.404 138.51 382.441 139.572C382.502 141.374 383.35 144.195 384.719 148.651C389.483 164.133 397.135 177.851 412.095 197.551L421.404 191.43Z" fill="#EA9A81"/>
<path d="M413.194 201.653C411.635 197.819 411.275 195.09 411.275 195.09C411.275 195.09 418.132 189.743 418.937 190.085C420.8 190.875 424.122 193.266 425.967 194.092C426.766 194.452 429.377 195.843 429.13 196.682C428.916 197.414 426.321 197.292 425.092 197.084C428.087 202.037 427.394 205.768 423.817 201.519C423.811 201.522 423.823 201.516 423.817 201.519C424.436 202.589 425.092 204.172 423.658 205.206C422.923 205.737 421.618 204.807 420.581 203.059C420.855 203.84 420.581 203.059 420.562 203.068C421.462 204.935 421.541 206.573 420.004 206.313C418.074 205.99 417.25 204.422 417.25 204.422C417.25 204.422 417.695 206.46 416.262 206.463C414.713 206.466 414.328 204.139 413.453 202.373C413.328 202.12 413.243 201.879 413.191 201.653H413.194Z" fill="#EA9A81"/>
<path d="M345.653 191.164C346.382 194.306 358.021 197.6 371.95 194.269C385.879 190.942 396.749 187.404 396.017 184.262C395.288 181.121 383.235 179.569 369.306 182.896C355.377 186.224 344.921 188.023 345.653 191.161V191.164Z" fill="#30262A"/>
<path d="M390.465 142.622C393.894 141.051 395.891 137.351 395.891 137.351C395.891 137.351 392.274 125.585 370.415 126.323C366.176 126.466 364.404 126.869 362.333 127.247C335.771 132.112 345.555 189.948 345.65 191.164C372.498 179.053 396.013 184.262 396.013 184.262C396.211 162.8 390.886 143.695 390.459 142.622H390.465Z" fill="#44393D"/>
<path d="M388.929 143.357C388.929 143.357 396.054 141.746 397.566 135.961C397.566 135.961 391.601 126.399 374.244 126.518L388.926 143.357H388.929Z" fill="#44393D"/>
<path d="M370.008 126.338C370.008 126.338 352.415 125.667 346.224 132.929L356.807 135.607L370.008 126.341V126.338Z" fill="#44393D"/>
<path d="M363.062 141.801C362.25 143.448 357.746 142.89 353.006 140.554C348.264 138.218 345.079 134.988 345.894 133.338C346.705 131.691 351.207 132.249 355.949 134.585C360.692 136.921 363.876 140.151 363.062 141.801Z" fill="#30262A"/>
<path d="M345.009 200.464C346.098 185.751 349.627 167.473 356.355 150.722C357.914 146.84 358.566 145.382 359.799 143.256C360.79 141.545 358.902 137.855 355.995 136.128C353.266 134.509 349.066 134.85 348.413 135.686C347.306 137.107 346.141 139.813 344.335 144.11C338.053 159.04 335.116 174.469 333.944 199.18L345.013 200.461L345.009 200.464Z" fill="#EA9A81"/>
<path d="M332.608 203.215C333.438 199.259 334.633 196.853 334.633 196.853C334.633 196.853 343.1 196.264 343.567 196.981C344.643 198.637 346.031 202.385 347.074 204.06C347.526 204.785 348.88 207.335 348.221 207.884C347.648 208.36 345.613 206.844 344.732 206.005C344.454 211.651 341.532 219.758 341.255 207.887C341.249 207.887 341.243 207.887 341.237 207.887C341.154 209.089 340.788 216.677 339.233 215.933C337.86 215.277 337.894 209.577 338.01 207.597C337.991 207.594 337.973 207.591 337.955 207.588C337.665 209.592 336.771 215.387 335.667 214.338C334.28 213.023 334.877 206.978 334.877 206.978C334.877 206.978 334.542 212.413 332.758 211.096C331.541 210.196 332.175 205.847 332.428 203.941C332.465 203.666 332.526 203.428 332.608 203.215Z" fill="#EA9A81"/>
<path d="M381.437 100.203C381.437 100.203 382.822 93.3927 376.783 92.2338C370.741 91.0748 371.714 95.8052 370.506 96.8819C369.299 97.9585 371.794 101.679 374.685 102.399C377.576 103.122 381.437 100.2 381.437 100.2V100.203Z" fill="#30262A"/>
<path d="M365.807 126.402C368.161 129.138 373.666 132.764 376.75 131.227C379.376 129.922 376.759 126.518 376.759 126.518C375.289 126.228 374.911 125.856 374.801 124.578L374.673 123.011L374.609 122.233L374.401 119.747L374.218 117.515L373.465 108.362L371.062 117.682L370.653 119.265L369.244 124.728C368.985 125.875 365.813 126.399 365.804 126.402H365.807Z" fill="#EA9A81"/>
<path d="M370.656 119.265C370.656 119.265 372.196 121.968 374.612 122.233L374.405 119.747C372.898 119.448 370.656 119.265 370.656 119.265Z" fill="#30262A"/>
<path d="M363.006 108.459C363.006 108.459 363.589 109.89 363.205 113.068C362.646 117.716 368.027 118.786 369.134 117.313C369.271 117.13 367.88 109.585 367.88 109.585L366.102 108.871L363.006 108.459Z" fill="#30262A"/>
<path d="M375.73 120.261C380.427 119.533 383.506 114.243 382.606 108.447C381.707 102.652 377.17 98.544 372.473 99.2729C367.776 100.002 364.697 105.291 365.596 111.087C366.495 116.883 371.032 120.99 375.73 120.261Z" fill="#EA9A81"/>
<path d="M376.225 101.167C376.039 101.527 378.216 106.718 368.414 109.557C358.611 112.4 362.738 99.3309 370.073 97.9127C380.668 95.8632 383.331 102.787 382.706 105.522C382.084 108.261 376.222 101.164 376.222 101.164L376.225 101.167Z" fill="#30262A"/>
<path d="M369.25 107.666C369.25 107.666 365.831 112.61 367.933 116.795C367.933 116.795 365.161 114.571 364.956 113.614C364.755 112.656 364.84 109.066 364.84 109.066L369.247 107.666H369.25Z" fill="#30262A"/>
<path d="M366.984 112.47C368.091 113.242 369.452 113.126 370.025 112.214C370.598 111.302 370.165 109.939 369.061 109.167C367.954 108.395 366.594 108.511 366.021 109.423C365.447 110.335 365.877 111.698 366.984 112.47Z" fill="#EA9A81"/>
<path d="M374.945 109.719C375 109.695 375.043 109.646 375.055 109.585C375.08 109.481 375.016 109.374 374.909 109.35C374.848 109.335 373.442 108.868 372.49 110.299C372.429 110.39 372.451 110.509 372.539 110.57C372.628 110.631 372.731 110.594 372.811 110.521C373.607 109.786 374.765 109.722 374.817 109.731C374.86 109.74 374.903 109.737 374.939 109.719H374.945Z" fill="#080435"/>
<path d="M373.744 112.083C373.802 112.546 374.119 112.888 374.458 112.848C374.793 112.806 375.022 112.397 374.964 111.933C374.906 111.47 374.589 111.128 374.25 111.168C373.915 111.21 373.686 111.619 373.744 112.083Z" fill="#080435"/>
<path d="M382.008 109.655C382.069 109.655 382.124 109.624 382.164 109.573C382.225 109.484 382.206 109.362 382.118 109.301C382.066 109.265 380.944 108.298 379.523 109.255C379.434 109.316 379.407 109.435 379.465 109.527C379.523 109.618 379.632 109.621 379.736 109.585C380.752 109.21 381.85 109.591 381.892 109.621C381.929 109.646 381.969 109.658 382.011 109.658L382.008 109.655Z" fill="#080435"/>
<path d="M379.999 111.384C379.874 111.836 380.039 112.272 380.365 112.363C380.691 112.452 381.057 112.162 381.182 111.711C381.307 111.259 381.143 110.823 380.816 110.732C380.49 110.64 380.124 110.933 379.999 111.384Z" fill="#080435"/>
<g opacity="0.3">
<path d="M370.095 110.012C369.705 112.623 370.848 115.307 372.648 116.008C374.447 116.709 376.222 115.163 376.613 112.552C377.003 109.942 375.859 107.258 374.06 106.556C372.26 105.855 370.485 107.401 370.095 110.012Z" fill="white"/>
</g>
<g opacity="0.3">
<path d="M378.821 110.244C378.726 112.833 379.964 115.392 381.587 115.956C383.209 116.52 384.6 114.883 384.695 112.293C384.789 109.704 383.551 107.145 381.928 106.581C380.306 106.016 378.915 107.654 378.821 110.244Z" fill="white"/>
</g>
<path d="M369.906 111.875C369.928 112.01 369.952 112.144 369.983 112.272C370.251 113.547 370.846 114.672 371.657 115.395C371.977 115.685 372.334 115.907 372.715 116.054C373.084 116.194 373.454 116.255 373.82 116.237C373.92 116.234 374.018 116.221 374.115 116.206C374.442 116.151 374.768 116.035 375.073 115.855C375.836 115.413 376.436 114.639 376.811 113.644C376.967 113.236 377.086 112.79 377.159 112.315C377.235 111.823 377.26 111.329 377.232 110.841C377.226 110.634 377.205 110.433 377.178 110.228C376.94 108.432 376.055 106.84 374.823 106.117C374.67 106.026 374.509 105.949 374.347 105.885C373.548 105.58 372.731 105.647 371.987 106.084C371.044 106.632 370.343 107.688 370.016 109.03C369.967 109.225 369.931 109.42 369.9 109.621C369.882 109.74 369.867 109.862 369.855 109.981C369.815 110.329 369.806 110.683 369.818 111.027C369.83 111.314 369.858 111.595 369.9 111.872L369.906 111.875ZM375.735 114.87C375.491 115.163 375.213 115.401 374.914 115.575C374.649 115.73 374.375 115.834 374.091 115.883C373.676 115.95 373.252 115.907 372.834 115.749C372.438 115.599 372.072 115.355 371.752 115.038C370.959 114.276 370.41 113.089 370.221 111.769C370.193 111.564 370.172 111.36 370.16 111.152C370.147 110.957 370.144 110.759 370.15 110.561C370.157 110.265 370.181 109.972 370.23 109.673C370.272 109.402 370.33 109.136 370.407 108.886C370.443 108.743 370.489 108.606 370.544 108.472C370.544 108.462 370.55 108.456 370.556 108.447C370.562 108.432 370.565 108.42 370.571 108.405C370.672 108.139 370.788 107.895 370.919 107.669C371.248 107.099 371.672 106.651 372.163 106.367C372.517 106.16 372.892 106.044 373.274 106.032C373.594 106.016 373.92 106.068 374.246 106.193C374.368 106.242 374.49 106.294 374.603 106.361C375.805 107.017 376.659 108.56 376.879 110.311C376.906 110.515 376.924 110.722 376.93 110.933C376.946 111.375 376.924 111.82 376.854 112.269C376.787 112.714 376.674 113.144 376.522 113.531C376.33 114.041 376.067 114.492 375.759 114.861C375.753 114.867 375.75 114.87 375.747 114.873L375.735 114.87Z" fill="#30262A"/>
<path d="M378.909 111.735C378.931 111.878 378.955 112.016 378.985 112.153C379.013 112.29 379.049 112.427 379.086 112.559C379.107 112.647 379.132 112.742 379.162 112.827C379.162 112.839 379.168 112.851 379.171 112.864C379.193 112.937 379.217 113.01 379.242 113.083C379.245 113.086 379.248 113.089 379.248 113.092C379.056 112.437 378.949 111.711 378.943 110.966C378.921 110.954 378.882 110.939 378.827 110.918C378.833 111.058 378.845 111.195 378.857 111.332C378.869 111.47 378.888 111.604 378.909 111.735ZM378.909 111.735C378.931 111.878 378.955 112.016 378.985 112.153C379.013 112.29 379.049 112.427 379.086 112.559C379.107 112.647 379.132 112.742 379.162 112.827C379.162 112.839 379.168 112.851 379.171 112.864C379.193 112.937 379.217 113.01 379.242 113.083C379.245 113.086 379.248 113.089 379.248 113.092C379.056 112.437 378.949 111.711 378.943 110.966C378.921 110.954 378.882 110.939 378.827 110.918C378.833 111.058 378.845 111.195 378.857 111.332C378.869 111.47 378.888 111.604 378.909 111.735ZM378.909 111.735C378.931 111.878 378.955 112.016 378.985 112.153C379.013 112.29 379.049 112.427 379.086 112.559C379.107 112.647 379.132 112.742 379.162 112.827C379.162 112.839 379.168 112.851 379.171 112.864C379.193 112.937 379.217 113.01 379.242 113.083C379.245 113.086 379.248 113.089 379.248 113.092C379.056 112.437 378.949 111.711 378.943 110.966C378.921 110.954 378.882 110.939 378.827 110.918C378.833 111.058 378.845 111.195 378.857 111.332C378.869 111.47 378.888 111.604 378.909 111.735ZM378.909 111.735C378.931 111.878 378.955 112.016 378.985 112.153C379.013 112.29 379.049 112.427 379.086 112.559C379.107 112.647 379.132 112.742 379.162 112.827C379.162 112.839 379.168 112.851 379.171 112.864C379.193 112.937 379.217 113.01 379.242 113.083C379.245 113.086 379.248 113.089 379.248 113.092C379.056 112.437 378.949 111.711 378.943 110.966C378.921 110.954 378.882 110.939 378.827 110.918C378.833 111.058 378.845 111.195 378.857 111.332C378.869 111.47 378.888 111.604 378.909 111.735ZM378.909 111.735C378.931 111.878 378.955 112.016 378.985 112.153C379.013 112.29 379.049 112.427 379.086 112.559C379.107 112.647 379.132 112.742 379.162 112.827C379.162 112.839 379.168 112.851 379.171 112.864C379.193 112.937 379.217 113.01 379.242 113.083C379.245 113.086 379.248 113.089 379.248 113.092C379.056 112.437 378.949 111.711 378.943 110.966C378.921 110.954 378.882 110.939 378.827 110.918C378.833 111.058 378.845 111.195 378.857 111.332C378.869 111.47 378.888 111.604 378.909 111.735ZM378.909 111.735C378.931 111.878 378.955 112.016 378.985 112.153C379.013 112.29 379.049 112.427 379.086 112.559C379.107 112.647 379.132 112.742 379.162 112.827C379.162 112.839 379.168 112.851 379.171 112.864C379.193 112.937 379.217 113.01 379.242 113.083C379.245 113.086 379.248 113.089 379.248 113.092C379.056 112.437 378.949 111.711 378.943 110.966C378.921 110.954 378.882 110.939 378.827 110.918C378.833 111.058 378.845 111.195 378.857 111.332C378.869 111.47 378.888 111.604 378.909 111.735ZM378.909 111.735C378.931 111.878 378.955 112.016 378.985 112.153C379.013 112.29 379.049 112.427 379.086 112.559C379.107 112.647 379.132 112.742 379.162 112.827C379.162 112.839 379.168 112.851 379.171 112.864C379.193 112.937 379.217 113.01 379.242 113.083C379.245 113.086 379.248 113.089 379.248 113.092C379.056 112.437 378.949 111.711 378.943 110.966C378.921 110.954 378.882 110.939 378.827 110.918C378.833 111.058 378.845 111.195 378.857 111.332C378.869 111.47 378.888 111.604 378.909 111.735ZM378.909 111.735C378.931 111.878 378.955 112.016 378.985 112.153C379.013 112.29 379.049 112.427 379.086 112.559C379.107 112.647 379.132 112.742 379.162 112.827C379.162 112.839 379.168 112.851 379.171 112.864C379.193 112.937 379.217 113.01 379.242 113.083C379.245 113.086 379.248 113.089 379.248 113.092C379.056 112.437 378.949 111.711 378.943 110.966C378.921 110.954 378.882 110.939 378.827 110.918C378.833 111.058 378.845 111.195 378.857 111.332C378.869 111.47 378.888 111.604 378.909 111.735ZM378.717 112.168C378.863 113.104 379.162 113.965 379.583 114.657H379.586V114.66C380.007 115.358 380.553 115.877 381.181 116.124C381.221 116.139 381.261 116.151 381.3 116.167C381.303 116.167 381.309 116.167 381.313 116.173C381.636 116.279 381.962 116.307 382.282 116.258C382.554 116.215 382.822 116.118 383.078 115.962C384.085 115.361 384.811 113.995 385.024 112.302C385.372 109.548 384.247 106.761 382.523 106.084C382.487 106.071 382.447 106.053 382.414 106.044H382.41C382.261 105.992 382.118 105.958 381.971 105.94C381.764 105.916 381.56 105.925 381.355 105.965C381.105 106.01 380.864 106.108 380.623 106.245C379.62 106.843 378.891 108.212 378.68 109.905C378.668 110.015 378.656 110.125 378.647 110.234C378.632 110.439 378.622 110.643 378.622 110.851C378.613 111.299 378.65 111.744 378.714 112.171L378.717 112.168ZM379.248 113.092C379.056 112.437 378.949 111.711 378.943 110.966C378.943 110.75 378.949 110.533 378.964 110.32C378.973 110.195 378.988 110.07 379.004 109.945C379.104 109.146 379.321 108.432 379.629 107.843C379.925 107.279 380.306 106.837 380.745 106.559C380.76 106.544 380.779 106.535 380.797 106.526C381.017 106.395 381.245 106.312 381.477 106.276C381.682 106.245 381.889 106.248 382.099 106.294C382.203 106.315 382.304 106.343 382.407 106.385C384.003 107.011 385.033 109.643 384.704 112.263C384.704 112.275 384.701 112.287 384.698 112.296C384.698 112.296 384.698 112.298 384.698 112.302C384.698 112.302 384.698 112.315 384.698 112.318C384.698 112.321 384.698 112.327 384.698 112.33C384.487 113.894 383.823 115.136 382.917 115.679C382.459 115.953 381.965 116.02 381.477 115.877C381.419 115.865 381.364 115.843 381.309 115.822C381.261 115.804 381.215 115.785 381.169 115.758C381.157 115.758 381.142 115.749 381.13 115.74C381.13 115.74 381.126 115.74 381.126 115.737C381.123 115.737 381.123 115.734 381.117 115.73C380.745 115.551 380.41 115.252 380.12 114.864C379.769 114.407 379.486 113.83 379.284 113.184C379.275 113.156 379.266 113.123 379.257 113.095L379.248 113.092ZM378.909 111.735C378.931 111.878 378.955 112.016 378.985 112.153C379.013 112.29 379.049 112.427 379.086 112.559C379.107 112.647 379.132 112.742 379.162 112.827C379.162 112.839 379.168 112.851 379.171 112.864C379.193 112.937 379.217 113.01 379.242 113.083C379.245 113.086 379.248 113.089 379.248 113.092C379.056 112.437 378.949 111.711 378.943 110.966C378.921 110.954 378.882 110.939 378.827 110.918C378.833 111.058 378.845 111.195 378.857 111.332C378.869 111.47 378.888 111.604 378.909 111.735ZM378.909 111.735C378.931 111.878 378.955 112.016 378.985 112.153C379.013 112.29 379.049 112.427 379.086 112.559C379.107 112.647 379.132 112.742 379.162 112.827C379.162 112.839 379.168 112.851 379.171 112.864C379.193 112.937 379.217 113.01 379.242 113.083C379.245 113.086 379.248 113.089 379.248 113.092C379.056 112.437 378.949 111.711 378.943 110.966C378.921 110.954 378.882 110.939 378.827 110.918C378.833 111.058 378.845 111.195 378.857 111.332C378.869 111.47 378.888 111.604 378.909 111.735ZM378.909 111.735C378.931 111.878 378.955 112.016 378.985 112.153C379.013 112.29 379.049 112.427 379.086 112.559C379.107 112.647 379.132 112.742 379.162 112.827C379.162 112.839 379.168 112.851 379.171 112.864C379.193 112.937 379.217 113.01 379.242 113.083C379.245 113.086 379.248 113.089 379.248 113.092C379.056 112.437 378.949 111.711 378.943 110.966C378.921 110.954 378.882 110.939 378.827 110.918C378.833 111.058 378.845 111.195 378.857 111.332C378.869 111.47 378.888 111.604 378.909 111.735ZM378.909 111.735C378.931 111.878 378.955 112.016 378.985 112.153C379.013 112.29 379.049 112.427 379.086 112.559C379.107 112.647 379.132 112.742 379.162 112.827C379.162 112.839 379.168 112.851 379.171 112.864C379.193 112.937 379.217 113.01 379.242 113.083C379.245 113.086 379.248 113.089 379.248 113.092C379.056 112.437 378.949 111.711 378.943 110.966C378.921 110.954 378.882 110.939 378.827 110.918C378.833 111.058 378.845 111.195 378.857 111.332C378.869 111.47 378.888 111.604 378.909 111.735ZM378.909 111.735C378.931 111.878 378.955 112.016 378.985 112.153C379.013 112.29 379.049 112.427 379.086 112.559C379.107 112.647 379.132 112.742 379.162 112.827C379.162 112.839 379.168 112.851 379.171 112.864C379.193 112.937 379.217 113.01 379.242 113.083C379.245 113.086 379.248 113.089 379.248 113.092C379.056 112.437 378.949 111.711 378.943 110.966C378.921 110.954 378.882 110.939 378.827 110.918C378.833 111.058 378.845 111.195 378.857 111.332C378.869 111.47 378.888 111.604 378.909 111.735ZM378.909 111.735C378.931 111.878 378.955 112.016 378.985 112.153C379.013 112.29 379.049 112.427 379.086 112.559C379.107 112.647 379.132 112.742 379.162 112.827C379.162 112.839 379.168 112.851 379.171 112.864C379.193 112.937 379.217 113.01 379.242 113.083C379.245 113.086 379.248 113.089 379.248 113.092C379.056 112.437 378.949 111.711 378.943 110.966C378.921 110.954 378.882 110.939 378.827 110.918C378.833 111.058 378.845 111.195 378.857 111.332C378.869 111.47 378.888 111.604 378.909 111.735ZM378.909 111.735C378.931 111.878 378.955 112.016 378.985 112.153C379.013 112.29 379.049 112.427 379.086 112.559C379.107 112.647 379.132 112.742 379.162 112.827C379.162 112.839 379.168 112.851 379.171 112.864C379.193 112.937 379.217 113.01 379.242 113.083C379.245 113.086 379.248 113.089 379.248 113.092C379.056 112.437 378.949 111.711 378.943 110.966C378.921 110.954 378.882 110.939 378.827 110.918C378.833 111.058 378.845 111.195 378.857 111.332C378.869 111.47 378.888 111.604 378.909 111.735Z" fill="#30262A"/>
<path d="M379.161 111.009C379.249 110.994 379.331 110.942 379.38 110.857C379.463 110.71 379.411 110.524 379.264 110.445C379.219 110.417 378.099 109.811 376.535 110.433C376.379 110.494 376.303 110.671 376.364 110.826C376.425 110.982 376.602 111.058 376.757 110.997C378.057 110.482 378.959 110.969 378.965 110.976C379.026 111.009 379.097 111.021 379.161 111.012V111.009Z" fill="#30262A"/>
<path d="M368.021 100.185C368.021 100.185 366.16 93.4873 360.253 95.2014C354.345 96.9154 356.105 100.13 356.776 102.195C357.276 103.735 360.103 105.882 363.007 105.211C365.91 104.54 368.021 100.182 368.021 100.182V100.185Z" fill="#30262A"/>
<path d="M365.24 121.577C365.204 121.577 365.167 121.568 365.137 121.547C365.051 121.489 365.027 121.373 365.085 121.284C365.137 121.208 366.357 119.4 368.69 118.448C368.784 118.408 368.897 118.454 368.937 118.552C368.977 118.649 368.931 118.759 368.833 118.799C366.607 119.708 365.411 121.477 365.399 121.495C365.362 121.55 365.301 121.58 365.24 121.58V121.577Z" fill="#30262A"/>
<path d="M377.354 117.371C376.326 117.371 375.322 116.917 375.255 116.886C375.203 116.862 375.182 116.804 375.206 116.752C375.231 116.7 375.289 116.679 375.341 116.703C375.365 116.716 377.808 117.817 378.869 116.569C378.906 116.526 378.97 116.523 379.013 116.557C379.055 116.594 379.061 116.658 379.025 116.7C378.592 117.21 377.97 117.371 377.357 117.371H377.354Z" fill="#020202"/>
<path d="M374.5 293.099C374.5 293.099 374.598 296.957 377.208 298.046C379.819 299.135 387.386 300.117 384.559 302.6C382.936 304.024 375.29 303.103 373.134 303.103C370.974 303.103 368.949 304.042 367.345 302.6C365.579 301.011 367.345 293.099 367.345 293.099C367.345 293.099 369.208 294.069 370.883 294.026C373.295 293.962 374.503 293.099 374.503 293.099H374.5Z" fill="#FF8F00"/>
<path d="M344.51 293.099C344.51 293.099 344.607 296.957 347.218 298.046C349.829 299.135 357.396 300.117 354.569 302.6C352.946 304.024 345.3 303.103 343.143 303.103C340.984 303.103 338.959 304.042 337.355 302.6C335.589 301.011 337.355 293.099 337.355 293.099C337.355 293.099 339.218 294.069 340.893 294.026C343.305 293.962 344.513 293.099 344.513 293.099H344.51Z" fill="#FF8F00"/>
<path d="M393.906 187.306C393.906 187.306 394.388 203.459 389.234 234.449C385.513 256.82 381.118 279.362 378.961 290.171C378.19 294.039 374.939 296.863 371.087 297.018L369.016 297.101C364.849 297.269 361.467 293.688 361.772 289.433L367.003 216.317C367.003 216.317 358.326 190.93 364.145 189.371C374.451 186.608 393.906 187.309 393.906 187.309V187.306Z" fill="#6414E9"/>
<path d="M378.281 189.996L349.221 291.602C348.005 295.853 344.488 298.769 340.48 298.842L338.733 298.876C334.609 298.952 331.456 294.801 332.209 290.284L348.105 194.812C348.337 193.678 349.106 192.775 350.112 192.461C355.562 190.75 378.818 185.794 378.281 189.996Z" fill="#6414E9"/>
<path d="M365.825 234.562C365.807 234.562 365.789 234.562 365.768 234.556C365.636 234.525 365.554 234.391 365.588 234.26L370.596 213.206C371.889 207.012 374.573 203.813 376.592 202.22C378.8 200.482 380.688 200.229 380.767 200.22C380.901 200.204 381.023 200.299 381.039 200.43C381.057 200.564 380.962 200.686 380.828 200.705C380.81 200.705 378.974 200.958 376.869 202.626C374.92 204.169 372.334 207.274 371.071 213.313L366.06 234.373C366.033 234.486 365.932 234.562 365.822 234.562H365.825Z" fill="#020202"/>
<path d="M191.784 190.32C188.569 187.081 187.035 184.47 187.035 184.47C187.035 184.47 191.628 176.25 192.586 176.265C194.797 176.302 199.162 177.354 201.373 177.431C202.331 177.464 205.551 177.8 205.664 178.751C205.762 179.578 203.102 180.52 201.779 180.816C206.915 184.595 212.758 192.366 201.434 185.214C201.431 185.22 201.425 185.226 201.422 185.232C202.501 186.059 208.513 190.661 206.869 191.643C205.417 192.506 200.979 189.386 199.189 188.044C199.174 188.06 199.162 188.075 199.146 188.09C200.851 189.609 204.874 193.382 203.218 193.751C201.141 194.217 196.197 190.911 196.197 190.911C196.197 190.911 202.422 195.273 200.098 196.105C198.512 196.673 193.998 192.363 192.357 190.939C192.122 190.734 191.933 190.527 191.784 190.32Z" fill="white"/>
<path d="M164.462 122.675C164.462 122.675 170.961 129.547 175.301 140.551C179.382 150.893 185.543 169.141 195.565 176.265L185.421 186.324C185.421 186.324 168.125 173.999 162.58 153.934C157.035 133.871 161.028 130.309 161.028 130.309L164.465 122.675H164.462Z" fill="#6414E9"/>
<path d="M62.8415 188.154C65.193 184.244 67.3493 182.118 67.3493 182.118C67.3493 182.118 76.4442 184.555 76.6638 185.489C77.1701 187.642 77.222 192.131 77.6855 194.294C77.8868 195.23 78.3504 198.435 77.4568 198.777C76.6791 199.076 75.1145 196.728 74.5045 195.517C72.0981 201.424 65.9982 208.994 70.1553 196.258C70.1492 196.258 70.14 196.255 70.1339 196.252C69.5971 197.502 66.6082 204.456 65.254 203.102C64.0615 201.906 65.9982 196.84 66.8613 194.776C66.843 194.766 66.8247 194.754 66.8064 194.745C65.7512 196.77 63.0825 201.595 62.3169 200.082C61.3562 198.182 63.3509 192.58 63.3509 192.58C63.3509 192.58 60.6486 199.683 59.2731 197.633C58.3337 196.233 61.405 190.801 62.384 188.865C62.5243 188.587 62.6799 188.352 62.8446 188.157L62.8415 188.154Z" fill="white"/>
<path d="M111.867 186.211C111.922 188.401 125.168 189.27 141.546 188.761C157.927 188.249 171.014 185.986 170.959 183.796C170.905 181.606 157.723 180.319 141.342 180.831C124.96 181.344 111.809 184.025 111.864 186.214L111.867 186.211Z" fill="#30262A"/>
<path d="M115.877 124.203C115.877 124.203 118.774 112.723 140.145 112.607C170.965 112.44 168.11 140.758 170.961 183.793C170.961 183.793 152.278 175.991 111.866 186.211C111.866 186.211 109.182 141.746 115.877 124.206V124.203Z" fill="#6414E9"/>
<path d="M107.721 123.16L121.943 130.282C121.943 130.282 153.171 137.171 161.284 135.833C169.397 134.497 171.724 133.03 171.724 133.03C171.724 133.03 164.983 116.103 147.626 113.095C146.248 112.857 144.814 112.702 143.332 112.607C140.84 112.446 138.342 112.458 135.908 112.754C116.001 115.185 107.718 123.157 107.718 123.157L107.721 123.16Z" fill="#6414E9"/>
<path d="M137.205 109.981L138.818 104.775L139.288 103.259L142.048 94.3473L142.411 103.213L142.627 108.536L142.698 110.219C142.743 111.363 143.442 111.604 144.29 112.595C144.634 112.998 146.833 115.438 144.335 116.542C141.227 117.914 135.414 115.834 133.203 113.11C133.221 113.107 136.68 111.665 137.202 109.981H137.205Z" fill="#EA9A81"/>
<path d="M149.154 90.9985C149.154 90.9985 149.718 93.1548 149.154 95.8601C148.59 98.5654 145.839 91.9165 145.839 91.9165L149.154 90.9985Z" fill="#30262A"/>
<path d="M142.87 107.137C147.208 106.567 150.167 101.867 149.48 96.6377C148.794 91.4086 144.721 87.6313 140.384 88.2008C136.047 88.7702 133.087 93.4709 133.774 98.7C134.46 103.929 138.533 107.706 142.87 107.137Z" fill="#EA9A81"/>
<path d="M142.044 97.2722C142.087 97.2447 142.115 97.202 142.118 97.1502C142.124 97.0617 142.06 96.9855 141.971 96.9763C141.919 96.9733 140.724 96.7567 140.12 98.0286C140.083 98.1079 140.114 98.2055 140.193 98.2451C140.272 98.2848 140.352 98.2421 140.41 98.1719C140.968 97.4826 141.904 97.2935 141.947 97.2966C141.983 97.2966 142.017 97.2905 142.044 97.2722Z" fill="#080435"/>
<path d="M141.349 99.3309C141.45 99.6999 141.749 99.9409 142.017 99.8677C142.286 99.7945 142.42 99.4346 142.319 99.0655C142.219 98.6965 141.92 98.4556 141.651 98.5288C141.383 98.6019 141.249 98.9618 141.349 99.3309Z" fill="#080435"/>
<path d="M147.984 96.7964C148.02 96.7903 148.054 96.7629 148.069 96.7171C148.096 96.6409 148.069 96.5433 148.008 96.5006C147.971 96.4762 147.148 95.7869 146.37 96.6866C146.321 96.7446 146.318 96.8422 146.367 96.9123C146.416 96.9794 146.486 96.9764 146.544 96.9367C147.136 96.5433 147.874 96.7598 147.904 96.7812C147.929 96.7995 147.956 96.8056 147.984 96.7995V96.7964Z" fill="#080435"/>
<path d="M146.519 98.4403C146.47 98.8216 146.656 99.157 146.934 99.1906C147.208 99.2241 147.471 98.9436 147.519 98.5654C147.568 98.1841 147.382 97.8486 147.105 97.8151C146.83 97.7815 146.568 98.0621 146.519 98.4403Z" fill="#080435"/>
<path d="M128.5 96.223C128.5 96.223 131.147 101.936 134.902 102.356C134.902 102.356 131.867 98.0011 138.266 95.3477C138.266 95.3477 132.392 94.4235 128.5 96.223Z" fill="#30262A"/>
<path d="M133.792 99.3767C134.594 99.889 135.615 99.7213 136.073 99.0015C136.53 98.2848 136.25 97.2875 135.445 96.7781C134.643 96.2657 133.621 96.4335 133.163 97.1533C132.706 97.87 132.986 98.8673 133.792 99.3767Z" fill="#EA9A81"/>
<path d="M138.263 95.3477C138.263 95.3477 137.751 100.142 138.727 101.048C139.703 101.954 146.148 102.344 149.155 101.182C149.204 104.263 147.035 106.98 143.997 107.489C142.994 107.657 141.954 107.66 140.92 107.48C138.815 107.111 136.769 106.242 135.9 104.29C135.634 103.695 136.403 100.042 136.403 100.042C136.403 100.042 136.693 97.8974 135.445 96.7812C135.445 96.7812 136.885 95.4849 138.263 95.3507V95.3477Z" fill="#30262A"/>
<path d="M138.262 95.3477C138.262 95.3477 137.735 91.9959 140.361 91.7549C142.99 91.517 145.988 91.0748 147.019 91.7549C148.049 92.4351 149.282 95.1098 149.282 95.1098C149.282 95.1098 150.724 90.0836 148.08 87.9334C145.439 85.7831 137.015 82.9528 131.641 86.6981C126.264 90.4434 128.499 96.2231 128.499 96.2231C128.499 96.2231 132.339 95.0519 138.265 95.3477H138.262Z" fill="#30262A"/>
<path d="M134.619 86.6981C134.619 86.6981 130.657 83.4255 131.553 81.0069C132.45 78.5883 136.644 79.3538 138.266 79.732C139.889 80.1102 140.16 83.0046 138.861 84.8742C137.559 86.7408 134.622 86.7011 134.622 86.7011L134.619 86.6981Z" fill="#30262A"/>
<path d="M140.722 291.742C142.622 291.638 144.388 292.623 145.321 294.283C145.76 295.063 146.397 295.771 147.328 296.158C150.188 297.351 158.475 298.427 155.379 301.145C153.601 302.703 145.226 301.697 142.863 301.697C140.499 301.697 138.279 302.728 136.522 301.145C135.47 300.196 135.564 297.195 135.866 294.661C136.086 292.831 137.736 291.474 139.566 291.708C139.843 291.745 140.124 291.76 140.398 291.754C140.508 291.754 140.615 291.748 140.722 291.742Z" fill="#000088"/>
<path d="M85.1542 275.025C85.1542 275.025 80.7379 281.827 81.5156 284.828C82.2933 287.829 86.4443 295.082 82.4062 294.255C80.0913 293.782 75.8336 286.499 74.4062 284.614C72.9788 282.73 70.8164 281.583 71.0147 279.228C71.2343 276.636 79.3074 272.942 79.3074 272.942L85.1572 275.025H85.1542Z" fill="#000088"/>
<path d="M162.092 184.4C163.385 184.537 164.41 185.546 164.565 186.84C164.877 189.414 164.928 194.849 163.385 206.127C161.119 222.698 152.555 283.169 151.131 291.23C150.621 294.112 150.039 295.887 145.86 296.494L140.309 296.384C135.792 297.043 134.051 292.19 134.02 289.089L137.653 195.938L123.211 184.918C123.211 184.918 134.02 183.537 146.241 183.546C153.143 183.552 159.164 184.086 162.092 184.4Z" fill="#44393D"/>
<path d="M126.402 115.209C126.402 115.209 125.667 112.141 129.663 111.058C131.243 110.631 133.442 108.127 135.641 108.462C137.836 108.798 137.623 116.133 146.23 122.809C146.23 122.809 147.685 125.487 144.153 125.402C140.621 125.316 126.405 115.209 126.405 115.209H126.402Z" fill="#FFE500"/>
<path d="M145.512 123.596C145.512 123.596 149.922 119.256 149.153 115.209C148.385 111.162 150.626 107.697 151.718 109.527C152.813 111.357 154.076 110.219 154.326 112.513C154.576 114.806 151.169 126.076 148.08 126.076C144.99 126.076 145.512 123.596 145.512 123.596Z" fill="#FFE500"/>
<path d="M144.516 124.45C144.516 124.45 141.664 125.731 142.722 128.769C143.78 131.804 142.301 133.03 142.301 133.03C142.301 133.03 145.757 133.197 146.175 129.946C146.593 126.695 144.519 124.45 144.519 124.45H144.516Z" fill="#FFE500"/>
<path d="M146.136 124.45C146.136 124.45 149.756 125.682 149.912 128.04C150.067 130.394 147.993 130.956 147.264 129.553C146.535 128.15 145.022 125.405 145.022 125.405L146.136 124.45Z" fill="#FFE500"/>
<path d="M135.9 104.29C135.9 104.29 135.924 107.587 138.263 109.438C140.603 111.29 139.053 112.903 141.112 115.532C143.171 118.161 142.298 119.686 144.363 120.131C148.386 120.998 150.756 120.311 150.039 117.383C149.322 114.456 152.488 115.233 150.994 111.531C149.499 107.828 148.413 110.097 149.673 106.154C150.933 102.21 149.152 101.185 149.152 101.185C149.152 101.185 147.139 101.323 145.51 101.615C143.884 101.905 142.42 101.396 141.286 101.759C140.151 102.122 135.896 104.293 135.896 104.293L135.9 104.29Z" fill="#30262A"/>
<path d="M147.565 102.911C147.565 102.911 145.097 103.579 142.398 103.317C142.398 103.317 142.794 105.815 145.524 105.318C147.11 105.028 147.565 102.911 147.565 102.911Z" fill="white"/>
<path d="M146.229 142.186C146.229 141.606 146.699 141.133 147.281 141.133C147.864 141.133 148.333 141.603 148.333 142.186C148.333 142.768 147.864 143.238 147.281 143.238C146.699 143.238 146.229 142.768 146.229 142.186Z" fill="#30262A"/>
<path d="M146.229 154.986C146.229 154.407 146.699 153.934 147.281 153.934C147.864 153.934 148.333 154.404 148.333 154.986C148.333 155.569 147.864 156.038 147.281 156.038C146.699 156.038 146.229 155.569 146.229 154.986Z" fill="#30262A"/>
<path d="M146.229 170.163C146.229 169.583 146.699 169.11 147.281 169.11C147.864 169.11 148.333 169.58 148.333 170.163C148.333 170.745 147.864 171.215 147.281 171.215C146.699 171.215 146.229 170.745 146.229 170.163Z" fill="#30262A"/>
<path d="M111.589 120.479C111.589 120.479 105.687 122.34 87.5188 145.891C67.3709 172.005 67.7735 179.599 67.7735 179.599C67.7735 179.599 76.3256 184.473 79.4822 184.336C82.6389 184.198 102.997 152.345 111.613 144.549C120.229 136.754 126.768 122.764 111.589 120.479Z" fill="#6414E9"/>
<path d="M67.7698 179.599C67.7698 179.599 75.1476 183.546 79.4785 184.336C79.4785 184.336 79.1674 186.599 77.9535 187.2C77.9535 187.2 68.4286 184.162 66.562 182.591C66.562 182.591 65.5952 180.407 67.7728 179.599H67.7698Z" fill="#30262A"/>
<path d="M73.1976 180.183L73.3192 180.232C74.8488 180.851 75.5852 182.593 74.9677 184.12L74.7471 184.666C74.1284 186.195 72.3863 186.932 70.8595 186.314L70.7379 186.265C69.2082 185.647 68.4718 183.904 69.0893 182.378L69.31 181.832C69.9287 180.302 71.6719 179.563 73.2016 180.182L73.1976 180.183Z" fill="#30262A"/>
<path d="M117.45 185.83C116.346 186.15 115.7 191.195 115.447 192.339L111.204 216.427C109.478 226.223 104.552 235.169 97.2049 241.876C86.704 251.462 72.8725 265.427 74.5348 271.143C76.5691 278.149 82.6445 282.174 93.1637 275.8C100.615 271.283 118.188 255.707 127.174 245.871C129.864 242.928 131.886 239.445 133.124 235.654C137.501 222.271 148.502 187.486 148.502 187.486C149.087 183.259 123.416 184.107 117.45 185.827V185.83Z" fill="#44393D"/>
<path d="M136.768 225.247L136.262 225.077L140.614 212.215C142.194 207.411 145.449 203.401 149.773 200.921L150.039 201.385C145.83 203.797 142.661 207.701 141.124 212.383L136.772 225.247H136.768Z" fill="#020202"/>
<path d="M170.171 170.266C170.082 170.266 170.009 170.199 170.006 170.111C169.228 156.587 163.803 133.603 163.748 133.371C163.726 133.283 163.781 133.191 163.87 133.17C163.958 133.149 164.05 133.203 164.071 133.295C164.126 133.527 169.558 156.542 170.339 170.092C170.345 170.184 170.275 170.263 170.183 170.269C170.18 170.269 170.177 170.269 170.174 170.269L170.171 170.266Z" fill="#30262A"/>
<path d="M112.144 144.223C112.122 144.223 112.104 144.22 112.083 144.211C111.997 144.177 111.954 144.08 111.988 143.994C112.994 141.435 116.67 137.419 116.825 137.251C116.886 137.184 116.993 137.178 117.06 137.242C117.127 137.303 117.133 137.409 117.069 137.477C117.033 137.516 113.281 141.618 112.296 144.116C112.272 144.18 112.208 144.223 112.141 144.223H112.144Z" fill="#30262A"/>
<path d="M323.177 188.587C321.161 184.94 319.255 182.93 319.255 182.93C319.255 182.93 310.731 184.909 310.487 185.76C309.926 187.718 309.694 191.829 309.172 193.8C308.946 194.654 308.382 197.575 309.197 197.914C309.904 198.21 311.454 196.099 312.07 195.007C314.049 200.488 319.383 207.594 316.065 195.81C316.071 195.81 316.077 195.806 316.083 195.803C316.529 196.965 319.005 203.422 320.317 202.217C321.473 201.156 319.89 196.459 319.179 194.541C319.197 194.532 319.213 194.522 319.231 194.516C320.124 196.401 322.394 200.897 323.165 199.53C324.135 197.816 322.522 192.625 322.522 192.625C322.522 192.625 324.727 199.21 326.087 197.371C327.014 196.115 324.397 191.052 323.574 189.249C323.455 188.99 323.321 188.773 323.177 188.587Z" fill="#A74C3B"/>
<path d="M272.5 88.6837C272.5 88.6837 276.855 87.0276 279.695 90.9254C282.531 94.8232 282.281 92.5571 286.646 96.9947C291.013 101.432 283.904 103.726 285.398 107.471C286.893 111.217 290.388 111.424 289.333 116.35C288.277 121.278 284.084 119.583 284.297 122.712C284.511 125.841 286.832 128.69 283.038 129.409C279.244 130.126 278.124 129.931 275.974 134.475C273.824 139.02 267.053 135.033 261.947 136.934C256.842 138.834 243.572 138.123 242.724 135.305C241.876 132.487 231.53 130.956 236.566 123.059C239.341 118.704 235.047 119.723 234.422 114.038C233.909 109.381 240.464 110.265 237.777 106.102C236.578 104.241 235.87 99.1632 240.458 95.9883C245.045 92.8133 244.227 86.3383 251.303 87.5399C258.382 88.7386 259.084 86.1797 263.274 84.9749C267.465 83.7702 269.816 89.0954 272.5 88.6867V88.6837Z" fill="#30262A"/>
<path d="M309.856 190.423C303.256 177.229 292.749 158.786 280.159 145.852C277.24 142.854 276.084 141.753 274.138 140.255C272.571 139.05 272.915 134.918 274.946 132.215C276.856 129.681 280.872 128.4 281.79 128.925C283.355 129.818 285.46 131.88 288.766 135.168C300.252 146.59 311.512 164.173 321.986 186.583L309.856 190.426V190.423Z" fill="#A74C3B"/>
<path d="M265.726 293.474C265.726 293.474 265.832 297.735 268.715 298.937C271.597 300.139 279.954 301.224 276.83 303.963C275.04 305.534 266.598 304.518 264.213 304.518C261.828 304.518 259.592 305.558 257.82 303.963C255.871 302.209 257.82 293.474 257.82 293.474C257.82 293.474 259.876 294.545 261.727 294.499C264.393 294.429 265.723 293.478 265.723 293.478L265.726 293.474Z" fill="#5287E0"/>
<path d="M228.435 289.229C228.435 289.229 226.892 293.203 229.088 295.423C231.287 297.644 238.576 301.865 234.638 303.189C232.378 303.948 224.982 299.757 222.78 298.839C220.581 297.921 218.117 298.016 217.095 295.863C215.973 293.493 221.136 286.185 221.136 286.185C221.136 286.185 222.622 287.966 224.348 288.634C226.834 289.598 228.429 289.229 228.429 289.229H228.435Z" fill="#5287E0"/>
<path d="M287.158 176.671C287.158 176.671 286.954 196.31 285.374 230.957C284.136 258.123 284.389 283.297 282.01 295.228C281.159 299.495 249.659 297.32 249.995 292.624L257.452 208.702L258.876 182.131L287.161 176.671H287.158Z" fill="#6414E9"/>
<path d="M234.69 191.768C234.748 193.955 246.997 194.834 262.14 194.339C277.283 193.845 289.232 191.692 289.174 189.508C289.116 187.322 277.066 185.931 261.926 186.425C246.783 186.919 234.632 189.582 234.693 191.768H234.69Z" fill="#30262A"/>
<path d="M269.911 191.204L241.924 295.201C240.582 299.513 209.842 287.405 210.672 282.824L236.578 194.297C236.834 193.147 237.682 192.229 238.792 191.909C244.81 190.173 270.499 186.94 269.908 191.204H269.911Z" fill="#6414E9"/>
<path d="M241.809 131.636C241.809 131.636 250.053 122.431 265.144 124.392C280.235 126.353 290.34 146.48 289.175 189.508C289.175 189.508 264.885 181.752 234.651 191.72C234.651 191.72 233.526 148.444 241.809 131.636Z" fill="#FD696C"/>
<path d="M231.918 127.936L244.731 139.31C244.731 139.31 272.049 144.647 279.494 144.003C286.939 143.36 289.525 134.21 289.525 134.21C289.525 134.21 282.663 126.076 269.478 124.273C267.306 123.977 261.908 123.27 259.694 123.044C239.107 120.952 231.915 127.936 231.915 127.936H231.918Z" fill="#FD696C"/>
<path d="M253.926 250.882L253.402 250.76L261.945 214.356C263.546 209.488 266.825 205.447 271.183 202.949L271.451 203.416C267.209 205.847 264.016 209.784 262.463 214.499L253.926 250.882Z" fill="#020202"/>
<path d="M255.989 122.794C257.474 122.465 258.676 121.379 259.118 119.924L260.509 115.368L260.911 114.044L263.284 106.267L263.586 114.023L263.766 118.677L263.818 120.003C263.861 121.086 264.175 123.178 264.632 123.41C264.632 123.41 267.484 124.682 265.218 125.689C262.558 126.872 257.855 125.197 255.967 122.803C255.976 122.803 255.983 122.8 255.992 122.797L255.989 122.794Z" fill="#A74C3B"/>
<path d="M260.484 115.239C260.49 115.282 260.496 115.325 260.505 115.364C260.963 117.823 263.747 118.689 263.747 118.689L263.762 118.674L263.582 114.019C262.738 113.812 261.548 113.635 260.911 114.044C260.575 114.257 260.392 114.629 260.487 115.239H260.484Z" fill="#30262A"/>
<path d="M270.997 106.651C270.451 101.725 266.77 98.0927 262.778 98.538C258.785 98.9802 255.992 103.332 256.541 108.258C257.086 113.184 260.768 116.816 264.76 116.371C268.752 115.929 271.546 111.576 270.997 106.651Z" fill="#A74C3B"/>
<path d="M268.3 112.793C268.3 112.793 265.836 113.126 263.271 112.531C263.271 112.531 263.335 114.986 266.028 114.852C267.593 114.773 268.3 112.79 268.3 112.79V112.793Z" fill="white"/>
<path d="M264.476 107.462C264.521 107.444 264.561 107.404 264.573 107.352C264.598 107.264 264.546 107.172 264.457 107.148C264.406 107.133 263.234 106.687 262.38 107.859C262.325 107.932 262.341 108.035 262.411 108.09C262.484 108.145 262.573 108.118 262.643 108.06C263.341 107.468 264.323 107.456 264.366 107.468C264.402 107.477 264.439 107.474 264.47 107.462H264.476Z" fill="#080435"/>
<path d="M263.375 109.414C263.405 109.808 263.661 110.109 263.948 110.085C264.235 110.064 264.439 109.725 264.409 109.332C264.378 108.938 264.122 108.636 263.835 108.661C263.548 108.682 263.344 109.021 263.375 109.414Z" fill="#080435"/>
<path d="M270.439 107.666C270.488 107.666 270.539 107.645 270.573 107.602C270.628 107.529 270.616 107.426 270.546 107.371C270.503 107.337 269.591 106.48 268.356 107.236C268.276 107.285 268.249 107.383 268.298 107.462C268.343 107.541 268.438 107.551 268.523 107.52C269.396 107.239 270.308 107.602 270.344 107.63C270.375 107.651 270.408 107.663 270.442 107.663L270.439 107.666Z" fill="#080435"/>
<path d="M268.678 109.054C268.556 109.429 268.678 109.804 268.953 109.893C269.224 109.981 269.544 109.747 269.666 109.371C269.788 108.996 269.666 108.621 269.392 108.533C269.12 108.444 268.8 108.679 268.678 109.054Z" fill="#080435"/>
<path d="M231.919 127.936C230.208 129.952 232.401 132.639 237.14 136.812C241.88 140.984 244.012 142.46 245.723 140.447C247.434 138.431 246.495 135.034 241.798 130.812C238.351 127.714 233.63 125.923 231.919 127.939V127.936Z" fill="#30262A"/>
<path d="M240.751 191.436C240.751 191.436 268.063 184.869 286.887 191.198L282.224 193.897L264.885 194.879L240.754 191.436H240.751Z" fill="#6414E9"/>
<path d="M256.823 109.588C257.729 110.277 258.882 110.231 259.4 109.484C259.919 108.734 259.605 107.569 258.699 106.877C257.793 106.184 256.64 106.233 256.122 106.98C255.603 107.73 255.917 108.896 256.823 109.588Z" fill="#A74C3B"/>
<path d="M266.58 100.807C266.58 100.807 266.492 103.375 263.75 103.43C263.75 103.43 264.046 105.519 261.331 105.26C261.331 105.26 261.682 106.657 259.812 106.989C259.812 106.989 259.19 108.441 256.997 107.807C254.804 107.172 253.279 103.034 255.323 100.621C257.366 98.2086 263.009 95.8967 266.577 97.2479C270.145 98.599 272.72 105.66 271.86 106.154C270.999 106.648 268.962 106.407 268.688 104.815C268.688 104.815 266.812 104.275 267.166 102.549C267.166 102.549 266.604 101.551 266.583 100.804L266.58 100.807Z" fill="#30262A"/>
<path d="M257.196 115.45C257.148 115.45 257.102 115.45 257.059 115.447C255.757 115.383 254.564 114.523 254.403 113.528C254.104 111.711 255.742 110.058 255.812 109.991C255.885 109.917 256.001 109.917 256.074 109.991C256.147 110.064 256.147 110.18 256.074 110.253C256.059 110.268 254.5 111.842 254.769 113.467C254.903 114.285 255.961 115.02 257.077 115.075C258.334 115.133 259.289 114.331 259.679 112.864C259.963 111.796 259.877 110.906 259.42 110.225C258.676 109.112 257.181 108.902 257.166 108.902C257.065 108.89 256.992 108.795 257.007 108.694C257.019 108.594 257.114 108.524 257.215 108.533C257.282 108.542 258.889 108.764 259.728 110.018C260.246 110.793 260.353 111.784 260.039 112.964C259.453 115.163 257.95 115.453 257.199 115.453L257.196 115.45Z" fill="#ED6B6C"/>
<path d="M268.978 116.475C268.2 116.475 267.63 116.218 267.617 116.212C267.523 116.17 267.483 116.06 267.526 115.965C267.569 115.871 267.681 115.831 267.773 115.874C267.855 115.913 269.835 116.786 271.302 114.925C272.766 113.071 271.418 111.384 271.357 111.314C271.293 111.235 271.302 111.119 271.381 111.052C271.46 110.988 271.576 110.997 271.643 111.076C271.659 111.095 273.248 113.059 271.591 115.154C270.759 116.206 269.765 116.472 268.978 116.472V116.475Z" fill="#ED6B6C"/>
<path d="M254.659 86.7988C254.143 86.7988 253.6 86.75 253.024 86.6372C252.923 86.6189 252.856 86.5182 252.878 86.4176C252.896 86.3169 252.993 86.2498 253.097 86.2712C257.41 87.116 259.984 84.2308 260.011 84.2003C260.078 84.121 260.197 84.1149 260.274 84.182C260.35 84.2491 260.359 84.368 260.292 84.4443C260.267 84.4717 258.194 86.7958 254.662 86.7958L254.659 86.7988Z" fill="#30262A"/>
<path d="M285.597 94.5975C285.576 94.5975 285.552 94.5944 285.53 94.5853C285.399 94.5334 282.258 93.3043 279.918 90.2483C277.381 86.9361 274.615 87.4301 273.541 87.7961C271.833 88.3787 270.476 87.2014 270.418 87.1495C270.342 87.0824 270.332 86.9635 270.403 86.8873C270.47 86.811 270.589 86.8019 270.665 86.872C270.677 86.8842 271.921 87.9578 273.422 87.4454C274.572 87.0519 277.53 86.5182 280.214 90.0226C282.49 92.9902 285.634 94.2284 285.664 94.2406C285.759 94.2772 285.808 94.384 285.771 94.4816C285.744 94.5548 285.674 94.6005 285.597 94.6005V94.5975Z" fill="#30262A"/>
<path d="M235.697 109.917C235.639 109.917 235.581 109.89 235.544 109.838C235.486 109.756 235.505 109.637 235.587 109.579C237.331 108.341 236.95 107.56 235.355 105.044C233.711 102.451 236.148 99.4256 236.252 99.2975C236.316 99.2182 236.435 99.206 236.514 99.27C236.593 99.3341 236.606 99.453 236.542 99.5323C236.517 99.5628 234.172 102.482 235.669 104.842C237.264 107.358 237.832 108.438 235.803 109.881C235.77 109.905 235.733 109.914 235.697 109.914V109.917Z" fill="#30262A"/>
<path d="M234.761 123.566C234.709 123.566 234.657 123.544 234.62 123.502C234.553 123.425 234.559 123.307 234.639 123.239C236.758 121.382 235.163 119.497 235.096 119.418C235.029 119.342 235.038 119.223 235.114 119.156C235.191 119.088 235.31 119.098 235.377 119.174C235.395 119.195 237.277 121.419 234.883 123.52C234.846 123.55 234.803 123.566 234.761 123.566Z" fill="#30262A"/>
<path d="M245.596 101.484C245.541 101.484 245.49 101.46 245.453 101.417C245.401 101.356 244.202 99.8678 244.44 98.0226C244.59 96.8606 245.279 95.8266 246.484 94.9513C248.442 93.5331 249.702 93.7222 251.037 93.9235C252.355 94.1217 253.718 94.3261 255.991 92.9933C258.443 91.5537 260.257 91.6696 261.346 92.0173C262.542 92.4016 263.143 93.1275 263.167 93.158C263.231 93.2373 263.219 93.3531 263.14 93.4202C263.06 93.4843 262.944 93.4721 262.877 93.3928C262.786 93.283 260.605 90.7119 256.18 93.3135C253.795 94.7134 252.3 94.4877 250.982 94.2895C249.671 94.0912 248.536 93.9204 246.703 95.2502C245.584 96.0615 244.947 97.01 244.809 98.0684C244.593 99.755 245.731 101.164 245.74 101.179C245.804 101.259 245.795 101.374 245.712 101.442C245.679 101.469 245.636 101.484 245.593 101.484H245.596Z" fill="white"/>
<path d="M281.065 113.373C281.065 113.373 281.043 113.373 281.034 113.373C280.933 113.355 280.866 113.26 280.882 113.156C281.15 111.616 280.323 111.308 278.951 110.799C278.365 110.582 277.703 110.335 277.036 109.945C276.535 109.655 276.294 109.378 276.276 109.079C276.249 108.652 276.682 108.325 277.182 107.947C277.859 107.435 278.625 106.855 278.573 105.913C278.509 104.717 277.865 104.629 276.892 104.495C276.249 104.406 275.52 104.309 274.849 103.839C273.958 103.22 273.934 102.384 273.919 101.713C273.9 101.012 273.867 100.7 273.26 100.624C271.57 100.414 271.079 98.5747 271.061 98.4984C271.036 98.3978 271.094 98.2971 271.195 98.2727C271.293 98.2453 271.396 98.3063 271.421 98.4069C271.424 98.4222 271.872 100.078 273.305 100.258C274.254 100.377 274.272 101.054 274.288 101.707C274.306 102.354 274.321 103.025 275.059 103.537C275.657 103.955 276.34 104.046 276.941 104.129C277.929 104.263 278.859 104.391 278.942 105.894C279.003 107.035 278.118 107.706 277.405 108.246C277.008 108.548 276.633 108.832 276.645 109.06C276.654 109.216 276.853 109.414 277.222 109.628C277.865 110 278.512 110.241 279.082 110.454C280.473 110.97 281.571 111.378 281.248 113.223C281.232 113.315 281.153 113.379 281.065 113.379V113.373Z" fill="white"/>
<path d="M245.89 120.315H245.887C245.783 120.315 245.704 120.226 245.704 120.125C245.737 118.695 244.49 117.692 243.392 116.807C242.51 116.1 241.751 115.487 241.791 114.755C241.815 114.297 242.157 113.864 242.837 113.425C243.865 112.763 244.459 111.985 244.606 111.122C244.81 109.905 244.051 108.914 244.044 108.905C243.98 108.822 243.996 108.707 244.078 108.642C244.157 108.578 244.276 108.594 244.34 108.676C244.377 108.722 245.21 109.808 244.975 111.186C244.81 112.159 244.16 113.019 243.041 113.742C242.468 114.111 242.184 114.45 242.166 114.779C242.138 115.319 242.828 115.877 243.63 116.52C244.737 117.414 246.118 118.524 246.079 120.138C246.079 120.238 245.993 120.321 245.893 120.321L245.89 120.315Z" fill="white"/>
<path d="M205.134 187.294C212.085 174.283 222.714 158.997 235.648 146.407C238.647 143.488 239.833 142.42 241.819 140.975C243.417 139.813 243.185 135.674 241.227 132.917C239.388 130.33 235.408 128.943 234.471 129.443C232.882 130.294 230.723 132.298 227.331 135.494C215.543 146.602 206.61 159.521 195.533 181.643L205.134 187.294Z" fill="#A74C3B"/>
<path d="M192.332 184.439C195.086 181.347 197.374 179.822 197.374 179.822C197.374 179.822 205.197 183.613 205.246 184.488C205.359 186.507 204.682 190.545 204.755 192.564C204.785 193.44 204.691 196.398 203.828 196.548C203.077 196.679 202.04 194.294 201.684 193.101C198.56 197.975 194.91 199 197.142 193.916C197.136 193.912 197.148 193.919 197.142 193.916C196.456 194.943 195.324 196.23 193.763 195.401C192.961 194.974 193.22 193.394 194.33 191.692C193.751 192.284 194.33 191.692 194.315 191.68C193.037 193.312 191.603 194.105 191.155 192.61C190.594 190.734 191.637 189.304 191.637 189.304C191.637 189.304 190.005 190.603 189.371 189.319C188.682 187.929 190.603 186.559 191.802 184.991C191.973 184.766 192.152 184.586 192.332 184.436V184.439Z" fill="#A74C3B"/>
<path d="M507.21 125.438C507.21 125.438 515.631 147.142 519.8 144.982C526.165 141.688 527.797 127.073 527.797 127.073L539.213 129.126C539.213 129.126 540.076 157.938 525.448 165.45C513.639 171.517 501.332 149.45 501.332 149.45L499.204 129.376L507.21 125.438Z" fill="#EA9A81"/>
<path d="M448.6 189.435C448.658 191.686 462.276 192.583 479.12 192.055C495.965 191.53 509.424 189.2 509.366 186.949C509.309 184.699 495.755 183.375 478.913 183.899C462.068 184.424 448.545 187.181 448.603 189.435H448.6Z" fill="#30262A"/>
<path d="M452.724 125.673C452.724 125.673 455.704 113.867 477.679 113.748C509.37 113.574 506.436 142.695 509.367 186.946C509.367 186.946 478.151 182.533 448.585 188.877C448.585 188.877 445.843 143.707 452.724 125.67V125.673Z" fill="#6414E9"/>
<path d="M443.122 121.178L458.966 131.922C458.966 131.922 490.392 134.777 498.737 133.402C507.079 132.026 509.369 125.902 509.369 125.902C509.369 125.902 500.485 116.709 485.381 114.254C483.963 114.022 482.49 113.852 480.965 113.751C478.403 113.586 475.844 113.666 473.331 113.903C448.627 116.237 443.128 121.178 443.128 121.178H443.122Z" fill="#6414E9"/>
<path d="M474.656 111.046L476.315 105.693L476.797 104.135L479.637 94.9695L480.012 104.086L480.234 109.557L480.305 111.29C480.353 112.464 480.735 113.708 481.848 114.462C482.903 115.175 484.556 116.658 481.991 117.792C478.795 119.204 472.735 116.993 470.462 114.193C471.374 113.998 474.122 112.778 474.656 111.049V111.046Z" fill="#EA9A81"/>
<path d="M442.186 121.739C440.404 123.575 442.286 128.366 446.388 132.447C450.491 136.525 455.261 138.343 457.042 136.51C458.823 134.674 456.941 129.882 452.839 125.801C448.737 121.724 443.967 119.906 442.186 121.739Z" fill="#30262A"/>
<path d="M486.943 91.5292C486.943 91.5292 487.522 93.7464 486.943 96.528C486.363 99.3095 483.536 92.4716 483.536 92.4716L486.943 91.5261V91.5292Z" fill="#30262A"/>
<path d="M480.484 108.123C484.943 107.538 487.986 102.704 487.28 97.3258C486.573 91.9481 482.386 88.0632 477.927 88.6487C473.468 89.2342 470.425 94.0683 471.131 99.446C471.838 104.824 476.025 108.709 480.484 108.123Z" fill="#EA9A81"/>
<path d="M470.925 96.6408L474.868 96.2321C475.734 96.1437 476.527 95.6771 476.997 94.942C477.805 93.6793 478.778 93.0297 482.453 93.167C487.111 93.3408 490.185 90.5654 490.688 88.1285C491.201 85.6428 488.819 83.9562 486.479 85.1426C484.14 86.329 485.143 83.4194 482.896 83.1113C478.693 82.5349 477.906 85.7739 474.466 85.6702C469.955 85.533 461.872 88.9611 465.706 96.9031L470.928 96.6439L470.925 96.6408Z" fill="#30262A"/>
<path d="M479.633 97.9797C479.675 97.9523 479.706 97.9065 479.709 97.8547C479.715 97.7632 479.648 97.6839 479.56 97.6778C479.505 97.6747 478.275 97.4521 477.656 98.7605C477.617 98.8429 477.65 98.9405 477.73 98.9832C477.812 99.0228 477.894 98.9801 477.952 98.91C478.529 98.1993 479.486 98.0041 479.532 98.0102C479.569 98.0102 479.605 98.0041 479.633 97.9858V97.9797Z" fill="#080435"/>
<path d="M478.916 100.096C479.019 100.478 479.327 100.725 479.602 100.648C479.876 100.572 480.017 100.203 479.913 99.8249C479.809 99.4468 479.501 99.1967 479.227 99.2729C478.952 99.3492 478.812 99.7182 478.916 100.096Z" fill="#080435"/>
<path d="M485.742 97.4887C485.778 97.4826 485.815 97.4521 485.83 97.4063C485.861 97.3271 485.83 97.2264 485.766 97.1837C485.727 97.1563 484.882 96.4487 484.083 97.3758C484.034 97.4338 484.031 97.5375 484.08 97.6076C484.128 97.6778 484.202 97.6717 484.263 97.632C484.873 97.2295 485.629 97.449 485.659 97.4704C485.687 97.4887 485.714 97.4948 485.742 97.4887Z" fill="#080435"/>
<path d="M484.235 99.1814C484.186 99.5718 484.376 99.9164 484.659 99.953C484.943 99.9896 485.211 99.6999 485.26 99.3095C485.309 98.9191 485.12 98.5745 484.836 98.5379C484.552 98.5013 484.284 98.791 484.235 99.1814Z" fill="#080435"/>
<path d="M465.703 96.9001C465.703 96.9001 468.424 102.774 472.285 103.207C472.285 103.207 469.162 98.73 475.744 96.0003C475.744 96.0003 469.702 95.0488 465.703 96.9001Z" fill="#30262A"/>
<path d="M471.147 100.142C471.974 100.667 473.023 100.496 473.493 99.7579C473.962 99.0198 473.673 97.995 472.849 97.4704C472.023 96.9458 470.974 97.1166 470.504 97.8547C470.034 98.5928 470.324 99.6176 471.147 100.142Z" fill="#EA9A81"/>
<path d="M475.744 96.0003C475.744 96.0003 475.216 100.929 476.219 101.862C477.223 102.796 483.847 103.195 486.94 102C486.992 105.165 484.759 107.962 481.636 108.487C480.602 108.661 479.535 108.661 478.473 108.475C476.308 108.096 474.203 107.2 473.313 105.193C473.041 104.583 473.831 100.822 473.831 100.822C473.831 100.822 474.127 98.6172 472.846 97.4674C472.846 97.4674 474.328 96.1345 475.744 95.9973V96.0003Z" fill="#30262A"/>
<path d="M485.979 84.7522C484.759 84.7522 484.646 83.6969 484.646 83.6877L484.869 83.6664C484.872 83.703 484.97 84.56 486.04 84.5295L486.046 84.7522C486.022 84.7522 486.001 84.7522 485.979 84.7522Z" fill="#30262A"/>
<path d="M483.774 91.8616L483.743 91.7548C483.792 91.7396 488.748 90.2725 488.952 87.7197C489.01 86.9969 488.891 86.5211 488.583 86.2558C488.092 85.8318 487.199 86.0423 486.409 86.2253C486.287 86.2527 486.168 86.2802 486.055 86.3046L486.031 86.1948C486.143 86.1704 486.262 86.1429 486.381 86.1155C487.196 85.9264 488.12 85.7098 488.654 86.1704C488.989 86.4601 489.12 86.9695 489.059 87.7289C488.971 88.8208 488.025 89.8791 486.326 90.7971C485.052 91.4864 483.783 91.8585 483.771 91.8616H483.774Z" fill="white"/>
<path d="M474.014 86.6858C473.547 86.6858 473.053 86.6553 472.529 86.5821L472.544 86.4723C475.072 86.8139 476.896 86.2253 477.979 85.6732C479.15 85.0755 479.73 84.3892 479.736 84.3831L479.821 84.4533C479.8 84.4777 477.912 86.6858 474.017 86.6858H474.014Z" fill="white"/>
<path d="M483.197 105.452C483.197 106.09 482.868 106.605 482.462 106.605C482.056 106.605 481.727 106.09 481.727 105.452C481.727 104.815 482.056 104.299 482.462 104.299C482.868 104.299 483.197 104.815 483.197 105.452Z" fill="white"/>
<path d="M503.712 132.328C502.807 129.043 499.744 124.917 499.714 124.877L500.004 124.661C500.034 124.703 503.136 128.885 504.06 132.231L503.712 132.328Z" fill="#30262A"/>
<path d="M531.802 135.512C529.749 135.945 527.733 134.634 527.3 132.581L523.335 113.824C522.902 111.772 524.213 109.756 526.266 109.322C528.319 108.889 530.335 110.201 530.768 112.253L534.733 131.011C535.166 133.063 533.854 135.079 531.802 135.512Z" fill="#A74C3B"/>
<path d="M528.407 94.1795C528.407 94.1795 556.728 73.0465 568.108 48.6013L590.442 137.998C590.442 137.998 553.383 114.55 532.905 112.189C532.905 112.189 526.992 109.661 525.97 103.875C524.869 97.6351 528.404 94.1795 528.404 94.1795H528.407Z" fill="#A74C3B"/>
<path d="M594.873 137.817C604.497 135.413 607.234 113.197 600.987 88.197C594.74 63.1973 581.874 44.8804 572.25 47.2853C562.627 49.6901 559.889 71.9059 566.136 96.9056C572.384 121.905 585.249 140.222 594.873 137.817Z" fill="#44393D"/>
<path d="M572.622 84.9596L588.03 85.4659C590.01 85.4903 591.724 86.8475 592.205 88.7689L593.008 91.9775C593.578 94.2588 592.529 96.6347 590.461 97.751L576.456 105.324C576.456 105.324 568.077 96.4456 572.625 84.9565L572.622 84.9596Z" fill="#ED6B6C"/>
<path d="M590.376 97.9004C590.342 97.8821 587.146 95.979 586.213 91.5596C585.725 89.2386 586.213 87.674 586.707 86.7682C587.25 85.7769 587.908 85.3469 587.936 85.3286L588.116 85.6092C588.091 85.6244 585.645 87.2684 586.536 91.4925C587.436 95.7594 590.51 97.5954 590.541 97.6137L590.373 97.9004H590.376Z" fill="#30262A"/>
<path d="M528.407 94.1795L516.854 99.1479C514.469 100.173 513.181 102.774 513.81 105.293L514.944 109.841C515.597 112.455 518.107 114.16 520.779 113.806L532.905 112.192C532.905 112.192 529.206 110.783 527.626 103.872C526.4 98.5104 528.404 94.1826 528.404 94.1826L528.407 94.1795Z" fill="#ED6B6C"/>
<path d="M532.802 112.317C523.81 105.132 528.205 94.2222 528.251 94.1124L528.559 94.2405C528.513 94.3473 524.216 105.028 533.009 112.058L532.802 112.317Z" fill="#30262A"/>
<path d="M544.946 115.3C531.551 100.386 537.639 86.3777 537.703 86.2374L538.005 86.3747C537.944 86.5119 531.947 100.334 545.193 115.078L544.946 115.3Z" fill="#30262A"/>
<path d="M538.784 127.454C538.784 127.454 540.623 131.462 536.954 133.115C532.278 135.223 527.639 133.768 529.341 132.209C529.677 131.901 534.111 129.925 534.111 129.925C534.111 129.925 523.601 131.926 523.931 129.602C524.26 127.277 533.321 125.679 533.321 125.679C533.321 125.679 522.906 126.664 523.927 124.569C524.949 122.474 533.169 120.97 533.169 120.97C533.169 120.97 523.04 122.48 524.287 120.074C525.532 117.667 530.93 117.948 533.242 117.545C535.429 117.164 536.38 118.451 536.597 120.586C536.597 120.586 538.049 122.587 537.838 124.017C537.756 124.566 538.341 124.996 538.451 125.368C538.665 126.085 538.781 127.454 538.781 127.454H538.784Z" fill="#EA9A81"/>
<path d="M422.066 192.232C427.229 176.519 436.01 157.582 447.862 141.173C450.607 137.373 451.711 135.961 453.626 133.981C455.166 132.389 454.111 127.86 451.415 125.197C448.884 122.696 444.22 121.934 443.284 122.666C441.695 123.913 439.697 126.542 436.568 130.73C425.695 145.278 418.326 161.275 410.372 187.846L422.069 192.232H422.066Z" fill="#EA9A81"/>
<path d="M407.377 191.555C409.82 187.608 412.053 185.479 412.053 185.479C412.053 185.479 421.428 188.154 421.651 189.112C422.167 191.32 422.197 195.91 422.67 198.127C422.874 199.088 423.341 202.373 422.414 202.705C421.608 202.995 420.004 200.564 419.379 199.314C416.872 205.301 413.038 207.14 414.52 201.089C414.514 201.089 414.526 201.089 414.52 201.089C413.959 202.355 412.959 203.999 411.077 203.382C410.11 203.065 410.089 201.269 410.989 199.177C410.461 199.942 410.989 199.177 410.97 199.167C409.872 201.217 408.445 202.37 407.661 200.805C406.676 198.844 407.554 197.06 407.554 197.06C407.554 197.06 406.005 198.811 405.053 197.514C404.026 196.111 405.883 194.227 406.902 192.265C407.048 191.982 407.21 191.75 407.38 191.552L407.377 191.555Z" fill="#EA9A81"/>
<path d="M460.827 294.252C460.827 294.252 459.708 298.232 462.038 300.172C464.368 302.112 471.804 305.503 468.126 307.15C466.015 308.096 458.479 304.741 456.271 304.061C454.06 303.381 451.69 303.704 450.503 301.718C449.198 299.535 453.501 291.995 453.501 291.995C453.501 291.995 455.103 293.575 456.829 294.06C459.321 294.758 460.827 294.252 460.827 294.252Z" fill="#0AEDC7"/>
<path d="M486.48 278.777C486.48 278.777 483.619 281.763 484.76 284.569C485.903 287.375 490.862 293.871 486.843 293.593C484.537 293.435 479.468 286.926 477.839 285.285C476.211 283.644 473.966 282.812 473.856 280.503C473.734 277.962 481.081 273.336 481.081 273.336C481.081 273.336 481.749 275.483 483.045 276.724C484.915 278.511 486.48 278.777 486.48 278.777Z" fill="#0AEDC7"/>
<path d="M483.668 189.856C483.729 205.652 469.409 275.355 467.463 287.933C466.768 292.431 463.157 295.856 458.719 296.225L456.334 296.424C451.537 296.826 447.456 292.864 447.593 287.939L449.972 203.315L450.1 190.798C450.1 190.798 483.64 182.615 483.671 189.856H483.668Z" fill="#A74C3B"/>
<path d="M505.618 188.648C505.618 188.648 521.582 227.007 514.527 246.701C509.748 260.044 499.756 272.18 493.812 278.624C491.25 281.4 486.947 281.638 484.089 279.167L480.871 276.386C478.352 274.208 477.477 270.682 478.693 267.583C482.213 258.604 489.008 240.418 488.95 233.979C488.816 219.053 469.254 187.45 469.254 187.45C469.254 187.45 489.115 184.522 505.621 188.648H505.618Z" fill="#A74C3B"/>
<path d="M481.441 210.236C481.441 210.236 481.435 210.236 481.432 210.236C481.331 210.23 481.252 210.144 481.258 210.043C481.258 209.992 481.502 204.898 482.316 200.827C483.146 196.688 486.711 194.724 486.748 194.705C486.836 194.657 486.949 194.69 486.998 194.779C487.047 194.867 487.013 194.98 486.925 195.029C486.891 195.047 483.472 196.932 482.679 200.9C481.871 204.941 481.63 210.01 481.627 210.062C481.624 210.159 481.542 210.239 481.444 210.239L481.441 210.236Z" fill="#30262A"/>
<path d="M534.108 134.164L534.059 133.835C539.421 133.045 539.061 129.879 539.058 129.845L539.387 129.803C539.39 129.839 539.79 133.325 534.108 134.164Z" fill="#E47E6A"/>
<path d="M407.497 191.671L407.265 191.433C411.428 187.34 413.014 178.855 413.03 178.769L413.356 178.827C413.341 178.913 411.736 187.501 407.497 191.668V191.671Z" fill="#E47E6A"/>
<path d="M414.993 204.971L414.938 204.645C417.095 204.276 419.208 199.298 419.23 199.25L419.382 198.884L419.535 199.25C419.971 200.29 421.328 202.916 422.359 202.55C423.35 202.199 422.572 197.441 422.24 195.407C422.142 194.812 422.066 194.342 422.048 194.111C421.956 192.988 422.008 191.905 422.008 191.893L422.341 191.909C422.341 191.909 422.292 192.982 422.38 194.083C422.399 194.303 422.475 194.766 422.569 195.352C423.128 198.771 423.628 202.449 422.469 202.861C421.173 203.321 419.84 200.729 419.379 199.725C418.842 200.903 416.997 204.63 414.99 204.974L414.993 204.971Z" fill="#E47E6A"/>
<path d="M85.3409 286.097L70.7012 287.942L75.761 301.307L89.3058 299.199L85.3409 286.097Z" fill="#D3A09F"/>
</svg>
