<svg width="92" height="92" viewBox="0 0 92 92" fill="none" xmlns="http://www.w3.org/2000/svg">
<g filter="url(#filter0_d_121_1531)">
<circle cx="46" cy="46" r="38" fill="#6414E9"/>
</g>
<path d="M46 31C37.7163 31 31 37.7163 31 46C31 54.2837 37.7163 61 46 61C54.2837 61 61 54.2837 61 46C61 37.7163 54.2837 31 46 31ZM47.25 53.3213V56H44.75V53.3288C42.0875 52.9738 40.4113 51.425 40.3175 49.13H43.1687C43.305 50.2725 44.4575 51.005 46.1175 51.005C47.6513 51.005 48.735 50.2625 48.735 49.1987C48.735 48.3 48.0325 47.7825 46.3038 47.4112L44.4675 47.0212C41.8988 46.4837 40.64 45.1462 40.64 42.9975C40.64 40.71 42.2325 39.1025 44.75 38.6988V36H47.25V38.695C49.695 39.0913 51.345 40.675 51.4212 42.8412H48.6475C48.5112 41.7275 47.475 40.9862 46.05 40.9862C44.575 40.9862 43.5988 41.67 43.5988 42.7438C43.5988 43.6125 44.2725 44.1113 45.9225 44.4625L47.6213 44.8237C50.4538 45.42 51.6737 46.64 51.6737 48.8275C51.675 51.305 50.0175 52.9425 47.25 53.3213Z" fill="white"/>
<defs>
<filter id="filter0_d_121_1531" x="0" y="0" width="92" height="92" filterUnits="userSpaceOnUse" color-interpolation-filters="sRGB">
<feFlood flood-opacity="0" result="BackgroundImageFix"/>
<feColorMatrix in="SourceAlpha" type="matrix" values="0 0 0 0 0 0 0 0 0 0 0 0 0 0 0 0 0 0 127 0" result="hardAlpha"/>
<feOffset/>
<feGaussianBlur stdDeviation="4"/>
<feComposite in2="hardAlpha" operator="out"/>
<feColorMatrix type="matrix" values="0 0 0 0 0 0 0 0 0 0 0 0 0 0 0 0 0 0 0.16 0"/>
<feBlend mode="normal" in2="BackgroundImageFix" result="effect1_dropShadow_121_1531"/>
<feBlend mode="normal" in="SourceGraphic" in2="effect1_dropShadow_121_1531" result="shape"/>
</filter>
</defs>
</svg>
