<svg width="92" height="92" viewBox="0 0 92 92" fill="none" xmlns="http://www.w3.org/2000/svg">
<g filter="url(#filter0_d_121_1546)">
<circle cx="46" cy="46" r="38" fill="#6414E9"/>
<path d="M58 37.0008H34C33.2044 37.0008 32.4413 37.3169 31.8787 37.8795C31.3161 38.4421 31 39.2051 31 40.0008V58.0008C31 58.7964 31.3161 59.5595 31.8787 60.1221C32.4413 60.6847 33.2044 61.0008 34 61.0008H58C58.7956 61.0008 59.5587 60.6847 60.1213 60.1221C60.6839 59.5595 61 58.7964 61 58.0008V53.0008H57C55.9391 53.0008 54.9217 52.5794 54.1716 51.8292C53.4214 51.0791 53 50.0617 53 49.0008C53 47.9399 53.4214 46.9225 54.1716 46.1724C54.9217 45.4222 55.9391 45.0008 57 45.0008H61V40.0008C61 39.2051 60.6839 38.4421 60.1213 37.8795C59.5587 37.3169 58.7956 37.0008 58 37.0008ZM40 57.0008H36C35.7348 57.0008 35.4804 56.8954 35.2929 56.7079C35.1054 56.5204 35 56.266 35 56.0008C35 55.7356 35.1054 55.4812 35.2929 55.2937C35.4804 55.1061 35.7348 55.0008 36 55.0008H40C40.2652 55.0008 40.5196 55.1061 40.7071 55.2937C40.8946 55.4812 41 55.7356 41 56.0008C41 56.266 40.8946 56.5204 40.7071 56.7079C40.5196 56.8954 40.2652 57.0008 40 57.0008Z" fill="white"/>
<path d="M55 49.0008C55 49.5312 55.2107 50.0399 55.5858 50.415C55.9609 50.7901 56.4696 51.0008 57 51.0008H61V47.0008H57C56.4696 47.0008 55.9609 47.2115 55.5858 47.5866C55.2107 47.9617 55 48.4704 55 49.0008Z" fill="white"/>
<path d="M43.9999 31.2908C43.8125 31.1045 43.5591 31 43.2949 31C43.0307 31 42.7773 31.1045 42.5899 31.2908L38.8999 35.0008H47.7199L43.9999 31.2908Z" fill="white"/>
<path d="M53.0999 35.0008L49.3899 31.2908C49.2025 31.1045 48.9491 31 48.6849 31C48.4207 31 48.1673 31.1045 47.9799 31.2908L47.4099 31.8608L50.5499 35.0008H53.0999Z" fill="white"/>
</g>
<defs>
<filter id="filter0_d_121_1546" x="0" y="0" width="92" height="92" filterUnits="userSpaceOnUse" color-interpolation-filters="sRGB">
<feFlood flood-opacity="0" result="BackgroundImageFix"/>
<feColorMatrix in="SourceAlpha" type="matrix" values="0 0 0 0 0 0 0 0 0 0 0 0 0 0 0 0 0 0 127 0" result="hardAlpha"/>
<feOffset/>
<feGaussianBlur stdDeviation="4"/>
<feComposite in2="hardAlpha" operator="out"/>
<feColorMatrix type="matrix" values="0 0 0 0 0 0 0 0 0 0 0 0 0 0 0 0 0 0 0.16 0"/>
<feBlend mode="normal" in2="BackgroundImageFix" result="effect1_dropShadow_121_1546"/>
<feBlend mode="normal" in="SourceGraphic" in2="effect1_dropShadow_121_1546" result="shape"/>
</filter>
</defs>
</svg>
