<svg width="28" height="31" viewBox="0 0 28 31" fill="none" xmlns="http://www.w3.org/2000/svg">
<path d="M26.9731 11.5711L25.8467 4.25107C17.6649 4.25107 13.574 0.160156 13.574 0.160156C13.574 0.160156 9.48308 4.25107 1.30126 4.25107L0.174896 11.5711C-0.294817 14.6201 0.187032 17.7399 1.55478 20.5051C2.92253 23.2704 5.10964 25.5467 7.81808 27.0238L13.574 30.1602L19.3299 27.0238C22.0383 25.5467 24.2254 23.2704 25.5932 20.5051C26.9609 17.7399 27.4428 14.6201 26.9731 11.5711ZM19.9926 12.0333L11.8108 20.2152C11.5551 20.4708 11.2083 20.6144 10.8467 20.6144C10.4851 20.6144 10.1383 20.4708 9.88262 20.2152L7.15535 17.4879C7.02511 17.3621 6.92122 17.2116 6.84976 17.0453C6.77829 16.8789 6.74067 16.6999 6.7391 16.5189C6.73753 16.3378 6.77203 16.1583 6.84059 15.9907C6.90916 15.8231 7.01041 15.6708 7.13845 15.5428C7.26648 15.4148 7.41874 15.3135 7.58632 15.2449C7.75391 15.1764 7.93347 15.1419 8.11453 15.1435C8.2956 15.145 8.47453 15.1826 8.6409 15.2541C8.80727 15.3256 8.95774 15.4295 9.08353 15.5597L10.8467 17.3229L18.0644 10.1052C18.3216 9.85676 18.6661 9.71931 19.0236 9.72242C19.3812 9.72553 19.7232 9.86894 19.976 10.1218C20.2288 10.3746 20.3723 10.7166 20.3754 11.0742C20.3785 11.4317 20.241 11.7762 19.9926 12.0333Z" fill="#6414E9"/>
</svg>
