<svg width="28" height="30" viewBox="0 0 28 30" fill="none" xmlns="http://www.w3.org/2000/svg">
<path d="M13.5667 4.61542C8.53509 4.61669 4.44177 8.57533 4.44177 13.4391C4.44177 16.596 5.72281 18.4738 6.66619 19.8576C7.24639 20.7091 7.57511 21.2159 7.57511 21.7259C7.57511 22.8703 8.1885 23.949 9.27869 24.7578C9.30614 25.4363 9.40635 27.0932 9.40635 27.0932C9.40635 27.0939 9.40635 27.0945 9.40635 27.0952C9.42422 27.5656 9.67187 28.53 11.2931 29.0687C11.484 29.3496 11.7348 29.5991 12.0386 29.8021C12.2288 29.9304 12.4535 30 12.6833 30H14.4501C14.6799 30 14.9039 29.9323 15.0947 29.8021C15.3992 29.5985 15.6507 29.3496 15.8403 29.0687C17.4762 28.5243 17.7143 27.549 17.7277 27.092C17.7277 27.092 17.8272 25.4375 17.8547 24.7584C18.9449 23.9491 19.5589 22.871 19.5589 21.7265C19.5589 21.2166 19.887 20.7091 20.4729 19.8513C21.4093 18.479 22.6929 16.5992 22.6929 13.4384C22.6922 8.57342 18.5983 4.61542 13.5667 4.61542ZM18.5606 18.5581C17.8866 19.5462 17.2509 20.4793 17.2509 21.7259C17.2509 22.2736 16.7556 22.7146 16.3866 22.9693H10.7474C10.3785 22.7152 9.88315 22.2736 9.88315 21.7259C9.88315 20.4793 9.24678 19.5462 8.56509 18.5466C7.71426 17.2988 6.74917 15.8837 6.74917 13.4397C6.74917 9.84807 9.80783 6.92473 13.5673 6.92345C17.3275 6.92345 20.3855 9.84616 20.3855 13.4384C20.3855 15.8875 19.4185 17.3007 18.5606 18.5581Z" fill="#6414E9"/>
<path d="M13.5668 2.88441C13.8853 2.88441 14.1431 2.62654 14.1431 2.3074V0.577009C14.1431 0.258505 13.8853 0 13.5668 0C13.2483 0 12.9897 0.258505 12.9897 0.577009V2.3074C12.9897 2.62654 13.2483 2.88441 13.5668 2.88441Z" fill="#6414E9"/>
<path d="M7.43729 4.10478C7.54452 4.28988 7.73793 4.39329 7.93771 4.39329C8.03537 4.39329 8.13494 4.36839 8.22557 4.31605C8.50195 4.15648 8.59642 3.80415 8.43685 3.52777L7.57133 2.02908C7.41176 1.7527 7.05943 1.65824 6.78305 1.81781C6.50731 1.97738 6.41285 2.32971 6.57178 2.60609L7.43729 4.10478Z" fill="#6414E9"/>
<path d="M4.10485 7.4373L2.60615 6.57243C2.32978 6.41286 1.97744 6.50796 1.81787 6.7837C1.65894 7.05944 1.75341 7.41241 2.02915 7.57198L3.52784 8.43686C3.61847 8.4892 3.71805 8.51409 3.8157 8.51409C4.01549 8.51409 4.20889 8.41069 4.31612 8.22559C4.47505 7.94985 4.38058 7.59688 4.10485 7.4373Z" fill="#6414E9"/>
<path d="M2.88441 13.5667C2.88441 13.2482 2.6259 12.9897 2.3074 12.9897H0.577009C0.258505 12.9897 0 13.2482 0 13.5667C0 13.8852 0.258505 14.1437 0.577009 14.1437H2.3074C2.6259 14.1437 2.88441 13.8852 2.88441 13.5667Z" fill="#6414E9"/>
<path d="M3.52773 18.6966L2.0284 19.5608C1.75266 19.7204 1.65756 20.0734 1.81649 20.3485C1.92308 20.5342 2.11776 20.637 2.31691 20.637C2.41456 20.637 2.51414 20.6121 2.60477 20.5598L4.10346 19.6955C4.37984 19.536 4.47431 19.183 4.31537 18.9079C4.15644 18.6309 3.80411 18.537 3.52773 18.6966Z" fill="#6414E9"/>
<path d="M25.1049 19.5621L23.6063 18.6966C23.3292 18.5371 22.9775 18.6309 22.818 18.9073C22.6584 19.1836 22.7522 19.536 23.0286 19.6955L24.5273 20.5604C24.6192 20.6134 24.7175 20.6377 24.8152 20.6377C25.0149 20.6377 25.2083 20.5343 25.3156 20.3498C25.4739 20.0747 25.3807 19.7204 25.1049 19.5621Z" fill="#6414E9"/>
<path d="M26.5565 12.9903L24.8274 12.9897C24.5082 12.9897 24.2504 13.2482 24.2504 13.5661C24.2504 13.8852 24.5082 14.1431 24.8261 14.1431L26.5565 14.1437C26.8744 14.1437 27.1329 13.8852 27.1329 13.5673C27.1329 13.2488 26.8756 12.9903 26.5565 12.9903Z" fill="#6414E9"/>
<path d="M23.3172 8.51344C23.4155 8.51344 23.515 8.48855 23.605 8.43621L25.1044 7.57197C25.3807 7.41304 25.4752 7.06007 25.3163 6.78433C25.1567 6.50795 24.8031 6.41349 24.528 6.57306L23.0293 7.43729C22.7523 7.59687 22.6584 7.94984 22.8174 8.22494C22.9246 8.41004 23.1187 8.51344 23.3172 8.51344Z" fill="#6414E9"/>
<path d="M18.9079 4.31456C18.9985 4.36754 19.0975 4.39243 19.1958 4.39243C19.3949 4.39243 19.5883 4.28903 19.6956 4.10393L20.5598 2.60587C20.7194 2.33014 20.6255 1.97716 20.3492 1.81823C20.0728 1.65802 19.7204 1.75249 19.5609 2.0295L18.6966 3.52756C18.5377 3.80266 18.6328 4.15563 18.9079 4.31456Z" fill="#6414E9"/>
</svg>
