<svg width="92" height="92" viewBox="0 0 92 92" fill="none" xmlns="http://www.w3.org/2000/svg">
<g filter="url(#filter0_d_121_1538)">
<circle cx="46" cy="46" r="38" fill="#6414E9"/>
</g>
<path d="M46 31C37.7258 31 31 37.7258 31 46C31 54.2742 37.7258 61 46 61C54.2742 61 61 54.2742 61 46C61 37.7258 54.2742 31 46 31ZM38.4419 41.3452C38.4419 39.7387 39.7387 38.4419 41.3452 38.4419C42.942 38.4419 44.2484 39.7387 44.2484 41.3452C44.2484 42.9419 42.942 44.2484 41.3452 44.2484C39.7387 44.2484 38.4419 42.9419 38.4419 41.3452ZM42.371 54.0613C42.0903 54.4871 41.6258 54.7097 41.1613 54.7097C40.8807 54.7097 40.6 54.6322 40.358 54.4677C39.6903 54.0226 39.5064 53.1226 39.9516 52.4548L49.629 37.9387C50.0742 37.2709 50.9742 37.0871 51.642 37.5323C52.3097 37.9774 52.4936 38.8774 52.0484 39.5451L42.371 54.0613ZM50.6548 53.5581C49.058 53.5581 47.7516 52.2613 47.7516 50.6548C47.7516 49.058 49.058 47.7516 50.6548 47.7516C52.2613 47.7516 53.5581 49.058 53.5581 50.6548C53.5581 52.2613 52.2613 53.5581 50.6548 53.5581Z" fill="white"/>
<defs>
<filter id="filter0_d_121_1538" x="0" y="0" width="92" height="92" filterUnits="userSpaceOnUse" color-interpolation-filters="sRGB">
<feFlood flood-opacity="0" result="BackgroundImageFix"/>
<feColorMatrix in="SourceAlpha" type="matrix" values="0 0 0 0 0 0 0 0 0 0 0 0 0 0 0 0 0 0 127 0" result="hardAlpha"/>
<feOffset/>
<feGaussianBlur stdDeviation="4"/>
<feComposite in2="hardAlpha" operator="out"/>
<feColorMatrix type="matrix" values="0 0 0 0 0 0 0 0 0 0 0 0 0 0 0 0 0 0 0.16 0"/>
<feBlend mode="normal" in2="BackgroundImageFix" result="effect1_dropShadow_121_1538"/>
<feBlend mode="normal" in="SourceGraphic" in2="effect1_dropShadow_121_1538" result="shape"/>
</filter>
</defs>
</svg>
