<svg width="43" height="50" viewBox="0 0 43 50" fill="none" xmlns="http://www.w3.org/2000/svg">
<path d="M18.5574 0.233709C10.105 2.38822 5.89071 11.6929 9.89195 19.3639C13.9879 27.1296 24.6658 28.7633 30.8689 22.5365C35.2726 18.1564 36.0539 11.6455 32.8577 6.17638C31.4371 3.76143 28.3592 1.39383 25.4471 0.470469C23.8371 -0.0267277 20.0963 -0.168783 18.5574 0.233709ZM25.4707 4.59009C27.6253 5.58448 28.9985 6.95769 30.0639 9.08853C30.8925 10.7932 30.9399 11.0063 30.9399 13.1608C30.9399 15.3153 30.8925 15.5284 30.0639 17.2331C28.9985 19.3876 27.6253 20.7134 25.4234 21.7552C23.9792 22.4418 23.624 22.5128 21.5879 22.5128C19.5517 22.5128 19.1966 22.4418 17.7524 21.7552C15.5505 20.7134 14.1773 19.3876 13.1119 17.2331C12.2832 15.5284 12.2359 15.3153 12.2359 13.1845C12.2359 11.1247 12.3069 10.7695 12.9935 9.32529C13.9405 7.31283 15.2901 5.84492 17.0658 4.92155C18.9125 3.92716 19.9542 3.6904 22.1088 3.78511C23.553 3.85613 24.2869 4.04554 25.4707 4.59009Z" fill="#9C92C5"/>
<path d="M7.47398 24.5253C6.83473 24.7858 5.10638 26.7982 3.87523 28.7633C2.05218 31.5808 0.75 35.9608 0.75 39.2991C0.75 43.7976 5.53255 47.0412 14.4821 48.6038C17.6073 49.1483 25.5624 49.1483 28.6877 48.6038C37.6372 47.0412 42.4197 43.7976 42.4197 39.2991C42.4197 37.2867 41.8042 34.2325 40.9755 32.0543C39.7207 28.787 36.335 24.2886 35.1275 24.2886C33.8017 24.2886 32.7126 25.5434 33.0677 26.6562C33.1624 26.9166 33.7543 27.7453 34.4172 28.5029C36.7375 31.1546 38.2528 34.6823 38.5369 38.21C38.7026 40.0568 38.6789 40.0804 37.945 40.9091C36.9269 42.0692 35.5537 42.8505 33.0204 43.6792C29.3979 44.8867 26.983 45.2181 21.5849 45.2181C16.1867 45.2181 13.7718 44.8867 10.1494 43.6792C7.61603 42.8505 6.24283 42.0692 5.22476 40.9091C4.49081 40.0804 4.46713 40.0568 4.63286 38.21C4.91697 34.6823 6.43224 31.1546 8.77616 28.4792C9.77055 27.3428 9.98363 26.9403 9.98363 26.2063C9.98363 24.8568 8.70513 24.0045 7.47398 24.5253Z" fill="#9C92C5"/>
</svg>
