<svg width="45" height="44" viewBox="0 0 45 44" fill="none" xmlns="http://www.w3.org/2000/svg">
<path d="M6.63647 0.261177C3.50736 1.01767 0.825261 3.75134 0.189122 6.82888C0.0687717 7.44782 0 12.0899 0 21.2881C0 34.2172 0.0171929 34.8877 0.343859 36.16C0.842454 38.1028 1.59894 39.4267 3.09473 40.9053C4.57332 42.4011 5.89718 43.1575 7.83998 43.6561C9.11226 43.9828 9.78278 44 22.7119 44C31.9445 44 36.5522 43.9312 37.1711 43.8109C40.3862 43.1404 43.1543 40.3723 43.8248 37.1572C44.0827 35.9193 44.0827 21.8211 43.8248 20.5832C43.223 17.7292 41.0911 15.2878 38.2199 14.2046C37.2227 13.8264 37.1711 13.8264 22.2649 13.7404C7.51331 13.6545 7.2898 13.6545 6.51612 13.2934C5.38139 12.7604 4.55613 11.9524 4.00595 10.852C3.38701 9.57975 3.33543 7.72291 3.9028 6.48502C4.34981 5.50502 5.41577 4.45625 6.49893 3.92327L7.307 3.51064H22.007H36.7069L37.6869 3.99204C39.6469 4.95485 40.4206 6.34748 40.5581 9.2015C40.6785 11.2818 40.7816 11.5741 41.7444 11.9696C42.2087 12.1587 42.3806 12.1587 42.8792 11.9524C43.8248 11.5569 44.0139 11.1271 44.0139 9.32185C44.0139 8.46221 43.928 7.32747 43.8248 6.82888C43.1543 3.6138 40.3862 0.845737 37.1711 0.175213C36.5522 0.0376701 31.7897 -0.0139084 21.9554 0.00328445C10.2298 0.0204773 7.46173 0.054863 6.63647 0.261177ZM5.93156 16.8008C6.70525 17.0587 8.28699 17.0931 21.7491 17.179L36.7069 17.265L37.6869 17.7464C38.7873 18.2966 39.5953 19.1218 40.1283 20.2566C40.4722 21.0302 40.4894 21.2709 40.4894 28.8702C40.4894 36.4695 40.4722 36.7102 40.1283 37.4839C39.5953 38.6186 38.7873 39.4439 37.6869 39.994L36.7069 40.4754H22.6775H8.66524L7.35858 39.8393C5.79402 39.0656 4.83121 38.0684 4.07473 36.4695L3.52455 35.3176L3.47297 25.3801L3.42139 15.4597L4.24665 15.9755C4.69367 16.2678 5.46735 16.6288 5.93156 16.8008Z" fill="#9C92C5"/>
<path d="M33.7495 27.1509C32.5632 27.873 32.5975 29.9361 33.8354 30.641C35.2796 31.4835 37.1365 30.4863 37.1365 28.8702C37.1365 28.2512 36.6035 27.3228 36.0877 27.0649C35.4172 26.7039 34.4028 26.7382 33.7495 27.1509Z" fill="#9C92C5"/>
<path d="M7.75694 7.10392C6.60502 7.74006 6.6394 9.56251 7.82571 10.0955C8.46185 10.3878 35.5579 10.3878 36.1941 10.0955C36.6926 9.87198 37.1397 9.14988 37.1397 8.58251C37.1397 8.01514 36.6926 7.29304 36.1941 7.06953C35.5063 6.76006 8.32431 6.79444 7.75694 7.10392Z" fill="#9C92C5"/>
</svg>
