<svg width="49" height="49" viewBox="0 0 49 49" fill="none" xmlns="http://www.w3.org/2000/svg">
<path d="M22.6545 0.405357C21.3449 0.864883 20.6096 1.46227 19.1162 3.32333C18.5877 4.01262 17.6457 4.81679 17.0024 5.18441C15.8536 5.80476 15.7617 5.82774 12.7977 5.75881C9.42024 5.68988 8.59309 5.89667 7.2375 7.16036C5.83595 8.49298 5.56024 9.435 5.65214 12.9044C5.72107 15.9143 5.72107 15.9373 5.03179 17.109C4.64119 17.7754 3.60726 18.9242 2.64226 19.7283C0.666309 21.4286 0 22.6233 0 24.5533C0 26.4833 0.666309 27.6781 2.64226 29.3783C3.60726 30.1825 4.64119 31.3313 5.03179 31.9976C5.72107 33.1694 5.72107 33.1924 5.65214 36.2023C5.58321 39.5798 5.79 40.4069 7.05369 41.7625C8.38631 43.164 9.32833 43.4398 12.7977 43.3479C15.8076 43.2789 15.8306 43.2789 17.0024 43.9682C17.6687 44.3588 18.8175 45.3927 19.6217 46.3577C21.3219 48.3337 22.5167 49 24.4467 49C26.3767 49 27.5714 48.3337 29.2717 46.3577C30.0758 45.3927 31.2246 44.3588 31.891 43.9682C33.0627 43.2789 33.0857 43.2789 36.0956 43.3479C39.565 43.4398 40.507 43.164 41.8396 41.7625C43.1033 40.4069 43.3101 39.5798 43.2412 36.2023C43.1723 33.1924 43.1723 33.1694 43.8615 31.9976C44.2521 31.3313 45.2861 30.1825 46.2511 29.3783C48.227 27.6781 48.8933 26.4833 48.8933 24.5533C48.8933 22.6233 48.227 21.4286 46.2511 19.7283C45.2861 18.9242 44.2521 17.7754 43.8615 17.109C43.1723 15.9373 43.1723 15.9143 43.2412 12.9044C43.3331 9.435 43.0574 8.49298 41.6558 7.16036C40.3002 5.89667 39.4731 5.68988 36.0956 5.75881C32.6032 5.82774 31.868 5.59798 30.2826 3.82881C27.8012 1.11762 27.3187 0.704048 26.078 0.33643C24.5156 -0.123093 24.171 -0.123093 22.6545 0.405357ZM27.2038 5.94262C30.1677 9.02143 31.9829 9.73369 36.2564 9.45798C38.5081 9.32012 38.646 9.3431 39.1514 9.84857C39.6569 10.354 39.6799 10.4919 39.542 12.7436C39.2663 17.0401 39.9786 18.8323 43.1263 21.8192C44.8955 23.5194 45.1942 23.933 45.1942 24.5533C45.1942 25.1737 44.8955 25.5873 43.1263 27.2875C39.9786 30.2744 39.2663 32.0665 39.542 36.3631C39.6799 38.6148 39.6569 38.7526 39.1514 39.2581C38.646 39.7636 38.5081 39.7865 36.2564 39.6487C31.9599 39.373 30.1677 40.0852 27.1808 43.233C25.4806 45.0021 25.067 45.3008 24.4467 45.3008C23.8263 45.3008 23.4127 45.0021 21.7125 43.233C18.7256 40.0852 16.9335 39.373 12.6369 39.6487C10.3852 39.7865 10.2474 39.7636 9.7419 39.2581C9.23643 38.7526 9.21345 38.6148 9.35131 36.3631C9.62702 32.0665 8.91476 30.2744 5.76702 27.2875C2.96393 24.5993 2.96393 24.5074 5.76702 21.8192C8.91476 18.8323 9.62702 17.0401 9.35131 12.7436C9.21345 10.4919 9.23643 10.354 9.7419 9.84857C10.2474 9.3431 10.3852 9.32012 12.6369 9.45798C16.8875 9.73369 19.0473 8.88357 21.7585 5.87369C23.4817 3.96667 24.0331 3.59905 24.7913 3.80584C25.044 3.87476 26.1239 4.83976 27.2038 5.94262Z" fill="white"/>
<path d="M22.8023 14.4442C22.5584 14.7269 22.3958 15.1509 22.3958 15.6355C22.3958 16.3018 22.3146 16.4027 21.4611 16.8469C18.8804 18.1795 18.1895 21.4101 20.059 23.4696C20.7296 24.2166 21.4001 24.5599 24.1231 25.6502C25.9113 26.3771 26.3787 27.003 25.7284 27.8712C25.383 28.3356 25.1188 28.4568 24.2856 28.4971C23.0461 28.5779 22.2942 28.0731 22.1114 27.0232C21.8675 25.7714 20.6889 25.3473 19.6526 26.155C19.1446 26.5386 19.1039 26.6799 19.1852 27.6693C19.3071 29.1432 20.1403 30.2941 21.5424 30.9604C22.5584 31.445 22.599 31.5056 22.599 32.293C22.599 34.6352 25.6268 34.5342 25.6674 32.1921C25.6674 31.5258 25.7487 31.4248 26.7241 30.9604C28.2075 30.2336 29 28.9413 29 27.2251C29 25.0243 27.7401 23.7523 24.2653 22.4398C22.4162 21.7533 21.8472 21.2284 22.0707 20.3602C22.2333 19.7342 22.8632 19.391 23.8792 19.391C24.9969 19.391 25.6065 19.7948 25.8503 20.6832C26.1145 21.6524 26.968 22.3389 27.6792 22.1774C29.9347 21.6524 28.8578 17.7757 26.1551 16.8065C25.5049 16.5643 25.4439 16.4835 25.4439 15.7162C25.4439 14.6461 24.8749 14 23.9199 14C23.4728 14 23.0867 14.1615 22.8023 14.4442Z" fill="white"/>
</svg>
