<svg width="20" height="16" viewBox="0 0 20 16" fill="none" xmlns="http://www.w3.org/2000/svg">
<path d="M2 16C1.45 16 0.979333 15.8043 0.588 15.413C0.196 15.021 0 14.55 0 14V2C0 1.45 0.196 0.979333 0.588 0.588C0.979333 0.196 1.45 0 2 0H18C18.55 0 19.021 0.196 19.413 0.588C19.8043 0.979333 20 1.45 20 2V14C20 14.55 19.8043 15.021 19.413 15.413C19.021 15.8043 18.55 16 18 16H2ZM10 8.825C10.0833 8.825 10.1707 8.81233 10.262 8.787C10.354 8.76233 10.4417 8.725 10.525 8.675L17.6 4.25C17.7333 4.16667 17.8333 4.06267 17.9 3.938C17.9667 3.81267 18 3.675 18 3.525C18 3.19167 17.8583 2.94167 17.575 2.775C17.2917 2.60833 17 2.61667 16.7 2.8L10 7L3.3 2.8C3 2.61667 2.70833 2.61233 2.425 2.787C2.14167 2.96233 2 3.20833 2 3.525C2 3.69167 2.03333 3.83733 2.1 3.962C2.16667 4.08733 2.26667 4.18333 2.4 4.25L9.475 8.675C9.55833 8.725 9.646 8.76233 9.738 8.787C9.82933 8.81233 9.91667 8.825 10 8.825Z" fill="#5287E0"/>
</svg>
