<svg width="18" height="22" viewBox="0 0 18 22" fill="none" xmlns="http://www.w3.org/2000/svg">
<path d="M11.4952 1.3609C9.92269 2.16226 8.92477 3.6289 8.89453 5.17113V5.82129H9.46909C11.2079 5.80617 13.1735 3.71962 13.3852 1.64818L13.4759 0.831704H13.0223C12.7652 0.831704 12.0848 1.07362 11.4952 1.3609Z" fill="#010101"/>
<path d="M3.96591 6.10893C2.39343 6.66836 1.75839 7.18244 0.896555 8.54324C-0.434001 10.6298 -0.267681 14.6517 1.28967 17.6908C2.03055 19.1423 3.20991 20.7148 4.10199 21.4103C4.75214 21.9395 4.93358 22 5.67446 22C6.18854 22 6.77822 21.879 7.27718 21.6674C8.32045 21.2138 10.3616 21.1835 11.163 21.5918C11.4503 21.7581 12.1004 21.9093 12.6145 21.9546C13.431 22.0302 13.6276 21.9849 14.2475 21.622C15.1244 21.1079 16.4247 19.4901 17.1203 18.0235C17.9216 16.3754 17.9216 16.3905 17.1505 15.9218C16.2282 15.3623 15.321 14.183 15.0942 13.2153C14.6557 11.4009 15.1547 9.78308 16.5306 8.57348C16.9086 8.24084 17.211 7.92332 17.211 7.86284C17.211 7.81748 16.9388 7.49996 16.6062 7.18244C15.8351 6.44157 14.5499 5.94261 13.2042 5.85189C12.2819 5.80653 11.9341 5.86701 10.8001 6.26013C10.0744 6.51717 9.28813 6.72884 9.07645 6.72884C8.84965 6.72884 8.04829 6.53228 7.30742 6.27525C5.75006 5.76117 5.05454 5.73093 3.96591 6.10893Z" fill="#010101"/>
</svg>
