<svg width="180" height="52" viewBox="0 0 180 52" fill="none" xmlns="http://www.w3.org/2000/svg">
<path d="M179 46.003C179 48.7742 176.709 51.0189 173.874 51.0189H6.13243C3.2995 51.0189 1 48.7742 1 46.003V6.00349C1 3.23366 3.2995 0.981125 6.13243 0.981125H173.873C176.709 0.981125 178.999 3.23366 178.999 6.00349L179 46.003Z" fill="black"/>
<path d="M173.333 1.04163C176.42 1.04163 178.932 3.4905 178.932 6.5V45.5C178.932 48.5095 176.42 50.9584 173.333 50.9584H6.66667C3.58 50.9584 1.06833 48.5095 1.06833 45.5V6.5C1.06833 3.4905 3.58 1.04163 6.66667 1.04163H173.333ZM173.333 2.74817e-06H6.66667C3.00167 2.74817e-06 0 2.92663 0 6.5V45.5C0 49.0734 3.00167 52 6.66667 52H173.333C176.998 52 180 49.0734 180 45.5V6.5C180 2.92663 176.998 2.74817e-06 173.333 2.74817e-06Z" fill="#A6A6A6"/>
<path d="M40.1707 25.7192C40.132 21.5293 43.6893 19.4909 43.852 19.396C41.8373 16.5321 38.7147 16.1408 37.6173 16.1096C34.9947 15.8405 32.4507 17.6397 31.1147 17.6397C29.752 17.6397 27.6947 16.1356 25.4773 16.1798C22.624 16.2227 19.9547 17.8334 18.4907 20.3346C15.4693 25.4345 17.7227 32.929 20.6173 37.0513C22.0653 39.0702 23.7573 41.3244 25.972 41.2451C28.1387 41.158 28.948 39.8983 31.5627 39.8983C34.1533 39.8983 34.9133 41.2451 37.172 41.1944C39.4973 41.158 40.9613 39.1664 42.3587 37.1293C44.032 34.8153 44.704 32.5364 44.7307 32.4194C44.676 32.4012 40.2147 30.7411 40.1707 25.7192Z" fill="white"/>
<path d="M35.904 13.3978C37.0693 11.9769 37.8667 10.0438 37.6453 8.08209C35.9587 8.15489 33.8493 9.21959 32.6347 10.6093C31.56 11.8339 30.6 13.8411 30.848 15.7287C32.7427 15.8665 34.688 14.7966 35.904 13.3978Z" fill="white"/>
<path d="M65.4 13.0117C65.4 14.5418 64.9294 15.6936 63.9894 16.4671C63.1187 17.1808 61.8814 17.5383 60.2787 17.5383C59.484 17.5383 58.804 17.5045 58.2347 17.4369V9.07661C58.9773 8.95961 59.7773 8.89981 60.6413 8.89981C62.168 8.89981 63.3187 9.22351 64.0947 9.87091C64.964 10.6028 65.4 11.6493 65.4 13.0117ZM63.9267 13.0494C63.9267 12.0575 63.6574 11.297 63.1187 10.7666C62.58 10.2375 61.7934 9.97231 60.7574 9.97231C60.3174 9.97231 59.9427 10.0009 59.632 10.0607V16.4164C59.804 16.4424 60.1187 16.4541 60.576 16.4541C61.6454 16.4541 62.4707 16.1642 63.052 15.5844C63.6334 15.0046 63.9267 14.1596 63.9267 13.0494Z" fill="white"/>
<path d="M73.212 14.3481C73.212 15.2906 72.936 16.0628 72.384 16.6686C71.8054 17.2913 71.0387 17.602 70.0814 17.602C69.1587 17.602 68.424 17.3043 67.876 16.7063C67.3294 16.1096 67.056 15.3569 67.056 14.4495C67.056 13.5005 67.3373 12.7218 67.9027 12.1173C68.468 11.5128 69.228 11.2099 70.1854 11.2099C71.108 11.2099 71.8494 11.5076 72.4107 12.1043C72.944 12.6841 73.212 13.4329 73.212 14.3481ZM71.7627 14.3923C71.7627 13.8268 71.6374 13.3419 71.388 12.9376C71.0947 12.4488 70.6774 12.2044 70.1347 12.2044C69.5734 12.2044 69.1467 12.4488 68.8533 12.9376C68.6027 13.3419 68.4787 13.8346 68.4787 14.417C68.4787 14.9825 68.604 15.4674 68.8533 15.8717C69.156 16.3605 69.5774 16.6049 70.1214 16.6049C70.6547 16.6049 71.0733 16.3566 71.3747 15.8587C71.6334 15.4466 71.7627 14.9578 71.7627 14.3923Z" fill="white"/>
<path d="M83.6867 11.3347L81.72 17.4629H80.44L79.6253 14.8018C79.4187 14.1375 79.2507 13.4771 79.12 12.8219H79.0947C78.9733 13.4953 78.8053 14.1544 78.5893 14.8018L77.724 17.4629H76.4293L74.58 11.3347H76.016L76.7267 14.248C76.8987 14.937 77.04 15.5935 77.1533 16.2149H77.1787C77.2827 15.7027 77.4547 15.0501 77.6973 14.261L78.5893 11.336H79.728L80.5827 14.1986C80.7893 14.8967 80.9573 15.5688 81.0867 16.2162H81.1253C81.22 15.5857 81.3627 14.9136 81.552 14.1986L82.3147 11.336H83.6867V11.3347Z" fill="white"/>
<path d="M90.9307 17.4629H89.5333V13.9529C89.5333 12.8713 89.112 12.3305 88.2667 12.3305C87.852 12.3305 87.5173 12.4787 87.2574 12.7764C87 13.0741 86.8694 13.4251 86.8694 13.8268V17.4616H85.472V13.0858C85.472 12.5476 85.4547 11.9639 85.4214 11.3321H86.6494L86.7147 12.2902H86.7534C86.916 11.9925 87.1587 11.7468 87.4774 11.5505C87.856 11.3217 88.28 11.206 88.744 11.206C89.3307 11.206 89.8187 11.3906 90.2067 11.7611C90.6893 12.2148 90.9307 12.8921 90.9307 13.7917V17.4629V17.4629Z" fill="white"/>
<path d="M94.784 17.4629H93.388V8.5228H94.784V17.4629Z" fill="white"/>
<path d="M103.011 14.3481C103.011 15.2906 102.735 16.0628 102.183 16.6686C101.604 17.2913 100.836 17.602 99.88 17.602C98.956 17.602 98.2214 17.3043 97.6747 16.7063C97.128 16.1096 96.8547 15.3569 96.8547 14.4495C96.8547 13.5005 97.136 12.7218 97.7014 12.1173C98.2667 11.5128 99.0267 11.2099 99.9827 11.2099C100.907 11.2099 101.647 11.5076 102.209 12.1043C102.743 12.6841 103.011 13.4329 103.011 14.3481ZM101.56 14.3923C101.56 13.8268 101.435 13.3419 101.185 12.9376C100.893 12.4488 100.475 12.2044 99.9334 12.2044C99.3707 12.2044 98.944 12.4488 98.652 12.9376C98.4014 13.3419 98.2774 13.8346 98.2774 14.417C98.2774 14.9825 98.4027 15.4674 98.652 15.8717C98.9547 16.3605 99.376 16.6049 99.92 16.6049C100.453 16.6049 100.871 16.3566 101.172 15.8587C101.432 15.4466 101.56 14.9578 101.56 14.3923Z" fill="white"/>
<path d="M109.773 17.4629H108.519L108.415 16.757H108.376C107.947 17.3199 107.335 17.602 106.54 17.602C105.947 17.602 105.467 17.4161 105.105 17.0469C104.777 16.7115 104.613 16.2942 104.613 15.7989C104.613 15.0501 104.933 14.4794 105.577 14.0842C106.22 13.689 107.124 13.4953 108.288 13.5044V13.39C108.288 12.5827 107.853 12.1797 106.983 12.1797C106.363 12.1797 105.816 12.3318 105.344 12.6334L105.06 11.739C105.644 11.3867 106.365 11.2099 107.216 11.2099C108.859 11.2099 109.683 12.0549 109.683 13.7449V16.0017C109.683 16.614 109.713 17.1015 109.773 17.4629ZM108.323 15.3569V14.4118C106.781 14.3858 106.011 14.7979 106.011 15.6468C106.011 15.9666 106.099 16.2058 106.279 16.3657C106.459 16.5256 106.688 16.6049 106.961 16.6049C107.268 16.6049 107.555 16.51 107.816 16.3215C108.079 16.1317 108.24 15.8912 108.3 15.5961C108.315 15.5298 108.323 15.4492 108.323 15.3569Z" fill="white"/>
<path d="M117.713 17.4629H116.473L116.408 16.4788H116.369C115.973 17.2276 115.299 17.602 114.351 17.602C113.593 17.602 112.963 17.3121 112.463 16.7323C111.963 16.1525 111.713 15.3998 111.713 14.4755C111.713 13.4836 111.984 12.6802 112.528 12.0666C113.055 11.4946 113.7 11.2086 114.468 11.2086C115.312 11.2086 115.903 11.4855 116.239 12.0406H116.265V8.5228H117.664V15.8119C117.664 16.4086 117.68 16.9585 117.713 17.4629ZM116.265 14.8785V13.8567C116.265 13.6799 116.252 13.5369 116.227 13.4277C116.148 13.1001 115.979 12.8245 115.721 12.6022C115.461 12.3799 115.148 12.2681 114.787 12.2681C114.265 12.2681 113.857 12.4696 113.557 12.8739C113.26 13.2782 113.109 13.7943 113.109 14.4248C113.109 15.0306 113.252 15.522 113.539 15.9003C113.841 16.3033 114.249 16.5048 114.76 16.5048C115.219 16.5048 115.585 16.3371 115.864 16.0004C116.133 15.6897 116.265 15.3153 116.265 14.8785Z" fill="white"/>
<path d="M129.664 14.3481C129.664 15.2906 129.388 16.0628 128.836 16.6686C128.257 17.2913 127.492 17.602 126.533 17.602C125.612 17.602 124.877 17.3043 124.328 16.7063C123.781 16.1096 123.508 15.3569 123.508 14.4495C123.508 13.5005 123.789 12.7218 124.355 12.1173C124.92 11.5128 125.68 11.2099 126.639 11.2099C127.56 11.2099 128.303 11.5076 128.863 12.1043C129.396 12.6841 129.664 13.4329 129.664 14.3481ZM128.216 14.3923C128.216 13.8268 128.091 13.3419 127.841 12.9376C127.547 12.4488 127.131 12.2044 126.587 12.2044C126.027 12.2044 125.6 12.4488 125.305 12.9376C125.055 13.3419 124.931 13.8346 124.931 14.417C124.931 14.9825 125.056 15.4674 125.305 15.8717C125.608 16.3605 126.029 16.6049 126.573 16.6049C127.107 16.6049 127.527 16.3566 127.828 15.8587C128.085 15.4466 128.216 14.9578 128.216 14.3923Z" fill="white"/>
<path d="M137.177 17.4629H135.781V13.9529C135.781 12.8713 135.36 12.3305 134.513 12.3305C134.099 12.3305 133.764 12.4787 133.505 12.7764C133.247 13.0741 133.117 13.4251 133.117 13.8268V17.4616H131.719V13.0858C131.719 12.5476 131.703 11.9639 131.669 11.3321H132.896L132.961 12.2902H133C133.164 11.9925 133.407 11.7468 133.724 11.5505C134.104 11.3217 134.527 11.206 134.992 11.206C135.577 11.206 136.065 11.3906 136.453 11.7611C136.937 12.2148 137.177 12.8921 137.177 13.7917V17.4629V17.4629Z" fill="white"/>
<path d="M146.581 12.3552H145.043V15.3322C145.043 16.0888 145.316 16.4671 145.857 16.4671C146.108 16.4671 146.316 16.4463 146.48 16.4034L146.516 17.4369C146.24 17.5383 145.877 17.589 145.431 17.589C144.879 17.589 144.449 17.4252 144.139 17.0976C143.827 16.77 143.672 16.2188 143.672 15.4453V12.3552H142.753V11.3347H143.672V10.2115L145.041 9.8085V11.3334H146.58V12.3552H146.581Z" fill="white"/>
<path d="M153.979 17.4629H152.58V13.9789C152.58 12.8804 152.159 12.3305 151.315 12.3305C150.667 12.3305 150.224 12.649 149.981 13.286C149.94 13.4199 149.916 13.5837 149.916 13.7761V17.4616H148.52V8.5228H149.916V12.2161H149.943C150.383 11.544 151.013 11.2086 151.831 11.2086C152.409 11.2086 152.888 11.3932 153.268 11.7637C153.741 12.2252 153.979 12.9116 153.979 13.819V17.4629V17.4629Z" fill="white"/>
<path d="M161.609 14.1089C161.609 14.3533 161.591 14.5587 161.557 14.7264H157.367C157.385 15.3322 157.585 15.7937 157.973 16.1135C158.328 16.3995 158.785 16.5425 159.345 16.5425C159.965 16.5425 160.531 16.4463 161.04 16.2526L161.259 17.199C160.663 17.4512 159.961 17.5773 159.149 17.5773C158.176 17.5773 157.409 17.2978 156.855 16.7388C156.297 16.1798 156.021 15.4297 156.021 14.4885C156.021 13.5642 156.279 12.7946 156.797 12.181C157.339 11.5258 158.071 11.1982 158.995 11.1982C159.899 11.1982 160.585 11.5258 161.049 12.181C161.424 12.701 161.609 13.3445 161.609 14.1089ZM160.276 13.7566C160.287 13.3523 160.195 13.0039 160.005 12.7101C159.763 12.3318 159.393 12.142 158.893 12.142C158.437 12.142 158.065 12.3266 157.781 12.6971C157.549 12.9922 157.412 13.3445 157.367 13.7566H160.276Z" fill="white"/>
<path d="M71.5267 40.9552H68.4987L66.84 35.8735H61.0747L59.4947 40.9552H56.5467L62.2587 23.6548H65.7867L71.5267 40.9552ZM66.34 33.7415L64.84 29.224C64.6813 28.7625 64.384 27.6757 63.9453 25.9649H63.892C63.7173 26.7007 63.436 27.7875 63.0493 29.224L61.576 33.7415H66.34V33.7415Z" fill="white"/>
<path d="M86.216 34.5644C86.216 36.686 85.628 38.363 84.452 39.5941C83.3987 40.69 82.0907 41.2373 80.5293 41.2373C78.844 41.2373 77.6333 40.6471 76.896 39.4667H76.8427V46.0382H74V32.5871C74 31.2533 73.964 29.8844 73.8947 28.4804H76.3947L76.5533 30.4577H76.6067C77.5547 28.9679 78.9933 28.2243 80.924 28.2243C82.4333 28.2243 83.6933 28.8054 84.7013 29.9689C85.712 31.1337 86.216 32.6651 86.216 34.5644ZM83.32 34.6658C83.32 33.4516 83.04 32.4506 82.4773 31.6628C81.8627 30.8412 81.0373 30.4304 80.0027 30.4304C79.3013 30.4304 78.664 30.6592 78.0947 31.1103C77.524 31.5653 77.1506 32.1594 76.976 32.8952C76.888 33.2384 76.844 33.5192 76.844 33.7402V35.8202C76.844 36.7276 77.1293 37.4933 77.7 38.1186C78.2707 38.7439 79.012 39.0559 79.924 39.0559C80.9947 39.0559 81.828 38.6529 82.424 37.8495C83.0213 37.0448 83.32 35.984 83.32 34.6658Z" fill="white"/>
<path d="M100.932 34.5644C100.932 36.686 100.344 38.363 99.1667 39.5941C98.1147 40.69 96.8067 41.2373 95.2453 41.2373C93.56 41.2373 92.3493 40.6471 91.6133 39.4667H91.56V46.0382H88.7173V32.5871C88.7173 31.2533 88.6813 29.8844 88.612 28.4804H91.112L91.2707 30.4577H91.324C92.2707 28.9679 93.7093 28.2243 95.6413 28.2243C97.1493 28.2243 98.4093 28.8054 99.42 29.9689C100.427 31.1337 100.932 32.6651 100.932 34.5644ZM98.036 34.6658C98.036 33.4516 97.7547 32.4506 97.192 31.6628C96.5773 30.8412 95.7547 30.4304 94.7187 30.4304C94.016 30.4304 93.38 30.6592 92.8093 31.1103C92.2387 31.5653 91.8667 32.1594 91.692 32.8952C91.6053 33.2384 91.56 33.5192 91.56 33.7402V35.8202C91.56 36.7276 91.8453 37.4933 92.4133 38.1186C92.984 38.7426 93.7253 39.0559 94.64 39.0559C95.7107 39.0559 96.544 38.6529 97.14 37.8495C97.7373 37.0448 98.036 35.984 98.036 34.6658Z" fill="white"/>
<path d="M117.385 36.1036C117.385 37.5752 116.861 38.7725 115.809 39.6968C114.653 40.7069 113.044 41.2113 110.976 41.2113C109.067 41.2113 107.536 40.8525 106.377 40.1336L107.036 37.8235C108.284 38.5593 109.653 38.9285 111.145 38.9285C112.216 38.9285 113.049 38.6919 113.648 38.2213C114.244 37.7507 114.541 37.1189 114.541 36.3311C114.541 35.6291 114.296 35.0376 113.804 34.5579C113.315 34.0782 112.497 33.6323 111.356 33.2202C108.249 32.0905 106.697 30.4356 106.697 28.2594C106.697 26.8372 107.241 25.6711 108.331 24.7637C109.416 23.855 110.864 23.4013 112.675 23.4013C114.289 23.4013 115.631 23.6756 116.701 24.2229L115.991 26.4823C114.991 25.9519 113.86 25.6867 112.595 25.6867C111.595 25.6867 110.813 25.9272 110.253 26.4056C109.78 26.8333 109.543 27.3546 109.543 27.9721C109.543 28.6559 109.813 29.2214 110.357 29.666C110.831 30.0768 111.691 30.5214 112.939 31.0011C114.465 31.6004 115.587 32.3011 116.308 33.1045C117.027 33.9053 117.385 34.9076 117.385 36.1036Z" fill="white"/>
<path d="M126.784 30.5604H123.651V36.6171C123.651 38.1576 124.203 38.9272 125.309 38.9272C125.817 38.9272 126.239 38.8843 126.572 38.7985L126.651 40.9032C126.091 41.1073 125.353 41.21 124.44 41.21C123.317 41.21 122.44 40.8759 121.807 40.209C121.176 39.5408 120.859 38.4202 120.859 36.8459V30.5578H118.992V28.4778H120.859V26.1937L123.651 25.3721V28.4778H126.784V30.5604Z" fill="white"/>
<path d="M140.921 34.6151C140.921 36.5326 140.359 38.1069 139.236 39.338C138.059 40.6055 136.496 41.2373 134.548 41.2373C132.671 41.2373 131.176 40.6302 130.061 39.416C128.947 38.2018 128.389 36.6691 128.389 34.8218C128.389 32.8887 128.963 31.3053 130.113 30.0742C131.261 28.8418 132.811 28.2256 134.759 28.2256C136.636 28.2256 138.147 28.8327 139.287 30.0482C140.377 31.2273 140.921 32.7496 140.921 34.6151ZM137.972 34.7048C137.972 33.5543 137.72 32.5676 137.209 31.7447C136.613 30.7489 135.761 30.2523 134.657 30.2523C133.515 30.2523 132.647 30.7502 132.051 31.7447C131.54 32.5689 131.288 33.5712 131.288 34.7568C131.288 35.9073 131.54 36.894 132.051 37.7156C132.665 38.7114 133.524 39.208 134.632 39.208C135.717 39.208 136.569 38.701 137.184 37.6896C137.708 36.8511 137.972 35.854 137.972 34.7048Z" fill="white"/>
<path d="M150.161 30.9179C149.88 30.8672 149.58 30.8412 149.265 30.8412C148.265 30.8412 147.492 31.2091 146.948 31.9462C146.475 32.5962 146.237 33.4178 146.237 34.4097V40.9552H143.396L143.423 32.409C143.423 30.9712 143.387 29.6621 143.316 28.4817H145.792L145.896 30.8685H145.975C146.275 30.0482 146.748 29.3878 147.396 28.8925C148.029 28.4466 148.713 28.2243 149.451 28.2243C149.713 28.2243 149.951 28.2425 150.161 28.275V30.9179Z" fill="white"/>
<path d="M162.875 34.1276C162.875 34.6242 162.841 35.0428 162.771 35.3847H154.243C154.276 36.6171 154.688 37.5596 155.48 38.2096C156.199 38.7907 157.128 39.0819 158.269 39.0819C159.532 39.0819 160.684 38.8856 161.72 38.4917L162.165 40.4157C160.955 40.9305 159.525 41.1866 157.876 41.1866C155.892 41.1866 154.335 40.6172 153.201 39.4797C152.071 38.3422 151.504 36.8147 151.504 34.8985C151.504 33.0174 152.031 31.4509 153.085 30.2016C154.189 28.8678 155.681 28.2009 157.559 28.2009C159.403 28.2009 160.799 28.8678 161.747 30.2016C162.497 31.2611 162.875 32.5715 162.875 34.1276ZM160.164 33.4087C160.183 32.5871 159.997 31.8773 159.612 31.278C159.12 30.5071 158.364 30.1223 157.347 30.1223C156.417 30.1223 155.661 30.498 155.084 31.252C154.611 31.8513 154.329 32.5702 154.243 33.4074H160.164V33.4087Z" fill="white"/>
<path d="M117.957 1.1175L179.002 19.3823L178.951 36.2648L79.9057 1L117.957 1.1175Z" fill="url(#paint0_linear_702_365)"/>
<path d="M122.045 8.51721C121.953 8.80131 121.937 9.06851 121.998 9.31891C122.061 9.56491 122.179 9.77501 122.353 9.94931C122.531 10.1251 122.747 10.254 123 10.3362C123.222 10.4083 123.426 10.4429 123.614 10.4401C123.801 10.4372 123.977 10.4107 124.14 10.3608C124.304 10.3109 124.454 10.2492 124.59 10.1759L124.197 11.3875C123.963 11.4734 123.721 11.5225 123.472 11.5347C123.222 11.5469 122.927 11.4975 122.585 11.3865C122.212 11.2653 121.887 11.0959 121.609 10.8781C121.332 10.6603 121.115 10.4059 120.959 10.1149C120.804 9.82391 120.712 9.50951 120.684 9.17171C120.657 8.83401 120.702 8.48311 120.82 8.11921C120.939 7.75531 121.108 7.44481 121.329 7.18781C121.55 6.93081 121.809 6.73041 122.106 6.58651C122.403 6.44251 122.728 6.36411 123.08 6.35101C123.433 6.33801 123.796 6.39211 124.168 6.51321C124.51 6.62431 124.778 6.75801 124.973 6.91441C125.167 7.07091 125.334 7.25261 125.473 7.45961L125.079 8.67131C125.012 8.53161 124.927 8.39351 124.824 8.25711C124.722 8.11621 124.596 7.99171 124.445 7.88361C124.295 7.77111 124.109 7.67881 123.887 7.60671C123.634 7.52451 123.383 7.50211 123.136 7.53941C122.893 7.57811 122.674 7.67861 122.478 7.84101C122.283 8.00331 122.139 8.22871 122.045 8.51721ZM125.215 10.4305C125.321 10.1065 125.488 9.84921 125.716 9.65851C125.945 9.46791 126.214 9.34931 126.524 9.30271C126.834 9.25601 127.155 9.28681 127.488 9.39501C127.82 9.50311 128.096 9.66631 128.315 9.88451C128.538 10.1042 128.686 10.3584 128.759 10.6471C128.836 10.9372 128.822 11.2443 128.717 11.5683C128.613 11.8878 128.445 12.1422 128.212 12.3314C127.983 12.522 127.714 12.6407 127.404 12.6873C127.099 12.7354 126.78 12.7053 126.447 12.5972C126.114 12.489 125.836 12.3251 125.613 12.1054C125.39 11.8857 125.242 11.6316 125.169 11.3429C125.096 11.0542 125.112 10.75 125.215 10.4305ZM126.247 10.7658C126.195 10.9255 126.184 11.0739 126.213 11.211C126.244 11.3436 126.302 11.4582 126.388 11.555C126.475 11.6517 126.584 11.7217 126.718 11.765C126.846 11.8068 126.974 11.814 127.101 11.7864C127.232 11.7603 127.346 11.7019 127.445 11.6112C127.549 11.5174 127.627 11.3906 127.679 11.2308C127.731 11.0711 127.742 10.9227 127.713 10.7856C127.688 10.6501 127.631 10.5332 127.54 10.435C127.453 10.3382 127.346 10.2689 127.217 10.2271C127.084 10.1839 126.954 10.176 126.827 10.2035C126.701 10.2311 126.585 10.2917 126.481 10.3855C126.377 10.4792 126.299 10.606 126.247 10.7658ZM134.138 12.8439L133.498 14.8145L132.486 14.4857L133.092 12.6216C133.152 12.4352 133.167 12.2853 133.135 12.1719C133.109 12.0556 133.027 11.975 132.889 11.9303C132.801 11.9015 132.714 11.8977 132.628 11.919C132.549 11.9373 132.475 11.9821 132.408 12.0535C132.345 12.1263 132.293 12.2248 132.253 12.3491L131.647 14.2132L130.635 13.8844L131.241 12.0203C131.302 11.8339 131.316 11.684 131.284 11.5706C131.258 11.4542 131.176 11.3737 131.039 11.329C130.95 11.3001 130.863 11.2963 130.777 11.3177C130.698 11.336 130.624 11.3808 130.557 11.4521C130.494 11.5249 130.442 11.6235 130.402 11.7477L129.796 13.6118L128.824 13.296L129.82 10.2336L130.791 10.5494L130.644 11.0021C130.782 10.8653 130.939 10.7741 131.116 10.7285C131.297 10.6843 131.492 10.6961 131.701 10.7639C131.94 10.8417 132.117 10.9481 132.23 11.083C132.345 11.2135 132.406 11.371 132.415 11.5554C132.578 11.4316 132.756 11.3521 132.949 11.3167C133.142 11.2813 133.343 11.2974 133.551 11.3652C133.791 11.4431 133.965 11.551 134.072 11.6889C134.185 11.8238 134.245 11.9879 134.251 12.1812C134.256 12.3745 134.219 12.5954 134.138 12.8439ZM135.595 10.8368C135.647 10.6771 135.746 10.5671 135.894 10.5069C136.042 10.4424 136.196 10.436 136.356 10.4879C136.52 10.5413 136.641 10.637 136.719 10.7752C136.803 10.9103 136.819 11.0578 136.767 11.2175C136.715 11.3773 136.614 11.4895 136.466 11.5541C136.322 11.6201 136.168 11.6264 136.003 11.5731C135.844 11.5212 135.723 11.4254 135.64 11.2859C135.558 11.1463 135.543 10.9966 135.595 10.8368ZM135.321 12.021L136.293 12.3368L135.298 15.3992L134.326 15.0834L135.321 12.021ZM138.722 14.4509C138.781 14.269 138.791 14.1176 138.751 13.9969C138.717 13.8776 138.619 13.7921 138.46 13.7401C138.353 13.7055 138.253 13.6974 138.158 13.7159C138.064 13.7343 137.981 13.7785 137.909 13.8484C137.837 13.9183 137.782 14.0131 137.743 14.133L137.137 15.997L136.125 15.6682L137.121 12.6058L138.132 12.9346L137.983 13.394C138.127 13.2542 138.289 13.1622 138.47 13.118C138.656 13.0753 138.862 13.0907 139.088 13.1642C139.47 13.2883 139.714 13.4805 139.821 13.7409C139.928 14.0013 139.921 14.3157 139.802 14.684L139.161 16.6546L138.116 16.315L138.722 14.4509ZM139.77 17.0954L140.742 17.4112C140.715 17.5398 140.717 17.6556 140.747 17.7587C140.782 17.8632 140.844 17.952 140.933 18.0251C141.02 18.1027 141.129 18.1624 141.257 18.2042C141.399 18.2503 141.539 18.2589 141.676 18.2298C141.812 18.2052 141.934 18.1393 142.042 18.0322C142.153 17.931 142.239 17.7872 142.3 17.6008L143.273 14.605L144.239 14.9186L143.265 17.9145C143.138 18.305 142.958 18.5971 142.723 18.7908C142.493 18.9858 142.233 19.0978 141.944 19.1265C141.654 19.1597 141.351 19.1251 141.036 19.0227C140.658 18.9001 140.364 18.7408 140.153 18.5446C139.947 18.3499 139.815 18.1281 139.758 17.8791C139.701 17.6346 139.704 17.3733 139.77 17.0954ZM140.286 15.2829C140.398 14.9367 140.561 14.6706 140.773 14.4845C140.99 14.2999 141.228 14.1859 141.488 14.1426C141.747 14.0993 142.001 14.118 142.25 14.1988C142.507 14.2824 142.713 14.4181 142.868 14.6058C143.029 14.7906 143.13 15.0171 143.17 15.2854C143.21 15.5536 143.176 15.8542 143.068 16.1871C142.962 16.5155 142.812 16.7786 142.621 16.9763C142.43 17.1696 142.215 17.296 141.975 17.3554C141.741 17.4117 141.495 17.3981 141.237 17.3145C140.989 17.2337 140.772 17.0996 140.588 16.9121C140.405 16.7201 140.28 16.4857 140.213 16.2088C140.15 15.9333 140.175 15.6247 140.286 15.2829ZM141.344 15.6268C141.294 15.7822 141.283 15.9284 141.312 16.0654C141.343 16.198 141.404 16.3111 141.496 16.4049C141.588 16.4986 141.701 16.5672 141.834 16.6104C141.95 16.6479 142.069 16.6573 142.193 16.6387C142.323 16.617 142.441 16.5623 142.548 16.4744C142.655 16.3865 142.735 16.2605 142.789 16.0962C142.829 15.972 142.842 15.856 142.828 15.7484C142.818 15.6422 142.788 15.5465 142.737 15.4613C142.691 15.3775 142.631 15.3064 142.556 15.248C142.482 15.1895 142.403 15.1466 142.319 15.1192C142.186 15.0759 142.054 15.0651 141.924 15.0867C141.795 15.1084 141.679 15.1639 141.576 15.2532C141.473 15.3425 141.396 15.4671 141.344 15.6268ZM146.542 17.8235C146.655 18.0027 146.762 18.1502 146.862 18.266C146.967 18.3789 147.064 18.4667 147.151 18.5295C147.24 18.5878 147.32 18.6286 147.391 18.6516C147.494 18.6848 147.576 18.6871 147.639 18.6586C147.703 18.6301 147.746 18.5803 147.769 18.5093C147.791 18.4427 147.789 18.3808 147.763 18.3234C147.739 18.2616 147.685 18.1926 147.602 18.1165C147.523 18.0419 147.41 17.9534 147.261 17.8513C147.132 17.7504 147.013 17.6429 146.903 17.5286C146.798 17.4113 146.724 17.2768 146.68 17.1252C146.636 16.9735 146.646 16.8 146.71 16.6047C146.77 16.4183 146.87 16.2766 147.01 16.1797C147.154 16.0841 147.321 16.0305 147.511 16.0187C147.706 16.0083 147.914 16.0392 148.136 16.1113C148.313 16.169 148.471 16.2423 148.609 16.3313C148.751 16.4217 148.878 16.5219 148.99 16.6317C149.106 16.743 149.209 16.8625 149.3 16.9902L148.729 17.5258C148.639 17.3641 148.524 17.2189 148.385 17.0901C148.246 16.9569 148.108 16.8679 147.971 16.8232C147.878 16.7929 147.801 16.7876 147.74 16.8072C147.685 16.8283 147.647 16.8677 147.628 16.9254C147.607 16.992 147.615 17.0561 147.654 17.1178C147.698 17.1809 147.764 17.249 147.853 17.3221C147.948 17.3923 148.061 17.4807 148.194 17.5874C148.335 17.697 148.459 17.8112 148.568 17.9299C148.681 18.0501 148.759 18.1808 148.801 18.3222C148.848 18.465 148.84 18.6318 148.778 18.8226C148.672 19.151 148.489 19.3664 148.23 19.4687C147.977 19.5681 147.668 19.5586 147.304 19.4403C147.083 19.3682 146.885 19.2746 146.711 19.1593C146.541 19.0499 146.389 18.9271 146.257 18.7908C146.126 18.6502 146.009 18.5042 145.906 18.353L146.542 17.8235ZM149.368 18.2781C149.473 17.9541 149.64 17.6968 149.869 17.5062C150.098 17.3156 150.367 17.1969 150.677 17.1503C150.986 17.1037 151.307 17.1344 151.64 17.2426C151.973 17.3508 152.249 17.5139 152.467 17.7322C152.69 17.9519 152.838 18.206 152.911 18.4947C152.989 18.7849 152.975 19.0919 152.87 19.4159C152.766 19.7355 152.597 19.9899 152.364 20.1791C152.135 20.3697 151.866 20.4883 151.557 20.5349C151.252 20.583 150.933 20.553 150.6 20.4448C150.267 20.3366 149.989 20.1727 149.766 19.9531C149.543 19.7334 149.395 19.4792 149.322 19.1905C149.249 18.9018 149.264 18.5977 149.368 18.2781ZM150.4 18.6134C150.348 18.7732 150.337 18.9216 150.366 19.0586C150.396 19.1912 150.455 19.3059 150.541 19.4026C150.627 19.4994 150.737 19.5694 150.87 19.6126C150.999 19.6545 151.127 19.6616 151.253 19.6341C151.384 19.608 151.499 19.5496 151.597 19.4588C151.701 19.365 151.779 19.2383 151.831 19.0785C151.883 18.9187 151.895 18.7703 151.865 18.6333C151.841 18.4977 151.783 18.3808 151.692 18.2826C151.606 18.1859 151.499 18.1166 151.37 18.0748C151.237 18.0315 151.107 18.0236 150.98 18.0512C150.853 18.0787 150.738 18.1393 150.634 18.2331C150.53 18.3269 150.452 18.4536 150.4 18.6134ZM153.295 19.554C153.4 19.23 153.567 18.9727 153.796 18.7821C154.025 18.5915 154.294 18.4728 154.603 18.4262C154.913 18.3796 155.234 18.4103 155.567 18.5185C155.9 18.6267 156.176 18.7898 156.394 19.0081C156.617 19.2278 156.765 19.4819 156.838 19.7706C156.916 20.0608 156.902 20.3678 156.797 20.6918C156.693 21.0114 156.524 21.2658 156.291 21.455C156.062 21.6456 155.793 21.7642 155.484 21.8108C155.178 21.8589 154.859 21.8289 154.527 21.7207C154.194 21.6126 153.916 21.4486 153.693 21.229C153.47 21.0093 153.322 20.7551 153.249 20.4664C153.176 20.1777 153.191 19.8736 153.295 19.554ZM154.327 19.8893C154.275 20.0491 154.263 20.1975 154.292 20.3345C154.323 20.4671 154.381 20.5818 154.468 20.6785C154.554 20.7753 154.664 20.8453 154.797 20.8885C154.926 20.9304 155.053 20.9375 155.18 20.91C155.311 20.8839 155.426 20.8255 155.524 20.7347C155.628 20.6409 155.706 20.5142 155.758 20.3544C155.81 20.1946 155.821 20.0462 155.792 19.9092C155.768 19.7736 155.71 19.6567 155.619 19.5585C155.533 19.4618 155.425 19.3925 155.297 19.3507C155.163 19.3074 155.034 19.2995 154.907 19.3271C154.78 19.3546 154.665 19.4152 154.561 19.509C154.457 19.6028 154.379 19.7295 154.327 19.8893ZM159.5 21.2022C159.559 21.0203 159.569 20.8689 159.53 20.7482C159.495 20.6289 159.398 20.5433 159.238 20.4914C159.131 20.4568 159.031 20.4487 158.937 20.4672C158.842 20.4856 158.759 20.5297 158.688 20.5997C158.616 20.6696 158.56 20.7644 158.521 20.8843L157.916 22.7483L156.904 22.4195L157.899 19.3571L158.911 19.6859L158.762 20.1453C158.905 20.0055 159.067 19.9135 159.249 19.8693C159.434 19.8266 159.64 19.842 159.867 19.9155C160.248 20.0396 160.493 20.2318 160.599 20.4922C160.706 20.7526 160.7 21.067 160.58 21.4353L159.94 23.4059L158.894 23.0663L159.5 21.2022Z" fill="white"/>
<defs>
<linearGradient id="paint0_linear_702_365" x1="99.457" y1="0.617499" x2="178.957" y2="29.1175" gradientUnits="userSpaceOnUse">
<stop stop-color="#FD696C"/>
<stop offset="1" stop-color="#6414E9"/>
</linearGradient>
</defs>
</svg>
