<svg width="30" height="30" viewBox="0 0 12 12" fill="none" xmlns="http://www.w3.org/2000/svg">
<g clip-path="url(#clip0_1472_13)">
<path d="M6 3.5C7.381 3.5 8.5 4.619 8.5 6C8.5 7.381 7.381 8.5 6 8.5C4.619 8.5 3.5 7.381 3.5 6C3.5 4.619 4.619 3.5 6 3.5Z" stroke="white" stroke-linecap="round" stroke-linejoin="round"/>
<path d="M11.375 6C11.375 3.031 8.969 0.625 6 0.625C3.031 0.625 0.625 3.031 0.625 6C0.625 8.969 3.031 11.375 6 11.375C8.969 11.375 11.375 8.969 11.375 6ZM11.375 6H8.5M7.7615 4.2385L9.8005 2.1995" stroke="white" stroke-linecap="round" stroke-linejoin="round"/>
<path d="M6.00825 8.5C6.7695 8.5 7.38675 9.1435 7.38675 9.9375C7.38675 10.7315 6.7695 11.375 6.00825 11.375M0.625 6C0.625 5.23875 1.2685 4.6215 2.0625 4.6215C2.8565 4.6215 3.5 5.23875 3.5 6M5.2525 6.937C5.39975 7.1285 5.58425 7.2 5.841 7.2H6.19625C6.27497 7.19993 6.3529 7.18436 6.42559 7.15417C6.49829 7.12398 6.56432 7.07976 6.61993 7.02404C6.67553 6.96832 6.71961 6.9022 6.74965 6.82944C6.77969 6.75668 6.7951 6.67872 6.795 6.6C6.795 6.26875 6.527 6 6.19625 6H5.80375C5.72503 5.99993 5.6471 5.98436 5.57441 5.95417C5.50171 5.92398 5.43568 5.87976 5.38007 5.82404C5.32447 5.76832 5.28039 5.7022 5.25035 5.62944C5.22031 5.55668 5.2049 5.47872 5.205 5.4C5.205 5.06875 5.473 4.8 5.80375 4.8H6.159C6.41575 4.8 6.60025 4.8715 6.7475 5.063M6 4.8V4.5M6 7.5V7.2" stroke="white" stroke-linecap="round" stroke-linejoin="round"/>
</g>
<defs>
<clipPath id="clip0_1472_13">
<rect width="12" height="12" fill="white"/>
</clipPath>
</defs>
</svg>
