<svg width="8" height="13" viewBox="0 0 8 13" fill="none" xmlns="http://www.w3.org/2000/svg">
<path d="M8 6.5C8 6.34454 7.96946 6.19414 7.9084 6.04879C7.84733 5.90266 7.7659 5.78102 7.66412 5.68386L2.0458 0.320627C1.82188 0.106875 1.53689 -6.71798e-08 1.19084 -5.20532e-08C0.844783 -3.69266e-08 0.559796 0.106875 0.335877 0.320627C0.111959 0.534379 3.52501e-08 0.806427 4.96898e-08 1.13677C6.41296e-08 1.46711 0.111959 1.73916 0.335877 1.95291L5.09924 6.5L0.335878 11.0471C0.111959 11.2608 5.04118e-07 11.5329 5.18558e-07 11.8632C5.32998e-07 12.1936 0.111959 12.4656 0.335878 12.6794C0.559796 12.8931 0.844784 13 1.19084 13C1.5369 13 1.82188 12.8931 2.0458 12.6794L7.66412 7.31614C7.78626 7.19955 7.87257 7.07324 7.92305 6.93722C7.97435 6.80119 8 6.65545 8 6.5Z" fill="#6414E9"/>
</svg>
