<svg width="19" height="21" viewBox="0 0 19 21" fill="none" xmlns="http://www.w3.org/2000/svg">
<path d="M5.58145 0.644053C5.29928 0.789413 5.15391 1.08869 5.15391 1.55898V1.94376L4.44421 2.08057C2.54595 2.44825 1.24625 3.6881 0.78451 5.5778C0.613497 6.26186 0.613497 15.8386 0.78451 16.5227C1.11799 17.8823 2.01581 19.0622 3.1103 19.5838C4.29885 20.1482 4.3587 20.1567 9.51477 20.1567C14.6708 20.1567 14.7307 20.1482 15.9192 19.5838C17.0137 19.0622 17.9116 17.8823 18.245 16.5227C18.416 15.8386 18.416 6.26186 18.245 5.5778C17.7833 3.6881 16.4836 2.44825 14.5853 2.08057L13.8756 1.94376V1.55898C13.8756 0.832167 13.4395 0.404633 12.9265 0.618401C12.593 0.755211 12.5075 0.934776 12.5075 1.46492V1.901H9.51477H6.52203V1.48202C6.52203 0.934776 6.47072 0.806515 6.17145 0.661154C5.88072 0.50724 5.85507 0.50724 5.58145 0.644053ZM12.4904 3.78216C12.5332 4.48331 12.9265 4.79969 13.4908 4.58592C13.6961 4.50897 13.8756 4.08998 13.8756 3.69665C13.8756 3.30332 13.9184 3.28622 14.6024 3.47433C15.5345 3.7223 16.2442 4.261 16.6033 4.99636C16.7914 5.39824 17.0394 6.39012 17.0394 6.792V7.03142H9.51477H1.99016V6.792C1.99016 6.39012 2.23813 5.39824 2.42624 4.99636C2.78537 4.261 3.49508 3.7223 4.42711 3.47433C5.11116 3.28622 5.15391 3.30332 5.15391 3.69665C5.15391 4.08998 5.33348 4.50897 5.5387 4.58592C5.81232 4.68853 6.12869 4.63723 6.32536 4.44911C6.47927 4.30375 6.52203 4.17549 6.52203 3.82491C6.52203 3.58549 6.54768 3.35462 6.58188 3.32897C6.61608 3.29477 7.94999 3.27767 9.54897 3.28622L12.4648 3.31187L12.4904 3.78216ZM17.0394 11.9652C17.0394 15.7788 16.9966 16.2918 16.6033 17.1041C16.2356 17.8652 15.4832 18.4124 14.4742 18.6689C13.7901 18.8399 5.23942 18.8399 4.55537 18.6689C3.54638 18.4124 2.79392 17.8652 2.42624 17.1041C2.03291 16.2918 1.99016 15.7788 1.99016 11.9652V8.39953H9.51477H17.0394V11.9652Z" fill="#FD696C" stroke="#FD696C" stroke-width="0.397291"/>
<path d="M5.95276 10.9222C5.67058 11.0419 5.41406 11.4267 5.41406 11.7345C5.41406 12.0509 5.67058 12.4271 5.98696 12.5554C6.85913 12.923 7.62014 11.8371 6.97884 11.1445C6.68812 10.8367 6.32044 10.7597 5.95276 10.9222Z" fill="#FD696C" stroke="#FD696C" stroke-width="0.397291"/>
<path d="M9.11392 10.931C8.78045 11.0934 8.54103 11.5637 8.61798 11.9057C8.68639 12.2221 9.02842 12.5641 9.34479 12.6325C9.69537 12.7095 10.1571 12.4701 10.3196 12.1195C10.4906 11.7689 10.4906 11.7005 10.3196 11.3499C10.1913 11.0763 9.76378 10.7941 9.4987 10.7941C9.43885 10.7941 9.26784 10.8625 9.11392 10.931Z" fill="#FD696C" stroke="#FD696C" stroke-width="0.397291"/>
<path d="M12.3701 10.9132C11.5919 11.2552 11.6518 12.324 12.4556 12.5891C13.0028 12.7687 13.6185 12.3069 13.6185 11.734C13.6185 11.4177 13.3619 11.0414 13.0627 10.9132C12.7121 10.7678 12.7035 10.7678 12.3701 10.9132Z" fill="#FD696C" stroke="#FD696C" stroke-width="0.397291"/>
<path d="M5.85072 14.1624C5.15811 14.5472 5.36333 15.6588 6.14999 15.8041C6.75709 15.9153 7.21028 15.5049 7.21028 14.855C7.21028 14.2137 6.44926 13.8289 5.85072 14.1624Z" fill="#FD696C" stroke="#FD696C" stroke-width="0.397291"/>
<path d="M8.97733 14.2142C8.6524 14.4708 8.53269 14.8983 8.69515 15.266C8.82342 15.5823 9.19965 15.8389 9.51602 15.8389C9.8324 15.8389 10.2086 15.5823 10.3369 15.266C10.5849 14.6845 10.1573 14.0432 9.51602 14.0432C9.32791 14.0432 9.10559 14.1116 8.97733 14.2142Z" fill="#FD696C" stroke="#FD696C" stroke-width="0.397291"/>
<path d="M12.0718 14.291C11.6443 14.7186 11.7896 15.5223 12.3283 15.7532C12.867 15.9755 13.4741 15.6591 13.5853 15.0862C13.7563 14.2397 12.6875 13.6754 12.0718 14.291Z" fill="#FD696C" stroke="#FD696C" stroke-width="0.397291"/>
</svg>
