<svg width="7" height="13" viewBox="0 0 7 13" fill="none" xmlns="http://www.w3.org/2000/svg">
<path d="M5.11512 2.16667H6.73042C6.87903 2.16667 6.99964 2.04533 6.99964 1.89583V0.270833C6.99964 0.121333 6.87903 0 6.73042 0H5.11512C3.48259 0 2.15373 1.33629 2.15373 2.97917V4.875H0.269217C0.120609 4.875 0 4.99633 0 5.14583V6.77083C0 6.92033 0.120609 7.04167 0.269217 7.04167H2.15373V12.7292C2.15373 12.8787 2.27434 13 2.42295 13H4.03825C4.18686 13 4.30747 12.8787 4.30747 12.7292V7.04167H6.19199C6.30775 7.04167 6.41059 6.96692 6.44774 6.85642L6.98618 5.23142C7.01364 5.14908 6.99964 5.05808 6.94903 4.98712C6.89787 4.91671 6.81711 4.875 6.73042 4.875H4.30747V2.97917C4.30747 2.53121 4.66984 2.16667 5.11512 2.16667Z" fill="white"/>
</svg>
