<svg width="16" height="19" viewBox="0 0 16 19" fill="none" xmlns="http://www.w3.org/2000/svg">
<path d="M5.04135 4.51331C7.43814 6.91011 9.40599 8.87354 9.41926 8.87354C9.46348 8.86911 11.6082 6.75976 11.5861 6.74207C11.5728 6.7288 10.6884 6.16719 9.61826 5.4906C8.5481 4.80959 7.10648 3.89421 6.41221 3.45642C5.71793 3.01863 4.27632 2.09883 3.20616 1.42224L1.26042 0.188465L0.972986 0.170776L0.685547 0.153089L5.04135 4.51331Z" fill="#34A853"/>
<path d="M0 9.58074V18.3145L4.36465 13.9454L8.73371 9.58074L4.36465 5.2161L0 0.847029V9.58074Z" fill="#4285F4"/>
<path d="M11.2683 8.39548C10.6536 9.02785 10.1451 9.5585 10.1407 9.57619C10.1362 9.58946 10.6404 10.1245 11.2683 10.7613L12.4048 11.9199L13.5988 11.146C14.2577 10.7215 14.8502 10.3191 14.921 10.2528C15.3101 9.88574 15.3013 9.2578 14.8989 8.89076C14.8148 8.81558 14.5584 8.63428 14.3284 8.48835C14.0985 8.34242 13.5678 8.00191 13.1477 7.73216L12.3871 7.2413L11.2683 8.39548Z" fill="#FBBC04"/>
<path d="M5.04135 14.6442L0.685547 19H0.91992C1.07027 19 1.2162 18.969 1.33118 18.9071C1.42847 18.8585 3.42285 17.6026 5.76216 16.1168C8.10146 14.6309 10.37 13.1982 10.799 12.924C11.2279 12.6542 11.5817 12.4199 11.5861 12.4066C11.5861 12.3756 9.44579 10.2884 9.41484 10.2884C9.40599 10.2884 7.43814 12.2474 5.04135 14.6442Z" fill="#EA4335"/>
</svg>
