<svg width="180" height="52" viewBox="0 0 180 52" fill="none" xmlns="http://www.w3.org/2000/svg">
<path d="M173.333 52H6.66667C3.00167 52 0 49.0734 0 45.5V6.5C0 2.9266 3.00167 0 6.66667 0H173.333C176.998 0 180 2.9266 180 6.5V45.5C180 49.0734 176.998 52 173.333 52Z" fill="black"/>
<path d="M173.333 1.0416C176.42 1.0416 178.932 3.4905 178.932 6.5V45.5C178.932 48.5095 176.42 50.9584 173.333 50.9584H6.66667C3.58 50.9584 1.06833 48.5095 1.06833 45.5V6.5C1.06833 3.4905 3.58 1.0416 6.66667 1.0416H173.333ZM173.333 0H6.66667C3.00167 0 0 2.9266 0 6.5V45.5C0 49.0734 3.00167 52 6.66667 52H173.333C176.998 52 180 49.0734 180 45.5V6.5C180 2.9266 176.998 0 173.333 0Z" fill="#A6A6A6"/>
<path d="M13.9133 9.8004C13.5217 10.2001 13.295 10.8225 13.295 11.6285V40.378C13.295 41.184 13.5217 41.8064 13.9133 42.2061L14.01 42.2939L30.5333 26.1901V25.8099L14.01 9.7061L13.9133 9.8004Z" fill="url(#paint0_linear_702_367)"/>
<path d="M36.035 31.5607L30.5333 26.1901V25.8099L36.0416 20.4392L36.165 20.5091L42.6883 24.128C44.55 25.155 44.55 26.845 42.6883 27.8785L36.165 31.4909L36.035 31.5607Z" fill="url(#paint1_linear_702_367)"/>
<path d="M36.165 31.4909L30.5333 26L13.9133 42.2061C14.5317 42.8399 15.54 42.9162 16.6867 42.2825L36.165 31.4909Z" fill="url(#paint2_linear_702_367)"/>
<path d="M36.165 20.5091L16.6867 9.7175C15.54 9.0903 14.5317 9.1666 13.9133 9.8004L30.5333 26L36.165 20.5091Z" fill="url(#paint3_linear_702_367)"/>
<path d="M63.2233 13.3169C63.2233 14.4024 62.89 15.2718 62.2333 15.9201C61.4783 16.6888 60.495 17.0755 59.29 17.0755C58.1383 17.0755 57.155 16.6823 56.3483 15.9071C55.54 15.1206 55.1367 14.1554 55.1367 13C55.1367 11.8446 55.54 10.8794 56.3483 10.0994C57.155 9.3178 58.1383 8.9245 59.29 8.9245C59.8633 8.9245 60.41 9.0399 60.9317 9.2544C61.4517 9.4705 61.875 9.763 62.1817 10.1238L61.485 10.8095C60.95 10.1936 60.2217 9.8898 59.29 9.8898C58.45 9.8898 57.7217 10.1758 57.1033 10.7526C56.4917 11.3311 56.185 12.0803 56.185 13C56.185 13.9198 56.4917 14.6754 57.1033 15.2539C57.7217 15.8243 58.45 16.1168 59.29 16.1168C60.1817 16.1168 60.9317 15.8243 61.5233 15.2474C61.9133 14.8655 62.135 14.339 62.1933 13.6663H59.29V12.727H63.1633C63.21 12.9301 63.2233 13.1268 63.2233 13.3169Z" fill="white" stroke="white" stroke-width="0.16" stroke-miterlimit="10"/>
<path d="M69.3683 10.0604H65.73V12.5304H69.01V13.4696H65.73V15.9396H69.3683V16.8967H64.7V9.1032H69.3683V10.0604Z" fill="white" stroke="white" stroke-width="0.16" stroke-miterlimit="10"/>
<path d="M73.705 16.8967H72.675V10.0604H70.4433V9.1032H75.9383V10.0604H73.705V16.8967Z" fill="white" stroke="white" stroke-width="0.16" stroke-miterlimit="10"/>
<path d="M79.915 16.8967V9.1032H80.9433V16.8967H79.915Z" fill="white" stroke="white" stroke-width="0.16" stroke-miterlimit="10"/>
<path d="M85.5016 16.8967H84.48V10.0604H82.24V9.1032H87.7416V10.0604H85.5016V16.8967Z" fill="white" stroke="white" stroke-width="0.16" stroke-miterlimit="10"/>
<path d="M98.145 15.8941C97.3566 16.6823 96.38 17.0755 95.215 17.0755C94.0433 17.0755 93.0666 16.6823 92.2783 15.8941C91.4916 15.1076 91.1 14.1424 91.1 13C91.1 11.8576 91.4916 10.8924 92.2783 10.1059C93.0666 9.3178 94.0433 8.9245 95.215 8.9245C96.3733 8.9245 97.35 9.3178 98.1383 10.1124C98.9317 10.9054 99.3233 11.8641 99.3233 13C99.3233 14.1424 98.9316 15.1076 98.145 15.8941ZM93.04 15.2409C93.6333 15.8243 94.355 16.1168 95.215 16.1168C96.0683 16.1168 96.7966 15.8243 97.3833 15.2409C97.975 14.6575 98.275 13.9084 98.275 13C98.275 12.0916 97.975 11.3425 97.3833 10.7591C96.7966 10.1758 96.0683 9.8833 95.215 9.8833C94.355 9.8833 93.6333 10.1758 93.04 10.7591C92.4483 11.3425 92.1483 12.0916 92.1483 13C92.1483 13.9084 92.4483 14.6575 93.04 15.2409Z" fill="white" stroke="white" stroke-width="0.16" stroke-miterlimit="10"/>
<path d="M100.768 16.8967V9.1032H102.018L105.905 15.1645H105.95L105.905 13.6662V9.1032H106.933V16.8967H105.86L101.79 10.5365H101.745L101.79 12.0412V16.8967H100.768Z" fill="white" stroke="white" stroke-width="0.16" stroke-miterlimit="10"/>
<path d="M90.8467 28.2783C87.715 28.2783 85.1567 30.602 85.1567 33.8081C85.1567 36.9883 87.715 39.3364 90.8467 39.3364C93.985 39.3364 96.5433 36.9883 96.5433 33.8081C96.5433 30.602 93.985 28.2783 90.8467 28.2783ZM90.8467 37.1589C89.1283 37.1589 87.65 35.776 87.65 33.8081C87.65 31.8143 89.1283 30.4558 90.8467 30.4558C92.565 30.4558 94.05 31.8143 94.05 33.8081C94.05 35.776 92.565 37.1589 90.8467 37.1589ZM78.4317 28.2783C75.2933 28.2783 72.7417 30.602 72.7417 33.8081C72.7417 36.9883 75.2933 39.3364 78.4317 39.3364C81.5683 39.3364 84.1217 36.9883 84.1217 33.8081C84.1217 30.602 81.5683 28.2783 78.4317 28.2783ZM78.4317 37.1589C76.7117 37.1589 75.2283 35.776 75.2283 33.8081C75.2283 31.8143 76.7117 30.4558 78.4317 30.4558C80.15 30.4558 81.6283 31.8143 81.6283 33.8081C81.6283 35.776 80.15 37.1589 78.4317 37.1589ZM63.6583 29.9731V32.3229H69.4133C69.245 33.6359 68.795 34.6011 68.105 35.2739C67.265 36.0864 65.9567 36.9883 63.6583 36.9883C60.1167 36.9883 57.3433 34.2014 57.3433 30.7483C57.3433 27.2951 60.1167 24.5083 63.6583 24.5083C65.5733 24.5083 66.9667 25.2379 67.995 26.1836L69.6933 24.5278C68.255 23.1888 66.3417 22.1601 63.6583 22.1601C58.8017 22.1601 54.72 26.013 54.72 30.7483C54.72 35.4835 58.8017 39.3364 63.6583 39.3364C66.2833 39.3364 68.255 38.4979 69.805 36.9249C71.3933 35.3763 71.8883 33.1988 71.8883 31.4405C71.8883 30.8945 71.8417 30.3924 71.7583 29.9731H63.6583ZM124.068 31.7948C123.6 30.5581 122.155 28.2783 119.212 28.2783C116.295 28.2783 113.867 30.5191 113.867 33.8081C113.867 36.9054 116.27 39.3364 119.492 39.3364C122.097 39.3364 123.6 37.7878 124.218 36.8859L122.285 35.6298C121.64 36.5495 120.762 37.1589 119.492 37.1589C118.23 37.1589 117.325 36.595 116.745 35.4835L124.33 32.4236L124.068 31.7948ZM116.335 33.6359C116.27 31.5039 118.033 30.4119 119.297 30.4119C120.287 30.4119 121.127 30.8945 121.407 31.5851L116.335 33.6359ZM110.17 39H112.663V22.75H110.17V39ZM106.087 29.51H106.003C105.443 28.8633 104.375 28.2783 103.022 28.2783C100.182 28.2783 97.585 30.7093 97.585 33.826C97.585 36.9249 100.182 39.3364 103.022 39.3364C104.375 39.3364 105.443 38.7465 106.003 38.0803H106.087V38.8733C106.087 40.9874 104.928 42.1233 103.06 42.1233C101.537 42.1233 100.592 41.0508 100.202 40.1489L98.0333 41.0313C98.6583 42.497 100.313 44.3008 103.06 44.3008C105.983 44.3008 108.45 42.6238 108.45 38.5434V28.6146H106.087V29.51ZM103.235 37.1589C101.517 37.1589 100.078 35.7565 100.078 33.826C100.078 31.8776 101.517 30.4558 103.235 30.4558C104.928 30.4558 106.263 31.8776 106.263 33.826C106.263 35.7565 104.928 37.1589 103.235 37.1589ZM135.742 22.75H129.778V39H132.265V32.8429H135.742C138.503 32.8429 141.212 30.8945 141.212 27.7956C141.212 24.6984 138.497 22.75 135.742 22.75ZM135.807 30.5825H132.265V25.0104H135.807C137.663 25.0104 138.723 26.5135 138.723 27.7956C138.723 29.0534 137.663 30.5825 135.807 30.5825ZM151.178 28.2474C149.382 28.2474 147.513 29.0209 146.745 30.7353L148.952 31.6371C149.427 30.7353 150.3 30.4428 151.223 30.4428C152.513 30.4428 153.822 31.1984 153.842 32.5325V32.7031C153.392 32.4496 152.428 32.0743 151.243 32.0743C148.867 32.0743 146.445 33.3499 146.445 35.7305C146.445 37.908 148.392 39.3104 150.58 39.3104C152.253 39.3104 153.177 38.5743 153.757 37.7179H153.842V38.974H156.243V32.7405C156.243 29.8594 154.037 28.2474 151.178 28.2474ZM150.878 37.1524C150.065 37.1524 148.932 36.7591 148.932 35.776C148.932 34.5183 150.345 34.0356 151.568 34.0356C152.663 34.0356 153.177 34.2713 153.842 34.5816C153.647 36.0864 152.318 37.1524 150.878 37.1524ZM164.993 28.6033L162.135 35.6476H162.05L159.095 28.6033H156.413L160.853 38.4475L158.32 43.9254H160.918L167.76 28.6033H164.993ZM142.578 39H145.072V22.75H142.578V39Z" fill="white"/>
<path d="M117.957 1L179.002 19.2648L178.951 36.1473L79.9057 0.8825L117.957 1Z" fill="url(#paint4_linear_702_367)"/>
<path d="M122.045 8.3997C121.953 8.6838 121.937 8.951 121.998 9.2014C122.061 9.4474 122.179 9.6575 122.353 9.8318C122.531 10.0076 122.747 10.1365 123 10.2187C123.222 10.2908 123.426 10.3254 123.614 10.3226C123.801 10.3197 123.977 10.2932 124.14 10.2433C124.304 10.1934 124.454 10.1317 124.59 10.0584L124.197 11.27C123.963 11.3559 123.721 11.405 123.472 11.4172C123.222 11.4294 122.927 11.38 122.585 11.269C122.212 11.1478 121.887 10.9784 121.609 10.7606C121.332 10.5428 121.115 10.2884 120.959 9.9974C120.804 9.7064 120.712 9.392 120.684 9.0542C120.657 8.7165 120.702 8.3656 120.82 8.0017C120.939 7.6378 121.108 7.3273 121.329 7.0703C121.55 6.8133 121.809 6.6129 122.106 6.469C122.403 6.325 122.728 6.2466 123.08 6.2335C123.433 6.2205 123.796 6.2746 124.168 6.3957C124.51 6.5068 124.778 6.6405 124.973 6.7969C125.167 6.9534 125.334 7.1351 125.473 7.3421L125.079 8.5538C125.012 8.4141 124.927 8.276 124.824 8.1396C124.722 7.9987 124.596 7.8742 124.445 7.7661C124.295 7.6536 124.109 7.5613 123.887 7.4892C123.634 7.407 123.383 7.3846 123.136 7.4219C122.893 7.4606 122.674 7.5611 122.478 7.7235C122.283 7.8858 122.139 8.1112 122.045 8.3997ZM125.215 10.313C125.321 9.989 125.488 9.7317 125.716 9.541C125.945 9.3504 126.214 9.2318 126.524 9.1852C126.834 9.1385 127.155 9.1693 127.488 9.2775C127.82 9.3856 128.096 9.5488 128.315 9.767C128.538 9.9867 128.686 10.2409 128.759 10.5296C128.836 10.8197 128.822 11.1268 128.717 11.4508C128.613 11.7703 128.445 12.0247 128.212 12.2139C127.983 12.4045 127.714 12.5232 127.404 12.5698C127.099 12.6179 126.78 12.5878 126.447 12.4797C126.114 12.3715 125.836 12.2076 125.613 11.9879C125.39 11.7682 125.242 11.5141 125.169 11.2254C125.096 10.9367 125.112 10.6325 125.215 10.313ZM126.247 10.6483C126.195 10.808 126.184 10.9564 126.213 11.0935C126.244 11.2261 126.302 11.3407 126.388 11.4375C126.475 11.5342 126.584 11.6042 126.718 11.6475C126.846 11.6893 126.974 11.6965 127.101 11.6689C127.232 11.6428 127.346 11.5844 127.445 11.4937C127.549 11.3999 127.627 11.2731 127.679 11.1133C127.731 10.9536 127.742 10.8052 127.713 10.6681C127.688 10.5326 127.631 10.4157 127.54 10.3175C127.453 10.2207 127.346 10.1514 127.217 10.1096C127.084 10.0664 126.954 10.0585 126.827 10.086C126.701 10.1136 126.585 10.1742 126.481 10.268C126.377 10.3617 126.299 10.4885 126.247 10.6483ZM134.138 12.7264L133.498 14.697L132.486 14.3682L133.092 12.5041C133.152 12.3177 133.167 12.1678 133.135 12.0544C133.109 11.9381 133.027 11.8575 132.889 11.8128C132.801 11.784 132.714 11.7802 132.628 11.8015C132.549 11.8198 132.475 11.8646 132.408 11.936C132.345 12.0088 132.293 12.1073 132.253 12.2316L131.647 14.0957L130.635 13.7669L131.241 11.9028C131.302 11.7164 131.316 11.5665 131.284 11.4531C131.258 11.3367 131.176 11.2562 131.039 11.2115C130.95 11.1826 130.863 11.1788 130.777 11.2002C130.698 11.2185 130.624 11.2633 130.557 11.3346C130.494 11.4074 130.442 11.506 130.402 11.6302L129.796 13.4943L128.824 13.1785L129.82 10.1161L130.791 10.4319L130.644 10.8846C130.782 10.7478 130.939 10.6566 131.116 10.611C131.297 10.5668 131.492 10.5786 131.701 10.6464C131.94 10.7242 132.117 10.8306 132.23 10.9655C132.345 11.096 132.406 11.2535 132.415 11.4379C132.578 11.3141 132.756 11.2346 132.949 11.1992C133.142 11.1638 133.343 11.1799 133.551 11.2477C133.791 11.3256 133.965 11.4335 134.072 11.5714C134.185 11.7063 134.245 11.8704 134.251 12.0637C134.256 12.257 134.219 12.4779 134.138 12.7264ZM135.595 10.7193C135.647 10.5596 135.746 10.4496 135.894 10.3894C136.042 10.3249 136.196 10.3185 136.356 10.3704C136.52 10.4238 136.641 10.5195 136.719 10.6577C136.803 10.7928 136.819 10.9403 136.767 11.1C136.715 11.2598 136.614 11.372 136.466 11.4366C136.322 11.5026 136.168 11.5089 136.003 11.4556C135.844 11.4037 135.723 11.3079 135.64 11.1684C135.558 11.0288 135.543 10.8791 135.595 10.7193ZM135.321 11.9035L136.293 12.2193L135.298 15.2817L134.326 14.9659L135.321 11.9035ZM138.722 14.3334C138.781 14.1515 138.791 14.0001 138.751 13.8794C138.717 13.7601 138.619 13.6746 138.46 13.6226C138.353 13.588 138.253 13.5799 138.158 13.5984C138.064 13.6168 137.981 13.661 137.909 13.7309C137.837 13.8008 137.782 13.8956 137.743 14.0155L137.137 15.8795L136.125 15.5507L137.121 12.4883L138.132 12.8171L137.983 13.2765C138.127 13.1367 138.289 13.0447 138.47 13.0005C138.656 12.9578 138.862 12.9732 139.088 13.0467C139.47 13.1708 139.714 13.363 139.821 13.6234C139.928 13.8838 139.921 14.1982 139.802 14.5665L139.161 16.5371L138.116 16.1975L138.722 14.3334ZM139.77 16.9779L140.742 17.2937C140.715 17.4223 140.717 17.5381 140.747 17.6412C140.782 17.7457 140.844 17.8345 140.933 17.9076C141.02 17.9852 141.129 18.0449 141.257 18.0867C141.399 18.1328 141.539 18.1414 141.676 18.1123C141.812 18.0877 141.934 18.0218 142.042 17.9147C142.153 17.8135 142.239 17.6697 142.3 17.4833L143.273 14.4875L144.239 14.8011L143.265 17.797C143.138 18.1875 142.958 18.4796 142.723 18.6733C142.493 18.8683 142.233 18.9803 141.944 19.009C141.654 19.0422 141.351 19.0076 141.036 18.9052C140.658 18.7826 140.364 18.6233 140.153 18.4271C139.947 18.2324 139.815 18.0106 139.758 17.7616C139.701 17.5171 139.704 17.2558 139.77 16.9779ZM140.286 15.1654C140.398 14.8192 140.561 14.5531 140.773 14.367C140.99 14.1824 141.228 14.0684 141.488 14.0251C141.747 13.9818 142.001 14.0005 142.25 14.0813C142.507 14.1649 142.713 14.3006 142.868 14.4883C143.029 14.6731 143.13 14.8996 143.17 15.1679C143.21 15.4361 143.176 15.7367 143.068 16.0696C142.962 16.398 142.812 16.6611 142.621 16.8588C142.43 17.0521 142.215 17.1785 141.975 17.2379C141.741 17.2942 141.495 17.2806 141.237 17.197C140.989 17.1162 140.772 16.9821 140.588 16.7946C140.405 16.6026 140.28 16.3682 140.213 16.0913C140.15 15.8158 140.175 15.5072 140.286 15.1654ZM141.344 15.5093C141.294 15.6647 141.283 15.8109 141.312 15.9479C141.343 16.0805 141.404 16.1936 141.496 16.2874C141.588 16.3811 141.701 16.4497 141.834 16.4929C141.95 16.5304 142.069 16.5398 142.193 16.5212C142.323 16.4995 142.441 16.4448 142.548 16.3569C142.655 16.269 142.735 16.143 142.789 15.9787C142.829 15.8545 142.842 15.7385 142.828 15.6309C142.818 15.5247 142.788 15.429 142.737 15.3438C142.691 15.26 142.631 15.1889 142.556 15.1305C142.482 15.072 142.403 15.0291 142.319 15.0017C142.186 14.9584 142.054 14.9476 141.924 14.9692C141.795 14.9909 141.679 15.0464 141.576 15.1357C141.473 15.225 141.396 15.3496 141.344 15.5093ZM146.542 17.706C146.655 17.8852 146.762 18.0327 146.862 18.1485C146.967 18.2614 147.064 18.3492 147.151 18.412C147.24 18.4703 147.32 18.5111 147.391 18.5341C147.494 18.5673 147.576 18.5696 147.639 18.5411C147.703 18.5126 147.746 18.4628 147.769 18.3918C147.791 18.3252 147.789 18.2633 147.763 18.2059C147.739 18.1441 147.685 18.0751 147.602 17.999C147.523 17.9244 147.41 17.8359 147.261 17.7338C147.132 17.6329 147.013 17.5254 146.903 17.4111C146.798 17.2938 146.724 17.1593 146.68 17.0077C146.636 16.856 146.646 16.6825 146.71 16.4872C146.77 16.3008 146.87 16.1591 147.01 16.0622C147.154 15.9666 147.321 15.913 147.511 15.9012C147.706 15.8908 147.914 15.9217 148.136 15.9938C148.313 16.0515 148.471 16.1248 148.609 16.2138C148.751 16.3042 148.878 16.4044 148.99 16.5142C149.106 16.6255 149.209 16.745 149.3 16.8727L148.729 17.4083C148.639 17.2466 148.524 17.1014 148.385 16.9726C148.246 16.8394 148.108 16.7504 147.971 16.7057C147.878 16.6754 147.801 16.6701 147.74 16.6897C147.685 16.7108 147.647 16.7502 147.628 16.8079C147.607 16.8745 147.615 16.9386 147.654 17.0003C147.698 17.0634 147.764 17.1315 147.853 17.2046C147.948 17.2748 148.061 17.3632 148.194 17.4699C148.335 17.5795 148.459 17.6937 148.568 17.8124C148.681 17.9326 148.759 18.0633 148.801 18.2047C148.848 18.3475 148.84 18.5143 148.778 18.7051C148.672 19.0335 148.489 19.2489 148.23 19.3512C147.977 19.4506 147.668 19.4411 147.304 19.3228C147.083 19.2507 146.885 19.1571 146.711 19.0418C146.541 18.9324 146.389 18.8096 146.257 18.6733C146.126 18.5327 146.009 18.3867 145.906 18.2355L146.542 17.706ZM149.368 18.1606C149.473 17.8366 149.64 17.5793 149.869 17.3887C150.098 17.1981 150.367 17.0794 150.677 17.0328C150.986 16.9862 151.307 17.0169 151.64 17.1251C151.973 17.2333 152.249 17.3964 152.467 17.6147C152.69 17.8344 152.838 18.0885 152.911 18.3772C152.989 18.6674 152.975 18.9744 152.87 19.2984C152.766 19.618 152.597 19.8724 152.364 20.0616C152.135 20.2522 151.866 20.3708 151.557 20.4174C151.252 20.4655 150.933 20.4355 150.6 20.3273C150.267 20.2191 149.989 20.0552 149.766 19.8356C149.543 19.6159 149.395 19.3617 149.322 19.073C149.249 18.7843 149.264 18.4802 149.368 18.1606ZM150.4 18.4959C150.348 18.6557 150.337 18.8041 150.366 18.9411C150.396 19.0737 150.455 19.1884 150.541 19.2851C150.627 19.3819 150.737 19.4519 150.87 19.4951C150.999 19.537 151.127 19.5441 151.253 19.5166C151.384 19.4905 151.499 19.4321 151.597 19.3413C151.701 19.2475 151.779 19.1208 151.831 18.961C151.883 18.8012 151.895 18.6528 151.865 18.5158C151.841 18.3802 151.783 18.2633 151.692 18.1651C151.606 18.0684 151.499 17.9991 151.37 17.9573C151.237 17.914 151.107 17.9061 150.98 17.9337C150.853 17.9612 150.738 18.0218 150.634 18.1156C150.53 18.2094 150.452 18.3361 150.4 18.4959ZM153.295 19.4365C153.4 19.1125 153.567 18.8552 153.796 18.6646C154.025 18.474 154.294 18.3553 154.603 18.3087C154.913 18.2621 155.234 18.2928 155.567 18.401C155.9 18.5092 156.176 18.6723 156.394 18.8906C156.617 19.1103 156.765 19.3644 156.838 19.6531C156.916 19.9433 156.902 20.2503 156.797 20.5743C156.693 20.8939 156.524 21.1483 156.291 21.3375C156.062 21.5281 155.793 21.6467 155.484 21.6933C155.178 21.7414 154.859 21.7114 154.527 21.6032C154.194 21.4951 153.916 21.3311 153.693 21.1115C153.47 20.8918 153.322 20.6376 153.249 20.3489C153.176 20.0602 153.191 19.7561 153.295 19.4365ZM154.327 19.7718C154.275 19.9316 154.263 20.08 154.292 20.217C154.323 20.3496 154.381 20.4643 154.468 20.561C154.554 20.6578 154.664 20.7278 154.797 20.771C154.926 20.8129 155.053 20.82 155.18 20.7925C155.311 20.7664 155.426 20.708 155.524 20.6172C155.628 20.5234 155.706 20.3967 155.758 20.2369C155.81 20.0771 155.821 19.9287 155.792 19.7917C155.768 19.6561 155.71 19.5392 155.619 19.441C155.533 19.3443 155.425 19.275 155.297 19.2332C155.163 19.1899 155.034 19.182 154.907 19.2096C154.78 19.2371 154.665 19.2977 154.561 19.3915C154.457 19.4853 154.379 19.612 154.327 19.7718ZM159.5 21.0847C159.559 20.9028 159.569 20.7514 159.53 20.6307C159.495 20.5114 159.398 20.4258 159.238 20.3739C159.131 20.3393 159.031 20.3312 158.937 20.3497C158.842 20.3681 158.759 20.4122 158.688 20.4822C158.616 20.5521 158.56 20.6469 158.521 20.7668L157.916 22.6308L156.904 22.302L157.899 19.2396L158.911 19.5684L158.762 20.0278C158.905 19.888 159.067 19.796 159.249 19.7518C159.434 19.7091 159.64 19.7245 159.867 19.798C160.248 19.9221 160.493 20.1143 160.599 20.3747C160.706 20.6351 160.7 20.9495 160.58 21.3178L159.94 23.2884L158.894 22.9488L159.5 21.0847Z" fill="white"/>
<defs>
<linearGradient id="paint0_linear_702_367" x1="29.0663" y1="40.6774" x2="7.25614" y2="18.308" gradientUnits="userSpaceOnUse">
<stop stop-color="#00A0FF"/>
<stop offset="0.0066" stop-color="#00A1FF"/>
<stop offset="0.2601" stop-color="#00BEFF"/>
<stop offset="0.5122" stop-color="#00D2FF"/>
<stop offset="0.7604" stop-color="#00DFFF"/>
<stop offset="1" stop-color="#00E3FF"/>
</linearGradient>
<linearGradient id="paint1_linear_702_367" x1="45.1125" y1="25.9982" x2="12.85" y2="25.9982" gradientUnits="userSpaceOnUse">
<stop stop-color="#FFE000"/>
<stop offset="0.4087" stop-color="#FFBD00"/>
<stop offset="0.7754" stop-color="#FFA500"/>
<stop offset="1" stop-color="#FF9C00"/>
</linearGradient>
<linearGradient id="paint2_linear_702_367" x1="33.1027" y1="23.0151" x2="3.52635" y2="-7.3196" gradientUnits="userSpaceOnUse">
<stop stop-color="#FF3A44"/>
<stop offset="1" stop-color="#C31162"/>
</linearGradient>
<linearGradient id="paint3_linear_702_367" x1="9.72973" y1="51.7709" x2="22.9369" y2="38.2253" gradientUnits="userSpaceOnUse">
<stop stop-color="#32A071"/>
<stop offset="0.0685" stop-color="#2DA771"/>
<stop offset="0.4762" stop-color="#15CF74"/>
<stop offset="0.8009" stop-color="#06E775"/>
<stop offset="1" stop-color="#00F076"/>
</linearGradient>
<linearGradient id="paint4_linear_702_367" x1="99.457" y1="0.499999" x2="178.957" y2="29" gradientUnits="userSpaceOnUse">
<stop stop-color="#FD696C"/>
<stop offset="1" stop-color="#6414E9"/>
</linearGradient>
</defs>
</svg>
