<svg width="32" height="40" viewBox="0 0 32 40" fill="none" xmlns="http://www.w3.org/2000/svg">
<path d="M15.7188 1.677V2.82787L16.8234 2.93528C22.5523 3.47235 27.2209 7.67684 28.6347 13.5693C29.0176 15.1344 28.9735 18.5103 28.5611 20.1369C27.8836 22.7455 26.2342 25.4922 24.3196 27.1648C23.436 27.9474 21.6982 29.1136 21.4183 29.1136C21.3594 29.1136 21.3152 28.5458 21.3152 27.84V26.5817L21.978 26.1521C24.1429 24.725 25.9544 21.8555 26.5287 18.9553C28.1046 10.9606 21.1974 3.7639 13.5392 5.42115C7.57462 6.71012 3.68659 12.7867 4.90896 18.9553C5.48333 21.8555 7.2948 24.725 9.45972 26.1521L10.1224 26.5817V27.84C10.1224 28.5458 10.0783 29.1136 10.0194 29.1136C9.73954 29.1136 8.00171 27.9474 7.11807 27.1648C4.57024 24.9398 2.83241 21.4105 2.52313 17.8351L2.42004 16.6843H1.31549H0.210938L0.314029 18.0039C0.75585 23.6048 4.08423 28.6993 8.88535 31.1238L10.1224 31.7529V32.7657C10.1372 36.1722 11.1975 38.2438 13.5097 39.364C14.2019 39.7016 14.5259 39.7629 15.7188 39.7629C16.9118 39.7629 17.2358 39.7016 17.9279 39.364C20.2401 38.2438 21.3005 36.1722 21.3152 32.7657V31.7222L22.2872 31.2619C26.2931 29.3745 29.5184 25.3234 30.6966 20.7046C31.0353 19.4157 31.0795 18.8939 31.0942 16.761C31.0942 14.6588 31.05 14.1063 30.7555 12.9401C29.0324 6.06563 23.5538 1.18597 16.9412 0.633553L15.7188 0.526138V1.677ZM17.8396 7.78426C19.5038 8.22926 20.6378 8.90443 21.9191 10.2394C25.4242 13.8608 25.4242 19.5077 21.9191 23.1291C21.2563 23.8196 20.4316 24.4948 19.8867 24.7864L18.9589 25.2927V27.5177V29.7274H17.9279H16.897V25.4462V21.1803L17.6187 21.257C18.4729 21.3338 19.165 21.1189 19.9603 20.5205C20.6967 19.9681 21.1238 19.032 21.2563 17.7124L21.3594 16.6843H20.1518H18.9589V17.5282C18.9589 18.4796 18.6054 18.986 17.9279 18.986C17.2505 18.986 16.897 18.4796 16.897 17.5282V16.6843H15.7188H14.5407V17.5282C14.5407 18.4796 14.1872 18.986 13.5097 18.986C12.8323 18.986 12.4788 18.4796 12.4788 17.5282V16.6843H11.2859H10.0783L10.1814 17.7124C10.3139 19.032 10.741 19.9681 11.4774 20.5205C12.2726 21.1189 12.9648 21.3338 13.819 21.257L14.5407 21.1803V25.4462V29.7274H13.5097H12.4788V27.5177V25.2927L11.5657 24.7864C10.1961 24.0498 8.53189 22.2698 7.85444 20.8274C6.57316 18.0807 6.60261 15.0117 7.9428 12.3417C8.56135 11.0987 10.3581 9.22667 11.551 8.58219C13.5097 7.50805 15.763 7.23184 17.8396 7.78426ZM18.9294 33.7017C18.8852 35.2822 18.8558 35.4203 18.4434 36.0341C17.8543 36.8935 16.6761 37.5533 15.7188 37.5533C14.7616 37.5533 13.5834 36.8935 12.9943 36.0341C12.5819 35.4203 12.5525 35.2822 12.5083 33.7017L12.4494 32.0291H15.7188H18.9883L18.9294 33.7017Z" fill="#9C92C5"/>
<path d="M9.82887 1.78436C9.23977 2.06057 8.88632 2.30609 8.91577 2.42884C9.03359 3.04264 9.59323 4.25488 9.75523 4.25488C10.1234 4.25488 11.5961 3.48764 11.5814 3.3035C11.5814 3.19609 11.39 2.70505 11.1838 2.22936L10.7861 1.3547L9.82887 1.78436Z" fill="#9C92C5"/>
<path d="M4.74809 5.32907L4.01172 6.09631L4.79227 6.90959L5.55809 7.70752L6.32391 6.90959L7.10446 6.09631L6.3681 5.32907C5.97046 4.91476 5.60227 4.56182 5.55809 4.56182C5.51391 4.56182 5.14573 4.91476 4.74809 5.32907Z" fill="#9C92C5"/>
<path d="M1.56693 10.2087C0.933652 11.6972 0.904197 11.5437 1.96457 11.9887C2.48002 12.2036 2.9513 12.3877 2.99548 12.3877C3.09857 12.3877 3.79076 10.7458 3.79076 10.4849C3.79076 10.3622 3.7024 10.2394 3.61403 10.1934C3.51094 10.1473 3.06912 9.97855 2.64203 9.79441L1.86148 9.47217L1.56693 10.2087Z" fill="#9C92C5"/>
</svg>
