<svg width="13" height="13" viewBox="0 0 13 13" fill="none" xmlns="http://www.w3.org/2000/svg">
<path d="M1.5 3C2.32843 3 3 2.32843 3 1.5C3 0.671573 2.32843 0 1.5 0C0.671573 0 0 0.671573 0 1.5C0 2.32843 0.671573 3 1.5 3Z" fill="white"/>
<path d="M2.75 4H0.25C0.112 4 0 4.126 0 4.28125V12.7188C0 12.874 0.112 13 0.25 13H2.75C2.888 13 3 12.874 3 12.7188V4.28125C3 4.126 2.888 4 2.75 4Z" fill="white"/>
<path d="M10.9733 4.16468C9.77125 3.77715 8.26769 4.11756 7.366 4.72797C7.33506 4.61415 7.22481 4.52944 7.09375 4.52944H4.28125C4.126 4.52944 4 4.64803 4 4.79415V12.7353C4 12.8814 4.126 13 4.28125 13H7.09375C7.249 13 7.375 12.8814 7.375 12.7353V7.02826C7.8295 6.65979 8.41506 6.54226 8.89431 6.7339C9.35894 6.91867 9.625 7.36973 9.625 7.97061V12.7353C9.625 12.8814 9.751 13 9.90625 13H12.7188C12.874 13 13 12.8814 13 12.7353V7.43749C12.9679 5.26214 11.8806 4.45691 10.9733 4.16468Z" fill="white"/>
</svg>
