<svg width="55" height="44" viewBox="0 0 55 44" fill="none" xmlns="http://www.w3.org/2000/svg">
<path d="M50.3339 37.697C46.4769 41.8798 40.6405 44 32.9896 44H30.2405V36.2478L32.4508 35.805C36.2171 35.0515 38.837 33.5693 40.2391 31.394C40.9707 30.2221 41.3856 28.8804 41.4432 27.5H32.9896C32.2605 27.5 31.5613 27.2103 31.0457 26.6945C30.5301 26.1788 30.2405 25.4793 30.2405 24.75V5.5C30.2405 2.46675 32.7065 0 35.7388 0H52.2336C52.9627 0 53.6619 0.289729 54.1775 0.805454C54.6931 1.32118 54.9827 2.02065 54.9827 2.75V16.5L54.9745 24.5272C54.9992 24.8325 55.5215 32.065 50.3339 37.697ZM5.49827 0H21.9931C22.7222 0 23.4215 0.289729 23.937 0.805454C24.4526 1.32118 24.7422 2.02065 24.7422 2.75V16.5L24.734 24.5272C24.7587 24.8325 25.2811 32.065 20.0934 37.697C16.2364 41.8798 10.4 44 2.74914 44H2.09861e-06V36.2478L2.21031 35.805C5.97663 35.0515 8.59655 33.5693 9.99861 31.394C10.7302 30.2221 11.1451 28.8804 11.2027 27.5H2.74914C2.02002 27.5 1.32077 27.2103 0.805203 26.6945C0.28964 26.1788 2.09861e-06 25.4793 2.09861e-06 24.75V5.5C2.09861e-06 2.46675 2.46598 0 5.49827 0Z" fill="#5287E0"/>
</svg>
