<svg width="362" height="573" viewBox="0 0 362 573" fill="none" xmlns="http://www.w3.org/2000/svg">
<g style="mix-blend-mode:multiply">
<path d="M187.364 572.442C170.822 572.442 154.279 572.32 137.737 572.442C128.202 572.442 124.066 569.868 129.81 558.957C142.677 534.805 155.313 510.653 167.605 486.257C172.085 477.43 178.289 474.365 187.249 474.733C200.46 475.223 213.671 475.223 226.882 474.733C262.839 473.261 282.828 436.973 265.596 402.278C243.655 358.266 219.99 315.357 197.244 271.835C191.615 261.046 187.939 263.253 182.999 272.693C147.042 342.451 110.396 411.718 74.6685 481.598C41.3537 546.82 -22.7484 582.863 -85.0125 570.358C-175.881 552.214 -223.671 445.432 -179.098 356.794C-139.695 278.578 -97.8789 201.709 -56.9822 124.351C-37.338 87.204 -18.2681 49.6894 2.18023 13.1556C21.8244 -21.9071 51.2333 -38.7028 89.0283 -36.8638C90.4068 -36.8638 91.9003 -36.8639 93.2788 -36.6187C103.618 -35.5153 110.97 -34.2893 115.45 -32.2052C125.1 -27.6691 122.688 -18.8422 112.004 1.38629C42.7323 131.829 -26.4245 262.395 -95.6962 392.838C-103.163 406.936 -109.367 421.28 -105.231 438.321C-96.7301 473.261 -60.3136 485.766 -29.0667 464.434C-19.6467 458.059 -12.4093 449.355 -6.89518 438.812C54.9094 320.874 116.714 203.058 178.519 85.2425C179.897 82.5454 181.391 79.8482 182.654 77.1511C187.594 66.4852 191.615 65.8722 197.588 77.1511C245.723 168.976 295.005 260.188 342.565 352.504C395.064 454.504 331.077 572.32 224.01 572.565C211.718 572.565 199.426 572.565 187.134 572.565L187.364 572.442Z" fill="url(#paint0_linear_55_31)" fill-opacity="0.1"/>
</g>
<defs>
<linearGradient id="paint0_linear_55_31" x1="-195.87" y1="267.912" x2="361.52" y2="267.912" gradientUnits="userSpaceOnUse">
<stop stop-color="#190079"/>
<stop offset="0.2" stop-color="#1A0078"/>
<stop offset="0.28" stop-color="#210378"/>
<stop offset="0.33" stop-color="#2D0977"/>
<stop offset="0.37" stop-color="#3E1176"/>
<stop offset="0.41" stop-color="#541B75"/>
<stop offset="0.44" stop-color="#6F2774"/>
<stop offset="0.47" stop-color="#903672"/>
<stop offset="0.5" stop-color="#B54870"/>
<stop offset="0.52" stop-color="#DE5B6D"/>
<stop offset="0.54" stop-color="#FD696C"/>
<stop offset="0.56" stop-color="#DA5588"/>
<stop offset="0.59" stop-color="#BA44A2"/>
<stop offset="0.62" stop-color="#9F34B8"/>
<stop offset="0.65" stop-color="#8928CA"/>
<stop offset="0.69" stop-color="#781FD8"/>
<stop offset="0.74" stop-color="#6C18E1"/>
<stop offset="0.81" stop-color="#6515E7"/>
<stop offset="1" stop-color="#6414E9"/>
</linearGradient>
</defs>
</svg>
