<svg width="14" height="11" viewBox="0 0 14 11" fill="none" xmlns="http://www.w3.org/2000/svg">
<path d="M13.9205 1.33987C13.828 1.24263 13.6788 1.21818 13.5565 1.27815C13.4804 1.31542 13.3374 1.36433 13.1675 1.41266C13.3818 1.14015 13.5541 0.835031 13.6301 0.560774C13.663 0.44257 13.6149 0.317961 13.5102 0.247504C13.4055 0.17763 13.2662 0.17763 13.1615 0.247504C12.9965 0.357556 12.2003 0.688295 11.697 0.795436C10.5593 -0.157767 9.23542 -0.256755 7.85918 0.511862C6.74041 1.13666 6.49694 2.4072 6.54441 3.18164C3.98366 2.94582 2.39194 1.65198 1.49596 0.581154C1.43326 0.506039 1.33222 0.466444 1.23726 0.472267C1.13744 0.479254 1.04735 0.532242 0.996224 0.614345C0.572577 1.29853 0.4551 2.05492 0.657793 2.80199C0.768574 3.20959 0.962137 3.56886 1.18674 3.86001C1.07901 3.80935 0.97492 3.74588 0.876921 3.67018C0.786835 3.59914 0.660837 3.58575 0.554316 3.63292C0.448405 3.68125 0.38084 3.78373 0.38084 3.89611C0.38084 5.17889 1.21961 6.03485 2.00299 6.48204C1.87639 6.46748 1.7443 6.4407 1.611 6.40169C1.49657 6.3685 1.37239 6.40169 1.29326 6.48786C1.21413 6.57346 1.19526 6.69574 1.24457 6.79997C1.68465 7.73105 2.51855 8.37156 3.55028 8.60389C2.64942 9.1099 1.44361 9.35795 0.33945 9.23625C0.196408 9.21704 0.0600618 9.3038 0.0150189 9.4354C-0.030024 9.56699 0.0290188 9.7114 0.155017 9.77895C1.83013 10.6786 3.34454 11 4.65322 11C6.5578 11 8.02779 10.3199 8.92256 9.751C11.3348 8.21958 12.8382 5.47003 12.6289 3.00987C13.0154 2.73678 13.5936 2.23252 13.9521 1.69041C14.0264 1.58094 14.013 1.43653 13.9205 1.33987Z" fill="white"/>
</svg>
