<svg width="37" height="24" viewBox="0 0 37 24" fill="none" xmlns="http://www.w3.org/2000/svg">
<path fill-rule="evenodd" clip-rule="evenodd" d="M26.5498 8.35612C24.2704 5.9452 22.704 2.80568 22.704 0H24.3858C24.3858 2.23978 25.6786 4.98661 27.7719 7.20069C29.8541 9.40307 32.5833 10.9248 35.2988 10.9318C35.3051 10.9318 35.3114 10.9318 35.3176 10.9318L37 10.9318V12.6136L35.3176 12.6136L35.2994 12.6136H35.2983C32.5829 12.6208 29.854 14.1425 27.7719 16.3447C25.6786 18.5588 24.3858 21.3056 24.3858 23.5454H22.704C22.704 20.7397 24.2704 17.6002 26.5498 15.1893C27.4783 14.2072 28.5493 13.3204 29.7173 12.6136L0 12.6136V10.9318L29.7173 10.9318C28.5493 10.225 27.4783 9.3382 26.5498 8.35612Z" fill="white"/>
</svg>
