<svg width="26" height="30" viewBox="0 0 26 30" fill="none" xmlns="http://www.w3.org/2000/svg">
<path d="M24.1904 4.09317L13.0954 0.0896301C12.9298 0.0299103 12.7592 0 12.5857 0C12.4114 0 12.2383 0.0302124 12.072 0.0905365L1.01675 4.09408C0.419247 4.3108 0 4.8785 0 5.51416V15C0 17.1177 0.682599 19.2358 1.98526 21.2952C2.98378 22.8736 4.37355 24.4215 6.09434 25.8961C8.97157 28.3617 11.8264 29.7839 11.9464 29.8432C12.1575 29.9476 12.3897 30 12.6192 30C12.8453 30 13.0729 29.9492 13.2816 29.8477C13.4015 29.7893 16.2551 28.3893 19.135 25.9335C20.8575 24.4648 22.2264 22.9169 23.2257 21.333C24.5278 19.2692 25.1769 17.1385 25.1769 15V5.51416C25.177 4.87749 24.7893 4.30909 24.1904 4.09317ZM2.41699 14.9929V6.6436C2.41699 6.32577 2.61176 6.04187 2.91056 5.93351L12.3078 2.51478C12.3916 2.48447 12.4878 2.46211 12.5885 2.46211V15.0001H22.8316C22.8322 15.0001 22.8329 15.0136 22.8329 15.0223C22.8309 17.7544 21.4548 20.4621 18.7435 23.0986C16.6261 25.1576 14.2205 26.627 12.9831 27.3202C12.8684 27.3845 12.6893 27.4148 12.5886 27.4148C12.5886 27.1799 12.5886 15.1303 12.5886 14.9961L2.41699 14.9929Z" fill="#6414E9"/>
</svg>
